<svg xmlns="http://www.w3.org/2000/svg" width="16" height="16" viewBox="0 0 16 16">
  <g fill="none" fill-rule="evenodd">
    <rect width="16" height="16"/>
    <path fill="#FF00FF" fill-rule="nonzero" d="M12.8033009,12.8033009 C9.87436867,15.732233 5.12563133,15.732233 2.19669914,12.8033009 C-0.732233047,9.87436867 -0.732233047,5.12563133 2.19669914,2.19669914 C5.12563133,-0.732233047 9.87436867,-0.732233047 12.8033009,2.19669914 C15.732233,5.12563133 15.732233,9.87436867 12.8033009,12.8033009 Z M12.0961941,12.0961941 C14.634602,9.55778618 14.634602,5.44221382 12.0961941,2.90380592 C9.55778618,0.365398026 5.44221382,0.365398026 2.90380592,2.90380592 C0.365398026,5.44221382 0.365398026,9.55778618 2.90380592,12.0961941 C5.44221382,14.634602 9.55778618,14.634602 12.0961941,12.0961941 Z" transform="matrix(-1 0 0 1 15 0)"/>
    <path fill="#FF00FF" d="M5.5207714,11.5185397 L5.5207714,3.5 L10.5,7.50926987 L5.5207714,11.5185397 Z" transform="matrix(-1 0 0 1 16.02 0)"/>
    <rect width="1" height="7" x="4" y="4" fill="#FF00FF" transform="matrix(-1 0 0 1 9 0)"/>
  </g>
</svg>
