<svg xmlns="http://www.w3.org/2000/svg" width="16" height="16" viewBox="0 0 16 16">
  <g fill="none" fill-rule="evenodd">
    <rect width="16" height="16"/>
    <path fill="#FF00FF" fill-rule="nonzero" d="M14,2.00748397 L14,3.96875 L13,3.125 L13,2 L3,2 L3,13.5841554 L7.29422684,9.28582614 C7.68401459,8.89566601 8.31277239,8.89244993 8.70577316,9.28582614 L13,13.5841554 L13,11.875 L14,11.03125 L14,14.992516 C14,15.5489341 13.6774139,15.6771058 13.2881596,15.2874796 L8,9.99426798 L2.71184039,15.2874796 C2.3187018,15.6809937 2,15.5510798 2,14.992516 L2,2.00748397 C2,1.45106594 2.45576096,1 3.00247329,1 L12.9975267,1 C13.5511774,1 14,1.44892021 14,2.00748397 Z"/>
    <path fill="#25CAAB" d="M9.49538898,8 C9.2217932,8 9,7.76806641 9,7.5 L9,7.5 C9,7.22385763 9.2157526,7 9.49538898,7 L12,7 L12,4.49538898 C12,4.2217932 12.171875,4.15039062 12.3691406,4.32299805 L15.6308594,7.17700195 C15.8347301,7.35538885 15.828125,7.65039062 15.6308594,7.82299805 L12.3691406,10.677002 C12.1652699,10.8553888 12,10.7842474 12,10.504611 L12,8 L9.49538898,8 Z"/>
  </g>
</svg>
