<svg xmlns="http://www.w3.org/2000/svg" width="16" height="16" viewBox="0 0 16 16">
  <g fill="none" fill-rule="evenodd">
    <rect width="16" height="16"/>
    <path fill="#FF00FF" fill-rule="nonzero" d="M6.14584024,1 L1.99406028,1 C0.894513756,1 0,1.89805351 0,3.00585866 L0,12.9941413 C0,14.1029399 0.892771196,15 1.99406028,15 L14.0059397,15 C15.1054862,15 16,14.1019465 16,12.9941413 L16,3.00585866 C16,1.89706013 15.1072288,1 14.0059397,1 L12.8541598,1 C13.3542287,1.55872111 13.7167491,2.24313079 13.8884918,3 L14.0059397,3 C14.5540374,3 15,3.41107713 15,3.9220371 L15,13.0779629 C15,13.5877189 14.5526143,14 14.0059397,14 L1.99406028,14 C1.44596259,14 1,13.5889229 1,13.0779629 L1,3.9220371 C1,3.41228114 1.44738566,3 1.99406028,3 L5.11150821,3 C5.28325095,2.24313079 5.6457713,1.55872111 6.14584024,1 L6.14584024,1 Z"/>
    <path fill="#FF00FF" fill-rule="nonzero" d="M10.5,6 C11.8807119,6 13,4.88071187 13,3.5 C13,2.11928813 11.8807119,1 10.5,1 C9.11928813,1 8,2.11928813 8,3.5 C8,4.88071187 9.11928813,6 10.5,6 Z M7,3.5 C7,1.56700338 8.56700338,0 10.5,0 C12.4329966,0 14,1.56700338 14,3.5 C14,5.26323595 12.6961471,6.72194074 11,6.96455557 L11,10 L10,10 L10,6.96455557 C8.30385293,6.72194074 7,5.26323595 7,3.5 Z" transform="rotate(-45 10.5 5)"/>
    <polygon fill="#FF00FF" points="4 13 5 13 5 8 3 8 3 9 4 9"/>
    <polygon fill="#FF00FF" points="10 13 11 13 11 8 9 8 9 9 10 9"/>
    <rect width="1" height="1" x="7" y="9" fill="#FF00FF"/>
    <rect width="1" height="1" x="7" y="11" fill="#FF00FF"/>
  </g>
</svg>
