<svg xmlns="http://www.w3.org/2000/svg" width="16" height="16" viewBox="0 0 16 16">
  <g fill="none" fill-rule="evenodd">
    <rect width="16" height="16"/>
    <path fill="#FF00FF" fill-rule="nonzero" d="M13.6568542,13.6568542 C10.5326599,16.7810486 5.46734008,16.7810486 2.34314575,13.6568542 C-0.781048583,10.5326599 -0.781048583,5.46734008 2.34314575,2.34314575 C5.46734008,-0.781048583 10.5326599,-0.781048583 13.6568542,2.34314575 C16.7810486,5.46734008 16.7810486,10.5326599 13.6568542,13.6568542 Z M4.2888499,9.49519403 C3.9037167,8.53800362 3.9037167,7.46199638 4.2888499,6.50480597 L1.53285009,5.31641288 C0.822383303,7.03045789 0.822383303,8.96954211 1.53285009,10.6835871 L4.2888499,9.49519403 Z M6.78909991,4.18681842 C7.70933624,3.89543334 8.71414268,3.94490838 9.60566024,4.33524352 L10.7938662,1.57967771 C9.14558089,0.862944649 7.2777146,0.810856277 5.59751333,1.42341259 L6.78909991,4.18681842 L6.78909991,4.18681842 Z M11.775158,6.67502451 C12.0749473,7.53114178 12.0749473,8.46885822 11.775158,9.32497549 L14.5345328,10.5148239 C15.1551557,8.89951855 15.1551557,7.10048145 14.5345328,5.48517615 L11.775158,6.67502451 L11.775158,6.67502451 Z M9.60566024,11.6647565 C8.71414268,12.0550916 7.70933624,12.1045667 6.78909991,11.8131816 L5.59751333,14.5765874 C7.2777146,15.1891437 9.14558089,15.1370554 10.7938662,14.4203223 L9.60566024,11.6647565 Z M10.1213203,10.1213203 C11.2928932,8.94974747 11.2928932,7.05025253 10.1213203,5.87867966 C8.94974747,4.70710678 7.05025253,4.70710678 5.87867966,5.87867966 C4.70710678,7.05025253 4.70710678,8.94974747 5.87867966,10.1213203 C7.05025253,11.2928932 8.94974747,11.2928932 10.1213203,10.1213203 Z"/>
  </g>
</svg>
