<svg xmlns="http://www.w3.org/2000/svg" width="16" height="16" viewBox="0 0 16 16">
  <g fill="none" fill-rule="evenodd">
    <rect width="16" height="16"/>
    <path fill="#F25335" fill-rule="nonzero" d="M12.8033009,12.8033009 C9.87436867,15.732233 5.12563133,15.732233 2.19669914,12.8033009 C-0.732233047,9.87436867 -0.732233047,5.12563133 2.19669914,2.19669914 C5.12563133,-0.732233047 9.87436867,-0.732233047 12.8033009,2.19669914 C15.732233,5.12563133 15.732233,9.87436867 12.8033009,12.8033009 Z M12.0961941,12.0961941 C14.634602,9.55778618 14.634602,5.44221382 12.0961941,2.90380592 C9.55778618,0.365398026 5.44221382,0.365398026 2.90380592,2.90380592 C0.365398026,5.44221382 0.365398026,9.55778618 2.90380592,12.0961941 C5.44221382,14.634602 9.55778618,14.634602 12.0961941,12.0961941 Z M7.5,6.79289322 L9.98160644,4.31128678 C10.1763586,4.11653462 10.4867184,4.12275734 10.6819805,4.31801948 C10.8715321,4.50757106 10.880257,4.82684978 10.6887132,5.01839356 L8.20710678,7.5 L10.6887132,9.98160644 C10.8834654,10.1763586 10.8772427,10.4867184 10.6819805,10.6819805 C10.4924289,10.8715321 10.1731502,10.880257 9.98160644,10.6887132 L7.5,8.20710678 L5.01839356,10.6887132 C4.8236414,10.8834654 4.51328163,10.8772427 4.31801948,10.6819805 C4.12846791,10.4924289 4.119743,10.1731502 4.31128678,9.98160644 L6.79289322,7.5 L4.31128678,5.01839356 C4.11653462,4.8236414 4.12275734,4.51328163 4.31801948,4.31801948 C4.50757106,4.12846791 4.82684978,4.119743 5.01839356,4.31128678 L7.5,6.79289322 Z"/>
  </g>
</svg>
