<svg xmlns="http://www.w3.org/2000/svg" width="16" height="16" viewBox="0 0 16 16">
  <g fill="none" fill-rule="evenodd">
    <rect width="16" height="16"/>
    <path fill="#FF00FF" fill-rule="nonzero" d="M11,14 L13,14 L13,9 L14,7.94805463 L14,15 L0,15 L0,1 L10.0326575,1 L12.082529,3.05632066 L11.3560999,3.73242581 L9.61752362,2 L9,2 L9,6 L3,6 L3,2 L1,2 L1,14 L3,14 L3,9 L6.39990234,9 L5.95892334,9.49453735 L5.84240723,10 L4,10 L4,14 L10,14 L10,12.1134745 L11,11.0367737 L11,14 Z M4,2 L4,5 L8,5 L8,2 L4,2 Z"/>
    <path fill="#FF00FF" d="M11.8085809,4.62132034 L13.9299012,6.74264069 L8.98015373,11.6923882 L6.5,12.0406616 L6.85883339,9.57106781 L11.8085809,4.62132034 Z M13.9299012,2.5 L16.0512215,4.62132034 L14.637008,6.03553391 L12.5156876,3.91421356 L13.9299012,2.5 Z"/>
  </g>
</svg>
