<svg xmlns="http://www.w3.org/2000/svg" width="16" height="16" viewBox="0 0 16 16">
  <g fill="none" fill-rule="evenodd">
    <rect width="16" height="16"/>
    <path fill="#FF00FF" fill-rule="nonzero" d="M0,3.00585866 C0,1.89805351 0.894513756,1 1.99406028,1 L14.0059397,1 C15.1072288,1 16,1.89706013 16,3.00585866 L16,12.9941413 C16,14.1019465 15.1054862,15 14.0059397,15 L1.99406028,15 C0.892771196,15 0,14.1029399 0,12.9941413 L0,3.00585866 Z M1,3.9220371 L1,13.0779629 C1,13.5889229 1.44596259,14 1.99406028,14 L14.0059397,14 C14.5526143,14 15,13.5877189 15,13.0779629 L15,3.9220371 C15,3.41107713 14.5540374,3 14.0059397,3 L1.99406028,3 C1.44738566,3 1,3.41228114 1,3.9220371 Z"/>
    <rect width="2" height="13" x="7" y="2" fill="#FF00FF"/>
  </g>
</svg>
