<svg xmlns="http://www.w3.org/2000/svg" width="16" height="16" viewBox="0 0 16 16">
  <g fill="none" fill-rule="evenodd">
    <rect width="16" height="16"/>
    <path fill="#FF00FF" fill-rule="nonzero" d="M14,6.32487122 L15,5.4463354 L15,12.9914698 C15,14.1007504 14.1029399,15 12.9941413,15 L3.00585866,15 C1.89805351,15 1,14.0980496 1,12.9914698 L1,5.0085302 C1,3.8992496 1.89706013,3 3.00585866,3 L5.47006491,3 L4.43463298,4 L3.00585866,4 C2.45006285,4 2,4.45081649 2,5.0085302 L2,12.9914698 C2,13.5472028 2.45177533,14 3.00585866,14 L12.9941413,14 C13.5499371,14 14,13.5491835 14,12.9914698 L14,6.32487122 Z M11,4.49948673 L11,4.49948673 C10.7880482,4.49227783 10.5334082,4.48788858 10.2275389,4.48788858 C6.97560263,4.48788858 4.49227638,6.30491752 4.21783447,9.48571777 C4.08073425,9.59077454 4,9.54749145 4,9.34921916 C4,5.40742334 7.10329338,2.19044053 11,2.00815088 L11,0 L15.5990747,3.27650752 L11,7 L11,4.49948673 Z"/>
  </g>
</svg>
