<svg xmlns="http://www.w3.org/2000/svg" width="16" height="16" viewBox="0 0 16 16">
  <g fill="none" fill-rule="evenodd">
    <rect width="16" height="16"/>
    <path fill="#FF00FF" fill-rule="nonzero" d="M1.32111468,15.7343028 C1.49917308,15.8992248 1.73719692,16 1.99850233,16 L13.0014977,16 C13.5529553,16 14,15.555163 14,15.0044225 L14,5 L9,0 L1.99703014,9.71857298e-17 C1.4463856,1.04827458e-16 1,0.444630861 1,1.00087166 L1,11.5525594 C1.06368825,11.4133459 1.12894121,11.2754688 1.1957513,11.1392642 C1.45267014,10.6154881 1.71954739,10.1403696 2,9.72006881 L2,1 L8.58578644,1 L13,5.41421356 L13,15 L2,15 L2,14.8427451 C1.87567536,14.984255 1.79136875,15.0900814 1.75111844,15.1452221 L1.32111468,15.7343028 L1.32111468,15.7343028 Z"/>
    <path fill="#FF00FF" d="M13.4972984,6 L9.00828926,6 C8.45142648,6 8,5.55878216 8,4.99474203 L8,0.377121613 L9,0.377121613 L9,5 L13.4972984,5 L13.4972984,6 Z"/>
    <path fill="#FF00FF" fill-rule="nonzero" d="M7,11.7603684 L7,14 L12,10 L7,6 L7,8.00569493 C6.2771693,8.05877254 5.26300872,8.2566984 4.21438987,8.85780102 C2.23169835,9.99434466 0.943415,14.5556331 0.943415,14.5556331 C0.943415,14.5556331 2.25094778,12.7643874 4.21438987,12.021102 C5.25606559,11.6267627 6.2739041,11.6508453 7,11.7603684 L7,11.7603684 Z"/>
  </g>
</svg>
