<svg xmlns="http://www.w3.org/2000/svg" width="16" height="16" viewBox="0 0 16 16">
  <g fill="none" fill-rule="evenodd">
    <rect width="16" height="16"/>
    <path fill="#8EA6BB" fill-rule="nonzero" d="M13.9224129,7.89001005 C14.1606565,7.30692509 14.2919655,6.66879697 14.2919655,6 C14.2919655,3.23857625 12.0533892,1 9.29196549,1 C6.53054174,1 4.29196549,3.23857625 4.29196549,6 C4.29196549,8.54242112 6.18954838,10.641638 8.64567918,10.9586157 L9.71587781,11.9852567 C9.57584348,11.995031 9.43448477,12 9.29196549,12 C7.97679422,12 6.76045376,11.5768551 5.7716605,10.8592816 C5.72357231,10.9561773 5.6590361,11.0471429 5.57814236,11.1280367 L1.7128954,14.9932837 C1.31431604,15.391863 0.682489777,15.3905243 0.291965485,15 C-0.10128147,14.606753 -0.0955517946,13.9733037 0.298681834,13.5790701 L4.16392879,9.71382313 C4.24509812,9.6326538 4.33594066,9.56806984 4.43244853,9.51998063 C3.7150179,8.53124573 3.29196549,7.31502746 3.29196549,6 C3.29196549,2.6862915 5.97825699,0 9.29196549,0 C12.605674,0 15.2919655,2.6862915 15.2919655,6 C15.2919655,6.80904699 15.1318357,7.58069368 14.8415408,8.28497548 L13.9224129,7.89001005 L13.9224129,7.89001005 Z"/>
    <path fill="#8EA6BB" d="M11.2833847,12.2797952 L9.14843459,14.4147454 C8.95226783,14.6109121 8.95341368,14.9318769 9.15208545,15.1305487 L9.42904185,15.407505 C9.63307977,15.611543 9.94818966,15.6078114 10.1448451,15.4111559 L12.2797952,13.2762058 L14.4147454,15.4111559 C14.6109121,15.6073227 14.9318769,15.6061768 15.1305487,15.407505 L15.407505,15.1305487 C15.611543,14.9265107 15.6078114,14.6114008 15.4111559,14.4147454 L13.2762058,12.2797952 L15.4111559,10.1448451 C15.6073227,9.94867836 15.6061768,9.62771362 15.407505,9.42904185 L15.1305487,9.15208545 C14.9265107,8.94804753 14.6114008,8.95177913 14.4147454,9.14843459 L12.2797952,11.2833847 L10.1448451,9.14843459 C9.94867836,8.95226783 9.62771362,8.95341368 9.42904185,9.15208545 L9.15208545,9.42904185 C8.94804753,9.63307977 8.95177913,9.94818966 9.14843459,10.1448451 L11.2833847,12.2797952 L11.2833847,12.2797952 Z"/>
  </g>
</svg>
