<svg xmlns="http://www.w3.org/2000/svg" width="16" height="16" viewBox="0 0 16 16">
  <g fill="none" fill-rule="evenodd">
    <rect width="16" height="16"/>
    <path fill="#FF00FF" fill-rule="nonzero" d="M7.41530801,13.9983154 C7.57140695,14.3559481 7.76812557,14.6917864 7.99963381,15 L1.00748397,15 C0.448920205,15 0,14.5492199 0,13.9931545 L0,2.00684547 C0,1.44994876 0.443586406,1 0.990777969,1 L5.50899482,1 C5.77211952,1 6.12450577,1.18675866 6.27809143,1.41713715 L7.72190857,3.58286285 C7.88088036,3.82132053 8.22539004,4 8.50342274,4 L13.9970707,4 C14.5621186,4 15,4.44573523 15,4.9955775 L15,7.99963381 C14.6921689,7.7684129 14.3567817,7.5718953 13.9996469,7.41588941 C13.9999705,6.04132778 14,4.99968138 14,4.99968138 C13.9992809,4.99988109 8.50342274,5 8.50342274,5 C7.88937714,5 7.23342583,4.65291438 6.88985827,4.13756305 L5.44604114,1.97183734 C5.46296766,2.0047683 5.46302492,2.00507076 5.46751244,2.0040443 C5.47260781,2.0028788 5.48341491,2 5.50899482,2 L0.996272733,2 C0.99953935,2.0001892 1,13.9931545 1,13.9931545 C1,13.9954899 4.19438527,13.9971924 7.41530801,13.9983154 L7.41530801,13.9983154 Z"/>
    <path fill="#25CAAB" d="M12,16 C9.790861,16 8,14.209139 8,12 C8,9.790861 9.790861,8 12,8 C14.209139,8 16,9.790861 16,12 C16,14.209139 14.209139,16 12,16 Z M11.6610042,14.3538011 L14.9893073,11.0254206 C15.194721,10.8200022 15.1995777,10.5030092 15.0159869,10.3015649 L14.6989456,9.95369274 C14.5199441,9.7572841 14.2091302,9.74563014 14.014974,9.93891034 L11.653455,12.2897739 C11.4666713,12.4757148 11.1424114,12.4802562 10.9456673,12.2835247 L10.1865267,11.5244326 C9.9877785,11.3256971 9.67158298,11.329176 9.47580791,11.527727 L9.20288964,11.8045149 C9.00182666,12.0084288 9.00114475,12.3226988 9.18955568,12.5184349 L10.9607558,14.3584979 C11.1409232,14.5456701 11.4626786,14.5521313 11.6610042,14.3538011 Z"/>
  </g>
</svg>
