<svg xmlns="http://www.w3.org/2000/svg" width="16" height="16" viewBox="0 0 16 16">
  <g fill="none" fill-rule="evenodd">
    <rect width="16" height="16"/>
    <path fill="#FF00FF" fill-rule="nonzero" d="M13.6568542,13.6568542 C10.5326599,16.7810486 5.46734008,16.7810486 2.34314575,13.6568542 C-0.781048583,10.5326599 -0.781048583,5.46734008 2.34314575,2.34314575 C5.46734008,-0.781048583 10.5326599,-0.781048583 13.6568542,2.34314575 C16.7810486,5.46734008 16.7810486,10.5326599 13.6568542,13.6568542 Z M4.77910006,10.3728037 L1.98210215,11.5788752 C2.27336654,12.067823 2.62941667,12.5289116 3.05025253,12.9497475 C3.54604333,13.4455383 4.09770256,13.8514102 4.6849651,14.1673633 L5.88099351,11.3936564 C5.62898986,11.2359935 5.39072953,11.0475838 5.17157288,10.8284271 C5.02745181,10.6843061 4.89662754,10.5319234 4.77910006,10.3728037 L4.77910006,10.3728037 Z M4.2888499,9.49519403 C3.9037167,8.53800362 3.9037167,7.46199638 4.2888499,6.50480597 L1.53285009,5.31641288 C0.822383303,7.03045789 0.822383303,8.96954211 1.53285009,10.6835871 L4.2888499,9.49519403 Z M4.77910006,5.62719633 C4.89662754,5.46807657 5.02745181,5.31569394 5.17157288,5.17157288 C5.39072953,4.95241622 5.62898986,4.76400646 5.88099351,4.6063436 L4.6849651,1.83263674 C4.09770256,2.1485898 3.54604333,2.55446173 3.05025253,3.05025253 C2.62941667,3.47108839 2.27336654,3.93217695 1.98210215,4.42112477 L4.77910006,5.62719633 L4.77910006,5.62719633 Z M6.78909991,4.18681842 C7.70933624,3.89543334 8.71414268,3.94490838 9.60566024,4.33524352 L10.7938662,1.57967771 C9.14558089,0.862944649 7.2777146,0.810856277 5.59751333,1.42341259 L6.78909991,4.18681842 L6.78909991,4.18681842 Z M10.4709833,4.85398745 C10.5948139,4.95149864 10.7142147,5.05736045 10.8284271,5.17157288 C11.0177884,5.36093417 11.1841949,5.56455779 11.3276465,5.77898589 L14.1094253,4.57947682 C13.8023019,4.03159802 13.4157426,3.51624771 12.9497475,3.05025253 C12.5586944,2.65919948 12.1328845,2.3240868 11.6822617,2.04491447 L10.4709833,4.85398745 L10.4709833,4.85398745 Z M11.775158,6.67502451 C12.0749473,7.53114178 12.0749473,8.46885822 11.775158,9.32497549 L14.5345328,10.5148239 C15.1551557,8.89951855 15.1551557,7.10048145 14.5345328,5.48517615 L11.775158,6.67502451 L11.775158,6.67502451 Z M11.3276465,10.2210141 C11.1841949,10.4354422 11.0177884,10.6390658 10.8284271,10.8284271 C10.7142147,10.9426396 10.5948139,11.0485014 10.4709833,11.1460126 L11.6822617,13.9550855 C12.1328845,13.6759132 12.5586944,13.3408005 12.9497475,12.9497475 C13.4157426,12.4837523 13.8023019,11.968402 14.1094253,11.4205232 L11.3276465,10.2210141 Z M9.60566024,11.6647565 C8.71414268,12.0550916 7.70933624,12.1045667 6.78909991,11.8131816 L5.59751333,14.5765874 C7.2777146,15.1891437 9.14558089,15.1370554 10.7938662,14.4203223 L9.60566024,11.6647565 Z M10.1213203,10.1213203 C11.2928932,8.94974747 11.2928932,7.05025253 10.1213203,5.87867966 C8.94974747,4.70710678 7.05025253,4.70710678 5.87867966,5.87867966 C4.70710678,7.05025253 4.70710678,8.94974747 5.87867966,10.1213203 C7.05025253,11.2928932 8.94974747,11.2928932 10.1213203,10.1213203 Z"/>
  </g>
</svg>
