<svg xmlns="http://www.w3.org/2000/svg" width="16" height="16" viewBox="0 0 16 16">
  <g fill="none" fill-rule="evenodd">
    <rect width="16" height="16"/>
    <path fill="#8EA6BB" fill-rule="nonzero" d="M7.49538898,8 C7.2217932,8 7,7.76806641 7,7.5 L7,7.5 C7,7.22385763 7.2157526,7 7.49538898,7 L10,7 L10,4.49538898 C10,4.2217932 10.171875,4.15039062 10.3691406,4.32299805 L13.6308594,7.17700195 C13.8347301,7.35538885 13.828125,7.65039062 13.6308594,7.82299805 L10.3691406,10.677002 C10.1652699,10.8553888 10,10.7842474 10,10.504611 L10,8 L7.49538898,8 Z M12,2.00748397 L12,3.96875 L11,3.125 L11,2 L1,2 L1,13.5841554 L5.29422684,9.28582614 C5.68401459,8.89566601 6.31277239,8.89244993 6.70577316,9.28582614 L11,13.5841554 L11,11.875 L12,11.03125 L12,14.992516 C12,15.5489341 11.6774139,15.6771058 11.2881596,15.2874796 L6,9.99426798 L0.711840391,15.2874796 C0.318701799,15.6809937 0,15.5510798 0,14.992516 L0,2.00748397 C0,1.45106594 0.455760956,1 1.00247329,1 L10.9975267,1 C11.5511774,1 12,1.44892021 12,2.00748397 Z" transform="matrix(-1 0 0 1 13.781 0)"/>
  </g>
</svg>
