<svg xmlns="http://www.w3.org/2000/svg" width="16" height="16" viewBox="0 0 16 16">
  <g fill="none" fill-rule="evenodd">
    <rect width="16" height="16"/>
    <path fill="#25CAAB" fill-rule="nonzero" d="M12.8033009,12.8033009 C9.87436867,15.732233 5.12563133,15.732233 2.19669914,12.8033009 C-0.732233047,9.87436867 -0.732233047,5.12563133 2.19669914,2.19669914 C5.12563133,-0.732233047 9.87436867,-0.732233047 12.8033009,2.19669914 C15.732233,5.12563133 15.732233,9.87436867 12.8033009,12.8033009 Z M12.0961941,12.0961941 C14.634602,9.55778618 14.634602,5.44221382 12.0961941,2.90380592 C9.55778618,0.365398026 5.44221382,0.365398026 2.90380592,2.90380592 C0.365398026,5.44221382 0.365398026,9.55778618 2.90380592,12.0961941 C5.44221382,14.634602 9.55778618,14.634602 12.0961941,12.0961941 Z M6.81362512,10.7638298 C6.61473154,10.9627265 6.29613291,10.962254 6.10973625,10.7707088 L3.3437602,7.92833292 C3.15390668,7.73323541 3.15341914,7.41948317 3.35448212,7.21556935 L3.6274004,6.9387814 C3.82317547,6.74023046 4.14405202,6.74143645 4.33600454,6.93338167 L6.09937443,8.69668451 C6.29495062,8.89225326 6.61062416,8.89409434 6.80160836,8.70363159 L11.1700056,4.34716146 C11.3622625,4.15542948 11.6715366,4.16833852 11.8505381,4.36474716 L12.1675794,4.71261936 C12.3511702,4.91406366 12.3382706,5.2390984 12.1398713,5.4375008 L6.81362512,10.7638298 Z"/>
  </g>
</svg>
