<svg xmlns="http://www.w3.org/2000/svg" width="16" height="16" viewBox="0 0 16 16">
  <g fill="#FF00FF">
    <path d="M2,5.00585866 C2,3.89805351 2.89451376,3 3.99406028,3 L14.0059397,3 C15.1072288,3 16,3.89706013 16,5.00585866 L16,13.9941413 C16,15.1019465 15.1054862,16 14.0059397,16 L3.99406028,16 C2.8927712,16 2,15.1029399 2,13.9941413 L2,5.00585866 Z M3,5.9220371 L3,14.0779629 C3,14.5889229 3.44596259,15 3.99406028,15 L14.0059397,15 C14.5526143,15 15,14.5877189 15,14.0779629 L15,5.9220371 C15,5.41107713 14.5540374,5 14.0059397,5 L3.99406028,5 C3.44738566,5 3,5.41228114 3,5.9220371 Z"/>
    <path d="M1,10.9365329 L1,3.12693424 C1,2.50389917 1.52194994,2 2.15973699,2 L13.7317972,2 L13.7317972,2 C13.3866641,1.40181623 12.7430022,1 12.0059397,1 L1.99406028,1 C0.894513756,1 0,1.89805351 0,3.00585866 L0,10.9941413 C0,11.7384916 0.402336613,12.3874197 1,12.7335927 L1,10.9365329 Z M4,13 L7.08283836,13 L4,13 L4,13 Z"/>
  </g>
</svg>
