<svg xmlns="http://www.w3.org/2000/svg" width="16" height="16" viewBox="0 0 16 16">
  <g fill="none" fill-rule="evenodd">
    <rect width="16" height="16"/>
    <path fill="#FF00FF" fill-rule="nonzero" d="M10.859517,9.51998063 C10.9560248,9.56806984 11.0468674,9.6326538 11.1280367,9.71382313 L14.9932837,13.5790701 C15.3875173,13.9733037 15.393247,14.606753 15,15 C14.6094757,15.3905243 13.9776494,15.391863 13.5790701,14.9932837 L9.71382313,11.1280367 C9.63292938,11.0471429 9.56839318,10.9561773 9.52030499,10.8592816 C8.53151172,11.5768551 7.31517126,12 6,12 C2.6862915,12 0,9.3137085 0,6 C0,2.6862915 2.6862915,0 6,0 C9.3137085,0 12,2.6862915 12,6 C12,7.31502746 11.5769476,8.53124573 10.859517,9.51998063 Z M6,11 C8.76142375,11 11,8.76142375 11,6 C11,3.23857625 8.76142375,1 6,1 C3.23857625,1 1,3.23857625 1,6 C1,8.76142375 3.23857625,11 6,11 Z"/>
  </g>
</svg>
