<svg xmlns="http://www.w3.org/2000/svg" width="48" height="48" viewBox="0 0 48 48">
  <g fill="none" fill-rule="evenodd">
    <rect width="48" height="48"/>
    <path fill="#FF00FF" fill-rule="nonzero" d="M33,43 L40,43 L40,32.7799353 L42,30.9525294 L42,45 L0,45 L0,3 L30.0979726,3 L39.8382842,12.770956 L36.6475653,12.770956 L28.8525709,5 L27,5 L27,18 L10,18 L10,5 L2,5 L2,43 L10,43 L10,27 L23.5309746,27 C22.7191667,27.4504059 21.5517244,28.2235648 20.7591232,28.4186098 C18.972589,28.8582438 14.0158464,28.7967166 13.6115105,28.897881 C13.2071747,28.9990454 12,29 12,29 L12,43 L31,43 L31,35.7443392 L33,35.1482546 L33,43 Z M12,5 L12,16 L25,16 L25,5 L12,5 Z"/>
    <path fill="#25CAAB" d="M29.1226518,15 L48.0287357,15 L48.0287357,34.5643472 L41.8348366,28.1638527 C34.8178714,34.2749713 24.8143756,35.3434418 16.013688,31.6431302 C14.9081515,30.9095608 14.3280536,30.3413589 16.2987072,30.2530483 C22.3533313,31.3707836 28.6878951,28.2222658 33.66902,23.4120495 C34.4019339,22.7042827 35.0009161,22.1034835 35.4904297,21.5940271 L29.1226518,15 Z"/>
  </g>
</svg>
