<svg xmlns="http://www.w3.org/2000/svg" width="16" height="16" viewBox="0 0 16 16">
  <g fill="none" fill-rule="evenodd">
    <rect width="16" height="16"/>
    <path fill="#FF00FF" fill-rule="nonzero" d="M14,11.5525594 L14,5 L9,0 L1.99703014,9.71857298e-17 C1.4463856,1.04827458e-16 1,0.444630861 1,1.00087166 L1,14.9991283 C1,15.5518945 1.44748943,16 1.99850233,16 L13.0014977,16 C13.2633313,16 13.5016263,15.899717 13.679708,15.7354298 L13.2488816,15.1452221 C13.2086312,15.0900814 13.1243246,14.984255 13,14.8427451 L13,15 L2,15 L2,1 L8.58578644,1 L13,5.41421356 L13,9.72006881 C13.2804526,10.1403696 13.5473299,10.6154881 13.8042487,11.1392642 C13.8710588,11.2754688 13.9363117,11.4133459 14,11.5525594 L14,11.5525594 Z"/>
    <path fill="#FF00FF" d="M13.4972984,6 L9.00828926,6 C8.45142648,6 8,5.55878216 8,4.99474203 L8,0.377121613 L9,0.377121613 L9,5 L13.4972984,5 L13.4972984,6 Z"/>
    <path fill="#FF00FF" fill-rule="nonzero" d="M9.056585,11.7603684 L9.056585,14 L14.056585,10 L9.056585,6 L9.056585,8.00569493 C8.3337543,8.05877254 7.31959372,8.2566984 6.27097487,8.85780102 C4.28828335,9.99434466 3,14.5556331 3,14.5556331 C3,14.5556331 4.30753278,12.7643874 6.27097487,12.021102 C7.31265059,11.6267627 8.3304891,11.6508453 9.056585,11.7603684 L9.056585,11.7603684 Z" transform="matrix(-1 0 0 1 17.057 0)"/>
  </g>
</svg>
