<svg xmlns="http://www.w3.org/2000/svg" width="16" height="16" viewBox="0 0 16 16">
  <g fill="none" fill-rule="evenodd">
    <rect width="16" height="16"/>
    <path fill="#FF00FF" fill-rule="nonzero" d="M14.3666295,8.43752814 L15.1988714,8.99729373 C15.7084141,8.11538549 16,7.09174452 16,6 C16,2.6862915 13.3137085,0 10,0 C6.6862915,0 4,2.6862915 4,6 C4,7.31502746 4.42305241,8.53124573 5.14048305,9.51998063 C5.04397517,9.56806984 4.95313264,9.6326538 4.87196331,9.71382313 L1.00671635,13.5790701 C0.61248272,13.9733037 0.606753045,14.606753 1,15 C1.39052429,15.3905243 2.02235056,15.391863 2.42092991,14.9932837 L6.28617687,11.1280367 C6.36707062,11.0471429 6.43160682,10.9561773 6.47969501,10.8592816 C7.11763273,11.322237 7.85028507,11.662639 8.6430858,11.8459213 L8.96746342,10.8932641 C6.70145319,10.4175025 5,8.4074491 5,6 C5,3.23857625 7.23857625,1 10,1 C12.7614237,1 15,3.23857625 15,6 C15,6.88504663 14.7700475,7.71638499 14.3666295,8.43752814 L14.3666295,8.43752814 Z" transform="matrix(-1 0 0 1 16.708 0)"/>
    <path fill="#25CAAB" d="M0.495388985,13 C0.221793203,13 0,12.7680664 0,12.5 L0,12.5 C0,12.2238576 0.215752602,12 0.495388985,12 L3,12 L3,9.49538898 C3,9.2217932 3.171875,9.15039062 3.36914062,9.32299805 L6.63085938,12.177002 C6.83473011,12.3553888 6.828125,12.6503906 6.63085938,12.822998 L3.36914062,15.677002 C3.16526989,15.8553888 3,15.7842474 3,15.504611 L3,13 L0.495388985,13 Z" transform="matrix(-1 0 0 1 7 0)"/>
  </g>
</svg>
