<svg xmlns="http://www.w3.org/2000/svg" width="16" height="16" viewBox="0 0 16 16">
  <g fill="none" fill-rule="evenodd">
    <rect width="16" height="16"/>
    <path fill="#FF00FF" fill-rule="nonzero" d="M11,14 L13,14 L13,10.9266451 L14,10.3175098 L14,15 L0,15 L0,1 L10.0326575,1 L13.2794281,4.25698534 L11.8825218,4.25698534 L9.61752362,2 L9,2 L9,6 L3,6 L3,2 L1,2 L1,14 L3,14 L3,9 L7.8436582,9 C7.57305558,9.15013528 7.18390815,9.40785493 6.91970772,9.47286993 C6.32419634,9.61941461 5.64810554,9.58724349 5.01911855,9.69696441 C4.84665009,9.72704993 4.67194879,9.93223887 4.53717017,9.96596033 C4.40239155,9.99968179 4,10 4,10 L4,14 L10,14 L10,11.9147797 L11,11.7160849 L11,14 Z M4,2 L4,5 L8,5 L8,2 L4,2 Z"/>
    <path fill="#25CAAB" d="M9.7075506,5 L16.0095786,5 L16.0095786,11.5214491 L13.9449455,9.3879509 C11.6059571,11.4249904 8.27145853,11.7811473 5.337896,10.5477101 C4.96938384,10.3031869 4.77601786,10.1137863 5.43290239,10.0843494 C7.45111043,10.4569279 9.56263171,9.40742195 11.2230067,7.8040165 C11.4673113,7.56809425 11.666972,7.36782783 11.8301432,7.19800903 L9.7075506,5 Z"/>
  </g>
</svg>
