<svg xmlns="http://www.w3.org/2000/svg" width="16" height="16" viewBox="0 0 16 16">
  <g fill="none" fill-rule="evenodd">
    <rect width="16" height="16"/>
    <path fill="#8EA6BB" fill-rule="nonzero" d="M13.658595,8.43752814 L14.4908369,8.99729373 C15.0003795,8.11538549 15.2919655,7.09174452 15.2919655,6 C15.2919655,2.6862915 12.605674,0 9.29196549,0 C5.97825699,0 3.29196549,2.6862915 3.29196549,6 C3.29196549,7.31502746 3.7150179,8.53124573 4.43244853,9.51998063 C4.33594066,9.56806984 4.24509812,9.6326538 4.16392879,9.71382313 L0.298681834,13.5790701 C-0.0955517946,13.9733037 -0.10128147,14.606753 0.291965485,15 C0.682489777,15.3905243 1.31431604,15.391863 1.7128954,14.9932837 L5.57814236,11.1280367 C5.6590361,11.0471429 5.72357231,10.9561773 5.7716605,10.8592816 C6.40959821,11.322237 7.14225056,11.662639 7.93505128,11.8459213 L8.2594289,10.8932641 C5.99341868,10.4175025 4.29196549,8.4074491 4.29196549,6 C4.29196549,3.23857625 6.53054174,1 9.29196549,1 C12.0533892,1 14.2919655,3.23857625 14.2919655,6 C14.2919655,6.88504663 14.062013,7.71638499 13.658595,8.43752814 L13.658595,8.43752814 Z"/>
    <path fill="#8EA6BB" d="M9.49538898,13 C9.2217932,13 9,12.7680664 9,12.5 L9,12.5 C9,12.2238576 9.2157526,12 9.49538898,12 L12,12 L12,9.49538898 C12,9.2217932 12.171875,9.15039062 12.3691406,9.32299805 L15.6308594,12.177002 C15.8347301,12.3553888 15.828125,12.6503906 15.6308594,12.822998 L12.3691406,15.677002 C12.1652699,15.8553888 12,15.7842474 12,15.504611 L12,13 L9.49538898,13 Z"/>
  </g>
</svg>
