<svg xmlns="http://www.w3.org/2000/svg" width="16" height="16" viewBox="0 0 16 16">
  <g fill="none" fill-rule="evenodd">
    <rect width="16" height="16"/>
    <path fill="#FF00FF" fill-rule="nonzero" d="M0,3.00585866 C0,1.89805351 0.894513756,1 1.99406028,1 L14.0059397,1 C15.1072288,1 16,1.89706013 16,3.00585866 L16,12.9941413 C16,14.1019465 15.1054862,15 14.0059397,15 L1.99406028,15 C0.892771196,15 0,14.1029399 0,12.9941413 L0,3.00585866 Z M1,3.9220371 L1,13.0779629 C1,13.5889229 1.44596259,14 1.99406028,14 L14.0059397,14 C14.5526143,14 15,13.5877189 15,13.0779629 L15,3.9220371 C15,3.41107713 14.5540374,3 14.0059397,3 L1.99406028,3 C1.44738566,3 1,3.41228114 1,3.9220371 Z"/>
    <path fill="#FF00FF" d="M2,6.5 C2,6.22385763 2.23193359,6 2.5,6 C2.77614237,6 3,6.23193359 3,6.5 C3,6.77614237 2.76806641,7 2.5,7 C2.22385763,7 2,6.76806641 2,6.5 Z M4,6.5 C4,6.22385763 4.23193359,6 4.5,6 C4.77614237,6 5,6.23193359 5,6.5 C5,6.77614237 4.76806641,7 4.5,7 C4.22385763,7 4,6.76806641 4,6.5 Z M6,6.5 C6,6.22385763 6.23193359,6 6.5,6 C6.77614237,6 7,6.23193359 7,6.5 C7,6.77614237 6.76806641,7 6.5,7 C6.22385763,7 6,6.76806641 6,6.5 Z M9,6.5 C9,6.22385763 9.21484375,6 9.49769878,6 L13.5023012,6 C13.7771727,6 14,6.23193359 14,6.5 C14,6.77614237 13.7851562,7 13.5023012,7 L9.49769878,7 C9.22282734,7 9,6.76806641 9,6.5 Z M2,8.5 C2,8.22385763 2.23193359,8 2.5,8 C2.77614237,8 3,8.23193359 3,8.5 C3,8.77614237 2.76806641,9 2.5,9 C2.22385763,9 2,8.76806641 2,8.5 Z M4,8.5 C4,8.22385763 4.23193359,8 4.5,8 C4.77614237,8 5,8.23193359 5,8.5 C5,8.77614237 4.76806641,9 4.5,9 C4.22385763,9 4,8.76806641 4,8.5 Z M6,8.5 C6,8.22385763 6.23193359,8 6.5,8 C6.77614237,8 7,8.23193359 7,8.5 C7,8.77614237 6.76806641,9 6.5,9 C6.22385763,9 6,8.76806641 6,8.5 Z M9,8.5 C9,8.22385763 9.21484375,8 9.49769878,8 L13.5023012,8 C13.7771727,8 14,8.23193359 14,8.5 C14,8.77614237 13.7851562,9 13.5023012,9 L9.49769878,9 C9.22282734,9 9,8.76806641 9,8.5 Z M2,10.5 C2,10.2238576 2.23193359,10 2.5,10 C2.77614237,10 3,10.2319336 3,10.5 C3,10.7761424 2.76806641,11 2.5,11 C2.22385763,11 2,10.7680664 2,10.5 Z M4,10.5 C4,10.2238576 4.23193359,10 4.5,10 C4.77614237,10 5,10.2319336 5,10.5 C5,10.7761424 4.76806641,11 4.5,11 C4.22385763,11 4,10.7680664 4,10.5 Z M6,10.5 C6,10.2238576 6.23193359,10 6.5,10 C6.77614237,10 7,10.2319336 7,10.5 C7,10.7761424 6.76806641,11 6.5,11 C6.22385763,11 6,10.7680664 6,10.5 Z M9,10.5 C9,10.2238576 9.21484375,10 9.49769878,10 L13.5023012,10 C13.7771727,10 14,10.2319336 14,10.5 C14,10.7761424 13.7851562,11 13.5023012,11 L9.49769878,11 C9.22282734,11 9,10.7680664 9,10.5 Z"/>
  </g>
</svg>
