<svg xmlns="http://www.w3.org/2000/svg" width="16" height="16" viewBox="0 0 16 16">
  <g fill="none" fill-rule="evenodd">
    <rect width="16" height="16"/>
    <path fill="#8EA6BB" fill-rule="nonzero" d="M12,8.76345597 L13,7.76345597 L13,13.9972399 C13,15.1033337 12.1064574,16 10.9972399,16 L2.00276013,16 C0.896666251,16 0,15.1064574 0,13.9972399 L0,5.00276013 C0,3.89666625 0.893542647,3 2.00276013,3 L7.86396103,3 L6.86396103,4 L2.00276013,4 C1.44714764,4 1,4.44762988 1,5.00276013 L1,13.9972399 C1,14.5528524 1.44762988,15 2.00276013,15 L10.9972399,15 C11.5528524,15 12,14.5523701 12,13.9972399 L12,8.76345597 L12,8.76345597 Z M4.5,11.3000002 L4.5,7.77817459 L12.2781746,0 L15.8137085,3.53553391 L8.03553391,11.3137085 L4.5,11.3000002 Z M13.1423021,4.79272675 L14.3994949,3.53553391 L12.2781746,1.41421356 L10.9982964,2.69409177 L13.1423021,4.79272675 Z M10.1652968,3.52709135 L5.5,8.19238816 L5.5,10.30387 L7.62292766,10.3121012 L12.2962584,5.63877042 L10.1652968,3.52709135 Z"/>
  </g>
</svg>
