<svg xmlns="http://www.w3.org/2000/svg" width="16" height="16" viewBox="0 0 16 16">
  <g fill="none" fill-rule="evenodd">
    <rect width="16" height="16"/>
    <path fill="#FF00FF" fill-rule="nonzero" d="M1.99188419,16 C0.891796927,16 0,15.1125667 0,14.000385 L0,11.999615 C0,10.8952581 0.893397331,10 1.99188419,10 L14.0081158,10 C15.1082031,10 16,10.8874333 16,11.999615 L16,14.000385 C16,15.1047419 15.1066027,16 14.0081158,16 L1.99188419,16 Z M1,11.999615 L1,14.000385 C1,14.5578406 1.44164376,15 1.99188419,15 L14.0081158,15 C14.5541264,15 15,14.5526441 15,14.000385 L15,11.999615 C15,11.4421594 14.5583562,11 14.0081158,11 L1.99188419,11 C1.44587365,11 1,11.4473559 1,11.999615 Z M15.1260965,0.146446609 C15.326014,-0.0488155365 15.6501444,-0.0488155365 15.8500619,0.146446609 C16.0499794,0.341708755 16.0499794,0.658291245 15.8500619,0.853553391 L8.36198268,8.16726189 C8.16206517,8.36252404 7.83793483,8.36252404 7.63801732,8.16726189 L0.149938134,0.853553391 C-0.0499793781,0.658291245 -0.0499793781,0.341708755 0.149938134,0.146446609 C0.349855647,-0.0488155365 0.673985977,-0.0488155365 0.87390349,0.146446609 L8,7.10660172 L15.1260965,0.146446609 Z" transform="matrix(1 0 0 -1 0 16)"/>
  </g>
</svg>
