<svg xmlns="http://www.w3.org/2000/svg" width="16" height="16" viewBox="0 0 16 16">
  <g fill="none" fill-rule="evenodd">
    <rect width="16" height="16"/>
    <path fill="#FF455D" d="M3,3 L13,3 C13.5522847,3 14,3.44771525 14,4 L14,4 C14,4.55228475 13.5522847,5 13,5 L3,5 C2.44771525,5 2,4.55228475 2,4 L2,4 L2,4 C2,3.44771525 2.44771525,3 3,3 L3,3 Z M3,7 L13,7 C13.5522847,7 14,7.44771525 14,8 C14,8.55228475 13.5522847,9 13,9 L3,9 C2.44771525,9 2,8.55228475 2,8 C2,7.44771525 2.44771525,7 3,7 L3,7 Z M3,11 L13,11 C13.5522847,11 14,11.4477153 14,12 C14,12.5522847 13.5522847,13 13,13 L3,13 C2.44771525,13 2,12.5522847 2,12 C2,11.4477153 2.44771525,11 3,11 L3,11 Z"/>
    <circle cx="12.5" cy="12.5" r="3.5" fill="#F25335"/>
  </g>
</svg>
