<svg xmlns="http://www.w3.org/2000/svg" width="8" height="8" viewBox="0 0 8 8">
  <g fill="none" fill-rule="evenodd">
    <rect width="8" height="8"/>
    <path fill="#FF00FF" d="M3.99931737,3.2394837 L0.916455511,0.156621842 C0.710203875,-0.0496297935 0.364918382,-0.0544205411 0.154907605,0.155590236 C-0.0489612662,0.359459107 -0.0546413062,0.706557624 0.155939211,0.917138142 L3.23880107,4 L0.155939211,7.08286186 C-0.0546413062,7.29344238 -0.0489612662,7.64054089 0.154907605,7.84440976 C0.364918382,8.05442054 0.710203875,8.04962979 0.916455511,7.84337816 L3.99931737,4.7605163 L7.08217923,7.84337816 C7.28843086,8.04962979 7.63371636,8.05442054 7.84372713,7.84440976 C8.047596,7.64054089 8.05327604,7.29344238 7.84269553,7.08286186 L4.75983367,4 L7.84269553,0.917138142 C8.05327604,0.706557624 8.047596,0.359459107 7.84372713,0.155590236 C7.63371636,-0.0544205411 7.28843086,-0.0496297935 7.08217923,0.156621842 L3.99931737,3.2394837 L3.99931737,3.2394837 Z"/>
  </g>
</svg>
