<svg xmlns="http://www.w3.org/2000/svg" width="16" height="16" viewBox="0 0 16 16">
  <g fill="none" fill-rule="evenodd">
    <rect width="16" height="16"/>
    <path fill="#FF00FF" d="M1,9.95491536 L0,10.8954114 L0,2.00684547 C0,1.44994876 0.443586406,1 0.990777969,1 L5.50899482,1 C5.77211952,1 6.12450577,1.18675866 6.27809143,1.41713715 L7.72190857,3.58286285 C7.88088036,3.82132053 8.22539004,4 8.50342274,4 L13.9970707,4 C14.5621186,4 15,4.44573523 15,4.9955775 L15,14.0044225 C15,14.555163 14.5489341,15 13.992516,15 L11.0099284,15 L10.5607867,14 L13.506259,14 C13.7789446,14 14,13.7775269 14,13.4903342 L14,5.50966585 C14,5.22818517 13.7718633,5 13.4970149,5 L8.0929445,5 C7.81515348,5 7.46560066,4.82132053 7.29963704,4.58286285 L5.7923186,2.41713715 C5.63197801,2.18675866 5.28485564,2 5.00300269,2 L1.49899359,2 C1.22340704,2 1,2.22900057 1,2.50034732 L1,10.1454611 L1,9.95491536 Z"/>
    <path fill="#FF8E25" d="M4.17893776,16 L2.27373675e-13,12.2765075 L4.17893776,9 L4.17893776,11.0081509 C6.71380648,11.138655 8.87917087,12.8245497 9.90488708,15.2182631 C9.98281385,15.5716921 9.98897358,15.7931077 9.58555507,15.4370191 C8.60930603,14.0704113 6.76971913,13.4878886 4.88083263,13.4878886 C4.6029052,13.4878886 4.37152721,13.4922778 4.17893776,13.4994867 L4.17893776,16 Z"/>
  </g>
</svg>
