<svg xmlns="http://www.w3.org/2000/svg" width="16" height="16" viewBox="0 0 16 16">
  <g fill="none" fill-rule="evenodd">
    <rect width="16" height="16"/>
    <path fill="#8EA6BB" fill-rule="nonzero" d="M1,1.99895656 C1,1.44724809 1.44994876,1 2.00684547,1 L13.9931545,1 C14.5492199,1 15,1.44266033 15,1.99895656 L15,3.00104344 C15,3.55275191 14.5500512,4 13.9931545,4 L2.00684547,4 C1.45078007,4 1,3.55733967 1,3.00104344 L1,1.99895656 Z M4,6.99895656 C4,6.44724809 4.44483697,6 4.9955775,6 L14.0044225,6 C14.5542648,6 15,6.44266033 15,6.99895656 L15,8.00104344 C15,8.55275191 14.555163,9 14.0044225,9 L4.9955775,9 C4.44573523,9 4,8.55733967 4,8.00104344 L4,6.99895656 Z M7,11.9989566 C7,11.4472481 7.45303631,11 7.99703014,11 L14.0029699,11 C14.5536144,11 15,11.4426603 15,11.9989566 L15,13.0010434 C15,13.5527519 14.5469637,14 14.0029699,14 L7.99703014,14 C7.4463856,14 7,13.5573397 7,13.0010434 L7,11.9989566 Z M2,2 L2,3 L14,3 L14,2 L2,2 Z M5,7 L5,8 L14,8 L14,7 L5,7 Z M8,12 L8,13 L14,13 L14,12 L8,12 Z"/>
  </g>
</svg>
