<svg xmlns="http://www.w3.org/2000/svg" width="16" height="16" viewBox="0 0 16 16">
  <g fill="none" fill-rule="evenodd">
    <rect width="16" height="16"/>
    <path fill="#FF00FF" d="M14,2.00748397 L14,2.96875 L13,4.02873502 L13,2 L3,2 L3,13.5841554 L7.29422684,9.28582614 C7.68401459,8.89566601 8.31277239,8.89244993 8.70577316,9.28582614 L13,13.5841554 L13,9.97803295 L14,10.89376 L14,14.992516 C14,15.5489341 13.6774139,15.6771058 13.2881596,15.2874796 L8,9.99426798 L2.71184039,15.2874796 C2.3187018,15.6809937 2,15.5510798 2,14.992516 L2,2.00748397 C2,1.45106594 2.45576096,1 3.00247329,1 L12.9975267,1 C13.5511774,1 14,1.44892021 14,2.00748397 Z"/>
    <path fill="#F25335" d="M12.1338835,6.98743687 L10.3520091,8.76931126 C10.1588868,8.96243356 10.1554346,9.27675492 10.3471728,9.46849318 L10.5063806,9.6277009 C10.6889797,9.81030005 11.0111532,9.8172739 11.2055625,9.62286465 L12.9874369,7.84099026 L14.7693113,9.62286465 C14.9624336,9.81598695 15.2767549,9.81943916 15.4684932,9.6277009 L15.6277009,9.46849318 C15.8103001,9.28589402 15.8172739,8.96372051 15.6228646,8.76931126 L13.8409903,6.98743687 L15.6228646,5.20556248 C15.8159869,5.01244018 15.8194392,4.69811882 15.6277009,4.50638055 L15.4684932,4.34717284 C15.285894,4.16457368 14.9637205,4.15759984 14.7693113,4.35200909 L12.9874369,6.13388348 L11.2055625,4.35200909 C11.0124402,4.15888679 10.6981188,4.15543457 10.5063806,4.34717284 L10.3471728,4.50638055 C10.1645737,4.68897971 10.1575998,5.01115323 10.3520091,5.20556248 L12.1338835,6.98743687 Z"/>
  </g>
</svg>
