<svg xmlns="http://www.w3.org/2000/svg" width="22" height="22" viewBox="0 0 22 22">
  <g fill="none" fill-rule="evenodd">
    <rect width="22" height="22"/>
    <path fill="#FF00FF" fill-rule="nonzero" d="M10.6360257,13.8274566 L8.4654323,14.7868047 L7.76521358,16.7872098 L5.56684531,17.6745434 L4.4883192,20 L0,20 L0,15 L7.31327646,8.49930981 C7.10988027,7.86944669 7,7.1975553 7,6.5 C7,2.91014913 9.91014913,0 13.5,0 C17.0898509,0 20,2.91014913 20,6.5 C20,10.0898509 17.0898509,13 13.5,13 C12.6705133,13 11.8773165,12.844625 11.1479257,12.5613913 L10.6360257,13.8274566 Z M1,19 L3.84979357,19 L4.82598506,16.8951914 L6.9709824,16.0294001 L7.66477295,14.0473592 L9.86092151,13.0767164 L10.5905308,11.2721979 L11.5099077,11.6292061 C12.1383203,11.8732285 12.8096026,12 13.5,12 C16.5375661,12 19,9.53756612 19,6.5 C19,3.46243388 16.5375661,1 13.5,1 C10.4624339,1 8,3.46243388 8,6.5 C8,7.08204237 8.0900786,7.6506687 8.26489033,8.19201347 L8.46545448,8.81310653 L1,15.4490661 L1,19 Z M13.5,7 C12.1192881,7 11,5.88071187 11,4.5 C11,3.11928813 12.1192881,2 13.5,2 C14.8807119,2 16,3.11928813 16,4.5 C16,5.88071187 14.8807119,7 13.5,7 Z M13.5,6 C14.3284271,6 15,5.32842712 15,4.5 C15,3.67157288 14.3284271,3 13.5,3 C12.6715729,3 12,3.67157288 12,4.5 C12,5.32842712 12.6715729,6 13.5,6 Z"/>
    <path fill="#2DBBE9" d="M13.38,18.93 L12,18.93 L12,18.96 C12,19.6466701 12.1699983,20.1766648 12.51,20.55 C12.8500017,20.9233352 13.3633299,21.11 14.05,21.11 C14.5433358,21.11 14.9416652,21.0466673 15.245,20.92 C15.5483348,20.7933327 15.7866658,20.6266677 15.96,20.42 C16.1333342,20.2133323 16.2499997,19.9833346 16.31,19.73 C16.3700003,19.4766654 16.4,19.2300012 16.4,18.99 C16.4,18.5433311 16.305001,18.1716682 16.115,17.875 C15.9249991,17.5783319 15.6000023,17.3933337 15.14,17.32 L15.14,17.3 C15.4800017,17.2266663 15.7449991,17.0550014 15.935,16.785 C16.125001,16.5149987 16.22,16.1666688 16.22,15.74 C16.22,15.1133302 16.0416684,14.6533348 15.685,14.36 C15.3283316,14.0666652 14.8266699,13.92 14.18,13.92 C13.4999966,13.92 12.9833351,14.091665 12.63,14.435 C12.2766649,14.7783351 12.1,15.3033298 12.1,16.01 L13.42,16.01 C13.42,15.8433325 13.4283333,15.6900007 13.445,15.55 C13.4616668,15.4099993 13.4966664,15.2883339 13.55,15.185 C13.6033336,15.0816662 13.6783329,15.001667 13.775,14.945 C13.8716672,14.8883331 13.9966659,14.86 14.15,14.86 C14.3833345,14.86 14.5566661,14.9299993 14.67,15.07 C14.7833339,15.2100007 14.84,15.4499983 14.84,15.79 C14.84,15.9366674 14.8250002,16.076666 14.795,16.21 C14.7649999,16.343334 14.7183337,16.4616662 14.655,16.565 C14.5916664,16.6683339 14.5083339,16.7516664 14.405,16.815 C14.3016662,16.8783337 14.1733341,16.91 14.02,16.91 L13.55,16.91 L13.55,17.85 L14.03,17.85 C14.230001,17.85 14.3899994,17.883333 14.51,17.95 C14.6300006,18.016667 14.723333,18.1066661 14.79,18.22 C14.856667,18.3333339 14.9016666,18.461666 14.925,18.605 C14.9483334,18.7483341 14.96,18.8999992 14.96,19.06 C14.96,19.2133341 14.9516668,19.3599993 14.935,19.5 C14.9183332,19.6400007 14.8816669,19.7616662 14.825,19.865 C14.7683331,19.9683339 14.6883339,20.0499997 14.585,20.11 C14.4816662,20.1700003 14.3433342,20.2 14.17,20.2 C13.8566651,20.2 13.6483339,20.0916678 13.545,19.875 C13.4416662,19.6583323 13.3866667,19.3433354 13.38,18.93 Z M17.0688887,17.7 C17.0688887,17.2066642 17.0855552,16.7333356 17.1188887,16.28 C17.1522222,15.8266644 17.2422213,15.4250018 17.3888887,15.075 C17.5355561,14.7249983 17.7572205,14.4450011 18.0538887,14.235 C18.3505568,14.024999 18.7622194,13.92 19.2888887,13.92 C19.7222242,13.92 20.0805539,13.9816661 20.3638887,14.105 C20.6472234,14.228334 20.8738878,14.4266653 21.0438887,14.7 C21.2138895,14.9733347 21.3338883,15.3283312 21.4038887,15.765 C21.473889,16.2016689 21.5088887,16.7333302 21.5088887,17.36 C21.5088887,17.8533358 21.4922222,18.3266644 21.4588887,18.78 C21.4255552,19.2333356 21.3355561,19.6349983 21.1888887,19.985 C21.0422213,20.3350018 20.8205568,20.609999 20.5238887,20.81 C20.2272205,21.010001 19.815558,21.11 19.2888887,21.11 C18.8622199,21.11 18.5055568,21.0533339 18.2188887,20.94 C17.9322206,20.8266661 17.7038895,20.6333347 17.5338887,20.36 C17.3638878,20.0866653 17.243889,19.7316689 17.1738887,19.295 C17.1038883,18.8583312 17.0688887,18.3266698 17.0688887,17.7 Z M18.5088887,18.01 C18.5088887,18.4566689 18.5205552,18.8216653 18.5438887,19.105 C18.5672221,19.3883348 18.6088884,19.6116659 18.6688887,19.775 C18.728889,19.9383342 18.8088882,20.0499997 18.9088887,20.11 C19.0088892,20.1700003 19.1355546,20.2 19.2888887,20.2 C19.4488895,20.2 19.5788882,20.1616671 19.6788887,20.085 C19.7788892,20.008333 19.8572217,19.8783343 19.9138887,19.695 C19.9705556,19.5116658 20.0105552,19.2666682 20.0338887,18.96 C20.0572221,18.6533318 20.0688887,18.2733356 20.0688887,17.82 L20.0688887,17.05 C20.0688887,16.6033311 20.0572221,16.2383348 20.0338887,15.955 C20.0105552,15.6716653 19.968889,15.4483342 19.9088887,15.285 C19.8488884,15.1216659 19.7688892,15.0100003 19.6688887,14.95 C19.5688882,14.8899997 19.4422228,14.86 19.2888887,14.86 C19.1288879,14.86 18.9988892,14.898333 18.8988887,14.975 C18.7988882,15.0516671 18.7205556,15.1816658 18.6638887,15.365 C18.6072217,15.5483343 18.5672221,15.7933318 18.5438887,16.1 C18.5205552,16.4066682 18.5088887,16.7866644 18.5088887,17.24 L18.5088887,18.01 Z"/>
  </g>
</svg>
