<svg xmlns="http://www.w3.org/2000/svg" width="16" height="16" viewBox="0 0 16 16">
  <g fill="none" fill-rule="evenodd">
    <rect width="16" height="16"/>
    <path fill="#FF00FF" fill-rule="nonzero" d="M15.3251263,7.49771631 L15.3251263,7.49771631 C15.7389858,7.86348795 16,8.40067095 16,9.00591905 L16,11.9940809 C16,13.1019194 15.1054862,14 14.0059397,14 L1.99406028,14 C0.892771196,14 0,13.1134452 0,11.9940809 L0,9.00591905 C0,8.40724158 0.261228136,7.86982049 0.674873687,7.50228369 C0.261014241,7.13651205 0,6.59932905 0,5.99408095 L0,3.00591905 C0,1.89808055 0.894513756,1 1.99406028,1 L14.0059397,1 C15.1072288,1 16,1.88655484 16,3.00591905 L16,5.99408095 C16,6.59275842 15.7387719,7.13017951 15.3251263,7.49771631 Z M1,3.00591905 L1,5.99408095 C1,6.55761639 1.44152064,7 1.99406028,7 L14.0059397,7 C14.5526076,7 15,6.5502184 15,5.99408095 L15,3.00591905 C15,2.44238361 14.5584794,2 14.0059397,2 L1.99406028,2 C1.44739244,2 1,2.4497816 1,3.00591905 Z M1,9.00591905 L1,11.9940809 C1,12.5576164 1.44152064,13 1.99406028,13 L14.0059397,13 C14.5526076,13 15,12.5502184 15,11.9940809 L15,9.00591905 C15,8.44238361 14.5584794,8 14.0059397,8 L1.99406028,8 C1.44739244,8 1,8.4497816 1,9.00591905 Z M4,5 C3.44771525,5 3,4.55228475 3,4 C3,3.44771525 3.44771525,3 4,3 C4.55228475,3 5,3.44771525 5,4 C5,4.55228475 4.55228475,5 4,5 Z M4,11 C3.44771525,11 3,10.5522847 3,10 C3,9.44771525 3.44771525,9 4,9 C4.55228475,9 5,9.44771525 5,10 C5,10.5522847 4.55228475,11 4,11 Z"/>
  </g>
</svg>
