<svg xmlns="http://www.w3.org/2000/svg" width="16" height="16" viewBox="0 0 16 16">
  <g fill="none" fill-rule="evenodd">
    <rect width="16" height="16"/>
    <path fill="#25CAAB" fill-rule="nonzero" d="M15,7.5 C15,11.6421356 11.6421356,15 7.5,15 C3.35786438,15 -5.32907052e-15,11.6421356 0,7.5 C0,3.35786438 3.35786438,-3.55271368e-15 7.5,0 C11.6421356,1.77635684e-15 15,3.35786438 15,7.5 Z M14,7.5 C14,3.91014913 11.0898509,1 7.5,1 C3.91014913,1 1,3.91014913 1,7.5 C1,11.0898509 3.91014913,14 7.5,14 C11.0898509,14 14,11.0898509 14,7.5 Z M10,11 C10,11 4.6844274,5.42478947 4.6844274,5.5345607 C4.6844274,5.64433193 10,5.5345607 10,5.5345607 L10,11 Z"/>
  </g>
</svg>
