<svg xmlns="http://www.w3.org/2000/svg" width="16" height="16" viewBox="0 0 16 16">
  <g fill="none" fill-rule="evenodd">
    <rect width="16" height="16"/>
    <path fill="#FF00FF" d="M15.4339143,9 C14.9450222,12.6693595 11.8030768,15.5 8,15.5 C3.85786438,15.5 0.5,12.1421356 0.5,8 C0.5,3.85786438 3.85786438,0.5 8,0.5 C10.0710678,0.5 11.9460678,1.33946609 13.3033009,2.69669914 L12.5961941,3.40380592 C11.4199254,2.22753728 9.79492544,1.5 8,1.5 C4.41014913,1.5 1.5,4.41014913 1.5,8 C1.5,11.5898509 4.41014913,14.5 8,14.5 C11.2497861,14.5 13.9425466,12.1150901 14.4235518,9 L15.4339143,9 Z M15.6426411,0.357358932 C15.840005,0.159995044 16,0.227880478 16,0.491005182 L16,5.50899482 C16,5.78016949 15.7721195,6 15.5089948,6 L10.4910052,6 C10.2198305,6 10.1604855,5.83951449 10.3573589,5.64264107 L15.6426411,0.357358932 Z"/>
  </g>
</svg>
