<svg xmlns="http://www.w3.org/2000/svg" width="20" height="16" viewBox="0 0 20 16">
  <g fill="none" fill-rule="evenodd">
    <path fill="#0685B9" d="M10,8 L10,0 L1.99961498,0 C0.88743329,0 0,0.892771196 0,1.99406028 L0,14.0059397 C0,15.1054862 0.895258123,16 1.99961498,16 L6,16 L6,8 L10,8 Z"/>
    <path fill="#9960FF" d="M20,8 L20,0 L11.999615,0 C10.8874333,0 10,0.892771196 10,1.99406028 L10,14.0059397 C10,15.1054862 10.8952581,16 11.999615,16 L16,16 L16,8 L20,8 Z" transform="matrix(-1 0 0 1 30 0)"/>
    <polygon fill="#FFFFFF" points="11.9 1.3 11.9 6.8 13.047 6.8 13.047 2.941 13.063 2.941 14.428 6.8 15.372 6.8 16.737 2.902 16.753 2.902 16.753 6.8 17.9 6.8 17.9 1.3 16.176 1.3 14.943 5.082 14.927 5.082 13.624 1.3"/>
    <path fill="#FFFFFF" d="M6.25600005,3.25600005 L7.47200005,3.25600005 C7.43466653,2.92533173 7.34400077,2.63200133 7.20000005,2.37600005 C7.05599933,2.11999877 6.87333449,1.90533425 6.65200005,1.73200005 C6.43066561,1.55866585 6.18000145,1.42666717 5.90000005,1.33600005 C5.61999865,1.24533293 5.32266829,1.20000005 5.00800005,1.20000005 C4.57066453,1.20000005 4.17733513,1.27733261 3.82800005,1.43200005 C3.47866497,1.58666749 3.18400125,1.79999869 2.94400005,2.07200005 C2.70399885,2.34400141 2.52000069,2.66266489 2.39200005,3.02800005 C2.26399941,3.39333521 2.20000005,3.78933125 2.20000005,4.21600005 C2.20000005,4.63200213 2.26399941,5.01999825 2.39200005,5.38000005 C2.52000069,5.74000185 2.70399885,6.05333205 2.94400005,6.32000005 C3.18400125,6.58666805 3.47866497,6.79599929 3.82800005,6.94800005 C4.17733513,7.10000081 4.57066453,7.17600005 5.00800005,7.17600005 C5.36000181,7.17600005 5.68266525,7.12266725 5.97600005,7.01600005 C6.26933485,6.90933285 6.52533229,6.75466773 6.74400005,6.55200005 C6.96266781,6.34933237 7.13866605,6.10400149 7.27200005,5.81600005 C7.40533405,5.52799861 7.48799989,5.20533517 7.52000005,4.84800005 L6.30400005,4.84800005 C6.25599981,5.23200197 6.12400113,5.54133221 5.90800005,5.77600005 C5.69199897,6.01066789 5.39200197,6.12800005 5.00800005,6.12800005 C4.72533197,6.12800005 4.48533437,6.07333393 4.28800005,5.96400005 C4.09066573,5.85466617 3.93066733,5.70933429 3.80800005,5.52800005 C3.68533277,5.34666581 3.59600033,5.14266785 3.54000005,4.91600005 C3.48399977,4.68933225 3.45600005,4.45600125 3.45600005,4.21600005 C3.45600005,3.96533213 3.48399977,3.72266789 3.54000005,3.48800005 C3.59600033,3.25333221 3.68533277,3.04400097 3.80800005,2.86000005 C3.93066733,2.67599913 4.09066573,2.52933393 4.28800005,2.42000005 C4.48533437,2.31066617 4.72533197,2.25600005 5.00800005,2.25600005 C5.16266749,2.25600005 5.31066601,2.28133313 5.45200005,2.33200005 C5.59333409,2.38266697 5.71999949,2.45333293 5.83200005,2.54400005 C5.94400061,2.63466717 6.03733301,2.73999945 6.11200005,2.86000005 C6.18666709,2.98000065 6.23466661,3.11199933 6.25600005,3.25600005 Z"/>
    <rect width="14" height="8" x="3" y="8" fill="#009E81"/>
    <path fill="#FFFFFF" d="M12.1184613,12.3216912 C12.1376196,12.7444874 12.2493753,13.0508569 12.4537316,13.2408088 C12.6580878,13.4307608 12.9518455,13.5257353 13.3350135,13.5257353 C13.6096173,13.5257353 13.8459007,13.4598659 14.0438708,13.328125 C14.2418409,13.1963841 14.3631756,13.056986 14.4078786,12.9099265 L15.6052725,12.9099265 C15.4136885,13.4797823 15.1199308,13.8872537 14.7239906,14.1323529 C14.3280503,14.3774522 13.8490975,14.5 13.2871178,14.5 C12.8975637,14.5 12.5463316,14.440258 12.2334111,14.3207721 C11.9204905,14.2012862 11.65547,14.0312511 11.4383415,13.8106618 C11.2212129,13.5900724 11.0535795,13.3265947 10.935436,13.0202206 C10.8172925,12.7138465 10.7582217,12.3768401 10.7582217,12.0091912 C10.7582217,11.6537972 10.818889,11.3229182 10.9402256,11.0165441 C11.0615621,10.71017 11.2339851,10.4451604 11.4574998,10.2215074 C11.6810144,9.99785427 11.9476315,9.82169182 12.257359,9.69301471 C12.5670864,9.56433759 12.9103359,9.5 13.2871178,9.5 C13.7086026,9.5 14.0757997,9.57812422 14.3887202,9.734375 C14.7016408,9.89062578 14.9586788,10.1004889 15.159842,10.3639706 C15.3610052,10.6274523 15.5062875,10.9276944 15.5956934,11.2647059 C15.6850993,11.6017174 15.7170294,11.9540423 15.6914849,12.3216912 L12.1184613,12.3216912 Z M14.3312453,11.4944853 C14.267384,11.1636013 14.1540318,10.9123783 13.9911854,10.7408088 C13.828339,10.5692393 13.5808801,10.4834559 13.2488012,10.4834559 C13.0316726,10.4834559 12.8512671,10.5186884 12.7075791,10.5891544 C12.5638911,10.6596205 12.4489424,10.7469358 12.3627296,10.8511029 C12.2765168,10.9552701 12.2158495,11.0655631 12.1807257,11.1819853 C12.145602,11.2984074 12.1248474,11.4025731 12.1184613,11.4944853 L14.3312453,11.4944853 Z M4.69999981,9.5 L6.23013356,9.5 L7.38638848,12.76184 L7.40023584,12.76184 L8.49417762,9.5 L10.0243114,9.5 L10.0243114,14.2432867 L9.0065301,14.2432867 L9.0065301,10.8817978 L8.99268274,10.8817978 L7.78103836,14.2432867 L6.94327282,14.2432867 L5.73162845,10.9150141 L5.71778108,10.9150141 L5.71778108,14.2432867 L4.69999981,14.2432867 L4.69999981,9.5 Z"/>
  </g>
</svg>
