<svg xmlns="http://www.w3.org/2000/svg" width="16" height="16" viewBox="0 0 16 16">
  <g fill="none" fill-rule="evenodd">
    <rect width="16" height="16"/>
    <rect width="16" height="16" fill="#0685B9" rx="2"/>
    <path fill="#FFFFFF" d="M5.95,6.76 L7.47,6.76 C7.4233331,6.3466646 7.3100009,5.9800016 7.13,5.66 C6.9499991,5.3399984 6.72166805,5.07166775 6.445,4.855 C6.16833195,4.63833225 5.85500175,4.4733339 5.505,4.36 C5.15499825,4.2466661 4.7833353,4.19 4.39,4.19 C3.8433306,4.19 3.35166885,4.2866657 2.915,4.48 C2.47833115,4.6733343 2.1100015,4.9399983 1.81,5.28 C1.5099985,5.6200017 1.2800008,6.01833105 1.12,6.475 C0.9599992,6.93166895 0.88,7.426664 0.88,7.96 C0.88,8.4800026 0.9599992,8.96499775 1.12,9.415 C1.2800008,9.86500225 1.5099985,10.256665 1.81,10.59 C2.1100015,10.923335 2.47833115,11.1849991 2.915,11.375 C3.35166885,11.5650009 3.8433306,11.66 4.39,11.66 C4.8300022,11.66 5.2333315,11.593334 5.6,11.46 C5.9666685,11.326666 6.2866653,11.1333346 6.56,10.88 C6.8333347,10.6266654 7.0533325,10.3200018 7.22,9.96 C7.3866675,9.5999982 7.4899998,9.1966689 7.53,8.75 L6.01,8.75 C5.9499997,9.2300024 5.78500135,9.6166652 5.515,9.91 C5.24499865,10.2033348 4.8700024,10.35 4.39,10.35 C4.0366649,10.35 3.7366679,10.2816673 3.49,10.145 C3.2433321,10.0083326 3.0433341,9.8266678 2.89,9.6 C2.7366659,9.3733322 2.62500035,9.11833475 2.555,8.835 C2.48499965,8.55166525 2.45,8.2600015 2.45,7.96 C2.45,7.6466651 2.48499965,7.3433348 2.555,7.05 C2.62500035,6.7566652 2.7366659,6.49500115 2.89,6.265 C3.0433341,6.03499885 3.2433321,5.85166735 3.49,5.715 C3.7366679,5.57833265 4.0366649,5.51 4.39,5.51 C4.5833343,5.51 4.76833245,5.54166635 4.945,5.605 C5.12166755,5.66833365 5.2799993,5.7566661 5.42,5.87 C5.5600007,5.9833339 5.6766662,6.11499925 5.77,6.265 C5.8633338,6.41500075 5.9233332,6.5799991 5.95,6.76 Z M13.2488889,6.76 L14.7688889,6.76 C14.722222,6.3466646 14.6088898,5.9800016 14.4288889,5.66 C14.248888,5.3399984 14.0205569,5.07166775 13.7438889,4.855 C13.4672208,4.63833225 13.1538906,4.4733339 12.8038889,4.36 C12.4538871,4.2466661 12.0822242,4.19 11.6888889,4.19 C11.1422195,4.19 10.6505577,4.2866657 10.2138889,4.48 C9.77722003,4.6733343 9.40889038,4.9399983 9.10888888,5.28 C8.80888738,5.6200017 8.57888968,6.01833105 8.41888888,6.475 C8.25888808,6.93166895 8.17888888,7.426664 8.17888888,7.96 C8.17888888,8.4800026 8.25888808,8.96499775 8.41888888,9.415 C8.57888968,9.86500225 8.80888738,10.256665 9.10888888,10.59 C9.40889038,10.923335 9.77722003,11.1849991 10.2138889,11.375 C10.6505577,11.5650009 11.1422195,11.66 11.6888889,11.66 C12.1288911,11.66 12.5322204,11.593334 12.8988889,11.46 C13.2655574,11.326666 13.5855542,11.1333346 13.8588889,10.88 C14.1322236,10.6266654 14.3522214,10.3200018 14.5188889,9.96 C14.6855564,9.5999982 14.7888887,9.1966689 14.8288889,8.75 L13.3088889,8.75 C13.2488886,9.2300024 13.0838902,9.6166652 12.8138889,9.91 C12.5438875,10.2033348 12.1688913,10.35 11.6888889,10.35 C11.3355538,10.35 11.0355568,10.2816673 10.7888889,10.145 C10.542221,10.0083326 10.342223,9.8266678 10.1888889,9.6 C10.0355548,9.3733322 9.92388923,9.11833475 9.85388888,8.835 C9.78388853,8.55166525 9.74888888,8.2600015 9.74888888,7.96 C9.74888888,7.6466651 9.78388853,7.3433348 9.85388888,7.05 C9.92388923,6.7566652 10.0355548,6.49500115 10.1888889,6.265 C10.342223,6.03499885 10.542221,5.85166735 10.7888889,5.715 C11.0355568,5.57833265 11.3355538,5.51 11.6888889,5.51 C11.8822232,5.51 12.0672213,5.54166635 12.2438889,5.605 C12.4205564,5.66833365 12.5788882,5.7566661 12.7188889,5.87 C12.8588896,5.9833339 12.9755551,6.11499925 13.0688889,6.265 C13.1622227,6.41500075 13.2222221,6.5799991 13.2488889,6.76 Z"/>
  </g>
</svg>
