<svg xmlns="http://www.w3.org/2000/svg" width="64" height="64" viewBox="0 0 64 64" xmlns:xlink="http://www.w3.org/1999/xlink">
  <defs>
    <path id="a" d="M40.4829697,50.8729277 C40.1205809,50.510539 40.1205809,49.9229907 40.4829697,49.5606019 C40.8453585,49.1982131 41.4329068,49.1982131 41.7952955,49.5606019 L47.6792308,55.4445371 C48.0930472,55.8583536 48.7649372,55.8574464 49.1824138,55.4399699 L55.3159428,49.3064408 C55.6783316,48.9440521 56.2658799,48.9440521 56.6282687,49.3064408 C56.9906575,49.6688296 56.9906575,50.2563779 56.6282687,50.6187667 L50.4947396,56.7522958 C49.3532777,57.8937577 47.5062934,57.8962515 46.3669049,56.756863 L40.4829697,50.8729277 Z M49.3983171,52.4572433 C49.3983171,52.9697384 48.9828577,53.3851978 48.4703626,53.3851978 C47.9578675,53.3851978 47.5424081,52.9697384 47.5424081,52.4572433 C47.5424081,51.8679552 47.5106359,51.2828469 47.4476007,50.7036374 C47.3921535,50.1941505 47.7602253,49.7361809 48.2697121,49.6807337 C48.779199,49.6252864 49.2371686,49.9933582 49.2926158,50.5028451 C49.3629051,51.1487106 49.3983171,51.8008479 49.3983171,52.4572433 Z M48.4370772,46.6633479 C48.603456,47.1480843 48.3453761,47.6759174 47.8606398,47.8422962 C47.3759034,48.008675 46.8480703,47.7505951 46.6816915,47.2658588 C46.4915788,46.7119748 46.2711195,46.1700764 46.0215196,45.6424206 C45.802373,45.1791432 46.0002801,44.6259291 46.4635576,44.4067825 C46.926835,44.1876358 47.4800491,44.3855429 47.6991957,44.8488204 C47.9781849,45.4386053 48.2245961,46.0442948 48.4370772,46.6633479 Z M45.6284545,41.5006766 C45.9451162,41.9036365 45.8751577,42.487005 45.4721979,42.8036667 C45.0692381,43.1203284 44.4858696,43.0503699 44.1692079,42.6474101 C43.8076147,42.1872739 43.4209281,41.7481469 43.011162,41.3322484 C42.6514747,40.9671781 42.6558384,40.379646 43.0209087,40.0199587 C43.385979,39.6602714 43.9735111,39.6646352 44.3331984,40.0297054 C44.7915844,40.4949515 45.224078,40.9860976 45.6284545,41.5006766 Z M41.1759515,37.496955 C41.610549,37.7685729 41.7426701,38.3410736 41.4710522,38.7756711 C41.1994344,39.2102686 40.6269337,39.3423897 40.1923362,39.0707718 C39.6970375,38.7612165 39.1849029,38.4806089 38.6582814,38.2304689 C38.1953543,38.0105832 37.9983303,37.457054 38.2182161,36.9941269 C38.4381019,36.5311998 38.9916311,36.3341758 39.4545582,36.5540616 C40.0456715,36.8348346 40.6203471,37.1497094 41.1759515,37.496955 Z M35.8197427,35.3112588 C36.3204255,35.4206572 36.6376241,35.9152257 36.5282257,36.4159085 C36.4188272,36.9165913 35.9242587,37.2337899 35.4235759,37.1243915 C34.8557014,37.0003117 34.2795731,36.9090958 33.6971522,36.8514679 C33.1871475,36.8010053 32.8146151,36.3466568 32.8650777,35.8366521 C32.9155403,35.3266474 33.3698888,34.954115 33.8798935,35.0045776 C34.534145,35.0693128 35.1815338,35.1718111 35.8197427,35.3112588 Z M29.9006328,35.0771893 C30.4084374,35.0080101 30.8761751,35.3635862 30.9453544,35.8713908 C31.0145336,36.3791954 30.6589575,36.8469332 30.1511529,36.9161124 C29.571834,36.9950342 28.9996063,37.1074174 28.4364964,37.2524656 C27.9402013,37.3803034 27.4342417,37.0816097 27.306404,36.5853147 C27.1785662,36.0890196 27.4772599,35.58306 27.9735549,35.4552223 C28.606495,35.2921869 29.2496474,35.1658744 29.9006328,35.0771893 Z M24.2482142,36.9041861 C24.7005875,36.663334 25.2625576,36.8348058 25.5034097,37.287179 C25.7442618,37.7395522 25.57279,38.3015224 25.1204168,38.5423744 C24.6058702,38.8163288 24.1069657,39.1199976 23.626052,39.4517497 C23.2041953,39.7427621 22.6263007,39.6366918 22.3352884,39.2148352 C22.044276,38.7929785 22.1503463,38.215084 22.5722029,37.9240716 C23.1113962,37.5521161 23.6709403,37.2115377 24.2482142,36.9041861 Z M19.6096886,40.5097783 C19.9553092,40.1313636 20.5422557,40.1047787 20.9206704,40.4503992 C21.2990851,40.7960198 21.32567,41.3829663 20.9800495,41.761381 C20.5863045,42.1924864 20.21647,42.6458545 19.8724814,43.1192258 C19.5712075,43.5338163 18.9908847,43.6256776 18.5762942,43.3244037 C18.1617037,43.0231298 18.0698424,42.4428071 18.3711163,42.0282166 C18.7557473,41.4989162 19.169318,40.9919333 19.6096886,40.5097783 Z M16.3649891,45.6000152 C16.5622823,45.1270176 17.1056603,44.9035151 17.5786578,45.1008083 C18.0516553,45.2981015 18.2751578,45.8414795 18.0778646,46.314477 C17.8531942,46.8531097 17.6582194,47.4047329 17.4940315,47.9671386 C17.3504096,48.459098 16.8351692,48.7414813 16.3432098,48.5978594 C15.8512505,48.4542375 15.5688672,47.9389971 15.7124891,47.4470378 C15.8959724,46.8185377 16.1138807,46.2020312 16.3649891,45.6000152 Z M15.0466257,51.1565184 C15.0834146,50.6453454 15.5276255,50.2607811 16.0387985,50.29757 C16.5499715,50.3343589 16.9345357,50.7785698 16.8977468,51.2897428 C16.8703938,51.6698069 16.8564029,52.0520932 16.8559083,52.4361335 C16.8552483,52.9486282 16.4392542,53.3635522 15.9267595,53.3628922 C15.4142648,53.3622321 14.9993408,52.9462381 15.0000008,52.4337434 C15.0005516,52.0060398 15.0161396,51.5801148 15.0466257,51.1565184 Z"/>
  </defs>
  <g fill="none" fill-rule="evenodd">
    <circle cx="32" cy="32" r="32" fill="#DCEEF5"/>
    <circle cx="32" cy="32" r="30" stroke="#2DBBE9" stroke-width="4"/>
    <g transform="translate(1 16)">
      <g stroke="#133A51">
        <path fill="#FFFFFF" stroke-width="2" d="M18.1596524,0 L1.8,0 L1.8,4.4408921e-16 C0.80588745,6.26704723e-16 -3.4378828e-16,0.80588745 -2.22044605e-16,1.8 L0,1.8 L4.4408921e-16,27.2 C2.33173151e-15,28.1941125 0.80588745,29 1.8,29 L1.8,29 L22.2,29 C23.1941125,29 24,28.1941125 24,27.2 L24,5.84034756 L18.1596524,-1.0269563e-15 Z" stroke-linecap="round" stroke-linejoin="round"/>
        <path fill="#DCEEF5" d="M18.215193,0.24193701 L18.215193,3.93149639 L18.215193,3.93149639 C18.215193,4.92560894 19.0210804,5.73149639 20.015193,5.73149639 L23.9678107,5.73149639 L18.215193,0.24193701 Z"/>
      </g>
      <rect width="22" height="8" x="1" y="13" fill="#FFE2DC"/>
      <rect width="14" height="2" x="4" y="8" fill="#8EA6BB"/>
      <rect width="14" height="2" x="4" y="16" fill="#F25335"/>
    </g>
    <g transform="translate(39 16)">
      <g stroke="#133A51">
        <path fill="#FFFFFF" stroke-width="2" d="M18.1596524,0 L1.8,0 L1.8,4.4408921e-16 C0.80588745,6.26704723e-16 -3.4378828e-16,0.80588745 -2.22044605e-16,1.8 L0,1.8 L4.4408921e-16,27.2 C2.33173151e-15,28.1941125 0.80588745,29 1.8,29 L1.8,29 L22.2,29 C23.1941125,29 24,28.1941125 24,27.2 L24,5.84034756 L18.1596524,-1.0269563e-15 Z" stroke-linecap="round" stroke-linejoin="round"/>
        <path fill="#DCEEF5" d="M18.215193,0.24193701 L18.215193,3.93149639 L18.215193,3.93149639 C18.215193,4.92560894 19.0210804,5.73149639 20.015193,5.73149639 L23.9678107,5.73149639 L18.215193,0.24193701 Z"/>
      </g>
      <rect width="22" height="8" x="1" y="13" fill="#CEF3ED"/>
      <rect width="14" height="2" x="4" y="8" fill="#8EA6BB"/>
      <rect width="14" height="2" x="4" y="16" fill="#009E81"/>
    </g>
    <g fill-rule="nonzero" transform="matrix(1 0 0 -1 0 92.61)">
      <use fill="#F43D02" fill-rule="evenodd" xlink:href="#a"/>
      <path stroke="#FFFFFF" d="M40.1294163,51.2264811 C39.5717654,50.6688302 39.5717654,49.7646994 40.1294163,49.2070485 C40.6870672,48.6493976 41.591198,48.6493976 42.1488489,49.2070485 L48.0327842,55.0909837 C48.2513299,55.3095295 48.6066417,55.3086352 48.8288604,55.0864165 L54.9623894,48.9528874 C55.5200404,48.3952365 56.4241711,48.3952365 56.9818221,48.9528874 C57.539473,49.5105384 57.539473,50.4146692 56.9818221,50.9723201 L50.848293,57.1058492 C49.5116,58.4425421 47.3480342,58.445099 46.0133515,57.1104164 L40.1294163,51.2264811 Z M49.8983171,52.4572433 C49.8983171,53.2458808 49.2590001,53.8851978 48.4703626,53.8851978 C47.6817251,53.8851978 47.0424081,53.2458808 47.0424081,52.4572433 C47.0424081,51.8869664 47.0117168,51.3199061 46.9505357,50.7577328 C46.8652123,49.9737245 47.4316084,49.2689919 48.2156167,49.1836686 C48.9996251,49.0983453 49.7043576,49.6647414 49.7896809,50.4487497 C49.8620334,51.1135729 49.8983171,51.7837784 49.8983171,52.4572433 Z M48.9099952,46.5010256 C49.1660221,47.2469474 48.7688839,48.0591873 48.0229621,48.3152142 C47.2770403,48.5712411 46.4648003,48.1741029 46.2087734,47.4281811 C46.0248756,46.8924036 45.811468,46.3676674 45.5695373,45.8562243 C45.2323102,45.1433239 45.5368535,44.2920273 46.2497539,43.9548002 C46.9626543,43.617573 47.8139509,43.9221164 48.151178,44.6350168 C48.4383772,45.2421578 48.6917096,45.8650613 48.9099952,46.5010256 Z M46.0215898,41.1917355 C46.508875,41.8118179 46.4012215,42.7095167 45.7811391,43.1968019 C45.1610566,43.6840871 44.2633578,43.5764337 43.7760726,42.9563513 C43.4260658,42.510959 43.051728,42.0858391 42.6549925,41.6831662 C42.1014987,41.1213889 42.1082137,40.2172831 42.6699909,39.6637892 C43.2317682,39.1102954 44.135874,39.1170104 44.6893679,39.6787876 C45.1609159,40.1573927 45.6057428,40.66256 46.0215898,41.1917355 Z M41.4409471,37.0729535 C42.1097142,37.4909243 42.3130247,38.3718996 41.8950538,39.0406667 C41.4770829,39.7094338 40.5961077,39.9127443 39.9273406,39.4947734 C39.447924,39.1951441 38.9526168,38.923813 38.4437566,38.6821094 C37.7313954,38.3437449 37.4282111,37.4919634 37.7665756,36.7796021 C38.1049401,36.0672409 38.9567217,35.7640566 39.6690829,36.1024211 C40.2770611,36.3912047 40.868615,36.7152532 41.4409471,37.0729535 Z M35.9264739,34.8227831 C36.6969343,34.9911276 37.1850458,35.7521793 37.0167013,36.5226397 C36.8483568,37.2931001 36.0873051,37.7812116 35.3168447,37.6128671 C34.7670899,37.4927465 34.2101437,37.4046677 33.6479199,37.3490382 C32.8631148,37.2713853 32.2898546,36.572225 32.3675074,35.7874198 C32.4451603,35.0026147 33.1443206,34.4293545 33.9291258,34.5070073 C34.6017568,34.573561 35.2683623,34.6789867 35.9264739,34.8227831 Z M29.8331402,34.5817655 C30.6145598,34.4753112 31.3343238,35.0224786 31.4407782,35.8038982 C31.5472325,36.5853178 31.0000651,37.3050818 30.2186455,37.4115362 C29.6594375,37.4877182 29.1062998,37.5962559 28.5612173,37.7366605 C27.7975088,37.9333797 27.0189283,37.4737441 26.8222091,36.7100356 C26.6254899,35.9463271 27.0851255,35.1677466 27.848834,34.9710274 C28.5015055,34.8029096 29.1637867,34.6729529 29.8331402,34.5817655 Z M24.0132344,36.4628422 C24.7093551,36.0922143 25.5741257,36.3560784 25.9447536,37.0521991 C26.3153815,37.7483199 26.0515174,38.6130905 25.3553967,38.9837184 C24.8580698,39.2485046 24.3754822,39.542193 23.9099692,39.8633212 C23.2608079,40.3111367 22.3715325,40.1479137 21.923717,39.4987524 C21.4759015,38.8495911 21.6391245,37.9603157 22.2882857,37.5125002 C22.843583,37.1294355 23.4194915,36.7789621 24.0132344,36.4628422 Z M19.2405001,40.1725843 C19.7723477,39.5902723 20.6755525,39.549363 21.2578644,40.0812106 C21.8401764,40.6130583 21.8810857,41.5162631 21.3492381,42.098575 C20.9679498,42.5160417 20.6099116,42.9549766 20.2769638,43.4131543 C19.8133577,44.0511343 18.9203457,44.1924923 18.2823657,43.7288861 C17.6443857,43.26528 17.5030277,42.372268 17.9666339,41.734288 C18.3621175,41.190053 18.7874572,40.668614 19.2405001,40.1725843 Z M15.9035237,45.4075322 C16.2071223,44.6796744 17.043283,44.3357443 17.7711408,44.6393429 C18.4989986,44.9429415 18.8429286,45.7791022 18.53933,46.50696 C18.321536,47.029107 18.1328068,47.5632732 17.9739964,48.1072589 C17.7529882,48.8642955 16.9601263,49.2988325 16.2030896,49.0778243 C15.4460529,48.8568161 15.011516,48.0639542 15.2325242,47.3069175 C15.4209965,46.6613283 15.6450049,46.0273142 15.9035237,45.4075322 Z M14.5479156,51.1206264 C14.6045271,50.3340234 15.2880875,49.7422484 16.0746904,49.7988599 C16.8612934,49.8554714 17.4530684,50.5390318 17.3964569,51.3256348 C17.3699191,51.6943708 17.3563868,52.064903 17.3559079,52.4367774 C17.3548922,53.2254143 16.7147524,53.8639074 15.9261155,53.8628917 C15.1374787,53.8618761 14.4989856,53.2217363 14.5000012,52.4330994 C14.5005666,51.9940662 14.5165544,51.5563822 14.5479156,51.1206264 Z"/>
    </g>
  </g>
</svg>
