<svg xmlns="http://www.w3.org/2000/svg" width="16" height="16" viewBox="0 0 16 16">
  <g fill="none" fill-rule="evenodd">
    <rect width="16" height="16"/>
    <path fill="#FF00FF" d="M4,1 L4,0.998956561 C4,0.447248087 4.45303631,0 4.99703014,0 L11.0029699,0 C11.5536144,0 12,0.442660332 12,0.998956561 L12,1 L12.9914698,1 C14.1007504,1 15,1.89339733 15,2.99188419 L15,14.0081158 C15,15.1082031 14.0980496,16 12.9914698,16 L3.0085302,16 C1.8992496,16 1,15.1066027 1,14.0081158 L1,2.99188419 C1,1.89179693 1.90195036,1 3.0085302,1 L4,1 Z M3.0085302,2 C2.45124219,2 2,2.44708719 2,2.99188419 L2,14.0081158 C2,14.5531244 2.45036012,15 3.0085302,15 L12.9914698,15 C13.5487578,15 14,14.5529128 14,14.0081158 L14,2.99188419 C14,2.44687556 13.5496399,2 12.9914698,2 L12,2 C12,2.55275191 11.5490248,3 11.009222,3 L4.99077797,3 C4.44358641,3 4,2.55733967 4,2.00104344 L3.0085302,2 Z M5,1 L5,2 L11,2 L11,1 L5,1 Z M4,6.5 C4,6.22385763 4.23079681,6 4.50043583,6 L11.4995642,6 C11.7759472,6 12,6.23193359 12,6.5 C12,6.77614237 11.7692032,7 11.4995642,7 L4.50043583,7 C4.22405275,7 4,6.76806641 4,6.5 Z M4,8.5 C4,8.22385763 4.23079681,8 4.50043583,8 L11.4995642,8 C11.7759472,8 12,8.23193359 12,8.5 C12,8.77614237 11.7692032,9 11.4995642,9 L4.50043583,9 C4.22405275,9 4,8.76806641 4,8.5 Z M4,10.5 C4,10.2238576 4.21484375,10 4.49769878,10 L8.50230122,10 C8.77717266,10 9,10.2319336 9,10.5 C9,10.7761424 8.78515625,11 8.50230122,11 L4.49769878,11 C4.22282734,11 4,10.7680664 4,10.5 Z"/>
  </g>
</svg>
