<svg xmlns="http://www.w3.org/2000/svg" width="16" height="16" viewBox="0 0 16 16">
  <g fill="none" fill-rule="evenodd">
    <rect width="16" height="16"/>
    <path fill="#8EA6BB" d="M1.70284915,8.88674408 C1.31467628,8.50063848 1,7.7380191 1,7.18822778 L1,1.99941027 C1,1.44745122 1.45436667,1 2.00996348,1 L7.25357193,1 C7.81135936,1 8.58211322,1.31721426 8.97653572,1.70994858 L15.4283783,8.1341764 C15.8221575,8.52627018 15.8310859,9.15441763 15.4358162,9.54968732 L9.62558467,15.3599189 C9.23591336,15.7495902 8.59973881,15.7469034 8.21717319,15.3663752 L1.70284915,8.88674408 Z M8.20096517,2.34888787 C8.00745145,2.15620242 7.62837219,2 7.35176064,2 L2.49881696,2 C2.22332796,2 2,2.21921569 2,2.4921055 L2,7.27975411 C2,7.55153648 2.15749332,7.92851418 2.35258251,8.1225644 L8.56555442,14.3024483 C8.76028037,14.4961372 9.0734738,14.4978162 9.27268047,14.2986095 L14.3711034,9.20018664 C14.5669123,9.00437765 14.569134,8.68980013 14.3752593,8.49675524 L8.20096517,2.34888787 Z M7.4684065,4.6896324 L11.0157222,8.22534475 C11.2017302,8.41074435 11.2025554,8.73157865 11.0048548,8.92927929 L8.98261622,10.9515178 C8.78773281,11.1464012 8.46850104,11.1539765 8.27588458,10.9621451 L4.7115864,7.4123751 C4.52468786,7.22623837 4.36282345,6.84156082 4.36282345,6.56589303 L4.36282345,4.84280723 C4.36282345,4.57568878 4.58934412,4.34366655 4.86877153,4.34366655 L6.61535718,4.34366655 C6.90485182,4.34366655 7.27670778,4.49856074 7.4684065,4.6896324 Z"/>
  </g>
</svg>
