<svg xmlns="http://www.w3.org/2000/svg" width="20" height="16" viewBox="0 0 20 16">
  <g fill="none" fill-rule="evenodd">
    <path fill="#0685B9" d="M0,1.99406028 C0,0.892771196 0.88743329,0 1.99961498,0 L10,0 L10,16 L1.99961498,16 C0.895258123,16 0,15.1054862 0,14.0059397 L0,1.99406028 Z"/>
    <path fill="#9960FF" d="M20,1.99406028 C20,0.892771196 19.1125667,0 18.000385,0 L10,0 L10,16 L18.000385,16 C19.1047419,16 20,15.1054862 20,14.0059397 L20,1.99406028 Z"/>
    <path fill="#FFFFFF" d="M7.94012236,7.33197177 C7.94012236,7.20171653 7.93198153,7.07471958 7.91569963,6.9509771 C7.89941772,6.82723462 7.87011073,6.71489116 7.82777778,6.61394335 C7.78544483,6.51299554 7.72520268,6.43158724 7.64704954,6.369716 C7.5688964,6.30784476 7.46469377,6.2769096 7.33443853,6.2769096 C7.17161948,6.2769096 7.03810986,6.31435742 6.93390567,6.38925419 C6.82970148,6.46415095 6.7515495,6.57486624 6.69944741,6.72140339 C6.64734531,6.86794053 6.61152566,7.05355147 6.59198737,7.27824175 C6.57244909,7.50293204 6.56268009,7.76832311 6.56268009,8.07442293 C6.56268009,8.40006103 6.57244909,8.67847742 6.59198737,8.90968047 C6.61152566,9.14088353 6.64734531,9.33137896 6.69944741,9.48117248 C6.7515495,9.63096601 6.82481698,9.74005313 6.91925203,9.80843714 C7.01368708,9.87682114 7.13579953,9.91101262 7.28559306,9.91101262 C7.51353973,9.91101262 7.67961267,9.81332266 7.78381686,9.6179398 C7.88802105,9.42255694 7.94012236,9.10994905 7.94012236,8.68010676 L9.22964279,8.68010676 C9.22964279,9.37045953 9.07496701,9.89635718 8.76561082,10.2578155 C8.45625462,10.6192738 7.94338231,10.8000002 7.22697849,10.8000002 C6.88831487,10.8000002 6.59361681,10.759296 6.34287547,10.6778865 C6.09213414,10.596477 5.88372888,10.449942 5.71765345,10.2382773 C5.55157802,10.0266125 5.42620923,9.74331162 5.34154332,9.38836609 C5.25687742,9.03342056 5.2145451,8.59218755 5.2145451,8.06465383 C5.2145451,7.52409459 5.26664641,7.07634892 5.37085061,6.72140339 C5.4750548,6.36645786 5.62158974,6.08315696 5.81045984,5.8714922 C5.99932994,5.65982743 6.22401686,5.51166432 6.48452734,5.42699841 C6.74503782,5.34233251 7.03159505,5.30000019 7.34420762,5.30000019 C7.96943277,5.30000019 8.43997277,5.48235479 8.75584172,5.84706946 C9.07171068,6.21178413 9.22964279,6.70674662 9.22964279,7.33197177 L7.94012236,7.33197177 Z M3.52557728,7.33197177 C3.52557728,7.20171653 3.51743645,7.07471958 3.50115454,6.9509771 C3.48487264,6.82723462 3.45556565,6.71489116 3.41323269,6.61394335 C3.37089974,6.51299554 3.3106576,6.43158724 3.23250445,6.369716 C3.15435131,6.30784476 3.05014868,6.2769096 2.91989344,6.2769096 C2.75707439,6.2769096 2.62356477,6.31435742 2.51936058,6.38925419 C2.41515639,6.46415095 2.33700442,6.57486624 2.28490232,6.72140339 C2.23280023,6.86794053 2.19698057,7.05355147 2.17744229,7.27824175 C2.157904,7.50293204 2.148135,7.76832311 2.148135,8.07442293 C2.148135,8.40006103 2.157904,8.67847742 2.17744229,8.90968047 C2.19698057,9.14088353 2.23280023,9.33137896 2.28490232,9.48117248 C2.33700442,9.63096601 2.41027189,9.74005313 2.50470694,9.80843714 C2.59914199,9.87682114 2.72125444,9.91101262 2.87104797,9.91101262 C3.09899464,9.91101262 3.26506758,9.81332266 3.36927177,9.6179398 C3.47347596,9.42255694 3.52557728,9.10994905 3.52557728,8.68010676 L4.8150977,8.68010676 C4.8150977,9.37045953 4.66042193,9.89635718 4.35106573,10.2578155 C4.04170954,10.6192738 3.52883722,10.8000002 2.8124334,10.8000002 C2.47376978,10.8000002 2.17907172,10.759296 1.92833038,10.6778865 C1.67758905,10.596477 1.46918379,10.449942 1.30310836,10.2382773 C1.13703293,10.0266125 1.01166414,9.74331162 0.926998236,9.38836609 C0.84233233,9.03342056 0.800000012,8.59218755 0.800000012,8.06465383 C0.800000012,7.52409459 0.852101326,7.07634892 0.956305518,6.72140339 C1.06050971,6.36645786 1.20704466,6.08315696 1.39591475,5.8714922 C1.58478485,5.65982743 1.80947177,5.51166432 2.06998225,5.42699841 C2.33049273,5.34233251 2.61704996,5.30000019 2.92966253,5.30000019 C3.55488769,5.30000019 4.02542768,5.48235479 4.34129664,5.84706946 C4.65716559,6.21178413 4.8150977,6.70674662 4.8150977,7.33197177 L3.52557728,7.33197177 Z M11.8999996,5.30000019 L13.6243169,5.30000019 L14.9273078,9.08221308 L14.9429125,9.08221308 L16.1756823,5.30000019 L17.8999996,5.30000019 L17.8999996,10.8000002 L16.7530555,10.8000002 L16.7530555,6.90224109 L16.7374509,6.90224109 L15.3720412,10.8000002 L14.427958,10.8000002 L13.0625484,6.94075649 L13.0469437,6.94075649 L13.0469437,10.8000002 L11.8999996,10.8000002 L11.8999996,5.30000019 Z"/>
  </g>
</svg>
