<svg xmlns="http://www.w3.org/2000/svg" width="22" height="22" viewBox="0 0 22 22">
  <g fill="none" fill-rule="evenodd">
    <rect width="22" height="22"/>
    <path fill="#FF00FF" fill-rule="nonzero" d="M11.6360257,14.8274566 L9.4654323,15.7868047 L8.76521358,17.7872098 L6.56684531,18.6745434 L5.4883192,21 L1,21 L1,16 L8.31327646,9.49930981 C8.10988027,8.86944669 8,8.1975553 8,7.5 C8,3.91014913 10.9101491,1 14.5,1 C18.0898509,1 21,3.91014913 21,7.5 C21,11.0898509 18.0898509,14 14.5,14 C13.6705133,14 12.8773165,13.844625 12.1479257,13.5613913 L11.6360257,14.8274566 Z M2,20 L4.84979357,20 L5.82598506,17.8951914 L7.9709824,17.0294001 L8.66477295,15.0473592 L10.8609215,14.0767164 L11.5905308,12.2721979 L12.5099077,12.6292061 C13.1383203,12.8732285 13.8096026,13 14.5,13 C17.5375661,13 20,10.5375661 20,7.5 C20,4.46243388 17.5375661,2 14.5,2 C11.4624339,2 9,4.46243388 9,7.5 C9,8.08204237 9.0900786,8.6506687 9.26489033,9.19201347 L9.46545448,9.81310653 L2,16.4490661 L2,20 Z M14.5,8 C13.1192881,8 12,6.88071187 12,5.5 C12,4.11928813 13.1192881,3 14.5,3 C15.8807119,3 17,4.11928813 17,5.5 C17,6.88071187 15.8807119,8 14.5,8 Z M14.5,7 C15.3284271,7 16,6.32842712 16,5.5 C16,4.67157288 15.3284271,4 14.5,4 C13.6715729,4 13,4.67157288 13,5.5 C13,6.32842712 13.6715729,7 14.5,7 Z"/>
  </g>
</svg>
