<svg xmlns="http://www.w3.org/2000/svg" width="16" height="16" viewBox="0 0 16 16">
  <g fill="none" fill-rule="evenodd">
    <rect width="16" height="16"/>
    <path fill="#25CAAB" d="M13,4.78129571 L13,9.0000567 C13,11.2091644 11.2187136,13 8.99775114,13 L5.94999094,13 C5.71835578,14.1411202 4.70947896,15 3.5,15 C2.11928813,15 1,13.8807119 1,12.5 C1,11.1192881 2.11928813,10 3.5,10 C4.70947896,10 5.71835578,10.8588798 5.94999094,12 L8.99583353,12 C10.6549889,12 12,10.6609799 12,8.99833453 L12,4.78129571 L9.47265064,4.78129571 C9.19461794,4.78129571 9.11961853,4.60942071 9.29222595,4.41215508 L12.1462299,1.15043633 C12.3246168,0.946565593 12.6196185,0.953170706 12.7922259,1.15043633 L15.6462299,4.41215508 C15.8246168,4.61602582 15.7363254,4.78129571 15.4658052,4.78129571 L13,4.78129571 L13,4.78129571 Z M3.5,11 C2.67157288,11 2,11.6715729 2,12.5 C2,13.3284271 2.67157288,14 3.5,14 C4.32842712,14 5,13.3284271 5,12.5 C5,11.6715729 4.32842712,11 3.5,11 Z"/>
  </g>
</svg>
