<svg xmlns="http://www.w3.org/2000/svg" width="61" height="61" viewBox="0 0 61 61">
  <path fill="#2DBBE9" fill-rule="evenodd" d="M30.5,46 C21.9395864,46 15,39.0604136 15,30.5 C15,21.9395864 21.9395864,15 30.5,15 C39.0604136,15 46,21.9395864 46,30.5 C46,39.0604136 39.0604136,46 30.5,46 Z M30.5,45 C38.5081289,45 45,38.5081289 45,30.5 C45,22.4918711 38.5081289,16 30.5,16 C22.4918711,16 16,22.4918711 16,30.5 C16,38.5081289 22.4918711,45 30.5,45 Z M30.5,43 C23.5964406,43 18,37.4035594 18,30.5 C18,23.5964406 23.5964406,18 30.5,18 C37.4035594,18 43,23.5964406 43,30.5 C43,37.4035594 37.4035594,43 30.5,43 Z M30.5,42 C36.8512746,42 42,36.8512746 42,30.5 C42,24.1487254 36.8512746,19 30.5,19 C24.1487254,19 19,24.1487254 19,30.5 C19,36.8512746 24.1487254,42 30.5,42 Z M30,28.5096658 C30,28.2281852 30.2319336,28 30.5,28 C30.7761424,28 31,28.2224731 31,28.5096658 L31,36.4903342 C31,36.7718148 30.7680664,37 30.5,37 C30.2238576,37 30,36.7775269 30,36.4903342 L30,28.5096658 Z M30.5,27 C29.6715729,27 29,26.3284271 29,25.5 C29,24.6715729 29.6715729,24 30.5,24 C31.3284271,24 32,24.6715729 32,25.5 C32,26.3284271 31.3284271,27 30.5,27 Z"/>
</svg>
