<svg xmlns="http://www.w3.org/2000/svg" width="16" height="16" viewBox="0 0 16 16">
  <g fill="none" fill-rule="evenodd">
    <rect width="16" height="16"/>
    <path fill="#8EA6BB" d="M10.0664908,12.3689262 C10.022929,12.5723981 10,12.7835214 10,13 C10,14.6568542 11.3431458,16 13,16 C14.6568542,16 16,14.6568542 16,13 C16,11.3431458 14.6568542,10 13,10 C12.7389682,10 12.4857229,10.0333381 12.2442897,10.0959889 L13.7769191,11.6256282 C13.7769191,11.6256282 15.7107647,13.198248 14.212522,14.3988751 C12.7142793,15.5995022 11.1573584,13.5221888 11.1573584,13.5221888 L10.0664908,12.3689262 Z"/>
    <path fill="#8EA6BB" fill-rule="nonzero" d="M10.8112947,9.8477608 C10.8807132,9.88235157 10.9460566,9.92880707 11.0044421,9.9871925 L13.7847299,12.7674804 C14.0683038,13.0510542 14.0724252,13.5066969 13.789561,13.789561 C13.5086553,14.0704667 13.0541801,14.0714297 12.7674804,13.7847299 L9.9871925,11.0044421 C9.9290053,10.9462549 9.88258414,10.8808229 9.84799411,10.8111254 C9.1367511,11.3272789 8.26183245,11.6316488 7.31582441,11.6316488 C4.93226041,11.6316488 3,9.69938842 3,7.31582441 C3,4.93226041 4.93226041,3 7.31582441,3 C9.69938842,3 11.6316488,4.93226041 11.6316488,7.31582441 C11.6316488,8.26172901 11.3273455,9.13655976 10.8112947,9.8477608 L10.8112947,9.8477608 Z M7.31500006,10.6300001 C9.14582403,10.6300001 10.6300001,9.14582403 10.6300001,7.31500006 C10.6300001,5.48417608 9.14582403,4 7.31500006,4 C5.48417608,4 4,5.48417608 4,7.31500006 C4,9.14582403 5.48417608,10.6300001 7.31500006,10.6300001 Z"/>
    <path fill="#8EA6BB" d="M5.00993136 2.75412034C5.13500564 1.21227656 6.42593164 0 8 0 9.65685425 0 11 1.34314575 11 3 11 3.25492914 10.9682025 3.50243158 10.9083572 3.73875752 9.99839329 2.79037485 8.71816613 2.19999695 7.30004883 2.19999695 6.47469887 2.19999695 5.69605625 2.39997487 5.00993136 2.75412034L5.00993136 2.75412034zM2.96905025 10.0001563C1.32645156 10.0167586 0 11.3534746 0 13 0 14.6568542 1.34314575 16 3 16 4.65685425 16 6 14.6568542 6 13 6 12.7614706 5.97216199 12.5294432 5.91955762 12.3069893 4.66349879 11.9469335 3.60988732 11.1078801 2.96905025 10.0001563z"/>
  </g>
</svg>
