<svg xmlns="http://www.w3.org/2000/svg" width="22" height="22" viewBox="0 0 22 22">
  <g fill="none" fill-rule="evenodd">
    <rect width="22" height="22"/>
    <path fill="#0685B9" fill-rule="nonzero" d="M8.76521358,17.7872098 L6.56684531,18.6745434 L5.4883192,21 L1,21 L1,16 L8.31327646,9.49930981 C8.10988027,8.86944669 8,8.1975553 8,7.5 C8,3.91014913 10.9101491,1 14.5,1 C18.0898509,1 21,3.91014913 21,7.5 C21,8.20132146 20.88893,8.87670114 20.6834209,9.50950819 C20.6834209,9.50950819 19.7736659,9.06662336 19.7736659,9.06662336 C19.9209358,8.5701209 20,8.04429366 20,7.5 C20,4.46243388 17.5375661,2 14.5,2 C11.4624339,2 9,4.46243388 9,7.5 C9,8.08204237 9.0900786,8.6506687 9.26489033,9.19201347 L9.46545448,9.81310653 L2,16.4490661 L2,20 L4.84979357,20 L5.82598506,17.8951914 L7.9709824,17.0294001 L8.66477295,15.0473592 L9.01119644,14.8942487 L9.03523586,17.0158024 L8.76521358,17.7872098 Z"/>
    <path fill="#2DBBE9" d="M16.733942,8.41584617 L21.5600388,11.2088105 C21.9539942,11.41759 22.2222222,11.8321336 22.2222222,12.3094259 L22.2222222,12.535867 L22.2222222,17.9838058 C22.2222222,18.4722982 21.9412351,18.8947392 21.5328003,19.0987803 L16.7702122,21.8686266 C16.5791123,21.9890984 16.431241,21.9995692 16.1889613,22 L16.1889613,20.4650255 C16.3774807,20.4644512 16.4750324,20.4696317 16.6238409,20.3761547 L20.3271362,18.2218777 C20.6452538,18.0633546 20.8635922,17.7348212 20.8635922,17.3550263 L20.8635922,13.1181234 L20.8635922,12.9420824 C20.8635922,12.5709029 20.6550023,12.2485439 20.3489271,12.0858567 L16.5954555,9.91434884 C16.4535283,9.8322155 16.2888068,9.78511806 16.1130465,9.78511806 C15.9255306,9.78511806 15.7506305,9.83867704 15.6013919,9.92956935 L11.8677041,12.0890157 C11.5646394,12.2524208 11.3584866,12.5730567 11.3584866,12.9420824 L11.3584866,17.0216109 L11.3584866,17.3550263 L11.3584866,19.4887701 L10.6769495,19.0920316 C10.2752527,18.8858367 10,18.4672725 10,17.9838058 L10,12.3094259 C10,11.8350054 10.2650741,11.4227592 10.6545853,11.2126874 C10.6545853,11.2126874 15.4560241,8.43666668 15.4568842,8.43810258 C15.6475541,8.31906667 15.8724871,8.25 16.1136199,8.25 C16.3396999,8.25 16.5513003,8.31073847 16.733942,8.41584617 Z M18.0522876,14.4256345 L18.0522876,16.2415223 C18.0522876,16.4045124 17.9599657,16.5452243 17.8252409,16.6132087 L17.8252409,16.6133524 L16.2564771,17.5366754 L16.2564771,17.5365317 C16.1932274,17.5769199 16.1184906,17.6003479 16.038223,17.6003479 C15.9518573,17.6003479 15.8717315,17.5731829 15.8056455,17.526758 L14.2492197,16.6111964 L14.2492197,16.6110527 C14.1167639,16.5423497 14.0261438,16.4027876 14.0261438,16.2415223 L14.0261438,14.3501761 C14.0261438,14.1920729 14.1133604,14.0546668 14.2418453,13.9846701 L15.8232306,13.0589037 C15.8232306,13.0589037 15.8233724,13.0591912 15.8237978,13.0597661 C15.8864803,13.0199528 15.9606499,12.9970997 16.0400666,12.9970997 C16.1145197,12.9970997 16.184293,13.0172219 16.2445646,13.0524358 L16.2445646,13.0522921 L17.8344589,13.9832328 L17.8343171,13.9832328 C17.9639365,14.052942 18.0522876,14.1910668 18.0522876,14.3501761 L18.0522876,14.4256345 Z M19.1241921,13.0596727 L19.1241921,13.0595291 L16.4553716,11.5070519 L16.4553716,11.5071955 C16.3544246,11.4486169 16.2373661,11.4147331 16.1126082,11.4147331 C15.9791529,11.4147331 15.8546802,11.4533548 15.7494558,11.5195429 C15.7488855,11.5186815 15.7484578,11.5181072 15.7484578,11.5181072 L13.0938953,13.0618263 C12.8785988,13.1785529 12.7320261,13.4076987 12.7320261,13.6715897 L12.7320261,20.308778 L14.0921009,21.0527841 L14.0921009,18.0183249 L15.7190862,18.9693662 C15.8300138,19.046466 15.9644671,19.0918357 16.1094714,19.0918357 C16.2440674,19.0918357 16.3695381,19.0529269 16.475618,18.9855902 L16.4757606,18.9855902 L19.1090786,17.4458911 C19.1090786,17.4458911 19.108936,17.4457476 19.108936,17.445604 C19.334926,17.3323233 19.4901961,17.097578 19.4901961,16.8260776 L19.4901961,13.7973614 L19.4901961,13.6715897 C19.4901961,13.4062629 19.3417698,13.1756814 19.1241921,13.0596727 L19.1241921,13.0596727 Z"/>
    <path fill="#0685B9" d="M14.5,8 C13.1192881,8 12,6.88071187 12,5.5 C12,4.11928813 13.1192881,3 14.5,3 C15.8807119,3 17,4.11928813 17,5.5 C17,6.88071187 15.8807119,8 14.5,8 Z M14.5,7 C15.3284271,7 16,6.32842712 16,5.5 C16,4.67157288 15.3284271,4 14.5,4 C13.6715729,4 13,4.67157288 13,5.5 C13,6.32842712 13.6715729,7 14.5,7 Z"/>
  </g>
</svg>
