<svg xmlns="http://www.w3.org/2000/svg" width="16" height="16" viewBox="0 0 16 16">
  <g fill="none" fill-rule="evenodd">
    <rect width="16" height="16"/>
    <rect width="16" height="16" fill="#9960FF" rx="2"/>
    <path fill="#00806F" d="M16,8 L16,14.0059397 C16,15.1054862 15.1047419,16 14.000385,16 L4,16 L4,8 L16,8 Z"/>
    <path fill="#FFFFFF" d="M11.7440559,12.5651738 C11.7614726,12.949534 11.8630686,13.2280517 12.0488471,13.4007353 C12.2346255,13.5734189 12.5016779,13.6597594 12.8500125,13.6597594 C13.0996522,13.6597594 13.3144553,13.599878 13.4944282,13.4801136 C13.674401,13.3603492 13.7847053,13.2336237 13.8253443,13.0999332 L14.9138843,13.0999332 C14.739717,13.6179839 14.4726646,13.9884124 14.1127189,14.2112299 C13.7527732,14.4340475 13.3173615,14.5454545 12.8064709,14.5454545 C12.4523308,14.5454545 12.1330289,14.4911436 11.8485557,14.3825201 C11.5640825,14.2738965 11.3231547,14.1193192 11.1257651,13.9187834 C10.9283756,13.7182477 10.7759815,13.4787224 10.6685783,13.2002005 C10.5611752,12.9216786 10.5074744,12.6153092 10.5074744,12.2810829 C10.5074744,11.9579975 10.5626266,11.6571984 10.6729325,11.3786765 C10.7832384,11.1001546 10.9399866,10.8592368 11.1431818,10.6559158 C11.3463769,10.4525948 11.5887561,10.2924471 11.8703265,10.1754679 C12.1518969,10.0584887 12.4639419,10 12.8064709,10 C13.1896389,10 13.5234545,10.071022 13.8079277,10.2130682 C14.0924009,10.3551143 14.3260718,10.545899 14.5089474,10.7854278 C14.6918231,11.0249566 14.8238979,11.297904 14.905176,11.6042781 C14.986454,11.9106522 15.0154815,12.2309475 14.9922592,12.5651738 L11.7440559,12.5651738 Z M13.7556778,11.8131684 C13.697622,11.5123648 13.5945746,11.2839803 13.4465324,11.128008 C13.2984902,10.9720358 13.0735275,10.8940508 12.7716376,10.8940508 C12.574248,10.8940508 12.410243,10.9260803 12.2796175,10.9901404 C12.1489921,11.0542004 12.0444933,11.133578 11.966118,11.2282754 C11.8877427,11.3229728 11.8325906,11.4232392 11.8006599,11.5290775 C11.7687293,11.6349159 11.7498614,11.7296119 11.7440559,11.8131684 L13.7556778,11.8131684 Z M5,10 L6.39103068,10 L7.44217152,12.9653091 L7.45476003,12.9653091 L8.44925256,10 L9.84028324,10 L9.84028324,14.3120788 L8.91502754,14.3120788 L8.91502754,11.2561798 L8.90243902,11.2561798 L7.80094414,14.3120788 L7.0393391,14.3120788 L5.93784422,11.2863765 L5.9252557,11.2863765 L5.9252557,14.3120788 L5,14.3120788 L5,10 Z"/>
    <polygon fill="#FFFFFF" points="2 1.5 2 7.917 3.338 7.917 3.338 3.414 3.356 3.414 4.949 7.917 6.051 7.917 7.644 3.369 7.662 3.369 7.662 7.917 9 7.917 9 1.5 6.988 1.5 5.55 5.913 5.532 5.913 4.012 1.5"/>
  </g>
</svg>
