<svg xmlns="http://www.w3.org/2000/svg" width="20" height="16" viewBox="0 0 20 16">
  <g fill="none" fill-rule="evenodd">
    <path fill="#0685B9" d="M0,1.99406028 C0,0.892771196 0.88743329,0 1.99961498,0 L10,0 L10,16 L1.99961498,16 C0.895258123,16 0,15.1054862 0,14.0059397 L0,1.99406028 Z"/>
    <path fill="#9960FF" d="M20,1.99406028 C20,0.892771196 19.1125667,0 18.000385,0 L10,0 L10,16 L18.000385,16 C19.1047419,16 20,15.1054862 20,14.0059397 L20,1.99406028 Z"/>
    <polygon fill="#FFFFFF" points="11.9 5.3 11.9 10.8 13.047 10.8 13.047 6.941 13.063 6.941 14.428 10.8 15.372 10.8 16.737 6.902 16.753 6.902 16.753 10.8 17.9 10.8 17.9 5.3 16.176 5.3 14.943 9.082 14.927 9.082 13.624 5.3"/>
    <path fill="#FFFFFF" d="M3.56,7.04 L4.712,7.04 C4.712,6.83199896 4.69733348,6.60933452 4.668,6.372 C4.63866652,6.13466548 4.56533392,5.91333436 4.448,5.708 C4.33066608,5.50266564 4.15333452,5.333334 3.916,5.2 C3.67866548,5.066666 3.35466872,5 2.944,5 C2.51199784,5 2.16800128,5.0733326 1.912,5.22 C1.65599872,5.3666674 1.46000068,5.57066536 1.324,5.832 C1.18799932,6.09333464 1.1000002,6.40666484 1.06,6.772 C1.0199998,7.13733516 1,7.53599784 1,7.968 C1,8.40533552 1.0199998,8.80533152 1.06,9.168 C1.1000002,9.53066848 1.18799932,9.84266536 1.324,10.104 C1.46000068,10.3653346 1.65599872,10.5653326 1.912,10.704 C2.16800128,10.8426674 2.51199784,10.912 2.944,10.912 C3.32266856,10.912 3.63066548,10.8533339 3.868,10.736 C4.10533452,10.6186661 4.28933268,10.456001 4.42,10.248 C4.55066732,10.039999 4.63999976,9.79733472 4.688,9.52 C4.73600024,9.24266528 4.76,8.94933488 4.76,8.64 L3.608,8.64 C3.608,8.94933488 3.58933352,9.19866572 3.552,9.388 C3.51466648,9.57733428 3.46400032,9.72399948 3.4,9.828 C3.33599968,9.93200052 3.26000044,10.0013332 3.172,10.036 C3.08399956,10.0706668 2.98933384,10.088 2.888,10.088 C2.76533272,10.088 2.6573338,10.0626669 2.564,10.012 C2.4706662,9.96133308 2.39333364,9.8626674 2.332,9.716 C2.27066636,9.5693326 2.22533348,9.362668 2.196,9.096 C2.16666652,8.829332 2.152,8.48000216 2.152,8.048 C2.152,7.64266464 2.16266656,7.3000014 2.184,7.02 C2.20533344,6.7399986 2.2426664,6.5133342 2.296,6.34 C2.3493336,6.1666658 2.4226662,6.04133372 2.516,5.964 C2.6093338,5.88666628 2.72799928,5.848 2.872,5.848 C3.13333464,5.848 3.31333284,5.94266572 3.412,6.132 C3.51066716,6.32133428 3.56,6.62399792 3.56,7.04 Z M7.7671111,7.04 L8.9191111,7.04 C8.9191111,6.83199896 8.90444458,6.60933452 8.8751111,6.372 C8.84577762,6.13466548 8.77244502,5.91333436 8.6551111,5.708 C8.53777718,5.50266564 8.36044562,5.333334 8.1231111,5.2 C7.88577658,5.066666 7.56177982,5 7.1511111,5 C6.71910894,5 6.37511238,5.0733326 6.1191111,5.22 C5.86310982,5.3666674 5.66711178,5.57066536 5.5311111,5.832 C5.39511042,6.09333464 5.3071113,6.40666484 5.2671111,6.772 C5.2271109,7.13733516 5.2071111,7.53599784 5.2071111,7.968 C5.2071111,8.40533552 5.2271109,8.80533152 5.2671111,9.168 C5.3071113,9.53066848 5.39511042,9.84266536 5.5311111,10.104 C5.66711178,10.3653346 5.86310982,10.5653326 6.1191111,10.704 C6.37511238,10.8426674 6.71910894,10.912 7.1511111,10.912 C7.52977966,10.912 7.83777658,10.8533339 8.0751111,10.736 C8.31244562,10.6186661 8.49644378,10.456001 8.6271111,10.248 C8.75777842,10.039999 8.84711086,9.79733472 8.8951111,9.52 C8.94311134,9.24266528 8.9671111,8.94933488 8.9671111,8.64 L7.8151111,8.64 C7.8151111,8.94933488 7.79644462,9.19866572 7.7591111,9.388 C7.72177758,9.57733428 7.67111142,9.72399948 7.6071111,9.828 C7.54311078,9.93200052 7.46711154,10.0013332 7.3791111,10.036 C7.29111066,10.0706668 7.19644494,10.088 7.0951111,10.088 C6.97244382,10.088 6.8644449,10.0626669 6.7711111,10.012 C6.6777773,9.96133308 6.60044474,9.8626674 6.5391111,9.716 C6.47777746,9.5693326 6.43244458,9.362668 6.4031111,9.096 C6.37377762,8.829332 6.3591111,8.48000216 6.3591111,8.048 C6.3591111,7.64266464 6.36977766,7.3000014 6.3911111,7.02 C6.41244454,6.7399986 6.4497775,6.5133342 6.5031111,6.34 C6.5564447,6.1666658 6.6297773,6.04133372 6.7231111,5.964 C6.8164449,5.88666628 6.93511038,5.848 7.0791111,5.848 C7.34044574,5.848 7.52044394,5.94266572 7.6191111,6.132 C7.71777826,6.32133428 7.7671111,6.62399792 7.7671111,7.04 Z"/>
  </g>
</svg>
