<svg xmlns="http://www.w3.org/2000/svg" width="16" height="16" viewBox="0 0 16 16">
  <g fill="none" fill-rule="evenodd">
    <rect width="16" height="16"/>
    <rect width="16" height="16" fill="#FF8E25" rx="2"/>
    <path fill="#FFFFFF" d="M2.042,3.25385442 L8.49539151,3.25385442 L8.49539151,4.66757914 L3.67825545,4.66757914 L3.67825545,7.11541729 L7.90633955,7.11541729 L7.90633955,8.45060175 L3.67825545,8.45060175 L3.67825545,12.6001456 L2.042,12.6001456 L2.042,3.25385442 Z M9.6913455,10.1534974 C9.6913455,10.4137129 9.73577187,10.6358448 9.82462594,10.8198996 C9.91348002,11.0039545 10.0372392,11.1546868 10.1959072,11.2721012 C10.3545752,11.3895155 10.5370406,11.4751949 10.743309,11.529142 C10.9495774,11.5830891 11.1732959,11.6100623 11.4144712,11.6100623 C11.6746867,11.6100623 11.8968186,11.5799158 12.0808735,11.519622 C12.2649283,11.4593281 12.414074,11.381582 12.528315,11.2863812 C12.6425559,11.1911804 12.725062,11.0817011 12.7758358,10.9579401 C12.8266095,10.8341791 12.851996,10.7088332 12.851996,10.5818988 C12.851996,10.3216833 12.7932898,10.129698 12.6758754,10.0059369 C12.5584611,9.8821759 12.429942,9.79490981 12.2903142,9.74413606 C12.0491388,9.65528198 11.7683007,9.57118921 11.4477914,9.49185522 C11.127282,9.41252122 10.7322046,9.30938858 10.2625474,9.18245418 C9.9705983,9.10629355 9.72783992,9.00633422 9.53426497,8.88257319 C9.34069003,8.75881215 9.18678439,8.62077307 9.07254344,8.4684518 C8.95830248,8.31613054 8.87738302,8.15429161 8.82978263,7.98293019 C8.78218223,7.81156876 8.75838239,7.63703659 8.75838239,7.45932844 C8.75838239,7.11660559 8.82978191,6.8199009 8.9725831,6.56920547 C9.11538429,6.31851005 9.30419637,6.1106581 9.53902499,5.9456434 C9.77385361,5.78062869 10.0404118,5.65845617 10.3387077,5.57912217 C10.6370035,5.49978818 10.9384681,5.46012178 11.2431107,5.46012178 C11.598527,5.46012178 11.9333114,5.5061348 12.247474,5.59816224 C12.5616366,5.69018967 12.8377148,5.82822875 13.0757168,6.01228362 C13.3137188,6.19633848 13.5025308,6.42323031 13.6421587,6.69296589 C13.7817865,6.96270147 13.8515994,7.27527272 13.8515994,7.63068901 L12.6615954,7.63068901 C12.6298618,7.19276536 12.4807161,6.88336743 12.2141539,6.70248592 C11.9475917,6.52160441 11.6080473,6.43116501 11.1955105,6.43116501 C11.0558827,6.43116501 10.9130836,6.44544492 10.7671091,6.47400516 C10.6211345,6.50256539 10.4878554,6.55016508 10.3672678,6.61680563 C10.2466801,6.68344619 10.1467207,6.77388559 10.0673868,6.88812654 C9.98805276,7.00236749 9.94838635,7.14516654 9.94838635,7.31652797 C9.94838635,7.55770331 10.0229592,7.74651538 10.1721071,7.88296985 C10.321255,8.01942432 10.5164137,8.12255697 10.7575891,8.19237088 C10.7829759,8.1987176 10.8829353,8.22569076 11.0574701,8.27329115 C11.2320048,8.32089155 11.4271635,8.3732512 11.642952,8.43037168 C11.8587405,8.48749215 12.0697657,8.54302512 12.2760341,8.59697223 C12.4823025,8.65091935 12.6298615,8.69058575 12.7187156,8.71597263 C12.9408508,8.78578655 13.1344228,8.88098591 13.2994375,9.00157358 C13.4644522,9.12216125 13.6024913,9.26020033 13.7135589,9.41569496 C13.8246265,9.57118959 13.9071326,9.73778848 13.9610797,9.91549663 C14.0150268,10.0932048 14.042,10.2709103 14.042,10.4486184 C14.042,10.8294216 13.9642539,11.1546861 13.8087592,11.4244217 C13.6532646,11.6941572 13.448586,11.9147024 13.1947172,12.0860639 C12.9408484,12.2574253 12.652077,12.3827711 12.3283943,12.4621051 C12.0047116,12.5414391 11.6746871,12.5811055 11.338311,12.5811055 C10.9511611,12.5811055 10.5862302,12.5335058 10.2435073,12.438305 C9.90078448,12.3431042 9.60249314,12.1971319 9.34862436,12.0003836 C9.09475557,11.8036353 8.89166359,11.551357 8.73934232,11.2435411 C8.58702106,10.9357252 8.50768825,10.5723809 8.50134153,10.1534974 L9.6913455,10.1534974 Z"/>
  </g>
</svg>
