<svg xmlns="http://www.w3.org/2000/svg" width="16" height="16" viewBox="0 0 16 16">
  <g fill="none" fill-rule="evenodd">
    <rect width="16" height="16"/>
    <path fill="#8EA6BB" d="M4.98465703,12 L7.49657726,12 C7.77460996,12 7.84960938,12.171875 7.67700195,12.3691406 L4.82299805,15.6308594 C4.64461115,15.8347301 4.34960938,15.828125 4.17700195,15.6308594 L1.32299805,12.3691406 C1.14461115,12.1652699 1.23290253,12 1.50342274,12 L4,12 L4,4.94999094 C2.85887984,4.71835578 2,3.70947896 2,2.5 C2,1.11928813 3.11928813,0 4.5,0 C5.88071187,0 7,1.11928813 7,2.5 C7,3.70947896 6.14112016,4.71835578 5,4.94999094 L5,8.70549469 C5.67899378,7.74800671 7.1694073,7.06281264 8.5,7.06281264 C9.75826086,7.06281264 11.0903327,6.64009428 11.6230929,5.71326589 C11.7642816,5.46764371 11.8763807,5.20690257 11.9623065,4.94203498 C10.8400187,4.69605318 10,3.69612503 10,2.5 C10,1.11928813 11.1192881,0 12.5,0 C13.8807119,0 15,1.11928813 15,2.5 C15,3.70614284 14.1458517,4.71278866 13.0094362,4.94805645 C12.9085781,5.33445495 12.7430223,5.77155951 12.4900663,6.21162017 C11.7878309,7.43328015 10.1377556,8.06281264 8.5,8.06281264 C7.26825894,8.06281264 5.94365852,8.80534933 5.45623046,9.91410596 C5.06221695,10.8103717 4.99552049,11.7581639 4.98465703,12 Z M6,2.5 C6,1.67157288 5.32842712,1 4.5,1 C3.67157288,1 3,1.67157288 3,2.5 C3,3.32842712 3.67157288,4 4.5,4 C5.32842712,4 6,3.32842712 6,2.5 Z M14,2.5 C14,1.67157288 13.3284271,1 12.5,1 C11.6715729,1 11,1.67157288 11,2.5 C11,3.32842712 11.6715729,4 12.5,4 C13.3284271,4 14,3.32842712 14,2.5 Z"/>
  </g>
</svg>
