<svg xmlns="http://www.w3.org/2000/svg" width="16" height="16" viewBox="0 0 16 16">
  <g fill="none" fill-rule="evenodd">
    <rect width="16" height="16" fill="none"/>
    <path fill="#FF00FF" fill-rule="nonzero" d="M0.427940531,8.79667183 L0.427940531,8.79667183 C0.45879379,8.70689049 0.554727031,8.43006228 0.618192965,8.2727539 C0.694695906,8.08313163 0.834960293,7.89288081 0.834960293,7.89288081 C1.39979485,7.01174898 2.25511575,6.6913374 3.22340357,6.45102872 C2.73925966,5.82622615 2.43263518,4.92907373 2.43263518,4.01590074 C2.43263518,3.7435509 2.48104958,3.48722164 2.56174023,3.24691296 C2.53499052,3.24691296 2.70324957,2.90088263 2.8430893,2.68506518 C2.88041191,2.62746443 2.92073617,2.57115601 2.95980121,2.51955317 C3.41074653,1.94151696 4.11699617,1.56475219 4.90176911,1.56475219 C5.19225545,1.56475219 5.4827418,1.61281392 5.75709001,1.70893739 C6.40261522,0.715661509 7.53228433,0.058817778 8.80719662,0.058817778 C10.8244629,0.058817778 12.454414,1.67689624 12.454414,3.67946859 C12.454414,6.37092583 10.7437722,8.72595091 8.80719662,8.72595091 C6.83834473,8.72595091 5.17611732,6.41898756 5.17611732,3.67946859 C5.17611732,3.18283064 5.2729461,2.71823386 5.45046554,2.28567823 C5.2729461,2.23761649 5.09542667,2.20557534 4.90176911,2.20557534 C3.90120503,2.20557534 3.07816039,3.02262486 3.07816039,4.01590074 C3.07816039,5.13734126 3.61071869,6.22674062 4.35307268,6.61123451 C4.51445398,6.6913374 4.5790065,6.88358435 4.49831585,7.04379014 C4.43376333,7.15593419 4.32079642,7.2200165 4.20782951,7.2200165 C4.15941512,7.2200165 4.11100073,7.2200165 4.06258634,7.18797534 C3.93348129,7.12389303 3.80437625,7.04379014 3.69140934,6.94766666 C3.65913308,6.97970782 3.61071869,7.01174898 3.54616617,7.02776956 C2.15828697,7.38022229 1.44820924,7.73267502 1.07703225,8.90217728 L0.65744086,10.3920911 C0.65744086,10.4241323 0.673578991,10.4401528 0.673578991,10.4561734 C0.689717121,10.472194 0.689717121,10.472194 0.705855251,10.472194 L2.73925966,10.472194 C3.27181796,9.6391239 4.11100073,9.01432133 5.09542667,8.75799207 L5.28908423,8.70993033 C5.57957058,8.62982744 5.90233318,8.72595091 6.11212887,8.96625959 C6.8222066,9.76728853 7.7259419,9.83137085 8.67809158,9.83137085 C9.63024126,9.83137085 10.5339766,9.76728853 11.2440543,8.96625959 C11.45385,8.72595091 11.7766126,8.62982744 12.0670989,8.70993033 L12.2607565,8.74197149 C13.567945,9.07840364 14.6007854,10.0556589 15.0203768,11.3212847 C15.052653,11.3533258 15.0849293,11.4013876 15.1010674,11.4494493 L15.7788689,13.7884538 C15.8595595,14.0768242 15.795007,14.3651946 15.6174876,14.5894828 C15.4561063,14.8137709 15.1817581,14.9419355 14.9074098,14.9419355 L2.49718771,14.9419355 C2.22283949,14.9419355 1.96462941,14.8137709 1.78710998,14.5894828 C1.60959054,14.3651946 1.56117615,14.0768242 1.62572867,13.8044744 L2.30353014,11.4494493 C2.3358064,11.3373053 2.36808266,11.2251612 2.41649705,11.1130172 L0.705855251,11.1130172 C0.479921428,11.1130172 0.286263865,11.0168937 0.157158824,10.8406673 C0.0119156518,10.6644409 -0.0364987389,10.4401528 0.028053782,10.2318853 L0.427940531,8.79667183 Z M15.1172055,14.2049889 C15.1656199,14.1409065 15.1817581,14.0447831 15.1656199,13.9646802 L14.8105811,12.7471162 C14.7783048,12.715075 14.7621667,12.6830339 14.7460285,12.6349721 L14.4555422,11.6416963 C14.1327796,10.5362763 13.2290443,9.67116506 12.1155133,9.38279464 L11.9218558,9.3347329 C11.8411651,9.31871232 11.7766126,9.35075348 11.7281982,9.39881522 C10.840601,10.4081117 9.74320817,10.4882146 8.67809158,10.4882146 C7.61297498,10.4882146 6.51558213,10.4081117 5.62798497,9.39881522 C5.57957058,9.35075348 5.49887993,9.31871232 5.45046554,9.3347329 L5.25680797,9.38279464 C4.12713886,9.67116506 3.2395417,10.5362763 2.91677909,11.6416963 L2.23897762,13.9807008 C2.22283949,14.0447831 2.23897762,14.1409065 2.28739201,14.2049889 C2.31966827,14.23703 2.38422079,14.3011123 2.49718771,14.3011123 L12.1800658,14.3011123 L12.7287623,14.3011123 L14.9074098,14.3011123 C15.0203768,14.3011123 15.0849293,14.23703 15.1172055,14.2049889 Z M11.8088888,3.66344801 C11.8088888,3.57161173 11.8088888,3.49439883 11.7950679,3.40366266 C11.7950679,3.40366266 11.7729777,3.25495941 11.746366,3.10682452 C11.7197542,2.95868963 11.6825416,2.8420754 11.6636457,2.78231617 C11.2763305,1.58077276 10.1466614,0.69964093 8.80719662,0.69964093 C7.69366564,0.69964093 6.72537782,1.30842292 6.22509579,2.20557534 C6.20895766,2.22159592 6.20895766,2.25363707 6.19281953,2.26965765 C6.17668139,2.30169881 6.16054326,2.31771939 6.14440513,2.33373997 C5.99916196,2.63813096 5.90233318,2.95854254 5.85391879,3.2949747 C5.8386024,3.38613668 5.82164253,3.4935474 5.80959483,3.64078542 C5.79754713,3.78802343 5.82230611,3.92475766 5.82164253,3.93579785 C5.93460944,6.17867888 7.27407425,8.08512776 8.80719662,8.08512776 C10.4048715,8.08512776 11.8088888,6.01847309 11.8088888,3.66344801 Z"/>
  </g>
</svg>
