<svg xmlns="http://www.w3.org/2000/svg" width="16" height="16" viewBox="0 0 16 16">
  <g fill="none" fill-rule="evenodd">
    <rect width="16" height="16"/>
    <path fill="#25CAAB" fill-rule="nonzero" d="M0,7.5 C1.77635684e-15,3.35786438 3.35786438,-7.6089797e-16 7.5,0 C11.6421356,7.6089797e-16 15,3.35786438 15,7.5 C15,11.6421356 11.6421356,15 7.5,15 C3.35786438,15 0,11.6421356 0,7.5 Z M1,7.5 C1,11.0898509 3.91014913,14 7.5,14 C11.0898509,14 14,11.0898509 14,7.5 C14,3.91014913 11.0898509,1 7.5,1 C3.91014913,1 1,3.91014913 1,7.5 Z M5,4 C5,4 10.3155726,9.57521053 10.3155726,9.4654393 C10.3155726,9.35566807 5,9.4654393 5,9.4654393 L5,4 Z"/>
  </g>
</svg>
