<svg xmlns="http://www.w3.org/2000/svg" width="16" height="16" viewBox="0 0 16 16">
  <g fill="none" fill-rule="evenodd">
    <rect width="16" height="16"/>
    <path fill="#FF00FF" fill-rule="nonzero" d="M7.5,15 C3.35786438,15 0,11.6421356 0,7.5 C0,3.35786438 3.35786438,0 7.5,0 C11.6421356,0 15,3.35786438 15,7.5 C15,11.6421356 11.6421356,15 7.5,15 Z M7.5,14 C11.0898509,14 14,11.0898509 14,7.5 C14,3.91014913 11.0898509,1 7.5,1 C3.91014913,1 1,3.91014913 1,7.5 C1,11.0898509 3.91014913,14 7.5,14 Z M9.39105932,8.60271338 C9.44785628,8.63101492 9.50131907,8.66902397 9.54908897,8.71679386 L11.8238699,10.9915748 C12.0558849,11.2235898 12.059257,11.5963884 11.8278227,11.8278227 C11.5979907,12.0576546 11.2261474,12.0584425 10.9915748,11.8238699 L8.71679386,9.54908897 C8.66918615,9.50148125 8.63120521,9.447946 8.60290427,9.3909208 C8.02097817,9.81322823 7.30513564,10.0622581 6.53112906,10.0622581 C4.58094033,10.0622581 3,8.4813178 3,6.53112906 C3,4.58094033 4.58094033,3 6.53112906,3 C8.4813178,3 10.0622581,4.58094033 10.0622581,6.53112906 C10.0622581,7.30505101 9.81328268,8.02082162 9.39105932,8.60271338 L9.39105932,8.60271338 Z M6.53045459,8.98500005 C7.88606261,8.98500005 8.98500005,7.88606261 8.98500005,6.53045459 C8.98500005,5.17484657 7.88606261,4.07590914 6.53045459,4.07590914 C5.17484657,4.07590914 4.07590914,5.17484657 4.07590914,6.53045459 C4.07590914,7.88606261 5.17484657,8.98500005 6.53045459,8.98500005 Z"/>
  </g>
</svg>
