<svg xmlns="http://www.w3.org/2000/svg" width="16" height="16" viewBox="0 0 16 16">
  <g fill="none" fill-rule="evenodd">
    <rect width="16" height="16"/>
    <path fill="#FF00FF" fill-rule="nonzero" d="M5,13.5857864 L6.58698117,11.9988053 C7.1659095,11.4198769 8.18075589,11 8.99815563,11 L13.0081158,11 C13.5531244,11 14,10.5496399 14,9.9914698 L14,2.0085302 C14,1.45124219 13.5529128,1 13.0081158,1 L1.99188419,1 C1.44687556,1 1,1.45036012 1,2.0085302 L1,9.9914698 C1,10.5487578 1.44708719,11 1.99188419,11 L3.49326759,11 C4.3296644,11 5,11.6595948 5,12.4904785 L5,13.5857864 Z M4.70591205,15.2940879 C4.31604759,15.6839524 4,15.5566468 4,14.9906311 L4,12.4904785 C4,12.2195947 3.78509643,12 3.49326759,12 L1.99188419,12 C0.891796927,12 0,11.0980496 0,9.9914698 L0,2.0085302 C0,0.899249601 0.893397331,0 1.99188419,0 L13.0081158,0 C14.1082031,0 15,0.901950359 15,2.0085302 L15,9.9914698 C15,11.1007504 14.1066027,12 13.0081158,12 L8.99815563,12 C8.4468895,12 7.68612671,12.3138733 7.29408795,12.7059121 L4.70591205,15.2940879 Z"/>
  </g>
</svg>
