<svg xmlns="http://www.w3.org/2000/svg" width="21" height="21" viewBox="0 0 21 21">
  <g fill="none" fill-rule="evenodd">
    <rect width="16" height="16"/>
    <path fill="#FF00FF" fill-rule="nonzero" d="M5.6984106,13.8146797 L17.5350552,13.8146797 C18.8772185,13.8146797 19.9721413,12.7452752 19.9721413,11.4343922 L19.9721413,6.57032649 L19.9721413,6.55307803 L19.9721413,6.51858111 C19.9721413,6.50995688 19.9721413,6.50133265 19.9677263,6.49270842 C19.9677263,6.48408419 19.9633113,6.47114784 19.9633113,6.46252361 C19.9633113,6.45389938 19.9588962,6.44527515 19.9588962,6.43665092 C19.9544812,6.42802669 19.9544812,6.41940246 19.9500662,6.40646612 C19.9456512,6.39784189 19.9456512,6.38921766 19.9412362,6.38059343 C19.9368212,6.3719692 19.9368212,6.36334497 19.9324062,6.35472074 C19.9279912,6.34609651 19.9235762,6.33747228 19.9191611,6.32453593 C19.9147461,6.3159117 19.9103311,6.30728747 19.9059161,6.30297536 C19.9015011,6.29435113 19.8970861,6.2857269 19.8926711,6.27710267 C19.8882561,6.26847844 19.8838411,6.26416632 19.879426,6.25554209 C19.875011,6.24691786 19.866181,6.23829363 19.861766,6.2296694 C19.857351,6.22104517 19.852936,6.21673306 19.844106,6.20810883 C19.8396909,6.1994846 19.8308609,6.19517248 19.8264459,6.18654825 C19.8220309,6.17792402 19.8132009,6.17361191 19.8087859,6.16498768 C19.8043709,6.15636345 19.7955408,6.15205133 19.7911258,6.14773922 C19.7822958,6.13911499 19.7778808,6.13480287 19.7690508,6.12617864 C19.7602208,6.12186653 19.7558057,6.1132423 19.7469757,6.10893018 C19.7381457,6.10461807 19.7293157,6.09599384 19.7204857,6.09168172 C19.7116556,6.08736961 19.7072406,6.08305749 19.6984106,6.07874538 C19.6895806,6.07443326 19.6807506,6.07012115 19.6719205,6.06149692 C19.6630905,6.0571848 19.6542605,6.05287269 19.6454305,6.04856057 C19.6366004,6.04424846 19.6277704,6.03993634 19.6189404,6.03562423 C19.6101104,6.03131211 19.6012804,6.027 19.5924503,6.02268789 C19.5836203,6.01837577 19.5747903,6.01837577 19.5659603,6.01406366 C19.5571302,6.00975154 19.5438852,6.00543943 19.5350552,6.00543943 C19.5262252,6.00543943 19.5173951,6.00112731 19.5129801,6.00112731 C19.4997351,5.9968152 19.4909051,5.9968152 19.47766,5.9968152 C19.473245,5.9968152 19.46883,5.99250308 19.46,5.99250308 L4.45779249,3.97012115 L4.45779249,1.92617864 C4.45779249,1.90461807 4.45779249,1.88305749 4.45337748,1.86580903 C4.45337748,1.86149692 4.45337748,1.8571848 4.44896247,1.84856057 C4.44896247,1.83562423 4.44454746,1.82268789 4.44454746,1.80975154 C4.44013245,1.7968152 4.44013245,1.78819097 4.43571744,1.77525462 C4.43571744,1.76663039 4.43130243,1.76231828 4.43130243,1.75369405 C4.42688742,1.7407577 4.42247241,1.72782136 4.4180574,1.71488501 C4.4180574,1.7105729 4.41364238,1.70194867 4.41364238,1.69763655 C4.40922737,1.68470021 4.40481236,1.67607598 4.39598234,1.66313963 C4.39156733,1.65882752 4.39156733,1.65020329 4.38715232,1.64589117 C4.38273731,1.63726694 4.3783223,1.62864271 4.36949227,1.62001848 C4.36507726,1.61139425 4.36066225,1.60708214 4.35624724,1.59845791 C4.35183223,1.58983368 4.34741722,1.58552156 4.34300221,1.57689733 C4.3385872,1.5682731 4.32975717,1.55964887 4.32534216,1.55102464 C4.32092715,1.54671253 4.31651214,1.54240041 4.31209713,1.5380883 C4.30326711,1.52946407 4.29443709,1.52083984 4.28560706,1.51221561 C4.28119205,1.50790349 4.27677704,1.50359138 4.27236203,1.49927926 C4.26353201,1.49065503 4.25470199,1.4820308 4.24145695,1.47340657 C4.23704194,1.46909446 4.22821192,1.46478234 4.22379691,1.46047023 C4.21496689,1.451846 4.20613687,1.44753388 4.19730684,1.43890965 C4.18406181,1.43028542 4.17081678,1.42166119 4.16198675,1.41734908 C4.15757174,1.41303696 4.15315673,1.41303696 4.14874172,1.40872485 C4.13108168,1.40010062 4.10900662,1.39147639 4.09134658,1.38285216 L0.837483444,0.0460965092 C0.532847682,-0.0789548255 0.18406181,0.0590328542 0.0560264901,0.356568789 C-0.07200883,0.654104723 0.0692715232,0.994761807 0.373907285,1.11981314 L3.2613245,2.30995688 L3.2613245,4.94897125 L3.2613245,5.36724641 L3.2613245,8.57545996 L3.2613245,11.4430164 L3.2613245,15.065193 C3.2613245,16.2725852 4.18847682,17.2729959 5.38494481,17.4239199 C5.16860927,17.7775133 5.04057395,18.1914764 5.04057395,18.6313121 C5.04057395,19.9292587 6.12225166,20.9814148 7.44675497,20.9814148 C8.77125828,20.9814148 9.85293598,19.9249466 9.85293598,18.6313121 C9.85293598,18.2001006 9.73373068,17.7904497 9.52181015,17.4454805 L14.8816336,17.4454805 C14.669713,17.7947618 14.5505077,18.2001006 14.5505077,18.6313121 C14.5505077,19.9292587 15.6321854,20.9814148 16.9566887,20.9814148 C18.2811921,20.9814148 19.3628698,19.9249466 19.3628698,18.6313121 C19.3628698,17.3376776 18.2811921,16.2812094 16.9566887,16.2812094 L5.6984106,16.2812094 C5.00966887,16.2812094 4.45337748,15.7335708 4.45337748,15.065193 L4.45337748,13.4869589 C4.81540839,13.6939405 5.24366446,13.8146797 5.6984106,13.8146797 Z M8.66529801,18.627 C8.66529801,19.2824415 8.11783664,19.8128316 7.45116998,19.8128316 C6.78450331,19.8128316 6.23704194,19.2781294 6.23704194,18.627 C6.23704194,17.9758706 6.78450331,17.4411684 7.45116998,17.4411684 C8.11783664,17.4411684 8.66529801,17.9715585 8.66529801,18.627 Z M18.1752318,18.627 C18.1752318,19.2824415 17.6277704,19.8128316 16.9611038,19.8128316 C16.2944371,19.8128316 15.7469757,19.2781294 15.7469757,18.627 C15.7469757,17.9758706 16.2944371,17.4411684 16.9611038,17.4411684 C17.6277704,17.4411684 18.1752318,17.9715585 18.1752318,18.627 Z M17.5350552,12.6504086 L5.6984106,12.6504086 C5.00966887,12.6504086 4.45337748,12.10277 4.45337748,11.4343922 L4.45337748,8.56683573 L4.45337748,5.35862218 L4.45337748,5.14301643 L18.7800883,7.07053183 L18.7800883,11.4300801 C18.7800883,12.1070821 18.2193819,12.6504086 17.5350552,12.6504086 Z"/>
  </g>
</svg>
