<svg xmlns="http://www.w3.org/2000/svg" width="16" height="16" viewBox="0 0 16 16">
  <g fill="none" fill-rule="evenodd">
    <rect width="16" height="16"/>
    <path fill="#FF00FF" fill-rule="nonzero" d="M3,14.009222 C3,13.9977072 10.9970707,14 10.9970707,14 C10.9982866,14 11,7.99077797 11,7.99077797 C11,8.00229279 3.00292933,8 3.00292933,8 C3.0017134,8 3,14.009222 3,14.009222 Z M2,7.99077797 C2,7.44358641 2.43788135,7 3.00292933,7 L10.9970707,7 C11.5509732,7 12,7.45097518 12,7.99077797 L12,14.009222 C12,14.5564136 11.5621186,15 10.9970707,15 L3.00292933,15 C2.44902676,15 2,14.5490248 2,14.009222 L2,7.99077797 Z M6,10 C6,10.3701412 6.20109931,10.6933131 6.5,10.8662178 L6.5,12.4953156 C6.5,12.785965 6.72385763,13 7,13 C7.26806641,13 7.5,12.7740451 7.5,12.4953156 L7.5,10.8662178 C7.79890069,10.6933131 8,10.3701412 8,10 C8,9.44771525 7.55228475,9 7,9 C6.44771525,9 6,9.44771525 6,10 Z M8,5.98553668 L8,4.29094798 C8,2.4734076 9.55352688,1 11.5,1 C13.4329966,1 15,2.47613082 15,4.29094798 L15,5.98553668 L14.125,5.98553668 L14.125,4.29094798 C14.125,2.97077811 12.9602801,1.875 11.5,1.875 C10.030279,1.875 8.875,2.96417204 8.875,4.29094798 L8.875,5.98553668 L8,5.98553668 Z"/>
  </g>
</svg>
