<svg xmlns="http://www.w3.org/2000/svg" width="8" height="8" viewBox="0 0 8 8">
  <g fill="none" fill-rule="evenodd">
    <rect width="8" height="8"/>
    <path fill="#8EA6BB" d="M0.541671176,3.46223377 C0.24866418,3.46223377 2.22911967e-16,3.70299991 0,4 C0,4.28831412 0.242514446,4.53776623 0.541671176,4.53776623 L3.45284312,4.53776623 L3.45352885,7.46077486 C3.45352885,7.75858068 3.70411252,8 3.9937345,8 C4.29208184,8 4.53394014,7.75245872 4.53394014,7.46077486 L4.53325441,4.53776623 L7.45832882,4.53776623 C7.75133582,4.53776623 8,4.29700009 8,4 C8,3.71168588 7.75748555,3.46223377 7.45832882,3.46223377 L4.53325441,3.46223377 L4.53394014,0.539225144 C4.53394014,0.24141932 4.28335647,9.65845753e-16 3.9937345,0 C3.69538715,0 3.45352885,0.247541284 3.45352885,0.539225144 L3.45284312,3.46223377 L0.541671176,3.46223377 Z"/>
  </g>
</svg>
