<svg xmlns="http://www.w3.org/2000/svg" width="16" height="16" viewBox="0 0 16 16">
  <g fill="none" fill-rule="evenodd">
    <rect width="22" height="22"/>
    <path fill="#FF00FF" fill-rule="nonzero" d="M8.50882057,11.0619653 L6.77234584,11.8294438 L6.21217086,13.4297679 L4.45347625,14.1396347 L3.59065536,16 L0,16 L0,12 L5.85062117,6.79944785 C5.68790421,6.29555735 5.6,5.75804424 5.6,5.2 C5.6,2.3281193 7.9281193,0 10.8,0 C13.6718807,0 16,2.3281193 16,5.2 C16,8.0718807 13.6718807,10.4 10.8,10.4 C10.1364107,10.4 9.50185318,10.2757 8.9183406,10.049113 L8.50882057,11.0619653 Z M0.8,15.2 L3.07983486,15.2 L3.86078805,13.5161531 L5.57678592,12.8235201 L6.13181836,11.2378874 L7.88873721,10.4613731 L8.47242467,9.01775831 L9.20792613,9.30336491 C9.71065622,9.49858279 10.2476821,9.6 10.8,9.6 C13.2300529,9.6 15.2,7.6300529 15.2,5.2 C15.2,2.7699471 13.2300529,0.8 10.8,0.8 C8.3699471,0.8 6.4,2.7699471 6.4,5.2 C6.4,5.6656339 6.47206288,6.12053496 6.61191226,6.55361078 L6.77236358,7.05048522 L0.8,12.3592529 L0.8,15.2 Z M10.8,5.6 C9.6954305,5.6 8.8,4.7045695 8.8,3.6 C8.8,2.4954305 9.6954305,1.6 10.8,1.6 C11.9045695,1.6 12.8,2.4954305 12.8,3.6 C12.8,4.7045695 11.9045695,5.6 10.8,5.6 Z M10.8,4.8 C11.4627417,4.8 12,4.2627417 12,3.6 C12,2.9372583 11.4627417,2.4 10.8,2.4 C10.1372583,2.4 9.6,2.9372583 9.6,3.6 C9.6,4.2627417 10.1372583,4.8 10.8,4.8 Z"/>
  </g>
</svg>
