<svg xmlns="http://www.w3.org/2000/svg" width="16" height="16" viewBox="0 0 16 16">
  <g fill="none" fill-rule="evenodd">
    <rect width="16" height="16"/>
    <path fill="#8EA6BB" fill-rule="nonzero" d="M4.48122408,11.2044353 C4.37270328,11.1554589 4.26490589,11.1040885 4.15785798,11.0503288 C3.02257782,10.4801918 2.0088035,9.64526027 1.22613813,8.63586301 C0.924620623,8.2470137 0.924620623,7.70386301 1.22613813,7.3150137 C2.00883074,6.30558904 3.02257782,5.47068493 4.15785798,4.90054795 C5.31675292,4.31854795 6.56351556,4.01660274 7.86497082,4.00073973 C7.90081518,3.99975342 8.04473735,3.99975342 8.08058171,4.00073973 C9.34043878,4.01606887 10.5489947,4.29952461 11.676231,4.84556502 L12.351868,3.67532731 C11.8790143,3.39966394 11.3454498,3.16365499 10.7725905,2.97936116 C9.81130564,2.67010547 8.77384232,2.5088769 7.68218654,2.50034393 C7.65678406,2.49989616 7.53707741,2.49989616 7.50676677,2.50040635 C6.41999742,2.50889191 5.38251336,2.67011914 4.4212701,2.97936144 C3.67140268,3.22060034 2.98888806,3.55044365 2.42170531,3.94186787 C2.28355373,4.03720906 1.90642257,4.12210313 1.70482371,3.85319205 C1.50322485,3.58428097 1.63221277,3.27592417 1.76010745,3.18456578 C2.42997759,2.70606069 3.23446332,2.31069313 4.11501832,2.02741089 C5.17451384,1.68655978 6.31259172,1.50970005 7.49405078,1.50049924 C7.53120178,1.49984439 7.66265969,1.49984439 7.6948957,1.50043677 C8.88124242,1.50968365 10.0193046,1.68654594 11.0788423,2.02741061 C11.7172702,2.23279847 12.3157247,2.49711002 12.8518684,2.80930132 L12.8518684,2.80930132 L13.6077892,1.5000081 L14.3842463,4.39778558 L12.0316723,5.02815589 C13.0681729,5.59216713 13.9932887,6.37850006 14.7194416,7.3150137 C15.0209591,7.70386301 15.0209591,8.2469589 14.7194416,8.63586301 C13.936749,9.64528767 12.9229747,10.4801918 11.7876946,11.0503288 C10.6287996,11.6323288 9.38203696,11.934274 8.08058171,11.950137 C8.04473735,11.9511233 7.90081518,11.9511233 7.86497082,11.950137 C6.68780676,11.935814 5.55543036,11.6874072 4.4923287,11.2094374 L3.63237829,12.6989152 C4.10523202,12.9745786 4.63879656,13.2105875 5.21165583,13.3948814 C6.17294068,13.7041371 7.21040401,13.8653656 8.30205978,13.8738986 C8.32746226,13.8743464 8.44716892,13.8743464 8.47747956,13.8738362 C9.5642489,13.8653506 10.601733,13.7041234 11.5629762,13.3948811 C12.3128436,13.1536422 12.9953583,12.8237989 13.562541,12.4323747 C13.7006926,12.3370335 14.0778237,12.2521394 14.2794226,12.5210505 C14.4810215,12.7899616 14.3520336,13.0983184 14.2241389,13.1896767 C13.5542687,13.6681818 12.749783,14.0635494 11.869228,14.3468316 C10.8097325,14.6876827 9.6716546,14.8645425 8.49019554,14.8737433 C8.45304454,14.8743981 8.32158663,14.8743981 8.28935062,14.8738058 C7.1030039,14.8645589 5.96494171,14.6876966 4.90540405,14.3468319 C4.26697608,14.1414441 3.66852163,13.8771325 3.13237795,13.5649412 L3.13237795,13.5649412 L2.37645716,14.8742344 L1.60000002,11.9764569 L4.48122408,11.2044353 Z M7.95331385,5.0000672 C7.92146871,5.00014156 7.89103179,5.00033333 7.87715859,5.00066545 C6.72604407,5.01469601 5.62873447,5.28089075 4.60664324,5.79418757 C3.67918203,6.25995802 2.84136917,6.92786284 2.17349269,7.73205647 C2.14554072,7.76571359 2.02658081,7.84422302 2.02658081,8 C2.02658081,8.15577698 2.21996812,8.31755222 2.2571106,8.36099243 C2.9131599,9.12827891 3.71117292,9.7069845 4.60664551,10.1566903 C5.6287823,10.67001 6.72606394,10.9362055 7.89247663,10.9505153 C7.90998725,10.9509972 8.03556528,10.9509972 8.06839394,10.9502113 C9.21950845,10.9361807 10.3168181,10.669986 11.3389093,10.1566891 C12.3406395,9.65362086 13.129088,9.10734602 13.8204346,8.21572876 C13.8310972,8.20197582 13.9214246,8.11972963 13.9159241,8 C13.9104236,7.88027037 13.8204346,7.80276693 13.8204346,7.77830505 C13.1290678,6.88665485 12.340633,6.29725257 11.338907,5.79418644 C10.3167702,5.28086673 9.21948859,5.01467124 8.0530759,5.00036137 C8.04547555,5.00015224 8.0175161,5.00003388 7.98561841,5.00003115 C9.61162769,5.00699698 10.9322905,6.33905497 10.9322905,7.97542293 C10.9322905,9.61608762 9.60468306,10.9508182 7.9728035,10.9508182 C6.34092395,10.9508182 5.01331653,9.61606368 5.01331653,7.97539899 C5.01331653,6.3412707 6.33036665,5.01064369 7.95331385,5.0000672 Z M7.95331385,5.0000672 C7.96411721,5.00004197 7.97508263,5.00003025 7.98561841,5.00003115 C7.98134887,5.00001286 7.97707723,5.00000371 7.9728035,5.00000371 C7.9663021,5.00000371 7.95980553,5.00002489 7.95331385,5.0000672 Z M7.97051514,9.93261771 C9.04521848,9.93261771 9.91953798,9.05360712 9.91953798,7.97311817 C9.91953798,6.89262922 9.04521848,6.01360287 7.97051514,6.01360287 C6.89581181,6.01360287 6.0214923,6.89261346 6.0214923,7.97310241 C6.0214923,9.05359135 6.89581181,9.93261771 7.97051514,9.93261771 Z"/>
  </g>
</svg>
