<svg xmlns="http://www.w3.org/2000/svg" width="20" height="16" viewBox="0 0 20 16">
  <g fill="none" fill-rule="evenodd">
    <path fill="#0685B9" d="M10,8 L10,0 L1.99961498,0 C0.88743329,0 0,0.892771196 0,1.99406028 L0,14.0059397 C0,15.1054862 0.895258123,16 1.99961498,16 L6,16 L6,8 L10,8 Z"/>
    <path fill="#9960FF" d="M20,8 L20,1.99406028 C20,0.892771196 19.1125667,0 18.000385,0 L10,0 L10,8 L20,8 Z"/>
    <path fill="#009E81" d="M20,8 L20,14.0059397 C20,15.1054862 19.1047419,16 18.000385,16 L6,16 L6,8 L20,8 Z"/>
    <path fill="#FFFFFF" d="M3.52557728,3.33197177 L4.8150977,3.33197177 C4.8150977,2.70674662 4.65716559,2.21178413 4.34129664,1.84706946 C4.02542768,1.48235479 3.55488769,1.30000019 2.92966253,1.30000019 C2.61704996,1.30000019 2.33049273,1.34233251 2.06998225,1.42699841 C1.80947177,1.51166432 1.58478485,1.65982743 1.39591475,1.8714922 C1.20704466,2.08315696 1.06050971,2.36645786 0.956305518,2.72140339 C0.852101326,3.07634892 0.800000012,3.52409459 0.800000012,4.06465383 C0.800000012,4.59218755 0.84233233,5.03342056 0.926998236,5.38836609 C1.01166414,5.74331162 1.13703293,6.02661251 1.30310836,6.23827728 C1.46918379,6.44994204 1.67758905,6.59647699 1.92833038,6.67788651 C2.17907172,6.75929604 2.47376978,6.80000019 2.8124334,6.80000019 C3.52883722,6.80000019 4.04170954,6.61927376 4.35106573,6.25781547 C4.66042193,5.89635718 4.8150977,5.37045953 4.8150977,4.68010676 L3.52557728,4.68010676 C3.52557728,5.10994905 3.47347596,5.42255694 3.36927177,5.6179398 C3.26506758,5.81332266 3.09899464,5.91101262 2.87104797,5.91101262 C2.72125444,5.91101262 2.59914199,5.87682114 2.50470694,5.80843714 C2.41027189,5.74005313 2.33700442,5.63096601 2.28490232,5.48117248 C2.23280023,5.33137896 2.19698057,5.14088353 2.17744229,4.90968047 C2.157904,4.67847742 2.148135,4.40006103 2.148135,4.07442293 C2.148135,3.76832311 2.157904,3.50293204 2.17744229,3.27824175 C2.19698057,3.05355147 2.23280023,2.86794053 2.28490232,2.72140339 C2.33700442,2.57486624 2.41515639,2.46415095 2.51936058,2.38925419 C2.62356477,2.31435742 2.75707439,2.2769096 2.91989344,2.2769096 C3.05014868,2.2769096 3.15435131,2.30784476 3.23250445,2.369716 C3.3106576,2.43158724 3.37089974,2.51299554 3.41323269,2.61394335 C3.45556565,2.71489116 3.48487264,2.82723462 3.50115454,2.9509771 C3.51743645,3.07471958 3.52557728,3.20171653 3.52557728,3.33197177 Z M7.94012236,3.33197177 C7.94012236,3.20171653 7.93198153,3.07471958 7.91569963,2.9509771 C7.89941772,2.82723462 7.87011073,2.71489116 7.82777778,2.61394335 C7.78544483,2.51299554 7.72520268,2.43158724 7.64704954,2.369716 C7.5688964,2.30784476 7.46469377,2.2769096 7.33443853,2.2769096 C7.17161948,2.2769096 7.03810986,2.31435742 6.93390567,2.38925419 C6.82970148,2.46415095 6.7515495,2.57486624 6.69944741,2.72140339 C6.64734531,2.86794053 6.61152566,3.05355147 6.59198737,3.27824175 C6.57244909,3.50293204 6.56268009,3.76832311 6.56268009,4.07442293 C6.56268009,4.40006103 6.57244909,4.67847742 6.59198737,4.90968047 C6.61152566,5.14088353 6.64734531,5.33137896 6.69944741,5.48117248 C6.7515495,5.63096601 6.82481698,5.74005313 6.91925203,5.80843714 C7.01368708,5.87682114 7.13579953,5.91101262 7.28559306,5.91101262 C7.51353973,5.91101262 7.67961267,5.81332266 7.78381686,5.6179398 C7.88802105,5.42255694 7.94012236,5.10994905 7.94012236,4.68010676 L9.22964279,4.68010676 C9.22964279,5.37045953 9.07496701,5.89635718 8.76561082,6.25781547 C8.45625462,6.61927376 7.94338231,6.80000019 7.22697849,6.80000019 C6.88831487,6.80000019 6.59361681,6.75929604 6.34287547,6.67788651 C6.09213414,6.59647699 5.88372888,6.44994204 5.71765345,6.23827728 C5.55157802,6.02661251 5.42620923,5.74331162 5.34154332,5.38836609 C5.25687742,5.03342056 5.2145451,4.59218755 5.2145451,4.06465383 C5.2145451,3.52409459 5.26664641,3.07634892 5.37085061,2.72140339 C5.4750548,2.36645786 5.62158974,2.08315696 5.81045984,1.8714922 C5.99932994,1.65982743 6.22401686,1.51166432 6.48452734,1.42699841 C6.74503782,1.34233251 7.03159505,1.30000019 7.34420762,1.30000019 C7.96943277,1.30000019 8.43997277,1.48235479 8.75584172,1.84706946 C9.07171068,2.21178413 9.22964279,2.70674662 9.22964279,3.33197177 L7.94012236,3.33197177 Z M11.8999996,1.30000019 L13.6243169,1.30000019 L14.9273078,5.08221308 L14.9429125,5.08221308 L16.1756823,1.30000019 L17.8999996,1.30000019 L17.8999996,6.80000019 L16.7530555,6.80000019 L16.7530555,2.90224109 L16.7374509,2.90224109 L15.3720412,6.80000019 L14.427958,6.80000019 L13.0625484,2.94075649 L13.0469437,2.94075649 L13.0469437,6.80000019 L11.8999996,6.80000019 L11.8999996,1.30000019 Z M15.1184613,12.3216912 C15.1376196,12.7444874 15.2493753,13.0508569 15.4537316,13.2408088 C15.6580878,13.4307608 15.9518455,13.5257353 16.3350135,13.5257353 C16.6096173,13.5257353 16.8459007,13.4598659 17.0438708,13.328125 C17.2418409,13.1963841 17.3631756,13.056986 17.4078786,12.9099265 L18.6052725,12.9099265 C18.4136885,13.4797823 18.1199308,13.8872537 17.7239906,14.1323529 C17.3280503,14.3774522 16.8490975,14.5 16.2871178,14.5 C15.8975637,14.5 15.5463316,14.440258 15.2334111,14.3207721 C14.9204905,14.2012862 14.65547,14.0312511 14.4383415,13.8106618 C14.2212129,13.5900724 14.0535795,13.3265947 13.935436,13.0202206 C13.8172925,12.7138465 13.7582217,12.3768401 13.7582217,12.0091912 C13.7582217,11.6537972 13.818889,11.3229182 13.9402256,11.0165441 C14.0615621,10.71017 14.2339851,10.4451604 14.4574998,10.2215074 C14.6810144,9.99785427 14.9476315,9.82169182 15.257359,9.69301471 C15.5670864,9.56433759 15.9103359,9.5 16.2871178,9.5 C16.7086026,9.5 17.0757997,9.57812422 17.3887202,9.734375 C17.7016408,9.89062578 17.9586788,10.1004889 18.159842,10.3639706 C18.3610052,10.6274523 18.5062875,10.9276944 18.5956934,11.2647059 C18.6850993,11.6017174 18.7170294,11.9540423 18.6914849,12.3216912 L15.1184613,12.3216912 Z M17.3312453,11.4944853 C17.267384,11.1636013 17.1540318,10.9123783 16.9911854,10.7408088 C16.828339,10.5692393 16.5808801,10.4834559 16.2488012,10.4834559 C16.0316726,10.4834559 15.8512671,10.5186884 15.7075791,10.5891544 C15.5638911,10.6596205 15.4489424,10.7469358 15.3627296,10.8511029 C15.2765168,10.9552701 15.2158495,11.0655631 15.1807257,11.1819853 C15.145602,11.2984074 15.1248474,11.4025731 15.1184613,11.4944853 L17.3312453,11.4944853 Z M7.69999981,9.5 L9.23013356,9.5 L10.3863885,12.76184 L10.4002358,12.76184 L11.4941776,9.5 L13.0243114,9.5 L13.0243114,14.2432867 L12.0065301,14.2432867 L12.0065301,10.8817978 L11.9926827,10.8817978 L10.7810384,14.2432867 L9.94327282,14.2432867 L8.73162845,10.9150141 L8.71778108,10.9150141 L8.71778108,14.2432867 L7.69999981,14.2432867 L7.69999981,9.5 Z"/>
  </g>
</svg>
