<svg xmlns="http://www.w3.org/2000/svg" width="16" height="16" viewBox="0 0 16 16">
  <g fill="none" fill-rule="evenodd">
    <rect width="16" height="16"/>
    <path fill="#FF00FF" d="M3.80959037,2 L13.0474045,2 C13.3819917,2 13.6569949,2.24691358 13.6569949,2.5473251 C13.6569949,2.84773663 13.3865751,3.09465021 13.0474045,3.09465021 L3.80959037,3.09465021 C3.4750032,3.09465021 3.20000005,2.84773663 3.20000005,2.5473251 C3.20000005,2.24691358 3.47041981,2 3.80959037,2 Z M14.4238342,4.19341564 C14.7305699,4.19341564 14.9751295,4.44032922 14.9792746,4.74074074 L14.9792746,15.4320988 C14.9792746,15.7325103 14.734715,15.9794239 14.4279793,15.9794239 L4.16683938,15.9794239 C2.42176166,15.9794239 1,14.5679012 1,12.8353909 L1,2.50411434 C1,1.33244183 2.42176166,-2.92404418e-16 4.16683938,0 L14.4279793,0 C14.7305699,0 14.9792746,0.242798354 14.9792746,0.547325103 C14.9792746,0.847736626 14.734715,1.09465021 14.4279793,1.09465021 L4.16683938,1.09465021 C3.02694301,1.09465021 2.10259067,1.68228432 2.10259067,2.65895188 C2.10259067,3.63561944 3.03108808,4.19341564 4.16683938,4.19341564 L14.4238342,4.19341564 Z M4.16683938,14.8847737 L13.8725389,14.8847737 L13.8725389,5.29218107 L4.16683938,5.29218107 C3.37927461,5.29218107 2.65803109,5.00411523 2.10259067,4.5308642 L2.10259067,12.8353909 C2.10259067,13.9670782 3.03108808,14.8847737 4.16683938,14.8847737 Z M5.00056022,9.91484503 C4.41767141,9.70908509 4,9.15331874 4,8.5 C4,7.67157288 4.67157288,7 5.5,7 C6.15310941,7 6.70872894,7.41740381 6.91464715,8 L10.0853529,8 C10.2912711,7.41740381 10.8468906,7 11.5,7 C12.3284271,7 13,7.67157288 13,8.5 C13,9.32842712 12.3284271,10 11.5,10 C10.8468906,10 10.2912711,9.58259619 10.0853529,9 L6.91464715,9 C6.764035,9.42612095 6.42634269,9.76386871 6.00025732,9.91455617 C6.00015077,10.3924533 6.00002211,11.047336 6.00011789,11.0447097 C5.99676006,11.1494258 6.04660936,11.3507228 6.21863538,11.6091591 C6.27052652,11.6871156 6.33274307,11.7533875 6.40382484,11.809531 C6.53702563,11.9147389 6.67029467,11.966139 6.64408571,11.9696849 L7.09643887,11.9696849 C7.31067156,11.4029785 7.85827545,11 8.5,11 C9.32842712,11 10,11.6715729 10,12.5 C10,13.3284271 9.32842712,14 8.5,14 C7.83431704,14 7.2699138,13.5663699 7.07385058,12.96617 L6.55379152,12.9614642 C6.34279044,12.9227229 6.06343002,12.8149775 5.78400134,12.5942723 C5.63260927,12.4746961 5.4981681,12.3314919 5.38619159,12.1632686 C5.09217198,11.7215602 4.99145628,11.3167453 5.00056022,11.0149544 L5.00056022,9.91484503 L5.00056022,9.91484503 Z"/>
  </g>
</svg>
