<svg xmlns="http://www.w3.org/2000/svg" width="16" height="16" viewBox="0 0 16 16">
  <g fill="none" fill-rule="evenodd">
    <rect width="12" height="12"/>
    <rect width="16" height="16" fill="#F25335" rx="1"/>
    <path fill="#FFFFFF" fill-rule="nonzero" d="M11.6074219,8.20117187 C11.6074219,9.61133518 11.2060587,10.6914025 10.4033203,11.4414062 C9.6005819,12.19141 8.44141383,12.5664062 6.92578125,12.5664062 L4.5,12.5664062 L4.5,4 L7.18945312,4 C8.58789762,4 9.6738243,4.36913693 10.4472656,5.10742187 C11.220707,5.84570682 11.6074219,6.8769465 11.6074219,8.20117187 L11.6074219,8.20117187 Z M9.7207031,8.24804687 C9.7207031,6.40819393 8.90821125,5.48828125 7.28320312,5.48828125 L6.31640625,5.48828125 L6.31640625,11.0664062 L7.09570312,11.0664062 C8.84571187,11.0664062 9.7207031,10.1269625 9.7207031,8.24804687 L9.7207031,8.24804687 Z"/>
  </g>
</svg>
