<svg xmlns="http://www.w3.org/2000/svg" width="32" height="32" viewBox="0 0 32 32">
  <g fill="none" fill-rule="evenodd">
    <rect width="32" height="32" fill="#00FFFF"/>
    <path fill="#FF00FF" d="M29.9881194,17.3439128 L29.9881194,32 L11.0964358,32 L11.0964358,10.6666667 L24.5904955,10.6666667 L24.5904955,10.6772461 L29.9774124,16 L29.9881194,16 L29.9881194,16.0105794 L30,16.0223185 L29.9881194,17.3439128 L29.9881194,17.3439128 Z M23.2410895,12 L12.4458418,12 L12.4458418,30.6666667 L28.6387134,30.6666667 L28.6387134,17.3439128 L23.2410895,17.3439128 L23.2410895,12 L23.2410895,12 Z M14.4699507,16 L21.2169806,16 L21.2169806,17.3333333 L14.4699507,17.3333333 L14.4699507,16 L14.4699507,16 Z M14.4699507,19.3333333 L26.6146045,19.3333333 L26.6146045,20.6666667 L14.4699507,20.6666667 L14.4699507,19.3333333 L14.4699507,19.3333333 Z M14.4699507,22.6666667 L26.6146045,22.6666667 L26.6146045,24 L14.4699507,24 L14.4699507,22.6666667 L14.4699507,22.6666667 Z M14.4699507,26 L26.6146045,26 L26.6146045,27.3333333 L14.4699507,27.3333333 L14.4699507,26 L14.4699507,26 Z M12.4458418,2.66666667 L9.74702985,2.66666667 L9.74702985,5.33333333 L19.1928716,5.33333333 L19.1928716,2.66666667 L16.4940597,2.66666667 L16.4940597,1.33333333 L12.4458418,1.33333333 L12.4458418,2.66666667 Z M20.5422776,5.33333333 L20.5422776,6.66666667 L8.39762388,6.66666667 L8.39762388,5.33333333 L4.34940597,5.33333333 L4.34940597,26.6666667 L9.74702985,26.6666667 L9.74702985,28 L4.01205448,28 L3,28 L3,4 L4.01205448,4 L8.39762388,4 L8.39762388,1.33333333 L11.0964358,1.33333333 L11.0964358,0 L17.8434657,0 L17.8434657,1.33333333 L20.5422776,1.33333333 L20.5422776,4 L24.927847,4 L25.9399015,4 L25.9399015,9.33333333 L24.5904955,9.33333333 L24.5904955,5.33333333 L20.5422776,5.33333333 Z M24.5904955,12.6772461 L27.9640104,16.0105794 L24.5904955,16.0105794 L24.5904955,12.6772461 Z"/>
  </g>
</svg>
