<svg xmlns="http://www.w3.org/2000/svg" width="61" height="61" viewBox="0 0 61 61">
  <g fill="#2DBBE9" fill-rule="evenodd">
    <path d="M30.5,46 C21.9395864,46 15,39.0604136 15,30.5 C15,21.9395864 21.9395864,15 30.5,15 C39.0604136,15 46,21.9395864 46,30.5 C46,39.0604136 39.0604136,46 30.5,46 Z M30.5,45 C38.5081289,45 45,38.5081289 45,30.5 C45,22.4918711 38.5081289,16 30.5,16 C22.4918711,16 16,22.4918711 16,30.5 C16,38.5081289 22.4918711,45 30.5,45 Z M30.5,43 C23.5964406,43 18,37.4035594 18,30.5 C18,23.5964406 23.5964406,18 30.5,18 C37.4035594,18 43,23.5964406 43,30.5 C43,37.4035594 37.4035594,43 30.5,43 Z M30.5,42 C36.8512746,42 42,36.8512746 42,30.5 C42,24.1487254 36.8512746,19 30.5,19 C24.1487254,19 19,24.1487254 19,30.5 C19,36.8512746 24.1487254,42 30.5,42 Z"/>
    <path d="M29.9904824,31.6482605 C29.9904824,31.6482605 30.0619282,30.521241 30.218179,30.1123894 C30.3327629,29.8044232 30.5176569,29.4938069 30.7728665,29.180531 C30.9603675,28.9522112 31.2976037,28.6190287 31.7845853,28.1809735 C32.2715669,27.7429182 32.58797,27.3938066 32.733804,27.1336283 C32.8796381,26.87345 32.952554,26.5893821 32.952554,26.2814159 C32.952554,25.723891 32.7390145,25.2340729 32.311929,24.8119469 C31.8848436,24.3898209 31.3614113,24.1787611 30.7416165,24.1787611 C30.1426552,24.1787611 29.6426602,24.3699096 29.2416165,24.7522124 C28.8405729,25.1345152 28.5775547,25.7318543 28.452554,26.5442478 C28.1673978,27.6965183 26.892849,27.0870893 27.0072415,26.3690265 C27.0072415,26.3690265 27.5241654,24.4469055 28.1673978,23.8681416 C28.8106302,23.2893776 29.6608821,23 30.718179,23 C31.8379763,23 32.7311965,23.3106164 33.3978665,23.9318584 C34.0645365,24.5531005 34.3978665,25.3044204 34.3978665,26.1858407 C34.3978665,26.6955778 34.2806802,27.1654846 34.046304,27.5955752 C33.8119279,28.0256659 33.3535991,28.5486695 32.671304,29.1646018 C32.2129684,29.5787631 31.9134922,29.8840698 31.7728665,30.080531 C31.6322408,30.2769921 31.5280752,30.5026536 31.4603665,30.7575221 C31.3926579,31.0123907 31.3524616,31.0748063 31.3420449,31.6482605 C31.0274421,32.6023848 30.0571445,32.2337936 29.9904824,31.6482605 Z M30.7072423,36 C29.8788152,36 29.2072423,35.3284271 29.2072423,34.5 C29.2072423,33.6715729 29.8788152,33 30.7072423,33 C31.5356694,33 32.2072423,33.6715729 32.2072423,34.5 C32.2072423,35.3284271 31.5356694,36 30.7072423,36 Z"/>
  </g>
</svg>
