<svg xmlns="http://www.w3.org/2000/svg" width="22" height="22" viewBox="0 0 22 22">
  <g fill="none" fill-rule="evenodd">
    <rect width="22" height="22"/>
    <path fill="#FF00FF" fill-rule="nonzero" d="M10.6360257,14.8274566 L8.4654323,15.7868047 L7.76521358,17.7872098 L5.56684531,18.6745434 L4.4883192,21 L0,21 L0,16 L7.31327646,9.49930981 C7.10988027,8.86944669 7,8.1975553 7,7.5 C7,3.91014913 9.91014913,1 13.5,1 C17.0898509,1 20,3.91014913 20,7.5 C20,11.0898509 17.0898509,14 13.5,14 C12.6705133,14 11.8773165,13.844625 11.1479257,13.5613913 L10.6360257,14.8274566 Z M1,20 L3.84979357,20 L4.82598506,17.8951914 L6.9709824,17.0294001 L7.66477295,15.0473592 L9.86092151,14.0767164 L10.5905308,12.2721979 L11.5099077,12.6292061 C12.1383203,12.8732285 12.8096026,13 13.5,13 C16.5375661,13 19,10.5375661 19,7.5 C19,4.46243388 16.5375661,2 13.5,2 C10.4624339,2 8,4.46243388 8,7.5 C8,8.08204237 8.0900786,8.6506687 8.26489033,9.19201347 L8.46545448,9.81310653 L1,16.4490661 L1,20 Z M13.5,8 C12.1192881,8 11,6.88071187 11,5.5 C11,4.11928813 12.1192881,3 13.5,3 C14.8807119,3 16,4.11928813 16,5.5 C16,6.88071187 14.8807119,8 13.5,8 Z M13.5,7 C14.3284271,7 15,6.32842712 15,5.5 C15,4.67157288 14.3284271,4 13.5,4 C12.6715729,4 12,4.67157288 12,5.5 C12,6.32842712 12.6715729,7 13.5,7 Z"/>
    <path fill="#2DBBE9" d="M19.75,15.18 L19.75,14.06 L16.06,14.06 L15.8,17.91 L17.09,17.91 C17.1166668,17.709999 17.1849994,17.5516673 17.295,17.435 C17.4050006,17.3183327 17.5633323,17.26 17.77,17.26 C17.9300008,17.26 18.0633328,17.2833331 18.17,17.33 C18.2766672,17.3766669 18.3616664,17.4566661 18.425,17.57 C18.4883337,17.6833339 18.5333332,17.8366657 18.56,18.03 C18.5866668,18.2233343 18.6,18.4666652 18.6,18.76 C18.6,19.2200023 18.5350007,19.5649989 18.405,19.795 C18.2749994,20.0250012 18.0600015,20.14 17.76,20.14 C17.6066659,20.14 17.4833338,20.101667 17.39,20.025 C17.2966662,19.948333 17.2250003,19.8516672 17.175,19.735 C17.1249998,19.6183328 17.0933334,19.493334 17.08,19.36 C17.0666666,19.226666 17.06,19.1000006 17.06,18.98 L15.68,18.98 L15.68,19.17 C15.68,19.370001 15.7049998,19.5849988 15.755,19.815 C15.8050003,20.0450012 15.9033326,20.2583323 16.05,20.455 C16.1966674,20.6516677 16.408332,20.8099994 16.685,20.93 C16.9616681,21.0500006 17.3233311,21.11 17.77,21.11 C18.2233356,21.11 18.5966652,21.0516673 18.89,20.935 C19.1833348,20.8183327 19.4149991,20.6450011 19.585,20.415 C19.7550009,20.1849988 19.873333,19.9100016 19.94,19.59 C20.006667,19.2699984 20.04,18.9133353 20.04,18.52 C20.04,18.2399986 20.0133336,17.9650014 19.96,17.695 C19.9066664,17.4249986 19.8150007,17.1833344 19.685,16.97 C19.5549993,16.7566656 19.3783345,16.5850006 19.155,16.455 C18.9316655,16.3249993 18.6500017,16.26 18.31,16.26 C18.0033318,16.26 17.7433344,16.3016663 17.53,16.385 C17.3166656,16.4683337 17.143334,16.6033324 17.01,16.79 L16.99,16.79 L17.14,15.18 L19.75,15.18 Z"/>
  </g>
</svg>
