<svg xmlns="http://www.w3.org/2000/svg" width="16" height="16" viewBox="0 0 16 16">
  <g fill="none" fill-rule="evenodd">
    <rect width="16" height="16"/>
    <path fill="#FF00FF" d="M2.99166649,8 L5,8 L2.68733724,11.6497396 L0,8 L1.9915909,8 C2.03475332,4.17051499 5.1607308,1 8.99988143,1 C12.8658747,1 15.9998814,4.13400675 15.9998814,8 C15.9998814,11.8659932 12.8658747,15 8.99988143,15 C7.12813344,15 5.42796899,14.2653635 4.17199416,13.0686966 L4.85551663,12.3387047 C5.93266574,13.3678995 7.39245609,14 8.99988143,14 C12.3135899,14 14.9998814,11.3137085 14.9998814,8 C14.9998814,4.6862915 12.3135899,2 8.99988143,2 C5.71302121,2 3.03477833,4.72272436 2.99166649,8 Z M9.5,8.29289322 L11.5036517,10.296545 C11.6968971,10.4897903 11.6895516,10.8104484 11.5,11 C11.3047379,11.1952621 10.9930272,11.200134 10.796545,11.0036517 L8.68125644,8.88836322 C8.5705338,8.79841797 8.5,8.6610742 8.5,8.50230122 L8.5,4.49769878 C8.5,4.22282734 8.73193359,4 9,4 C9.27614237,4 9.5,4.21484375 9.5,4.49769878 L9.5,8.29289322 Z"/>
  </g>
</svg>
