<svg xmlns="http://www.w3.org/2000/svg" width="20" height="16" viewBox="0 0 20 16">
  <g fill="none" fill-rule="evenodd">
    <path fill="#0685B9" d="M10,8 L10,0 L1.99961498,0 C0.88743329,0 0,0.892771196 0,1.99406028 L0,14.0059397 C0,15.1054862 0.895258123,16 1.99961498,16 L6,16 L6,8 L10,8 Z"/>
    <path fill="#9960FF" d="M20,8 L20,1.99406028 C20,0.892771196 19.1125667,0 18.000385,0 L10,0 L10,8 L20,8 Z"/>
    <path fill="#009E81" d="M20,8 L20,14.0059397 C20,15.1054862 19.1047419,16 18.000385,16 L6,16 L6,8 L20,8 Z"/>
    <path fill="#FFFFFF" d="M11.8999996 1.30000019L13.6243169 1.30000019 14.9273078 5.08221308 14.9429125 5.08221308 16.1756823 1.30000019 17.8999996 1.30000019 17.8999996 6.80000019 16.7530555 6.80000019 16.7530555 2.90224109 16.7374509 2.90224109 15.3720412 6.80000019 14.427958 6.80000019 13.0625484 2.94075649 13.0469437 2.94075649 13.0469437 6.80000019 11.8999996 6.80000019 11.8999996 1.30000019zM15.1184613 12.3216912C15.1376196 12.7444874 15.2493753 13.0508569 15.4537316 13.2408088 15.6580878 13.4307608 15.9518455 13.5257353 16.3350135 13.5257353 16.6096173 13.5257353 16.8459007 13.4598659 17.0438708 13.328125 17.2418409 13.1963841 17.3631756 13.056986 17.4078786 12.9099265L18.6052725 12.9099265C18.4136885 13.4797823 18.1199308 13.8872537 17.7239906 14.1323529 17.3280503 14.3774522 16.8490975 14.5 16.2871178 14.5 15.8975637 14.5 15.5463316 14.440258 15.2334111 14.3207721 14.9204905 14.2012862 14.65547 14.0312511 14.4383415 13.8106618 14.2212129 13.5900724 14.0535795 13.3265947 13.935436 13.0202206 13.8172925 12.7138465 13.7582217 12.3768401 13.7582217 12.0091912 13.7582217 11.6537972 13.818889 11.3229182 13.9402256 11.0165441 14.0615621 10.71017 14.2339851 10.4451604 14.4574998 10.2215074 14.6810144 9.99785427 14.9476315 9.82169182 15.257359 9.69301471 15.5670864 9.56433759 15.9103359 9.5 16.2871178 9.5 16.7086026 9.5 17.0757997 9.57812422 17.3887202 9.734375 17.7016408 9.89062578 17.9586788 10.1004889 18.159842 10.3639706 18.3610052 10.6274523 18.5062875 10.9276944 18.5956934 11.2647059 18.6850993 11.6017174 18.7170294 11.9540423 18.6914849 12.3216912L15.1184613 12.3216912zM17.3312453 11.4944853C17.267384 11.1636013 17.1540318 10.9123783 16.9911854 10.7408088 16.828339 10.5692393 16.5808801 10.4834559 16.2488012 10.4834559 16.0316726 10.4834559 15.8512671 10.5186884 15.7075791 10.5891544 15.5638911 10.6596205 15.4489424 10.7469358 15.3627296 10.8511029 15.2765168 10.9552701 15.2158495 11.0655631 15.1807257 11.1819853 15.145602 11.2984074 15.1248474 11.4025731 15.1184613 11.4944853L17.3312453 11.4944853zM7.69999981 9.5L9.23013356 9.5 10.3863885 12.76184 10.4002358 12.76184 11.4941776 9.5 13.0243114 9.5 13.0243114 14.2432867 12.0065301 14.2432867 12.0065301 10.8817978 11.9926827 10.8817978 10.7810384 14.2432867 9.94327282 14.2432867 8.73162845 10.9150141 8.71778108 10.9150141 8.71778108 14.2432867 7.69999981 14.2432867 7.69999981 9.5zM6.25600005 3.25600005L7.47200005 3.25600005C7.43466653 2.92533173 7.34400077 2.63200133 7.20000005 2.37600005 7.05599933 2.11999877 6.87333449 1.90533425 6.65200005 1.73200005 6.43066561 1.55866585 6.18000145 1.42666717 5.90000005 1.33600005 5.61999865 1.24533293 5.32266829 1.20000005 5.00800005 1.20000005 4.57066453 1.20000005 4.17733513 1.27733261 3.82800005 1.43200005 3.47866497 1.58666749 3.18400125 1.79999869 2.94400005 2.07200005 2.70399885 2.34400141 2.52000069 2.66266489 2.39200005 3.02800005 2.26399941 3.39333521 2.20000005 3.78933125 2.20000005 4.21600005 2.20000005 4.63200213 2.26399941 5.01999825 2.39200005 5.38000005 2.52000069 5.74000185 2.70399885 6.05333205 2.94400005 6.32000005 3.18400125 6.58666805 3.47866497 6.79599929 3.82800005 6.94800005 4.17733513 7.10000081 4.57066453 7.17600005 5.00800005 7.17600005 5.36000181 7.17600005 5.68266525 7.12266725 5.97600005 7.01600005 6.26933485 6.90933285 6.52533229 6.75466773 6.74400005 6.55200005 6.96266781 6.34933237 7.13866605 6.10400149 7.27200005 5.81600005 7.40533405 5.52799861 7.48799989 5.20533517 7.52000005 4.84800005L6.30400005 4.84800005C6.25599981 5.23200197 6.12400113 5.54133221 5.90800005 5.77600005 5.69199897 6.01066789 5.39200197 6.12800005 5.00800005 6.12800005 4.72533197 6.12800005 4.48533437 6.07333393 4.28800005 5.96400005 4.09066573 5.85466617 3.93066733 5.70933429 3.80800005 5.52800005 3.68533277 5.34666581 3.59600033 5.14266785 3.54000005 4.91600005 3.48399977 4.68933225 3.45600005 4.45600125 3.45600005 4.21600005 3.45600005 3.96533213 3.48399977 3.72266789 3.54000005 3.48800005 3.59600033 3.25333221 3.68533277 3.04400097 3.80800005 2.86000005 3.93066733 2.67599913 4.09066573 2.52933393 4.28800005 2.42000005 4.48533437 2.31066617 4.72533197 2.25600005 5.00800005 2.25600005 5.16266749 2.25600005 5.31066601 2.28133313 5.45200005 2.33200005 5.59333409 2.38266697 5.71999949 2.45333293 5.83200005 2.54400005 5.94400061 2.63466717 6.03733301 2.73999945 6.11200005 2.86000005 6.18666709 2.98000065 6.23466661 3.11199933 6.25600005 3.25600005z"/>
  </g>
</svg>
