<svg xmlns="http://www.w3.org/2000/svg" width="12" height="12" viewBox="0 0 12 12">
  <g fill="none" fill-rule="evenodd">
    <rect width="12" height="12"/>
    <rect width="12" height="12" fill="#9960FF" rx="1"/>
    <path fill="#FFFFFF" d="M3.4000001,2.5 L6.70770003,2.5 C7.4707705,2.5 8.04306476,2.66489835 8.4246,2.99469999 C8.80613523,3.32450163 8.99689999,3.78363037 8.99689999,4.37209996 C8.99689999,4.70190161 8.94840047,4.97511553 8.85139999,5.19174995 C8.75439951,5.40838436 8.64123397,5.58298261 8.51189999,5.71554994 C8.38256602,5.84811726 8.25485063,5.94349964 8.12875,6.00169993 C8.00264937,6.05990022 7.9105003,6.09869983 7.85230001,6.11809993 L7.85230001,6.13749993 C7.95576719,6.15043333 8.06731607,6.18276634 8.18695,6.23449993 C8.30658393,6.28623352 8.41813281,6.36868269 8.52159999,6.48184992 C8.62506718,6.59501715 8.71074965,6.74213234 8.77864999,6.92319991 C8.84655033,7.10426748 8.88049999,7.33059855 8.88049999,7.6021999 C8.88049999,8.00960193 8.91121635,8.37981489 8.97264999,8.71284988 C9.03408363,9.04588487 9.129466,9.28353249 9.25879998,9.42579986 L7.95900001,9.42579986 C7.86846622,9.27706579 7.81511676,9.11216744 7.79895001,8.93109987 C7.78278326,8.75003231 7.77470001,8.57543405 7.77470001,8.40729988 C7.77470001,8.09043164 7.7553002,7.81721771 7.71650001,7.5876499 C7.67769982,7.35808209 7.6065672,7.16731733 7.50310001,7.01534991 C7.39963283,6.86338249 7.25898424,6.75183361 7.08115002,6.68069992 C6.9033158,6.60956623 6.67536809,6.57399992 6.39730004,6.57399992 L4.61250007,6.57399992 L4.61250007,9.42579986 L3.4000001,9.42579986 L3.4000001,2.5 Z M4.61250007,5.65249994 L6.60100003,5.65249994 C6.98900196,5.65249994 7.28323235,5.56035086 7.48370002,5.37604994 C7.68416768,5.19174903 7.78440001,4.9153018 7.78440001,4.54669996 C7.78440001,4.3268322 7.752067,4.147384 7.68740001,4.00834997 C7.62273302,3.86931594 7.53381725,3.76100036 7.42065002,3.68339998 C7.30748279,3.60579959 7.17815075,3.55406678 7.03265002,3.52819998 C6.8871493,3.50233318 6.73680081,3.48939998 6.58160003,3.48939998 L4.61250007,3.48939998 L4.61250007,5.65249994 Z"/>
  </g>
</svg>
