<svg xmlns="http://www.w3.org/2000/svg" width="16" height="16" viewBox="0 0 16 16">
  <g fill="none" fill-rule="evenodd">
    <rect width="16" height="16"/>
    <path fill="#FF00FF" fill-rule="nonzero" d="M9,2 L1.99406028,2 C1.44738566,2 1,2.44976125 1,3.00585866 L1,12.9941413 C1,13.5515522 1.44596259,14 1.99406028,14 L9,14 L9,2 Z M10,2 L10,14 L14.0059397,14 C14.5526143,14 15,13.5502388 15,12.9941413 L15,3.00585866 C15,2.44844778 14.5540374,2 14.0059397,2 L10,2 Z M0,3.00585866 C0,1.89805351 0.894513756,1 1.99406028,1 L14.0059397,1 C15.1072288,1 16,1.89706013 16,3.00585866 L16,12.9941413 C16,14.1019465 15.1054862,15 14.0059397,15 L1.99406028,15 C0.892771196,15 0,14.1029399 0,12.9941413 L0,3.00585866 Z M11,4.5 C11,4.22385763 11.2157526,4 11.495389,4 L13.504611,4 C13.7782068,4 14,4.23193359 14,4.5 C14,4.77614237 13.7842474,5 13.504611,5 L11.495389,5 C11.2217932,5 11,4.76806641 11,4.5 Z M11,6.5 C11,6.22385763 11.2157526,6 11.495389,6 L13.504611,6 C13.7782068,6 14,6.23193359 14,6.5 C14,6.77614237 13.7842474,7 13.504611,7 L11.495389,7 C11.2217932,7 11,6.76806641 11,6.5 Z M11,8.5 C11,8.22385763 11.2157526,8 11.495389,8 L13.504611,8 C13.7782068,8 14,8.23193359 14,8.5 C14,8.77614237 13.7842474,9 13.504611,9 L11.495389,9 C11.2217932,9 11,8.76806641 11,8.5 Z"/>
  </g>
</svg>
