<svg xmlns="http://www.w3.org/2000/svg" width="16" height="16" viewBox="0 0 16 16">
  <g fill="none" fill-rule="evenodd">
    <rect width="16" height="16" fill="none"/>
    <path fill="#FF00FF" fill-rule="nonzero" d="M2.10155933,9.99032919 C2.61977075,9.3998414 3.31155269,8.9621007 4.09542667,8.75799207 L4.28908423,8.70993033 C4.57957058,8.62982744 4.90233318,8.72595091 5.11212887,8.96625959 C5.8222066,9.76728853 6.7259419,9.83137085 7.67809158,9.83137085 C7.86649718,9.83137085 8.05300716,9.82886176 8.23649624,9.81863053 C8.13634224,9.93447465 8.02502226,10.0649054 7.98356637,10.1196008 C7.90138145,10.2280327 7.75315392,10.4882146 7.75315392,10.4882146 L7.67809158,10.4882146 C6.61297498,10.4882146 5.51558213,10.4081117 4.62798497,9.39881522 C4.57957058,9.35075348 4.49887993,9.31871232 4.45046554,9.3347329 L4.25680797,9.38279464 C3.12713886,9.67116506 2.2395417,10.5362763 1.91677909,11.6416963 L1.23897762,13.9807008 C1.22283949,14.0447831 1.23897762,14.1409065 1.28739201,14.2049889 C1.31966827,14.23703 1.38422079,14.3011123 1.49718771,14.3011123 L7.56708561,14.3011123 C7.56708561,14.3011123 7.68683712,14.5557148 7.80759434,14.7037754 C7.86443367,14.7734662 7.95838852,14.8647869 8.04192628,14.9419355 L1.49718771,14.9419355 C1.22283949,14.9419355 0.964629408,14.8137709 0.787109976,14.5894828 C0.609590543,14.3651946 0.561176153,14.0768242 0.625728674,13.8044744 L1.30353014,11.4494493 C1.33579775,11.3373353 1.36806536,11.2252213 1.41645813,11.1131073 L1.4205608,11.1111555 L1.74190943,10.4751121 L2.10155933,9.99032919 L2.10155933,9.99032919 Z M4.43620666,2.32092726 L4.45558238,2.28632524 L4.76332553,1.70592954 L4.76044663,1.70378222 C5.40652665,0.713389437 6.53449125,0.058817778 7.80719662,0.058817778 C9.8244629,0.058817778 11.454414,1.67689624 11.454414,3.67946859 C11.454414,6.37092583 9.74377225,8.72595091 7.80719662,8.72595091 C5.83834473,8.72595091 4.17611732,6.41898756 4.17611732,3.67946859 C4.17611732,3.19629398 4.26776741,2.74344687 4.43620666,2.32092726 L4.43620666,2.32092726 Z M10.8088888,3.66344801 C10.8088888,3.57161173 10.8088888,3.49439883 10.7950679,3.40366266 C10.7950679,3.40366266 10.7729777,3.25495941 10.746366,3.10682452 C10.7197542,2.95868963 10.6825416,2.8420754 10.6636457,2.78231617 C10.2763305,1.58077276 9.14666143,0.69964093 7.80719662,0.69964093 C6.69366564,0.69964093 5.72537782,1.30842292 5.22509579,2.20557534 C5.20895766,2.22159592 5.20895766,2.25363707 5.19281953,2.26965765 C5.17668139,2.30169881 5.16054326,2.31771939 5.14440513,2.33373997 C4.99916196,2.63813096 4.90233318,2.95854254 4.85391879,3.2949747 C4.8386024,3.38613668 4.82164253,3.4935474 4.80959483,3.64078542 C4.79754713,3.78802343 4.82230611,3.92475766 4.82164253,3.93579785 C4.93460944,6.17867888 6.27407425,8.08512776 7.80719662,8.08512776 C9.40487151,8.08512776 10.8088888,6.01847309 10.8088888,3.66344801 Z"/>
    <circle cx="11.5" cy="12.5" r="3.5" fill="#25CAAB"/>
    <polygon fill="#FFFFFF" points="12 12 12 10 11 10 11 12 9 12 9 13 11 13 11 15 12 15 12 13 14 13 14 12"/>
  </g>
</svg>
