<svg xmlns="http://www.w3.org/2000/svg" width="22" height="22" viewBox="0 0 22 22">
  <g fill="none" fill-rule="evenodd">
    <rect width="22" height="22"/>
    <path fill="#0685B9" fill-rule="nonzero" d="M8.76521358,17.7872098 L6.56684531,18.6745434 L5.4883192,21 L1,21 L1,16 L8.31327646,9.49930981 C8.10988027,8.86944669 8,8.1975553 8,7.5 C8,3.91014913 10.9101491,1 14.5,1 C18.0898509,1 21,3.91014913 21,7.5 C21,8.20132146 19.6769053,10.3671929 19.4713962,11 C19.4713962,11 19.1465243,10.0034454 19.1465243,10.0034454 C19.9137857,9.02596763 20,8.04429366 20,7.5 C20,4.46243388 17.5375661,2 14.5,2 C11.4624339,2 9,4.46243388 9,7.5 C9,8.08204237 9.0900786,8.6506687 9.26489033,9.19201347 L9.46545448,9.81310653 L2,16.4490661 L2,20 L4.84979357,20 L5.82598506,17.8951914 L7.9709824,17.0294001 L8.66477295,15.0473592 L9.01119644,14.8942487 L9.03523586,17.0158024 L8.76521358,17.7872098 Z"/>
    <path fill="#0685B9" d="M14.5,8 C13.1192881,8 12,6.88071187 12,5.5 C12,4.11928813 13.1192881,3 14.5,3 C15.8807119,3 17,4.11928813 17,5.5 C17,6.88071187 15.8807119,8 14.5,8 Z M14.5,7 C15.3284271,7 16,6.32842712 16,5.5 C16,4.67157288 15.3284271,4 14.5,4 C13.6715729,4 13,4.67157288 13,5.5 C13,6.32842712 13.6715729,7 14.5,7 Z"/>
    <path fill="#2DBBE9" d="M10.5720001,18.5228891 C10.0642637,17.2067734 10.0597696,15.6966943 10.6788683,14.3061757 C11.8225203,11.7374913 14.6932739,10.4772072 17.3147395,11.2839884 L16.1323872,8.20385514 L17.0659676,7.84548719 L18.9192936,12.6735664 L14.0912144,14.5268924 L13.7328464,13.5933119 L17.1497274,12.2816942 C16.1248948,11.9325408 15.0456958,11.9755316 14.0907125,12.3421154 L14.0973719,12.3594635 C11.7800649,13.2489943 10.6211724,15.8465102 11.5055822,18.1645206 C11.9193822,19.2359554 12.7408859,20.1501084 13.8730534,20.6541818 C16.1434709,21.6650368 18.8034679,20.6439597 19.8143229,18.3735422 L19.8263092,18.3788788 C20.2899033,17.3294446 20.3547685,16.1036126 19.9111396,14.9479196 L20.84472,14.5895517 C21.9332863,17.425364 20.5168636,20.6067014 17.6810514,21.6952678 C14.8452391,22.7838341 11.6639016,21.3674114 10.5753353,18.5315991 L10.5720001,18.5228891 L10.5720001,18.5228891 Z"/>
  </g>
</svg>
