<svg xmlns="http://www.w3.org/2000/svg" width="16" height="16" viewBox="0 0 16 16">
  <g fill="none" fill-rule="evenodd">
    <rect width="16" height="16"/>
    <rect width="16" height="16" fill="#8EA6BB" rx="2"/>
    <path fill="#FFFFFF" d="M2,3 L5.38175398,3 C6.14455944,3 6.73784368,3.19281738 7.16162449,3.57845792 C7.58540531,3.96409846 7.79729254,4.55102608 7.79729254,5.33925839 C7.79729254,5.94950276 7.67439794,6.44743775 7.42860507,6.83307829 C7.1828122,7.21871883 6.80141519,7.46662688 6.2844026,7.5768099 L6.2844026,7.60223662 C6.74208588,7.67004155 7.0768677,7.81836261 7.2887581,8.04720425 C7.50064851,8.27604589 7.63201859,8.64472966 7.68287229,9.15326664 C7.69982352,9.32277896 7.71253675,9.50712085 7.72101237,9.70629783 C7.72948799,9.90547482 7.73796348,10.1279564 7.74643909,10.3737493 C7.76339032,10.8568594 7.78881679,11.2255432 7.82271926,11.4798117 C7.87357295,11.7340802 7.98375431,11.9078277 8.15326664,12.0010595 L8.15326664,12.0773396 L6.16998235,12.0773396 C6.07675057,11.9502054 6.01742215,11.8040032 5.9919953,11.6387287 C5.96656845,11.4734542 5.94961747,11.3018255 5.94114185,11.1238376 L5.89028841,9.38210713 C5.87333718,9.02613125 5.78434454,8.74644011 5.62330783,8.54302532 C5.46227113,8.33961053 5.19105547,8.23790466 4.80965274,8.23790466 L3.83072396,8.23790466 L3.83072396,12.0773396 L2,12.0773396 L2,3 Z M3.83072396,6.96656858 L4.59352561,6.96656858 C5.03425765,6.96656858 5.37327722,6.86274383 5.61059447,6.65509124 C5.84791173,6.44743864 5.96656858,6.09782471 5.96656858,5.60623897 C5.96656858,4.76715296 5.54279412,4.34761625 4.69523249,4.34761625 L3.83072396,4.34761625 L3.83072396,6.96656858 Z M10.4911124,8.8735727 C10.4911124,9.11088996 10.5017068,9.33549042 10.5228958,9.54738082 C10.5440849,9.75927123 10.5864623,9.94785086 10.6500294,10.1131254 C10.7135965,10.2783999 10.8025892,10.40977 10.91701,10.5072396 C11.0314308,10.6047092 11.1818708,10.6534432 11.3683343,10.6534432 C11.5547979,10.6534432 11.7094755,10.6047092 11.832372,10.5072396 C11.9552684,10.40977 12.0527365,10.276281 12.1247793,10.1067687 C12.196822,9.93725637 12.247675,9.73172576 12.2773396,9.4901707 C12.3070043,9.24861564 12.3218364,8.9837566 12.3218364,8.69558565 C12.3218364,7.86497526 12.2561513,7.27592876 12.1247793,6.92842849 C11.9934072,6.58092823 11.7539747,6.4071807 11.4064744,6.4071807 C11.2115352,6.4071807 11.0547387,6.44955815 10.93608,6.53431431 C10.8174214,6.61907047 10.724191,6.75679717 10.6563861,6.94749854 C10.5885812,7.1381999 10.5440849,7.39246457 10.5228958,7.71030018 C10.5017068,8.02813579 10.4911124,8.41588942 10.4911124,8.8735727 Z M14,5.2375515 L14,11.7340789 C14,12.615543 13.7817562,13.2766311 13.3452619,13.7173632 C12.9087677,14.1580952 12.1777567,14.3784579 11.1522072,14.3784579 C10.4063529,14.3784579 9.83213856,14.2195425 9.42954678,13.9017069 C9.02695501,13.5838713 8.82566215,13.1325515 8.82566215,12.547734 L10.5038258,12.547734 C10.5038258,12.7681 10.5928184,12.9418475 10.7708064,13.0689818 C10.8555625,13.1283111 10.946674,13.1749263 11.0441436,13.2088287 C11.1416132,13.2427312 11.2454379,13.2596822 11.3556209,13.2596822 C11.7115968,13.2596822 11.9616238,13.1452631 12.1057092,12.9164214 C12.2497947,12.6875798 12.3218364,12.4036509 12.3218364,12.0646263 L12.3218364,11.1619776 L12.2964096,11.1619776 C12.1184217,11.4162461 11.9001779,11.6196579 11.6416716,11.772219 C11.3831653,11.9247801 11.1140685,12.0010595 10.8343732,12.0010595 C10.1393726,12.0010595 9.61601117,11.7362004 9.26427309,11.2064744 C8.91253502,10.6767484 8.73666862,9.78894091 8.73666862,8.54302532 C8.73666862,8.14467135 8.75997621,7.73784788 8.8065921,7.32254268 C8.85320799,6.90723748 8.95067612,6.53219709 9.0989994,6.19741025 C9.24732269,5.8626234 9.46344766,5.58928888 9.7473808,5.37739847 C10.0313139,5.16550807 10.4105921,5.05956445 10.8852266,5.05956445 C11.1310195,5.05956445 11.3852841,5.12736837 11.6480282,5.26297823 C11.9107724,5.39858809 12.1268973,5.64437727 12.2964096,6.00035315 L12.3218364,6.00035315 L12.3218364,5.2375515 L14,5.2375515 Z"/>
  </g>
</svg>
