<svg xmlns="http://www.w3.org/2000/svg" width="16" height="16" viewBox="0 0 16 16">
  <g fill="none" fill-rule="evenodd">
    <rect width="16" height="16"/>
    <path fill="#FF00FF" fill-rule="nonzero" d="M5.93998619,3 L5.45501709,4 L1.99406028,4 C1.44739244,4 1,4.4497816 1,5.00591905 L1,7.99408095 C1,8.55761639 1.44152064,9 1.99406028,9 L14.0059397,9 C14.5526076,9 15,8.5502184 15,7.99408095 L16,7.46876074 L16,7.99408095 C16,8.59275842 15.7387719,9.13017951 15.3251263,9.49771631 C15.7389858,9.86348795 16,10.400671 16,11.0059191 L16,13.9940809 C16,15.1019194 15.1054862,16 14.0059397,16 L1.99406028,16 C0.892771196,16 0,15.1134452 0,13.9940809 L0,11.0059191 C0,10.4072416 0.261228136,9.86982049 0.674873687,9.50228369 C0.261014241,9.13651205 0,8.59932905 0,7.99408095 L0,5.00591905 C0,3.89808055 0.894513756,3 1.99406028,3 L5.93998619,3 Z M1,11.0059191 L1,13.9940809 C1,14.5576164 1.44152064,15 1.99406028,15 L14.0059397,15 C14.5526076,15 15,14.5502184 15,13.9940809 L15,11.0059191 C15,10.4423836 14.5584794,10 14.0059397,10 L1.99406028,10 C1.44739244,10 1,10.4497816 1,11.0059191 Z M4,13 C3.44771525,13 3,12.5522847 3,12 C3,11.4477153 3.44771525,11 4,11 C4.55228475,11 5,11.4477153 5,12 C5,12.5522847 4.55228475,13 4,13 Z M4,7 C3.44771525,7 3,6.55228475 3,6 C3,5.44771525 3.44771525,5 4,5 C4.55228475,5 5,5.44771525 5,6 C5,6.55228475 4.55228475,7 4,7 Z"/>
    <path fill="#FF00FF" fill-rule="nonzero" d="M14.4934677,2.08732153 C14.532044,2.08662273 14.532044,2.08662273 14.5705805,2.08603122 C14.7325524,2.08366674 14.867357,2.08396763 14.9698216,2.08757754 C15.033685,2.0898275 15.0859365,2.093348 15.1293458,2.09895797 C15.1692456,2.10447945 15.1692456,2.10447945 15.2243078,2.11824123 C15.3007279,2.1305808 15.3007279,2.1305808 15.4793932,2.34508515 L15.8175311,3.1820058 C15.8375054,3.46066188 15.8375054,3.46066188 15.7933521,3.51943607 C15.7647446,3.5665574 15.7647446,3.5665574 15.7406672,3.59839655 C15.7139074,3.63314368 15.6792355,3.67311875 15.6353872,3.72066448 C15.5646385,3.79737879 15.468423,3.89534888 15.3510689,4.01107243 C15.3262321,4.03553301 15.3262321,4.03553301 15.3013209,4.05995096 C15.1823515,4.17643691 15.0629945,4.29085781 14.9627505,4.38582571 L14.9594106,4.60798104 C15.0477881,4.69018694 15.1516056,4.78784641 15.2568957,4.88879408 C15.2775029,4.9085693 15.2775029,4.9085693 15.2981345,4.92844443 C15.4223756,5.04825306 15.5250276,5.15050739 15.6008515,5.23100677 C15.6480533,5.28111919 15.6853483,5.32325884 15.713973,5.35976116 C15.7396145,5.39307464 15.7396145,5.39307464 15.769789,5.4421632 C15.8168374,5.50391453 15.8168374,5.50391453 15.7908903,5.79178689 L15.4224833,6.63475369 C15.2346407,6.84033522 15.2346407,6.84033522 15.1658568,6.84836049 C15.1131878,6.86090539 15.1131878,6.86090539 15.0725099,6.86662496 C15.0267314,6.87265713 14.9702128,6.8770193 14.9008275,6.88040433 C14.7882365,6.88589717 14.6403702,6.88879775 14.4642978,6.88963076 C14.4352525,6.88975462 14.4352525,6.88975462 14.406294,6.88982719 C14.2508724,6.89015235 14.0992196,6.88908521 13.9727959,6.88752523 L13.8030626,7.05179504 C13.8058293,7.18485264 13.8081234,7.3427914 13.8086702,7.5018957 C13.8087758,7.53989716 13.8087758,7.53989716 13.808773,7.57786511 C13.8086374,7.73759855 13.8062144,7.87062421 13.8009232,7.9719422 C13.797615,8.03528855 13.7931849,8.08722104 13.7867367,8.13054691 C13.7804109,8.17050796 13.7804109,8.17050796 13.7654235,8.22556438 C13.7502655,8.30166843 13.7502655,8.30166843 13.5405319,8.47305278 L12.6855742,8.81847812 C12.4164284,8.84091901 12.4164284,8.84091901 12.3553569,8.79864939 C12.3071951,8.77083984 12.3071951,8.77083984 12.2747201,8.74728872 C12.2394445,8.72121662 12.1990825,8.68747386 12.1511927,8.64480931 C12.0741947,8.57621249 11.9761052,8.48294303 11.8603351,8.36914345 C11.8357249,8.34492004 11.8357249,8.34492004 11.8111621,8.32062364 C11.695318,8.2059052 11.5815774,8.0907906 11.4869879,7.99388161 L11.2498516,7.99337566 C11.1637632,8.0829659 11.0606425,8.18911001 10.9540355,8.29680306 C10.9338546,8.31717186 10.9338546,8.31717186 10.9135762,8.33756415 C10.7902746,8.46143715 10.685129,8.56382899 10.6025861,8.63943914 C10.5514701,8.68626203 10.5086052,8.72324733 10.4718212,8.75150819 C10.4385756,8.77658388 10.4385756,8.77658388 10.3907804,8.80566951 C10.3325224,8.85043191 10.3325224,8.85043191 10.0491515,8.82983894 L9.20190576,8.48158411 C8.98595046,8.29289758 8.98595046,8.29289758 8.97732518,8.22023625 C8.96459592,8.16600709 8.96459592,8.16600709 8.95916952,8.12495323 C8.95352884,8.079176 8.9498075,8.02298932 8.94728198,7.9540746 C8.94320402,7.84279817 8.9422844,7.6967834 8.94387935,7.52289679 C8.94415848,7.49400343 8.94415848,7.49400343 8.94448977,7.46519887 C8.94627654,7.31548248 8.94937176,7.16933551 8.95264006,7.04646242 L8.79671737,6.88992459 C8.66108475,6.89470062 8.49970052,6.89939654 8.33716112,6.90236222 C8.2984377,6.90304394 8.2984377,6.90304394 8.25975447,6.90361713 C8.09785631,6.90589342 7.96309907,6.90551124 7.86063683,6.90182781 C7.79677057,6.89953187 7.74449769,6.89596754 7.70105083,6.89031198 C7.66111919,6.88474659 7.66111919,6.88474659 7.6060892,6.8709389 C7.52990216,6.85835078 7.52990216,6.85835078 7.35124446,6.64415082 L7.01281507,5.80650869 C6.99285862,5.52776902 6.99285862,5.52776902 7.03709416,5.46891616 C7.06575235,5.42177857 7.06575235,5.42177857 7.08985386,5.38996068 C7.11662898,5.35525171 7.15130926,5.31533945 7.195165,5.26787589 C7.26591045,5.19131051 7.36211693,5.09354402 7.47946354,4.97806306 C7.50440065,4.95355384 7.50440065,4.95355384 7.52941287,4.92908746 C7.64823136,4.81299013 7.76743555,4.69895156 7.86761082,4.60424497 L7.87065231,4.38259531 C7.78235537,4.30044223 7.67861297,4.20280834 7.57337384,4.10183119 C7.55239375,4.08168184 7.55239375,4.08168184 7.53138804,4.06142709 C7.40727638,3.94162523 7.30472779,3.8393157 7.22894514,3.75865213 C7.18173096,3.70839704 7.14440572,3.66607475 7.11573054,3.62932111 C7.09002632,3.59574305 7.09002632,3.59574305 7.05987605,3.54632574 C7.01355775,3.48384002 7.01355775,3.48384002 7.0393421,3.19769679 L7.40674739,2.35628254 C7.59527686,2.14899347 7.59527686,2.14899347 7.66407657,2.14116799 C7.7167198,2.1286372 7.7167198,2.1286372 7.75737169,2.12292268 C7.80313422,2.11689271 7.85966574,2.11252168 7.92908792,2.10911892 C8.04176262,2.10359613 8.18978117,2.10064309 8.3660514,2.09974001 C8.39502551,2.09960499 8.39502551,2.09960499 8.4239136,2.09952079 C8.57957385,2.09913103 8.73146841,2.10013274 8.85807009,2.1016365 L9.02743617,1.93763552 C9.02455746,1.80464829 9.02213686,1.6468189 9.02147251,1.48781763 C9.02133782,1.44945444 9.02133782,1.44945444 9.02131452,1.41112598 C9.02134346,1.2515662 9.02369235,1.11868743 9.02895012,1.01745234 C9.03223959,0.954115593 9.03666792,0.902172508 9.04314075,0.85879265 C9.04949883,0.818738975 9.04949883,0.818738975 9.06460085,0.763495633 C9.08012504,0.687068884 9.08012504,0.687068884 9.28938426,0.516474692 L10.144342,0.171049344 C10.4154667,0.149134754 10.4154667,0.149134754 10.4755948,0.191526385 C10.5233441,0.219285339 10.5233441,0.219285339 10.5556285,0.242786705 C10.590767,0.268849467 10.6310739,0.302608949 10.6789487,0.345301652 C10.756014,0.414025307 10.8542863,0.507472811 10.9703013,0.621463201 C10.9945341,0.645303747 10.9945341,0.645303747 11.0187217,0.669213872 C11.1346036,0.783893661 11.2484112,0.898964353 11.3430883,0.995852356 L11.5795028,0.99580391 C11.66552,0.906369707 11.7686211,0.800369478 11.8752893,0.692785434 C11.8959858,0.671930182 11.8959858,0.671930182 11.9167871,0.651049782 C12.040135,0.52735987 12.1453889,0.42512797 12.2281593,0.349611233 C12.2794842,0.302784198 12.322598,0.265780469 12.3597214,0.237476242 C12.3933424,0.212321895 12.3933424,0.212321895 12.4417297,0.183222003 C12.5013431,0.139030082 12.5013431,0.139030082 12.78167,0.160074277 L13.6299277,0.508454146 C13.8447364,0.697655428 13.8447364,0.697655428 13.853073,0.769820121 C13.8656604,0.823825696 13.8656604,0.823825696 13.8710336,0.864768644 C13.8766223,0.910459839 13.8803078,0.966568246 13.8828047,1.03539173 C13.8868382,1.14657242 13.8877293,1.29247086 13.886118,1.46621555 C13.8858377,1.49493902 13.8858377,1.49493902 13.8855062,1.5235751 C13.8837087,1.67327643 13.8806091,1.81942483 13.8773403,1.94229558 L14.0342468,2.09996336 C14.169802,2.09513227 14.3310604,2.0903668 14.4934677,2.08732153 Z M15.1077656,5.49036626 L15.0868387,5.53825597 C15.0930624,5.52360578 15.1000373,5.50771302 15.1077656,5.49036626 Z M12.4058655,8.12617479 C12.5971481,8.04889159 12.4998302,7.95402259 12.6026751,8.04665852 L12.4058655,8.12617479 Z M10.3338832,8.13958691 L10.3034811,8.12709064 C10.3130646,8.13099029 10.3231804,8.13515622 10.3338832,8.13958691 Z M8.0435478,6.36444212 L7.96011624,6.15794178 C8.09606295,6.1624386 7.96410305,6.16780947 8.0435478,6.36444212 Z M10.4240507,0.863352682 L10.2269172,0.942999806 C10.3334699,1.03914726 10.231552,0.941127222 10.4240507,0.863352682 Z M14.2077966,4.93099642 L14.2209203,4.05808202 L15.0437442,3.26003078 L14.943532,2.83378778 L13.7365437,2.85933596 L13.1209185,2.24072385 L13.1381502,1.11365137 L12.6973794,0.932637715 C12.6294996,0.99601121 11.8995846,1.74241154 11.8995846,1.74241154 L11.0267186,1.7425904 C11.0267186,1.7425904 10.2868863,0.998550088 10.2266607,0.943103413 L9.77171138,1.12691487 C9.76922272,1.20423895 9.78265678,2.24570334 9.78265678,2.24570334 L9.15522466,2.85325999 L8.00450312,2.85317658 L7.81378246,3.28998586 C7.87579751,3.35407682 8.62183342,4.05920253 8.62183342,4.05920253 L8.60985605,4.93205791 L7.78670167,5.72872565 L7.95992981,6.15748034 C8.03868601,6.15880382 9.09434868,6.13068975 9.09434868,6.13068975 L9.7090754,6.74784163 L9.6919138,7.87571595 L10.1327008,8.05689419 C10.2005454,7.9933186 10.9303265,7.24601903 10.9303265,7.24601903 L11.8043508,7.24788382 L12.6029452,8.04654942 L13.0552661,7.93300088 L13.0481245,6.7433332 L13.6759091,6.13575617 L14.8254907,6.13633218 L15.0573256,5.74296427 L14.2077966,4.93099642 Z M11.768898,5.36975721 C12.267589,5.16827297 12.5111239,4.6108676 12.3167539,4.12978512 C12.1227323,3.6495648 11.560059,3.41772503 11.0615939,3.61911802 C10.5637923,3.82024292 10.3195917,4.37856132 10.5134465,4.85836863 C10.7075606,5.33881792 11.271013,5.5709158 11.768898,5.36975721 Z M12.0486067,6.06206055 C11.1716456,6.41637583 10.1710899,6.00422593 9.82114313,5.13807733 C9.47142964,4.27250606 9.9050691,3.28107137 10.7818852,2.92681468 C11.6594553,2.57225333 12.6592153,2.98418706 13.0090573,3.85007641 C13.3592346,4.71679562 12.9264336,5.70739549 12.0486067,6.06206055 Z"/>
  </g>
</svg>
