<svg xmlns="http://www.w3.org/2000/svg" width="16" height="16" viewBox="0 0 16 16">
  <g fill="none" fill-rule="evenodd">
    <rect width="16" height="16"/>
    <path fill="#8EA6BB" fill-rule="nonzero" d="M15,10.8547593 L15,14.0779629 C15,14.5877189 14.5526143,15 14.0059397,15 L7.99406028,15 C7.44596259,15 7,14.5889229 7,14.0779629 L7,7.9220371 C7,7.41228114 7.44738566,7 7.99406028,7 L10.5,7 L10.5,5 L13.5,5 L13.5,7 L14.0059397,7 C14.2013698,7 14.3838148,7.05226248 14.5376886,7.14268054 L15.7195646,5.97909121 C15.3715944,5.39247163 14.7343812,5 14.0059397,5 L7.99406028,5 C6.89451376,5 6,5.89805351 6,7.00585866 L6,13.9941413 C6,15.1029399 6.8927712,16 7.99406028,16 L14.0059397,16 C15.1054862,16 16,15.1019465 16,13.9941413 L16,9.90519848 L15,10.8547593 Z"/>
    <path fill="#8EA6BB" d="M10,4 L10,2.00585866 C10,0.897060126 9.1072288,0 8.00593972,0 L1.99406028,1.77635684e-15 C0.894513756,1.77635684e-15 0,0.898053512 0,2.00585866 L0,8.99414134 C0,10.1029399 0.892771196,11 1.99406028,11 L5,11 L5,10 L1.99406028,10 C1.44596259,10 1,9.58892287 1,9.0779629 L1,2.9220371 C1,2.41228114 1.44738566,2 1.99406028,2 L8.00593972,2 C8.55403741,2 9,2.41107713 9,2.9220371 L9,4 L9,4 L10,4 Z"/>
    <text fill="#FF00FF" font-family="HelveticaNeue-CondensedBold, Helvetica Neue" font-size="6" font-style="condensed" font-weight="bold" letter-spacing="-.067">
      <tspan x="2" y="8">A</tspan>
    </text>
    <text fill="#FF00FF" font-family="HelveticaNeue-CondensedBold, Helvetica Neue" font-size="6" font-style="condensed" font-weight="bold" letter-spacing="-.067">
      <tspan x="8" y="14">B</tspan>
    </text>
    <path fill="#25CAAB" d="M11.5,10.2401663 L8.91645551,7.65662184 C8.71020388,7.45037021 8.36491838,7.44557946 8.15490761,7.65559024 C7.95103873,7.85945911 7.94535869,8.20655762 8.15593921,8.41713814 L11.6446306,11.9058295 C11.8405187,12.1017176 12.1644625,12.0953711 12.3540041,11.9058295 L15.8426955,8.41713814 C16.053276,8.20655762 16.047596,7.85945911 15.8437271,7.65559024 C15.6337164,7.44557946 15.2884309,7.45037021 15.0821792,7.65662184 L12.5,10.2388011 L12.5,3.50043583 C12.5,3.22405275 12.2680664,3 12,3 C11.7238576,3 11.5,3.23079681 11.5,3.50043583 L11.5,10.2401663 Z"/>
  </g>
</svg>
