<svg xmlns="http://www.w3.org/2000/svg" width="12" height="12" viewBox="0 0 12 12">
  <g fill="none" fill-rule="evenodd">
    <rect width="12" height="12"/>
    <rect width="12" height="12" fill="#0685B9" rx="1"/>
    <path fill="#FFFFFF" d="M7.86631016,4.78342246 C7.81639904,4.59001686 7.74777227,4.41221115 7.66042781,4.25 C7.57308334,4.08778885 7.460785,3.94741592 7.32352941,3.82887701 C7.18627382,3.71033809 7.02562481,3.61831584 6.84157754,3.55280749 C6.65753027,3.48729914 6.44385148,3.45454545 6.20053476,3.45454545 C5.84491801,3.45454545 5.53765727,3.52629162 5.27874332,3.6697861 C5.01982936,3.81328057 4.80926997,4.00512358 4.64705882,4.24532086 C4.48484767,4.48551814 4.36475084,4.75846549 4.28676471,5.06417112 C4.20877858,5.36987675 4.1697861,5.68181659 4.1697861,6 C4.1697861,6.31818341 4.20877858,6.63012325 4.28676471,6.93582888 C4.36475084,7.24153451 4.48484767,7.51448186 4.64705882,7.75467914 C4.80926997,7.99487642 5.01982936,8.18671943 5.27874332,8.3302139 C5.53765727,8.47370838 5.84491801,8.54545455 6.20053476,8.54545455 C6.46256816,8.54545455 6.69340364,8.50022327 6.89304813,8.40975936 C7.09269262,8.31929545 7.26425953,8.19451951 7.40775401,8.03542781 C7.55124849,7.8763361 7.66354683,7.6907319 7.74465241,7.47860963 C7.82575798,7.26648735 7.87878775,7.03877127 7.90374332,6.79545455 L9.04545455,6.79545455 C9.02049898,7.19474353 8.93471553,7.55971314 8.7881016,7.89037433 C8.64148768,8.22103552 8.44340588,8.50646047 8.19385027,8.74665775 C7.94429465,8.98685503 7.6510712,9.17245924 7.31417112,9.30347594 C6.97727104,9.43449263 6.60606263,9.5 6.20053476,9.5 C5.70142353,9.5 5.25378986,9.40797775 4.85762032,9.22393048 C4.46145078,9.03988322 4.12611545,8.78877164 3.85160428,8.47058824 C3.5770931,8.15240483 3.36653371,7.78119642 3.21991979,7.35695187 C3.07330586,6.93270733 3,6.48039456 3,6 C3,5.52584433 3.07330586,5.07665096 3.21991979,4.65240642 C3.36653371,4.22816187 3.5770931,3.85695346 3.85160428,3.53877005 C4.12611545,3.22058664 4.46145078,2.96791537 4.85762032,2.78074866 C5.25378986,2.59358195 5.70142353,2.5 6.20053476,2.5 C6.57486818,2.5 6.9273602,2.55147007 7.25802139,2.65441176 C7.58868258,2.75735346 7.88034633,2.90708458 8.13302139,3.10360963 C8.38569645,3.30013467 8.59001705,3.53876865 8.7459893,3.81951872 C8.90196156,4.10026878 8.99866291,4.42156682 9.03609626,4.78342246 L7.86631016,4.78342246 Z"/>
  </g>
</svg>
