<svg xmlns="http://www.w3.org/2000/svg" width="16" height="16" viewBox="0 0 16 16">
  <g fill="none" fill-rule="evenodd">
    <rect width="16" height="16"/>
    <path fill="#FF00FF" fill-rule="nonzero" d="M7.91734383,14.8872106 C7.49090992,14.9254951 7.03962604,14.9472733 6.5647283,14.9472733 C2.72223567,14.9472733 0.425683552,13.5246185 0.329860794,13.4624938 C0.253202587,13.4159003 0.195708931,13.3475632 0.163768012,13.2668011 C-0.0055188622,12.8505659 -0.00232477024,12.0212016 0.000869321721,11.8596775 L0.000869321721,11.8503588 C0.00406341368,11.8255089 0.00406341368,11.8006591 0.00406341368,11.772703 C0.0232279654,11.160775 0.0647511609,9.72258909 1.45098707,9.25976035 C1.46056935,9.25665411 1.47015162,9.25354788 1.48292799,9.25044165 C2.92985165,8.89322483 4.12124795,8.08560421 4.13402432,8.07628551 C4.32886393,7.94271748 4.59716765,7.98931098 4.73451361,8.1787912 C4.87185956,8.36827143 4.82394818,8.62919501 4.62910857,8.76276304 C4.57480901,8.7969316 3.30356041,9.66046443 1.71290261,10.0580623 C0.968679185,10.3158796 0.885632795,11.0893317 0.863274151,11.7975528 C0.863274151,11.8255089 0.860080059,11.8503588 0.860080059,11.8752087 C0.853691875,12.1547697 0.876050519,12.5865361 0.92715599,12.8350347 C1.44779298,13.1208082 3.48881774,14.1116966 6.56153421,14.1116966 C6.86957838,14.1116966 7.16708469,14.1018511 7.45360181,14.0838415 C7.58352795,14.3668423 7.73910066,14.635624 7.91734383,14.8872106 L7.91734383,14.8872106 Z M6.50404055,8.08241872 C5.56817161,8.06688755 4.81117181,7.74694554 4.25539981,7.1350176 C3.02567441,5.7869124 3.23009629,3.47587492 3.25245494,3.25533237 C3.33230724,1.58728515 4.14999478,0.795195693 4.82075409,0.425553945 C5.48831931,0.0559121971 6.18463136,0 6.53917556,0 L6.55834011,0 L6.57111648,0 L6.59347513,0 C7.2386817,0.0124249327 7.81681235,0.161524125 8.3118966,0.437978878 C8.97626773,0.807620625 9.7811789,1.59971008 9.8610312,3.25533237 C9.88338984,3.47587492 10.0878117,5.7869124 8.85808633,7.1350176 C8.29912023,7.74694554 7.54212044,8.06688755 6.60625149,8.08241872 L6.57431057,8.08241872 L6.55514602,8.08241872 L6.50404055,8.08241872 Z M4.10527749,3.3329882 C4.1020834,3.3516256 3.88488514,5.47318285 4.8974123,6.57900186 C5.29667379,7.02008697 5.83647533,7.2375233 6.53917556,7.24373576 L6.55514602,7.24373576 L6.57111648,7.24373576 C7.27701081,7.2375233 7.81361825,7.02008697 8.21607384,6.57900186 C9.23179509,5.46697039 9.00820865,3.35473183 9.00501456,3.3329882 C9.00182046,3.32677573 9.00182046,3.31745703 9.00182046,3.30813833 C8.90280361,1.20211224 7.4367154,0.860426589 6.57431057,0.84178919 L6.54875784,0.84178919 L6.53598147,0.84178919 C5.83966942,0.84178919 4.21387662,1.08096914 4.10847158,3.30813833 C4.10847158,3.3143508 4.10527749,3.3236695 4.10527749,3.3329882 Z"/>
    <path fill="#25CAAB" d="M12,16 C9.790861,16 8,14.209139 8,12 C8,9.790861 9.790861,8 12,8 C14.209139,8 16,9.790861 16,12 C16,14.209139 14.209139,16 12,16 Z M11.6610042,14.3538011 L14.9893073,11.0254206 C15.194721,10.8200022 15.1995777,10.5030092 15.0159869,10.3015649 L14.6989456,9.95369274 C14.5199441,9.7572841 14.2091302,9.74563014 14.014974,9.93891034 L11.653455,12.2897739 C11.4666713,12.4757148 11.1424114,12.4802562 10.9456673,12.2835247 L10.1865267,11.5244326 C9.9877785,11.3256971 9.67158298,11.329176 9.47580791,11.527727 L9.20288964,11.8045149 C9.00182666,12.0084288 9.00114475,12.3226988 9.18955568,12.5184349 L10.9607558,14.3584979 C11.1409232,14.5456701 11.4626786,14.5521313 11.6610042,14.3538011 Z"/>
  </g>
</svg>
