<svg xmlns="http://www.w3.org/2000/svg" width="16" height="16" viewBox="0 0 16 16">
  <g fill="none" fill-rule="evenodd">
    <rect width="20" height="20" fill="none"/>
    <path fill="#8EA6BB" fill-rule="nonzero" d="M2.13203467,11.6069595 C0.827235655,10.5020687 0,8.85881854 0,7.02396719 C0,3.69702198 2.71968602,1 6.07458876,1 C8.07614855,1 9.85160904,1.95997904 10.9583193,3.44097493 C9.89726193,2.54248218 8.52039769,2 7.01576523,2 C3.66086249,2 0.941176471,4.69702198 0.941176471,8.02396719 C0.941176471,9.36603228 1.38373899,10.6055927 2.13203467,11.6069595 L2.13203467,11.6069595 Z M12.6327134,12.8697574 C11.518459,14.2005208 9.83749402,15.0479344 7.9569417,15.0479344 C4.60203896,15.0479344 1.88235294,12.3509124 1.88235294,9.02396719 C1.88235294,5.69702198 4.60203896,3 7.9569417,3 C11.3118444,3 14.0315304,5.69702198 14.0315304,9.02396719 C14.0315304,9.55206067 13.9630055,10.0642827 13.834292,10.552366 L16,12.8697574 L12.6327134,12.8697574 L12.6327134,12.8697574 Z"/>
  </g>
</svg>
