<svg xmlns="http://www.w3.org/2000/svg" width="16" height="16" viewBox="0 0 16 16">
  <g fill="none" fill-rule="evenodd">
    <rect width="16" height="16"/>
    <path fill="#8EA6BB" fill-rule="nonzero" d="M12,13 L8.91464715,13 C8.70872894,13.5825962 8.15310941,14 7.5,14 C6.84689059,14 6.29127106,13.5825962 6.08535285,13 L1.49907684,13 C1.22344431,13 1,12.7680664 1,12.5 C1,12.2238576 1.2236826,12 1.49907684,12 L6.08535285,12 C6.23599531,11.5737933 6.57379328,11.2359953 7,11.0853529 L7,9 L1.99188419,9 C0.891796927,9 0,8.11256671 0,7.00038502 L0,1.99961498 C0,0.895258123 0.893397331,0 1.99188419,0 L13.0081158,0 C14.1082031,0 15,0.88743329 15,1.99961498 L15,7.00038502 C15,8.10474188 14.1066027,9 13.0081158,9 L8,9 L8,11.0853529 C8.42620672,11.2359953 8.76400469,11.5737933 8.91464715,12 L12.5009232,12 C12.7639161,12 12.9793974,12.2111499 12.9986069,12.4633689 L13,14 L14.5,14 L12.5,16 L10.5,14 L12,14 L12,13 Z M1,1.99961498 L1,7.00038502 C1,7.55784055 1.44164376,8 1.99188419,8 L13.0081158,8 C13.5541264,8 14,7.55264413 14,7.00038502 L14,1.99961498 C14,1.44215945 13.5583562,1 13.0081158,1 L1.99188419,1 C1.44587365,1 1,1.44735587 1,1.99961498 Z" transform="matrix(-1 0 0 1 15 0)"/>
  </g>
</svg>
