<svg xmlns="http://www.w3.org/2000/svg" width="32" height="32" viewBox="0 0 32 32">
  <g fill="none" fill-rule="evenodd">
    <rect width="32" height="32" fill="none"/>
    <path fill="#FF00FF" fill-rule="nonzero" d="M4,9.12071794 L4,22.3708308 C4,22.6502305 4.18712564,22.9847658 4.43812044,23.1296777 L15.9130548,29.7547342 L27.3879892,23.1296777 C27.6299564,22.9899778 27.8261096,22.6606547 27.8261096,22.3708308 L27.8261096,9.12071794 L16.3511753,2.49566149 C16.109208,2.35596164 15.7259292,2.35074957 15.4749344,2.49566149 L4,9.12071794 Z M15.5470123,0.14012146 C15.7567407,0.0190347229 16.0861321,-0.00804994474 16.3043976,0.117965698 L29.3460693,7.66996765 C29.7274608,7.89016413 29.8261096,8.13809204 29.8261096,8.59098816 L29.8261096,23.4683214 C29.8261096,23.9977882 29.6342098,24.1449821 29.3893362,24.2833539 L16.5980072,31.7252502 C16.1480916,31.9850091 15.7891866,32.0125522 15.2915649,31.7252502 L2.50709617,24.326416 C2.0610456,24.0688886 2,23.8780212 2,23.4924011 L2,8.71040659 C2,8.09688099 2.16374262,7.8132174 2.50709617,7.61498214 L15.5470123,0.14012146 Z"/>
    <path fill="#FF00FF" d="M17,17.6989141 L17,30.3999996 L15,30.3999996 L15,17.6905845 L3.04036458,10.6432292 L3.04036458,8.07942708 L16.0475318,15.7071832 L29.2821791,8 L29.2821791,10.5638021 L17,17.6989141 Z"/>
  </g>
</svg>
