<svg xmlns="http://www.w3.org/2000/svg" width="16" height="16" viewBox="0 0 16 16">
  <g fill="none" fill-rule="evenodd">
    <rect width="16" height="16"/>
    <path fill="#F25335" fill-rule="nonzero" d="M0,7.5 C1.77635684e-15,3.35786438 3.35786438,-7.6089797e-16 7.5,0 C11.6421356,7.6089797e-16 15,3.35786438 15,7.5 C15,11.6421356 11.6421356,15 7.5,15 C3.35786438,15 0,11.6421356 0,7.5 Z M1,7.5 C1,11.0898509 3.91014913,14 7.5,14 C11.0898509,14 14,11.0898509 14,7.5 C14,3.91014913 11.0898509,1 7.5,1 C3.91014913,1 1,3.91014913 1,7.5 Z M8,3.33977723 L8,8.66022277 C8,8.85168457 7.77614237,9 7.5,9 C7.23193359,9 7,8.84787655 7,8.66022277 L7,3.33977723 C7,3.14831543 7.22385763,3 7.5,3 C7.76806641,3 8,3.15212345 8,3.33977723 Z M7.5,12 C6.94771525,12 6.5,11.5522847 6.5,11 C6.5,10.4477153 6.94771525,10 7.5,10 C8.05228475,10 8.5,10.4477153 8.5,11 C8.5,11.5522847 8.05228475,12 7.5,12 Z"/>
  </g>
</svg>
