<svg xmlns="http://www.w3.org/2000/svg" width="208" height="234" viewBox="0 0 208 234" xmlns:xlink="http://www.w3.org/1999/xlink">
  <defs>
    <path id="a" d="M63.2777778,2.88675135 L111.30148,30.6132487 L111.30148,30.6132487 C114.395491,32.3995766 116.30148,35.7008468 116.30148,39.2735027 L116.30148,94.7264973 L116.30148,94.7264973 C116.30148,98.2991532 114.395491,101.600423 111.30148,103.386751 L63.2777778,131.113249 L63.2777778,131.113249 C60.183767,132.899577 56.3717885,132.899577 53.2777778,131.113249 L5.25407572,103.386751 L5.25407572,103.386751 C2.16006496,101.600423 0.254075724,98.2991532 0.254075724,94.7264973 L0.254075724,39.2735027 L0.254075724,39.2735027 C0.254075724,35.7008468 2.16006496,32.3995766 5.25407572,30.6132487 L53.2777778,2.88675135 L53.2777778,2.88675135 C56.3717885,1.1004234 60.183767,1.1004234 63.2777778,2.88675135 Z"/>
  </defs>
  <g fill="none" fill-rule="evenodd">
    <rect width="208" height="234"/>
    <g transform="translate(45.5 50)">
      <mask id="b" fill="white">
        <use xlink:href="#a"/>
      </mask>
      <use fill="#FF4300" xlink:href="#a"/>
      <path fill="#DB2F00" d="M0.254075724,35.4982417 C0.254075724,34.3946433 1.03044012,33.9482342 1.99060987,34.5025885 L58.2777778,67 L58.2777778,131.994823 C58.2777778,133.102252 57.5014134,133.556838 56.5412436,133.008757 L1.99060987,101.87033 C1.03154855,101.322881 0.254075724,99.9775462 0.254075724,98.8808451 L0.254075724,35.4982417 Z" mask="url(#b)"/>
      <path fill="#FF6A00" d="M58.2777778,35.4982417 C58.2777778,34.3946433 59.0541422,33.9482342 60.0143119,34.5025885 L116.30148,67 L116.30148,131.994823 C116.30148,133.102252 115.525115,133.556838 114.564946,133.008757 L60.0143119,101.87033 C59.0552506,101.322881 58.2777778,99.9775462 58.2777778,98.8808451 L58.2777778,35.4982417 Z" mask="url(#b)" transform="matrix(-1 0 0 1 174.58 0)"/>
      <path fill="#FFFFFF" d="M62.4419212,16.1459693 L99.0227606,37.3160745 C102.008863,38.898581 104.041977,42.0407379 104.041977,45.6585174 L104.041977,47.3748948 L104.041977,88.6691707 C104.041977,92.371844 101.912151,95.5738619 98.8162979,97.1204518 L62.7168426,118.115328 C61.2683439,119.02848 60.1475087,119.107846 58.3110775,119.111111 L58.3110775,107.476315 C59.7400166,107.471961 60.4794392,107.511228 61.6073774,106.802692 L89.6776079,90.473707 C92.0888746,89.272134 93.743836,86.7819175 93.743836,83.9031489 L93.743836,51.7882811 L93.743836,50.4539255 C93.743836,47.6404598 92.1627665,45.1970437 89.8427781,43.9639077 L61.3922215,27.5043169 C60.3164423,26.8817627 59.0678865,26.5247737 57.7356589,26.5247737 C56.3143264,26.5247737 54.9886187,26.9307399 53.8574206,27.6196853 L25.5568211,43.9878521 C23.2596522,45.22643 21.6970558,47.6567855 21.6970558,50.4539255 L21.6970558,81.3759275 L21.6970558,83.9031489 L21.6970558,100.076495 L16.5311423,97.0692978 C13.4863612,95.5063822 11.4000015,92.3337507 11.4000015,88.6691707 L11.4000015,45.6585174 C11.4000015,42.0625055 13.4092093,38.9377627 16.3616256,37.3454608 C16.3616256,37.3454608 52.7555619,16.3037846 52.7620817,16.3146684 C54.2073205,15.4124003 55.9122675,14.8888889 57.7400055,14.8888889 C59.4536457,14.8888889 61.0575347,15.3492742 62.4419212,16.1459693 Z M72.4347147,61.6989508 L72.4347147,75.4630133 C72.4347147,76.6984452 71.7349331,77.765013 70.7137464,78.280321 L70.7137464,78.2814104 L58.8228342,85.2800124 L58.8228342,85.278923 C58.343414,85.5850573 57.7769241,85.7626371 57.1685119,85.7626371 C56.5138775,85.7626371 55.9065401,85.5567317 55.4056212,85.2048406 L43.6082282,78.2650688 L43.6082282,78.2639793 C42.6042405,77.7432241 41.9173581,76.6853719 41.9173581,75.4630133 L41.9173581,61.1269916 C41.9173581,59.9286008 42.5784421,58.8870903 43.5523317,58.3565301 L55.538913,51.3394075 C55.538913,51.3394075 55.5399879,51.3415864 55.5432127,51.3459442 C56.0183332,51.0441676 56.5805233,50.8709457 57.182486,50.8709457 C57.746826,50.8709457 58.2756932,51.0234681 58.7325398,51.2903824 L58.7325398,51.289293 L70.7836171,58.3456356 L70.7825422,58.3456356 C71.7650312,58.874017 72.4347147,59.9209747 72.4347147,61.1269916 L72.4347147,61.6989508 Z M80.5595344,51.3452365 L80.5595344,51.3441482 L60.3304139,39.5766844 L60.3304139,39.5777726 C59.5652564,39.1337585 58.6779764,38.8769267 57.7323369,38.8769267 C56.7207728,38.8769267 55.7772947,39.1696714 54.9797153,39.6713639 C54.9753924,39.6648342 54.9721502,39.6604812 54.9721502,39.6604812 L34.8511027,51.3615605 C33.2191991,52.2463241 32.1082078,53.983203 32.1082078,55.9834433 L32.1082078,106.29199 L42.4172996,111.931406 L42.4172996,88.9308185 L54.7495196,96.1395192 C55.5903283,96.7239202 56.6094575,97.0678135 57.7085608,97.0678135 C58.7287707,97.0678135 59.6798139,96.7728924 60.4838777,96.2624937 L60.4849584,96.2624937 L80.444977,84.5918859 C80.444977,84.5918859 80.4438962,84.5907976 80.4438962,84.5897094 C82.1568547,83.7310643 83.3337706,81.9517428 83.3337706,79.8938242 L83.3337706,56.9367679 L83.3337706,55.9834433 C83.3337706,53.9723203 82.2087297,52.2245587 80.5595344,51.3452365 L80.5595344,51.3452365 Z"/>
    </g>
  </g>
</svg>
