<svg xmlns="http://www.w3.org/2000/svg" width="12" height="12" viewBox="0 0 12 12">
  <g fill="none" fill-rule="evenodd">
    <rect width="12" height="12"/>
    <rect width="12" height="12" fill="#F25335" rx="1"/>
    <path fill="#FFFFFF" fill-rule="nonzero" d="M9.27478028,5.81345224 C9.27478028,6.95920993 8.9486727,7.83676463 8.29644776,8.44614267 C7.64422282,9.05552072 6.70239874,9.36020517 5.47094727,9.36020517 L3.5,9.36020517 L3.5,2.4000001 L5.68518067,2.4000001 C6.82141682,2.4000001 7.70373221,2.69992385 8.33215332,3.29978037 C8.96057443,3.89963688 9.27478028,4.73751913 9.27478028,5.81345224 L9.27478028,5.81345224 Z M7.74182129,5.85153818 C7.74182129,4.35665766 7.08167164,3.60922861 5.76135254,3.60922861 L4.97583008,3.60922861 L4.97583008,8.14145517 L5.60900879,8.14145517 C7.0308909,8.14145517 7.74182129,7.37815714 7.74182129,5.85153818 L7.74182129,5.85153818 Z"/>
  </g>
</svg>
