<svg xmlns="http://www.w3.org/2000/svg" width="16" height="16" viewBox="0 0 16 16">
  <g fill="none" fill-rule="evenodd">
    <rect width="16" height="16"/>
    <rect width="16" height="16" fill="#8EA6BB" rx="2"/>
    <path fill="#FFFFFF" d="M11.5867186,8.86575342 L11.5867186,4 L9.74687481,4 L9.74687481,8.86575342 C9.74687481,9.45023123 9.62187606,9.87945068 9.37187481,10.1534247 C9.12187356,10.4273986 8.66875309,10.5643836 8.01249981,10.5643836 C7.63749793,10.5643836 7.3386728,10.515069 7.11601543,10.4164384 C6.89335807,10.3178077 6.71953168,10.1899551 6.59453106,10.0328767 C6.46953043,9.8757983 6.3875,9.69497819 6.34843731,9.49041096 C6.30937461,9.28584373 6.28984356,9.07762663 6.28984356,8.86575342 L6.28984356,4 L4.44999981,4 L4.44999981,8.86575342 C4.44999981,9.93242542 4.76054358,10.7214586 5.38164043,11.2328767 C6.00273729,11.7442948 6.87968165,12 8.01249981,12 C9.1296929,12 10.0046841,11.7424683 10.6374998,11.2273973 C11.2703155,10.7123262 11.5867186,9.92511945 11.5867186,8.86575342 Z"/>
  </g>
</svg>
