<svg xmlns="http://www.w3.org/2000/svg" width="16" height="16" viewBox="0 0 16 16">
  <g fill="none" fill-rule="evenodd">
    <rect width="16" height="16"/>
    <rect width="16" height="16" fill="#0685B9" rx="2"/>
    <path fill="#FFFFFF" d="M9.94871467,6.60404284 L11.6721953,6.60404284 C11.6192811,6.13537472 11.4907773,5.71962698 11.2866799,5.35678715 C11.0825825,4.99394732 10.823685,4.68969556 10.5099797,4.44402276 C10.1962745,4.19834995 9.84099912,4.01126347 9.44414305,3.8827577 C9.04728698,3.75425192 8.62586996,3.69 8.17987933,3.69 C7.56002795,3.69 7.00254802,3.79960622 6.50742283,4.01882195 C6.01229765,4.23803769 5.59466014,4.54039968 5.2544978,4.925917 C4.91433546,5.31143432 4.65354824,5.76308755 4.47212832,6.28089023 C4.29070841,6.79869291 4.19999981,7.35995235 4.19999981,7.96468541 C4.19999981,8.55430014 4.29070841,9.10422101 4.47212832,9.61446452 C4.65354824,10.124708 4.91433546,10.5688022 5.2544978,10.9467604 C5.59466014,11.3247185 6.01229765,11.6214112 6.50742283,11.8368474 C7.00254802,12.0522835 7.56002795,12.16 8.17987933,12.16 C8.6787841,12.16 9.13610661,12.0844095 9.55186059,11.9332262 C9.96761456,11.782043 10.330449,11.5628305 10.6403746,11.2755823 C10.9503003,10.9883341 11.199749,10.6406178 11.3887281,10.232423 C11.5777071,9.82422821 11.6948724,9.3669057 11.7402274,8.86044177 L10.0167468,8.86044177 C9.94871433,9.40470152 9.76162785,9.8431264 9.45548174,10.1757296 C9.14933563,10.5083328 8.72413908,10.6746319 8.17987933,10.6746319 C7.77924368,10.6746319 7.43908644,10.5971516 7.1593974,10.4421888 C6.87970836,10.2872259 6.65293687,10.0812418 6.47907611,9.82423025 C6.30521536,9.56721871 6.17860128,9.27808505 6.09923006,8.95682062 C6.01985885,8.63555618 5.98017384,8.30484775 5.98017384,7.96468541 C5.98017384,7.60940474 6.01985885,7.26546797 6.09923006,6.93286479 C6.17860128,6.60026161 6.30521536,6.30356891 6.47907611,6.04277778 C6.65293687,5.78198665 6.87970836,5.57411278 7.1593974,5.41914993 C7.43908644,5.26418709 7.77924368,5.18670683 8.17987933,5.18670683 C8.39909506,5.18670683 8.60885869,5.22261231 8.80917652,5.29442436 C9.00949434,5.36623641 9.18902177,5.46639382 9.3477642,5.5948996 C9.50650663,5.72340537 9.63879,5.87269661 9.74461828,6.04277778 C9.85044657,6.21285895 9.91847802,6.39994543 9.94871467,6.60404284 Z"/>
  </g>
</svg>
