<svg xmlns="http://www.w3.org/2000/svg" width="16" height="16" viewBox="0 0 16 16">
  <g fill="none" fill-rule="evenodd">
    <rect width="16" height="16"/>
    <path fill="#FFFFFF" d="M2.5,14.5112646 L2.5,5.54271058 L8.02338332,1.5 L13.5539152,5.59680264 L13.5539152,14.5275144 L9.63218994,14.5275144 L9.63218994,10.8950653 C9.63218994,10.8950653 9.42451061,9.72859013 8.02695762,9.72859013 C6.62940463,9.72859013 6.5393817,10.8950653 6.5393817,10.8950653 L6.5393817,14.5112646 L2.5,14.5112646 Z"/>
    <path fill="#FF00FF" fill-rule="nonzero" d="M14.8241769,6.91591817 L8.00221367,2.01617636 L1.13093656,6.97991834 C0.898509826,7.14782109 0.587374474,7.09642429 0.425671038,6.87257923 C0.268696728,6.65528067 0.312403309,6.33758682 0.533855216,6.17761218 L8.00052611,0.783763672 L15.4186812,6.11170864 C15.6391047,6.27002345 15.6864609,6.57964981 15.5253711,6.80393687 C15.3689925,7.02166451 15.050346,7.07835967 14.8241769,6.91591817 Z M6,14 L6,10.990778 C6,9.88849738 6.89438231,9 8,9 C9.10108537,9 10,9.89521264 10,10.990778 L10,14 L13,14 L13,7.50342274 C13,7.22539004 13.232357,7 13.5009129,7 C13.7775594,7 14.0018257,7.23079681 14.0018257,7.50043583 L14.0018257,14.4995642 C14.0018257,14.7759472 13.7869035,15 13.5039452,15 L9.49788052,15 C9.2229087,15 9,14.7844468 9,14.5083907 L9,10.990778 C9,10.4509752 8.55228475,10 8,10 C7.44386482,10 7,10.4435864 7,10.990778 L7,14.5083907 C7,14.779899 6.78515625,15 6.50230122,15 L2.49769878,15 C2.22282734,15 2,14.7692032 2,14.4995642 L2,7.50043583 C2,7.22405275 2.23193359,7 2.5,7 C2.77614237,7 3,7.23290253 3,7.50342274 L3,14 L6,14 Z"/>
  </g>
</svg>
