<svg xmlns="http://www.w3.org/2000/svg" width="32" height="32" viewBox="0 0 32 32">
  <path fill="#FF00FF" fill-rule="evenodd" d="M16,32 C24.836556,32 32,24.836556 32,16 C32,7.163444 24.836556,0 16,0 C7.163444,0 0,7.163444 0,16 C0,24.836556 7.163444,32 16,32 L16,32 Z M16,30.5 C7.99187113,30.5 1.5,24.0081289 1.5,16 C1.5,7.99187113 7.99187113,1.5 16,1.5 C24.0081289,1.5 30.5,7.99187113 30.5,16 C30.5,24.0081289 24.0081289,30.5 16,30.5 Z M15,3 L15,5 L17,5 L17,3 L15,3 Z M15,27 L15,29 L17,29 L17,27 L15,27 Z M29,15 L27,15 L27,17 L29,17 L29,15 Z M5,15 L3,15 L3,17 L5,17 L5,15 Z M17,8 L15,8 L15,16.8065457 L20.9497475,22.7781746 L22.363961,21.363961 L17,16 L17,8 Z"/>
</svg>
