<svg xmlns="http://www.w3.org/2000/svg" width="16" height="16" viewBox="0 0 16 16">
  <g fill="none" fill-rule="evenodd">
    <rect width="16" height="16" fill="none"/>
    <path fill="#FF00FF" fill-rule="nonzero" d="M5.16201801,1.64496445 C5.80809802,0.654571659 6.93606262,0 8.20876799,0 C10.2260343,0 11.8559854,1.61807846 11.8559854,3.62065081 C11.8559854,6.31210805 10.1453436,8.66713313 8.20876799,8.66713313 C6.2399161,8.66713313 4.57768869,6.36016978 4.57768869,3.62065081 C4.57768869,3.1374762 4.66933878,2.68462909 4.83777803,2.26210948 L4.85715375,2.22750746 L5.1648969,1.64711176 L5.162018,1.64496445 L5.16201801,1.64496445 Z M2.50313069,9.93151141 C3.02134212,9.34102362 3.71312406,8.90328293 4.49699804,8.69917429 L4.6906556,8.65111255 C4.98114194,8.57100966 5.30390455,8.66713313 5.51370024,8.90744181 C6.22377797,9.70847075 7.12751326,9.77255307 8.07966294,9.77255307 C9.03181263,9.77255307 9.93554792,9.70847075 10.6456256,8.90744181 C10.8554213,8.66713313 11.1781839,8.57100966 11.4686703,8.65111255 L11.6623279,8.68315371 C12.9695164,9.01958586 14.0023567,9.99684117 14.4219481,11.2624669 C14.4542244,11.2945081 14.4865006,11.3425698 14.5026388,11.3906315 L15.1804402,13.729636 C15.2611309,14.0180065 15.1965784,14.3063769 15.0190589,14.530665 C14.8576776,14.7549531 14.5833294,14.8831177 14.3089812,14.8831177 L1.89875907,14.8831177 C1.62441086,14.8831177 1.36620077,14.7549531 1.18868134,14.530665 C1.01116191,14.3063769 0.962747519,14.0180065 1.02730004,13.7456566 L1.70510151,11.3906315 C1.73736912,11.2785175 1.76963673,11.1664035 1.8180295,11.0542895 L1.82213216,11.0523377 L2.1434808,10.4162944 L2.50313069,9.93151141 L2.50313069,9.93151141 Z M11.2104602,3.60463023 C11.2104602,3.51279395 11.2104602,3.43558106 11.1966392,3.34484488 C11.1966392,3.34484488 11.1745491,3.19614163 11.1479374,3.04800674 C11.1213256,2.89987186 11.084113,2.78325762 11.065217,2.7234984 C10.6779019,1.52195499 9.54823279,0.640823152 8.20876799,0.640823152 C7.095237,0.640823152 6.12694919,1.24960515 5.62666715,2.14675756 C5.61052902,2.16277814 5.61052902,2.1948193 5.59439089,2.21083987 C5.57825276,2.24288103 5.56211463,2.25890161 5.5459765,2.27492219 C5.40073333,2.57931319 5.30390455,2.89972476 5.25549016,3.23615692 C5.24017377,3.3273189 5.2232139,3.43472963 5.2111662,3.58196764 C5.1991185,3.72920565 5.22387748,3.86593989 5.2232139,3.87698007 C5.33618081,6.1198611 6.67564562,8.02630998 8.20876799,8.02630998 C9.80644288,8.02630998 11.2104602,5.95965531 11.2104602,3.60463023 Z M14.4950585,14.241729 C14.6080254,14.241729 14.672578,14.1776467 14.7048542,14.1456055 C14.7532686,14.0815232 14.7694067,13.9853997 14.7532686,13.9213174 L14.0754671,11.5823129 C13.7527045,10.476893 12.8651074,9.61178173 11.7354383,9.32341131 L11.5417807,9.27534957 C11.4933663,9.25932899 11.4126757,9.29137015 11.3642613,9.33943189 C10.4766641,10.3487284 9.37927125,10.4288312 8.31415465,10.4288312 L8.07966294,10.4288312 C7.01454635,10.4288312 5.9171535,10.3487284 5.02955633,9.33943189 C4.98114194,9.29137015 4.90045129,9.25932899 4.8520369,9.27534957 L4.65837934,9.32341131 C3.52871022,9.61178173 2.64111306,10.476893 2.31835046,11.5823129 L1.64054899,13.9213174 C1.62441086,13.9853997 1.64054899,14.0815232 1.68896338,14.1456055 C1.72123964,14.1776467 1.78579216,14.241729 1.89875907,14.241729 L14.4950585,14.241729 Z"/>
  </g>
</svg>
