<svg xmlns="http://www.w3.org/2000/svg" width="16" height="16" viewBox="0 0 16 16">
  <g fill="none" fill-rule="evenodd">
    <rect width="16" height="16"/>
    <path fill="#25CAAB" fill-rule="nonzero" d="M0,8 C1.89478063e-15,3.581722 3.581722,-8.11624501e-16 8,0 C12.418278,8.11624501e-16 16,3.581722 16,8 C16,12.418278 12.418278,16 8,16 C3.581722,16 0,12.418278 0,8 Z M1,8 C1,11.8659932 4.13400675,15 8,15 C11.8659932,15 15,11.8659932 15,8 C15,4.13400675 11.8659932,1 8,1 C4.13400675,1 1,4.13400675 1,8 Z"/>
    <path fill="#25CAAB" fill-rule="nonzero" d="M6.90759446,3.92930381 C7.61207368,2.9997598 8,1.77341793 8,0.476209928 L8,0.132271458 C8,0.059215783 7.92894031,0 7.84131178,0 L0.158747043,0 C0.0710793024,0 1.96080834e-05,0.059215783 1.96080834e-05,0.132271458 L1.96080834e-05,0.476226268 C1.96080834e-05,1.77333623 0.388043971,2.99964542 1.09252319,3.92932015 C1.43527249,4.38160847 1.83508131,4.74142932 2.2738514,4.99997549 C1.83508131,5.25860336 1.43531171,5.61835885 1.09244476,6.07066351 C0.387965539,7.00027288 0,8.22659841 0,9.52377373 L0,9.86772854 C0,9.94078422 0.0710596944,10 0.158727435,10 L7.84131178,10 C7.92897952,10 8,9.94078422 8,9.86772854 L8,9.52377373 C8,8.22663109 7.61203446,7.00028922 6.90759446,6.07066351 C6.56476673,5.61834251 6.16499712,5.25857068 5.72618782,4.99997549 C6.16499712,4.74142932 6.56476673,4.38160847 6.90759446,3.92930381 Z M1.61207245,7 C2.29964292,6.0139047 3.13718849,5.47618542 4.00009904,5.47618542 C4.8630096,5.47618542 5.70050244,6.01379406 6.38788833,7 L1.61207245,7 L1.61207245,7 Z M6.83718183,0.952452537 C6.758024,1.88774818 6.44227503,2.75967771 5.94121006,3.4207082 C5.40220346,4.13206558 4.71280285,4.5237819 4.00006863,4.5237819 C3.28739323,4.5237819 2.5979338,4.1320329 2.05878994,3.4207082 C1.55776419,2.75956333 1.24199561,1.88760112 1.16281817,0.952452537 L6.83718183,0.952452537 L6.83718183,0.952452537 Z" transform="translate(4 3)"/>
  </g>
</svg>
