<svg xmlns="http://www.w3.org/2000/svg" width="20" height="16" viewBox="0 0 20 16">
  <g fill="none" fill-rule="evenodd">
    <path fill="#0685B9" d="M0,1.99406028 C0,0.892771196 0.88743329,0 1.99961498,0 L10,0 L10,16 L1.99961498,16 C0.895258123,16 0,15.1054862 0,14.0059397 L0,1.99406028 Z"/>
    <path fill="#9960FF" d="M20,1.99406028 C20,0.892771196 19.1125667,0 18.000385,0 L10,0 L10,16 L18.000385,16 C19.1047419,16 20,15.1054862 20,14.0059397 L20,1.99406028 Z"/>
    <polygon fill="#FFFFFF" points="11.9 5.3 11.9 10.8 13.047 10.8 13.047 6.941 13.063 6.941 14.428 10.8 15.372 10.8 16.737 6.902 16.753 6.902 16.753 10.8 17.9 10.8 17.9 5.3 16.176 5.3 14.943 9.082 14.927 9.082 13.624 5.3"/>
    <path fill="#FFFFFF" d="M6.35599995,7.056 L7.57199995,7.056 C7.53466643,6.72533168 7.44400067,6.43200128 7.29999995,6.176 C7.15599923,5.91999872 6.97333439,5.7053342 6.75199995,5.532 C6.53066551,5.3586658 6.28000135,5.22666712 5.99999995,5.136 C5.71999855,5.04533288 5.42266819,5 5.10799995,5 C4.67066443,5 4.27733503,5.07733256 3.92799995,5.232 C3.57866487,5.38666744 3.28400115,5.59999864 3.04399995,5.872 C2.80399875,6.14400136 2.62000059,6.46266484 2.49199995,6.828 C2.36399931,7.19333516 2.29999995,7.5893312 2.29999995,8.016 C2.29999995,8.43200208 2.36399931,8.8199982 2.49199995,9.18 C2.62000059,9.5400018 2.80399875,9.853332 3.04399995,10.12 C3.28400115,10.386668 3.57866487,10.5959992 3.92799995,10.748 C4.27733503,10.9000008 4.67066443,10.976 5.10799995,10.976 C5.46000171,10.976 5.78266515,10.9226672 6.07599995,10.816 C6.36933475,10.7093328 6.62533219,10.5546677 6.84399995,10.352 C7.06266771,10.1493323 7.23866595,9.90400144 7.37199995,9.616 C7.50533395,9.32799856 7.58799979,9.00533512 7.61999995,8.648 L6.40399995,8.648 C6.35599971,9.03200192 6.22400103,9.34133216 6.00799995,9.576 C5.79199887,9.81066784 5.49200187,9.928 5.10799995,9.928 C4.82533187,9.928 4.58533427,9.87333388 4.38799995,9.764 C4.19066563,9.65466612 4.03066723,9.50933424 3.90799995,9.328 C3.78533267,9.14666576 3.69600023,8.9426678 3.63999995,8.716 C3.58399967,8.4893322 3.55599995,8.2560012 3.55599995,8.016 C3.55599995,7.76533208 3.58399967,7.52266784 3.63999995,7.288 C3.69600023,7.05333216 3.78533267,6.84400092 3.90799995,6.66 C4.03066723,6.47599908 4.19066563,6.32933388 4.38799995,6.22 C4.58533427,6.11066612 4.82533187,6.056 5.10799995,6.056 C5.26266739,6.056 5.41066591,6.08133308 5.55199995,6.132 C5.69333399,6.18266692 5.81999939,6.25333288 5.93199995,6.344 C6.04400051,6.43466712 6.13733291,6.5399994 6.21199995,6.66 C6.28666699,6.7800006 6.33466651,6.91199928 6.35599995,7.056 Z"/>
  </g>
</svg>
