<svg xmlns="http://www.w3.org/2000/svg" width="16" height="16" viewBox="0 0 16 16">
  <g fill="none" fill-rule="evenodd">
    <rect width="16" height="16"/>
    <rect width="16" height="16" fill="#9960FF" rx="1"/>
    <path fill="#FFFFFF" fill-rule="nonzero" d="M6.69760267,7.81764723 L7.40650675,7.81764723 C8.10123623,7.81764723 8.61400506,7.72156975 8.94482862,7.52941192 C9.27565218,7.33725409 9.44106148,7.03529631 9.44106148,6.62352953 C9.44106148,6.21568433 9.2721077,5.92549114 8.93419506,5.75294125 C8.59628242,5.58039136 8.07288014,5.49411771 7.36397251,5.49411771 L6.69760267,5.49411771 L6.69760267,7.81764723 Z M6.69760267,9.30000024 L6.69760267,12.6000004 L4.5,12.6000004 L4.5,4 L7.51993141,4 C8.92829457,4 9.97037316,4.21274298 10.6461984,4.63823532 C11.3220237,5.06372766 11.6599313,5.70979966 11.6599313,6.5764707 C11.6599313,7.08235561 11.492159,7.53235113 11.1566094,7.92647076 C10.8210598,8.3205904 10.3460988,8.62941085 9.73171216,8.85294139 C11.291309,10.7862845 12.3073947,12.0352917 12.7799997,12.6000004 L10.3413697,12.6000004 L7.86729441,9.30000024 L6.69760267,9.30000024 Z"/>
  </g>
</svg>
