<svg xmlns="http://www.w3.org/2000/svg" width="19" height="12" viewBox="0 0 19 12">
  <g fill="none" fill-rule="evenodd">
    <rect width="19" height="12" fill="none"/>
    <rect width="6" height="6" x="3" y="1" fill="#FFC692"/>
    <rect width="6" height="6" x="10" y="4" fill="#CBE8F0"/>
    <path fill="#000000" fill-rule="nonzero" d="M2,0 L17,0 L17,11 L2,11 L2,0 Z M3,1 L3,10 L9,10 L9,1 L3,1 Z M10,1 L10,10 L16,10 L16,1 L10,1 Z"/>
    <path fill="#000000" fill-rule="nonzero" d="M12,2 L15,2 L15,3 L12,3 L12,2 Z M12,5 L15,5 L15,6 L12,6 L12,5 Z M12,8 L15,8 L15,9 L12,9 L12,8 Z M5,2 L8,2 L8,3 L5,3 L5,2 Z M5,5 L8,5 L8,6 L5,6 L5,5 Z M5,8 L8,8 L8,9 L5,9 L5,8 Z"/>
  </g>
</svg>
