<svg xmlns="http://www.w3.org/2000/svg" width="32" height="32" viewBox="0 0 32 32">
  <path fill="#FF00FF" d="M6.00000371,4 C6.00297374,1.79034991 7.78893087,0 10.0055203,0 L27.9944797,0 C30.2066675,0 32,1.78708529 32,4.00552025 L32,21.9944797 C32,24.2048323 30.2158786,25.9970243 28,25.9999963 L28,23.9999932 C29.108665,23.9970335 30,23.1029012 30,21.9944797 L30,4.00552025 C30,2.89429528 29.1047402,2 27.9944797,2 L10.0055203,2 C8.89613756,2 8.00296586,2.89229376 8.00000737,4 L6.00000344,4 L6.00000371,4 Z M0,10.0055203 C0,7.7933325 1.78708529,6 4.00552025,6 L21.9944797,6 C24.2066675,6 26,7.78708529 26,10.0055203 L26,27.9944797 C26,30.2066675 24.2129147,32 21.9944797,32 L4.00552025,32 C1.7933325,32 0,30.2129147 0,27.9944797 L0,10.0055203 Z M2,10.0055203 L2,27.9944797 C2,29.1057047 2.89525976,30 4.00552025,30 L21.9944797,30 C23.1057047,30 24,29.1047402 24,27.9944797 L24,10.0055203 C24,8.89429528 23.1047402,8 21.9944797,8 L4.00552025,8 C2.89429528,8 2,8.89525976 2,10.0055203 Z"/>
</svg>
