<svg xmlns="http://www.w3.org/2000/svg" width="16" height="16" viewBox="0 0 16 16">
  <g fill="none" fill-rule="evenodd">
    <rect width="16" height="16"/>
    <path fill="#8EA6BB" fill-rule="nonzero" d="M7.5,15 C3.35786438,15 0,11.6421356 0,7.5 C0,3.35786438 3.35786438,0 7.5,0 C11.6421356,0 15,3.35786438 15,7.5 C15,11.6421356 11.6421356,15 7.5,15 Z M7.5,14 C11.0898509,14 14,11.0898509 14,7.5 C14,3.91014913 11.0898509,1 7.5,1 C3.91014913,1 1,3.91014913 1,7.5 C1,11.0898509 3.91014913,14 7.5,14 Z M3.50966585,7 L11.4903342,7 C11.7775269,7 12,7.22385763 12,7.5 C12,7.76806641 11.7718148,8 11.4903342,8 L3.50966585,8 C3.22247314,8 3,7.77614237 3,7.5 C3,7.23193359 3.22818517,7 3.50966585,7 Z"/>
  </g>
</svg>
