<svg xmlns="http://www.w3.org/2000/svg" width="16" height="16" viewBox="0 0 16 16">
  <g fill="none" fill-rule="evenodd">
    <rect width="16" height="16"/>
    <path fill="#8EA6BB" fill-rule="nonzero" d="M7,12.0853529 L7,10 L1.99188419,10 C0.891796927,10 0,9.11256671 0,8.00038502 L0,1.99961498 C0,0.895258123 0.893397331,0 1.99188419,0 L13.0081158,0 C14.1082031,0 15,0.88743329 15,1.99961498 L15,8.00038502 C15,9.10474188 14.1066027,10 13.0081158,10 L8,10 L8,12.0853529 C8.42620672,12.2359953 8.76400469,12.5737933 8.91464715,13 L14.5009232,13 C14.7765557,13 15,13.2319336 15,13.5 C15,13.7761424 14.7763174,14 14.5009232,14 L8.91464715,14 C8.70872894,14.5825962 8.15310941,15 7.5,15 C6.84689059,15 6.29127106,14.5825962 6.08535285,14 L0.499076843,14 C0.223444314,14 0,13.7680664 0,13.5 C0,13.2238576 0.223682597,13 0.499076843,13 L6.08535285,13 C6.23599531,12.5737933 6.57379328,12.2359953 7,12.0853529 L7,12.0853529 Z M1,1.99961498 L1,8.00038502 C1,8.55784055 1.44164376,9 1.99188419,9 L13.0081158,9 C13.5541264,9 14,8.55264413 14,8.00038502 L14,1.99961498 C14,1.44215945 13.5583562,1 13.0081158,1 L1.99188419,1 C1.44587365,1 1,1.44735587 1,1.99961498 Z"/>
  </g>
</svg>
