<svg xmlns="http://www.w3.org/2000/svg" width="16" height="16" viewBox="0 0 16 16">
  <g fill="none" fill-rule="evenodd">
    <rect width="16" height="16"/>
    <path fill="#FF00FF" fill-rule="nonzero" d="M7,1 L7,4.99474203 C7,5.55878216 6.54857352,6 5.99171074,6 L2,6 L2,15 L13,15 L13,1 L7,1 Z M2.41421356,5 L6,5 L6,1.41421356 L2.41421356,5 Z M13.0029699,9.71857298e-17 C13.5536144,1.04827458e-16 14,0.444630861 14,1.00087166 L14,14.9991283 C14,15.5518945 13.5525106,16 13.0014977,16 L1.99850233,16 C1.44704472,16 1,15.555163 1,15.0044225 L1,5 L6,0 L13.0029699,9.71857298e-17 Z M4,8.5 C4,8.22385763 4.23290253,8 4.50342274,8 L10.4965773,8 C10.77461,8 11,8.23193359 11,8.5 C11,8.77614237 10.7670975,9 10.4965773,9 L4.50342274,9 C4.22539004,9 4,8.76806641 4,8.5 Z M4,10.5 C4,10.2238576 4.23290253,10 4.50342274,10 L10.4965773,10 C10.77461,10 11,10.2319336 11,10.5 C11,10.7761424 10.7670975,11 10.4965773,11 L4.50342274,11 C4.22539004,11 4,10.7680664 4,10.5 Z M4,12.5 C4,12.2238576 4.21505737,12 4.49047852,12 L7.50952148,12 C7.78040529,12 8,12.2319336 8,12.5 C8,12.7761424 7.78494263,13 7.50952148,13 L4.49047852,13 C4.21959471,13 4,12.7680664 4,12.5 Z"/>
  </g>
</svg>
