<svg xmlns="http://www.w3.org/2000/svg" width="16" height="16" viewBox="0 0 16 16">
  <g fill="none" fill-rule="evenodd">
    <rect width="16" height="16"/>
    <path fill="#F25335" fill-rule="nonzero" d="M0,7.5 C1.77635684e-15,3.35786438 3.35786438,-7.6089797e-16 7.5,0 C11.6421356,7.6089797e-16 15,3.35786438 15,7.5 C15,11.6421356 11.6421356,15 7.5,15 C3.35786438,15 0,11.6421356 0,7.5 Z M1,7.5 C1,11.0898509 3.91014913,14 7.5,14 C11.0898509,14 14,11.0898509 14,7.5 C14,3.91014913 11.0898509,1 7.5,1 C3.91014913,1 1,3.91014913 1,7.5 Z"/>
    <path fill="#F25335" fill-rule="nonzero" d="M5,11.009222 C5,10.9977072 9.99707067,11 9.99707067,11 C9.9982866,11 10,6.99077797 10,6.99077797 C10,7.00229279 5.00292933,7 5.00292933,7 C5.0017134,7 5,11.009222 5,11.009222 Z M4,6.99077797 C4,6.44358641 4.43788135,6 5.00292933,6 L9.99707067,6 C10.5509732,6 11,6.45097518 11,6.99077797 L11,11.009222 C11,11.5564136 10.5621186,12 9.99707067,12 L5.00292933,12 C4.44902676,12 4,11.5490248 4,11.009222 L4,6.99077797 Z M10,5.00738893 L10,5.5 L9,5.5 L9,5.00738893 C9,4.17545223 8.32692295,3.5 7.5,3.5 C6.6665321,3.5 6,4.17028481 6,5.00738893 L6,5.5 L5,5.5 L5,5.00738893 C5,3.62259626 6.10966206,2.5 7.5,2.5 C8.88071187,2.5 10,3.6246711 10,5.00738893 Z M7,9.3662178 L7,9.3662178 L7,9.99531555 C7,10.285965 7.22385763,10.5 7.5,10.5 C7.76806641,10.5 8,10.2740451 8,9.99531555 L8,9.3662178 C8.29890069,9.19331309 8.5,8.87014118 8.5,8.5 C8.5,7.94771525 8.05228475,7.5 7.5,7.5 C6.94771525,7.5 6.5,7.94771525 6.5,8.5 C6.5,8.87014118 6.70109931,9.19331309 7,9.3662178 Z"/>
  </g>
</svg>
