<svg xmlns="http://www.w3.org/2000/svg" width="16" height="16" viewBox="0 0 16 16">
  <g fill="none" fill-rule="evenodd">
    <rect width="16" height="16"/>
    <path fill="#FF00FF" d="M0,2 L1,2 L1,3 L0,3 L0,2 Z M0,4 L1,4 L1,5 L0,5 L0,4 Z M0,6 L1,6 L1,7 L0,7 L0,6 Z M0,8 L1,8 L1,9 L0,9 L0,8 Z M0,10 L1,10 L1,11 L0,11 L0,10 Z M0,12 L1,12 L1,13 L0,13 L0,12 Z M1,13 L2,13 L2,14 L1,14 L1,13 Z M3,13 L4,13 L4,14 L3,14 L3,13 Z M5,13 L6,13 L6,14 L5,14 L5,13 Z M7,13 L8,13 L8,14 L7,14 L7,13 Z M9,13 L10,13 L10,14 L9,14 L9,13 Z M11,13 L12,13 L12,14 L11,14 L11,13 Z M13,13 L14,13 L14,14 L13,14 L13,13 Z M1,1 L2,1 L2,2 L1,2 L1,1 Z M3,1 L4,1 L4,2 L3,2 L3,1 Z M5,1 L6,1 L6,2 L5,2 L5,1 Z M6,2 L7,2 L7,3 L6,3 L6,2 Z M7,4 L8,4 L8,5 L7,5 L7,4 Z M9,4 L10,4 L10,5 L9,5 L9,4 Z M11,4 L12,4 L12,5 L11,5 L11,4 Z M13,4 L14,4 L14,5 L13,5 L13,4 Z M14,6 L15,6 L15,7 L14,7 L14,6 Z M14,8 L15,8 L15,9 L14,9 L14,8 Z M14,10 L15,10 L15,11 L14,11 L14,10 Z M14,12 L15,12 L15,13 L14,13 L14,12 Z"/>
  </g>
</svg>
