<svg xmlns="http://www.w3.org/2000/svg" width="16" height="16" viewBox="0 0 16 16">
  <g fill="none" fill-rule="evenodd">
    <rect width="20" height="20" fill="none"/>
    <path fill="#000000" fill-rule="nonzero" d="M12.1837418,12.1857251 C10.9209202,13.6939235 9.01582651,14.6543256 6.88453393,14.6543256 C3.08231083,14.6543256 0,11.5977007 0,7.82716281 C0,4.05662491 3.08231083,1 6.88453393,1 C10.686757,1 13.7690679,4.05662491 13.7690679,7.82716281 C13.7690679,8.42566876 13.6914062,9.00618701 13.545531,9.5593481 L16,12.1857251 L12.1837418,12.1857251 Z M12.4377212,9.83852469 L12.5785885,9.30435378 C12.7045992,8.82651886 12.7690679,8.33150714 12.7690679,7.82716281 C12.7690679,4.61079159 10.1363368,2 6.88453393,2 C3.632731,2 1,4.61079158 1,7.82716281 C1,11.043534 3.632731,13.6543256 6.88453393,13.6543256 C8.66077028,13.6543256 10.3051562,12.8716538 11.4170202,11.5437454 L11.7167923,11.1857251 L12.4377212,9.83852469 Z"/>
    <path fill="#000000" d="M7.6,7.4 L7.6,5 L6.4,5 L6.4,7.4 L4,7.4 L4,8.6 L6.4,8.6 L6.4,11 L7.6,11 L7.6,8.6 L10,8.6 L10,7.4 L7.6,7.4 Z"/>
  </g>
</svg>
