<svg xmlns="http://www.w3.org/2000/svg" width="20" height="16" viewBox="0 0 20 16">
  <g fill="none" fill-rule="evenodd">
    <path fill="#9960FF" d="M20,8 L20,0 L11.999615,0 C10.8874333,0 10,0.892771196 10,1.99406028 L10,14.0059397 C10,15.1054862 10.8952581,16 11.999615,16 L16,16 L16,8 L20,8 Z" transform="matrix(-1 0 0 1 30 0)"/>
    <path fill="#0685B9" d="M10,8 L10,1.99406028 C10,0.892771196 9.11256671,0 8.00038502,0 L0,0 L0,8 L10,8 Z" transform="matrix(-1 0 0 1 10 0)"/>
    <path fill="#009E81" d="M14,8 L14,14.0059397 C14,15.1054862 13.1047419,16 12.000385,16 L0,16 L0,8 L14,8 Z" transform="matrix(-1 0 0 1 14 0)"/>
    <path fill="#FFFFFF" d="M9.11846125,12.3216912 C9.13761965,12.7444874 9.2493753,13.0508569 9.45373157,13.2408088 C9.65808783,13.4307608 9.95184555,13.5257353 10.3350135,13.5257353 C10.6096173,13.5257353 10.8459007,13.4598659 11.0438708,13.328125 C11.2418409,13.1963841 11.3631756,13.056986 11.4078786,12.9099265 L12.6052725,12.9099265 C12.4136885,13.4797823 12.1199308,13.8872537 11.7239906,14.1323529 C11.3280503,14.3774522 10.8490975,14.5 10.2871178,14.5 C9.89756366,14.5 9.5463316,14.440258 9.23341107,14.3207721 C8.92049055,14.2012862 8.65546999,14.0312511 8.43834147,13.8106618 C8.22121294,13.5900724 8.05357946,13.3265947 7.93543599,13.0202206 C7.81729253,12.7138465 7.75822168,12.3768401 7.75822168,12.0091912 C7.75822168,11.6537972 7.81888904,11.3229182 7.94022557,11.0165441 C8.0615621,10.71017 8.23398511,10.4451604 8.45749977,10.2215074 C8.68101443,9.99785427 8.94763149,9.82169182 9.25735895,9.69301471 C9.56708641,9.56433759 9.91033592,9.5 10.2871178,9.5 C10.7086026,9.5 11.0757997,9.57812422 11.3887202,9.734375 C11.7016408,9.89062578 11.9586788,10.1004889 12.159842,10.3639706 C12.3610052,10.6274523 12.5062875,10.9276944 12.5956934,11.2647059 C12.6850993,11.6017174 12.7170294,11.9540423 12.6914849,12.3216912 L9.11846125,12.3216912 Z M11.3312453,11.4944853 C11.267384,11.1636013 11.1540318,10.9123783 10.9911854,10.7408088 C10.828339,10.5692393 10.5808801,10.4834559 10.2488012,10.4834559 C10.0316726,10.4834559 9.85126709,10.5186884 9.70757909,10.5891544 C9.56389109,10.6596205 9.44894242,10.7469358 9.36272962,10.8511029 C9.27651683,10.9552701 9.21584947,11.0655631 9.18072574,11.1819853 C9.145602,11.2984074 9.12484738,11.4025731 9.11846125,11.4944853 L11.3312453,11.4944853 Z M1.69999981,9.5 L3.23013356,9.5 L4.38638848,12.76184 L4.40023584,12.76184 L5.49417762,9.5 L7.02431137,9.5 L7.02431137,14.2432867 L6.0065301,14.2432867 L6.0065301,10.8817978 L5.99268274,10.8817978 L4.78103836,14.2432867 L3.94327282,14.2432867 L2.73162845,10.9150141 L2.71778108,10.9150141 L2.71778108,14.2432867 L1.69999981,14.2432867 L1.69999981,9.5 Z"/>
    <polygon fill="#FFFFFF" points="11.9 1.3 11.9 6.8 13.047 6.8 13.047 2.941 13.063 2.941 14.428 6.8 15.372 6.8 16.737 2.902 16.753 2.902 16.753 6.8 17.9 6.8 17.9 1.3 16.176 1.3 14.943 5.082 14.927 5.082 13.624 1.3"/>
    <path fill="#FFFFFF" d="M6.25600005,3.25600005 L7.47200005,3.25600005 C7.43466653,2.92533173 7.34400077,2.63200133 7.20000005,2.37600005 C7.05599933,2.11999877 6.87333449,1.90533425 6.65200005,1.73200005 C6.43066561,1.55866585 6.18000145,1.42666717 5.90000005,1.33600005 C5.61999865,1.24533293 5.32266829,1.20000005 5.00800005,1.20000005 C4.57066453,1.20000005 4.17733513,1.27733261 3.82800005,1.43200005 C3.47866497,1.58666749 3.18400125,1.79999869 2.94400005,2.07200005 C2.70399885,2.34400141 2.52000069,2.66266489 2.39200005,3.02800005 C2.26399941,3.39333521 2.20000005,3.78933125 2.20000005,4.21600005 C2.20000005,4.63200213 2.26399941,5.01999825 2.39200005,5.38000005 C2.52000069,5.74000185 2.70399885,6.05333205 2.94400005,6.32000005 C3.18400125,6.58666805 3.47866497,6.79599929 3.82800005,6.94800005 C4.17733513,7.10000081 4.57066453,7.17600005 5.00800005,7.17600005 C5.36000181,7.17600005 5.68266525,7.12266725 5.97600005,7.01600005 C6.26933485,6.90933285 6.52533229,6.75466773 6.74400005,6.55200005 C6.96266781,6.34933237 7.13866605,6.10400149 7.27200005,5.81600005 C7.40533405,5.52799861 7.48799989,5.20533517 7.52000005,4.84800005 L6.30400005,4.84800005 C6.25599981,5.23200197 6.12400113,5.54133221 5.90800005,5.77600005 C5.69199897,6.01066789 5.39200197,6.12800005 5.00800005,6.12800005 C4.72533197,6.12800005 4.48533437,6.07333393 4.28800005,5.96400005 C4.09066573,5.85466617 3.93066733,5.70933429 3.80800005,5.52800005 C3.68533277,5.34666581 3.59600033,5.14266785 3.54000005,4.91600005 C3.48399977,4.68933225 3.45600005,4.45600125 3.45600005,4.21600005 C3.45600005,3.96533213 3.48399977,3.72266789 3.54000005,3.48800005 C3.59600033,3.25333221 3.68533277,3.04400097 3.80800005,2.86000005 C3.93066733,2.67599913 4.09066573,2.52933393 4.28800005,2.42000005 C4.48533437,2.31066617 4.72533197,2.25600005 5.00800005,2.25600005 C5.16266749,2.25600005 5.31066601,2.28133313 5.45200005,2.33200005 C5.59333409,2.38266697 5.71999949,2.45333293 5.83200005,2.54400005 C5.94400061,2.63466717 6.03733301,2.73999945 6.11200005,2.86000005 C6.18666709,2.98000065 6.23466661,3.11199933 6.25600005,3.25600005 Z"/>
  </g>
</svg>
