<svg xmlns="http://www.w3.org/2000/svg" width="32" height="32" viewBox="0 0 32 32">
  <g fill="none" fill-rule="evenodd">
    <rect width="32" height="32"/>
    <path fill="#FF00FF" fill-rule="nonzero" d="M13.9030014,24 L14.4730881,26 L4.00552025,26 C1.7933325,26 3.55271368e-15,24.2129147 3.55271368e-15,21.9944797 L7.10542736e-15,4.00552025 C7.10542736e-15,1.7933325 1.78708529,-4.44784027e-15 4.00552025,-4.04032038e-15 L21.9944797,-7.35802134e-16 C24.2066675,-3.29429836e-16 26,1.78708529 26,4.00552025 L26,14.2951831 L24,13.7279221 L24,4.00552025 C24,2.89429528 23.1047402,2 21.9944797,2 L4.00552025,2 C2.89429528,2 2,2.89525976 2,4.00552025 L2,21.9944797 C2,23.1057047 2.89525976,24 4.00552025,24 L14.4730881,24 L13.9030014,24 Z"/>
    <path fill="#FF00FF" d="M24,32 C19.581722,32 16,28.418278 16,24 C16,19.581722 19.581722,16 24,16 C28.418278,16 32,19.581722 32,24 C32,28.418278 28.418278,32 24,32 Z M22.9515543,29.0780648 L30.3490686,21.6803787 C30.5423731,21.4870697 30.5436688,21.1645851 30.3547533,20.9572984 L29.0751117,19.553217 C28.8871433,19.3469695 28.5736514,19.3365706 28.3770232,19.5323115 L22.9598347,24.9250569 C22.7677503,25.1162746 22.4474726,25.1231519 22.2546232,24.9303148 L20.0097648,22.6855999 C19.8188208,22.494668 19.5033954,22.4958508 19.3094982,22.6924972 L18.0478969,23.9719866 C17.8509084,24.1717682 17.8548132,24.4921875 18.0497139,24.6946657 L22.2509091,29.0592001 C22.4515705,29.2676631 22.7594993,29.2701243 22.9515543,29.0780648 Z"/>
  </g>
</svg>
