<svg xmlns="http://www.w3.org/2000/svg" width="16" height="16" viewBox="0 0 16 16">
  <g fill="none" fill-rule="evenodd">
    <rect width="16" height="16"/>
    <path fill="#0685B9" fill-rule="nonzero" d="M0,7.5 C1.77635684e-15,3.35786438 3.35786438,-7.6089797e-16 7.5,0 C11.6421356,7.6089797e-16 15,3.35786438 15,7.5 C15,11.6421356 11.6421356,15 7.5,15 C3.35786438,15 0,11.6421356 0,7.5 Z M1,7.5 C1,11.0898509 3.91014913,14 7.5,14 C11.0898509,14 14,11.0898509 14,7.5 C14,3.91014913 11.0898509,1 7.5,1 C3.91014913,1 1,3.91014913 1,7.5 Z"/>
    <path fill="#0685B9" d="M6.69919328,10.2268879 C6.49714507,10.4208936 6.1725781,10.4200914 5.97662551,10.227429 L3.35672712,7.65152117 C3.15971217,7.45781429 3.16265577,7.14580421 3.35836135,6.9593345 L3.57543995,6.75250042 C3.77335746,6.56392316 4.09124256,6.56292998 4.28786336,6.7526042 L5.97929057,8.38427358 C6.17483364,8.57290816 6.49686855,8.56858998 6.68679505,8.38595689 L10.8944616,4.3398698 C11.0896625,4.15216489 11.4105598,4.16767332 11.5956172,4.35843928 L11.8339922,4.60416762 C12.0260289,4.80212816 12.025276,5.11280954 11.8158647,5.31388529 L6.69919328,10.2268879 Z"/>
  </g>
</svg>
