<svg xmlns="http://www.w3.org/2000/svg" width="16" height="16" viewBox="0 0 16 16">
  <g fill="none" fill-rule="evenodd">
    <rect width="20" height="20" fill="none"/>
    <path fill="#FF00FF" fill-rule="nonzero" d="M14.9611685,2.47563636 C14.6531763,1.22763636 12.0227935,0 8.01277741,0 C4.00276131,0 1.34655774,1.22763636 1.03883149,2.47563636 C1.01649008,2.5184 1,2.56523636 1,2.61818182 L1,2.76363636 L1,13.3818182 C1,13.4289455 1.01143667,13.4734545 1.03111838,13.5130182 C1.34522789,14.9370182 4.51900733,16 8.01277741,16 C11.4985684,16 14.6422716,14.9413818 14.9667539,13.5226182 C14.9880314,13.4810182 15,13.4330182 15,13.3818182 L15,2.76363636 L15,2.61818182 C15,2.56523636 14.9835099,2.5184 14.9611685,2.47563636 Z M14.1090551,9.88654545 C14.101608,9.92174545 14.0912352,9.95665455 14.0782027,9.99214545 C14.0675639,10.0209455 14.0545314,10.0497455 14.0401691,10.0785455 C14.0223492,10.1143273 14.0024015,10.1501091 13.9787303,10.1858909 C13.9611763,10.2129455 13.9412286,10.2397091 13.920483,10.2664727 C13.8909605,10.3045818 13.8595761,10.3426909 13.8239362,10.3805091 C13.8023927,10.4034909 13.7787215,10.4261818 13.7547843,10.4491636 C13.7111653,10.4907636 13.6656846,10.5320727 13.6148845,10.5730909 C13.5930751,10.5908364 13.5696698,10.608 13.5465305,10.6254545 C13.4864215,10.6708364 13.4236527,10.7159273 13.3547668,10.7601455 C13.3366809,10.7720727 13.3172651,10.7834182 13.2983813,10.7950545 C13.2191225,10.8439273 13.1364061,10.8925091 13.0470405,10.9396364 C13.0356038,10.9457455 13.0236352,10.9515636 13.0119326,10.9573818 C12.9121942,11.0088727 12.8079343,11.0594909 12.6964932,11.1083636 C12.0829025,11.3762909 11.3102623,11.5982545 10.4099569,11.7437091 C10.2213848,11.7739636 10.0418557,11.7989818 9.85753908,11.8210909 C9.82748457,11.8245818 9.79583424,11.8269091 9.76551377,11.8304 C9.60460246,11.8487273 9.44182937,11.8656 9.27426884,11.8789818 C9.19766974,11.8850909 9.11734707,11.888 9.03941813,11.8932364 C8.91334878,11.9013818 8.78860927,11.9104 8.65934829,11.9153455 C8.44816882,11.9226182 8.23273385,11.9272727 8.01277741,11.9272727 C7.79282096,11.9272727 7.57738599,11.9226182 7.36594056,11.9144727 C7.23667958,11.9095273 7.11194007,11.9002182 6.98587072,11.8923636 C6.90794177,11.8874182 6.82761911,11.8842182 6.75102,11.8781091 C6.58345947,11.8647273 6.42068638,11.8478545 6.25977508,11.8295273 C6.2294546,11.8260364 6.19780428,11.8237091 6.16774977,11.8202182 C5.98343319,11.7981091 5.80390404,11.7728 5.62889638,11.7448727 C4.71502656,11.5973818 3.94238632,11.3754182 3.3383705,11.1115636 C3.21735456,11.0586182 3.11282871,11.008 3.01335626,10.9565091 C3.00191959,10.9504 2.98968501,10.9445818 2.97824834,10.9387636 C2.88888273,10.8916364 2.80616634,10.8433455 2.72690754,10.7941818 C2.70828971,10.7825455 2.68860799,10.7712 2.6705221,10.7592727 C2.6016361,10.7150545 2.53886739,10.6699636 2.47875838,10.6245818 C2.45588503,10.6071273 2.43221378,10.5899636 2.41040432,10.5722182 C2.35960422,10.5312 2.3141235,10.4898909 2.27050457,10.4482909 C2.24683332,10.4256 2.2228961,10.4029091 2.20135261,10.3796364 C2.16571275,10.3418182 2.13432839,10.304 2.10480582,10.2656 C2.08406023,10.2388364 2.06411255,10.2120727 2.04655859,10.1850182 C2.02315331,10.1492364 2.00320563,10.1134545 1.98511973,10.0776727 C1.9707574,10.0488727 1.95799088,10.0200727 1.94708615,9.99127273 C1.93405366,9.95607273 1.92368087,9.92087273 1.91623373,9.88567273 C1.90639288,9.83941818 1.89548814,9.79229091 1.89548814,9.74545455 C1.89548814,9.71258182 1.89894574,9.67970909 1.90373318,9.64712727 C1.91038241,9.6032 1.90665884,9.55927273 1.89548814,9.51767273 L1.89548814,7.35796364 C1.90293528,7.36552727 1.9122442,7.3728 1.9199573,7.38036364 C1.97793856,7.43621818 2.0369837,7.49178182 2.10347598,7.54530909 C3.10538157,8.37410909 5.10892679,9.01818182 8.01277741,9.01818182 C10.9043934,9.01818182 12.9028853,8.37934545 13.9090464,7.55549091 C13.989369,7.49149091 14.0617126,7.42545455 14.1298007,7.35825455 L14.1300667,9.51767273 C14.118896,9.55927273 14.1151724,9.6032 14.1218216,9.64712727 C14.126875,9.67970909 14.1300667,9.71258182 14.1300667,9.74545455 C14.1300667,9.79229091 14.1191619,9.83941818 14.1090551,9.88654545 Z M14.1300667,3.86705455 L14.1300667,6.02676364 C14.118896,6.06836364 14.1151724,6.11229091 14.1218216,6.15621818 C14.126875,6.1888 14.1300667,6.22167273 14.1300667,6.25454545 C14.1300667,6.30138182 14.1191619,6.34850909 14.1090551,6.39563636 C14.101608,6.43083636 14.0912352,6.46574545 14.0782027,6.50123636 C14.0675639,6.53003636 14.0545314,6.55883636 14.0401691,6.58763636 C14.0223492,6.62341818 14.0024015,6.6592 13.9787303,6.69498182 C13.9611763,6.72203636 13.9412286,6.7488 13.920483,6.77556364 C13.8909605,6.81367273 13.8595761,6.85178182 13.8239362,6.8896 C13.8023927,6.91258182 13.7787215,6.93527273 13.7547843,6.95825455 C13.7111653,6.99985455 13.6656846,7.04116364 13.6148845,7.08218182 C13.5930751,7.09992727 13.5696698,7.11709091 13.5465305,7.13454545 C13.4864215,7.17992727 13.4236527,7.22501818 13.3547668,7.26923636 C13.3366809,7.28116364 13.3172651,7.29250909 13.2983813,7.30414545 C13.2191225,7.35301818 13.1364061,7.4016 13.0470405,7.44872727 C13.0356038,7.45483636 13.0236352,7.46065455 13.0119326,7.46647273 C12.9121942,7.51796364 12.8079343,7.56858182 12.6964932,7.61745455 C12.0829025,7.88538182 11.3102623,8.10734545 10.4099569,8.2528 C10.2213848,8.28305455 10.0418557,8.30807273 9.85753908,8.33018182 C9.82748457,8.33367273 9.79583424,8.336 9.76551377,8.33949091 C9.60460246,8.35781818 9.44182937,8.37469091 9.27426884,8.38807273 C9.19766974,8.39418182 9.11734707,8.39709091 9.03941813,8.40232727 C8.91334878,8.41047273 8.78860927,8.41949091 8.65934829,8.42443636 C8.44816882,8.43170909 8.23273385,8.43636364 8.01277741,8.43636364 C7.79282096,8.43636364 7.57738599,8.43170909 7.36594056,8.42356364 C7.23667958,8.41861818 7.11194007,8.40930909 6.98587072,8.40145455 C6.90794177,8.39650909 6.82761911,8.39330909 6.75102,8.3872 C6.58345947,8.37381818 6.42068638,8.35694545 6.25977508,8.33861818 C6.2294546,8.33512727 6.19780428,8.3328 6.16774977,8.32930909 C5.98343319,8.3072 5.80390404,8.28189091 5.62889638,8.25396364 C4.71502656,8.10647273 3.94238632,7.88450909 3.3383705,7.62065455 C3.21735456,7.56770909 3.11282871,7.51709091 3.01335626,7.4656 C3.00191959,7.45949091 2.98968501,7.45367273 2.97824834,7.44785455 C2.88888273,7.40072727 2.80616634,7.35243636 2.72690754,7.30327273 C2.70828971,7.29163636 2.68860799,7.28029091 2.6705221,7.26836364 C2.6016361,7.22414545 2.53886739,7.17905455 2.47875838,7.13367273 C2.45588503,7.11621818 2.43221378,7.09905455 2.41040432,7.08130909 C2.35960422,7.04029091 2.3141235,6.99898182 2.27050457,6.95738182 C2.24683332,6.93469091 2.2228961,6.912 2.20135261,6.88872727 C2.16571275,6.85090909 2.13432839,6.81309091 2.10480582,6.77469091 C2.08406023,6.74792727 2.06411255,6.72116364 2.04655859,6.69410909 C2.02315331,6.65832727 2.00320563,6.62254545 1.98511973,6.58676364 C1.9707574,6.55796364 1.95799088,6.52916364 1.94708615,6.50036364 C1.93405366,6.46516364 1.92368087,6.42996364 1.91623373,6.39476364 C1.90639288,6.34850909 1.89548814,6.30138182 1.89548814,6.25454545 C1.89548814,6.22167273 1.89894574,6.1888 1.90373318,6.15621818 C1.91038241,6.11229091 1.90665884,6.06836364 1.89548814,6.02676364 L1.89548814,3.86705455 C1.92740443,3.89876364 1.9638422,3.92989091 1.99841818,3.96130909 C2.01756796,3.97876364 2.03538789,3.99621818 2.05560154,4.01367273 C2.13539227,4.08232727 2.22156626,4.15010909 2.31492141,4.21614545 C2.33433716,4.22981818 2.35614662,4.2432 2.37636027,4.25687273 C2.45455519,4.31010909 2.53727158,4.36218182 2.62424347,4.41338182 C2.65642573,4.43229091 2.68860799,4.45090909 2.72185413,4.46952727 C2.81893285,4.52363636 2.92079902,4.57629091 3.02798456,4.6272 C3.04553852,4.63563636 3.06149667,4.64436364 3.0793166,4.65250909 C3.20405611,4.7104 3.33650872,4.76567273 3.47428071,4.8192 C3.51231429,4.83403636 3.55220966,4.848 3.59130711,4.86254545 C3.70088638,4.90298182 3.81418922,4.94167273 3.93148159,4.9792 C3.97377068,4.99258182 4.01526186,5.00654545 4.05861482,5.01934545 C4.21420674,5.06647273 4.37485208,5.11127273 4.54347649,5.15258182 C4.5666158,5.1584 4.59161689,5.16305455 4.61502217,5.16858182 C4.7636989,5.20407273 4.91796098,5.23694545 5.07647856,5.26778182 C5.13020432,5.27825455 5.18472798,5.28814545 5.23951762,5.29803636 C5.3903221,5.32509091 5.54564805,5.34981818 5.70496354,5.37250909 C5.74592278,5.37832727 5.78502024,5.38501818 5.82651142,5.39054545 C6.02439243,5.41672727 6.22918863,5.43912727 6.43957019,5.45832727 C6.49143416,5.46298182 6.54542589,5.46647273 6.59808777,5.47054545 C6.76644621,5.48392727 6.93852822,5.49498182 7.11459976,5.50370909 C7.17869832,5.50690909 7.2425309,5.51010909 7.3079593,5.51272727 C7.53722466,5.52116364 7.77074553,5.52727273 8.01277741,5.52727273 C8.25480929,5.52727273 8.48833016,5.52116364 8.71759552,5.51272727 C8.78275795,5.51010909 8.84659053,5.50690909 8.91095505,5.50370909 C9.0870266,5.49498182 9.2591086,5.48392727 9.42746704,5.47054545 C9.48012892,5.46618182 9.53385468,5.46298182 9.58598463,5.45832727 C9.79636618,5.43941818 10.0011624,5.41672727 10.1990434,5.39054545 C10.2405346,5.38501818 10.279632,5.37832727 10.3205913,5.37250909 C10.4799068,5.34981818 10.6349667,5.32509091 10.7860372,5.29803636 C10.8408268,5.28814545 10.8953505,5.27825455 10.9490763,5.26778182 C11.1075938,5.23694545 11.2618559,5.20407273 11.4105326,5.16858182 C11.4339379,5.16305455 11.458939,5.15810909 11.4820783,5.15258182 C11.6507027,5.11127273 11.8113481,5.06618182 11.96694,5.01934545 C12.010293,5.00625455 12.0517841,4.99258182 12.0940732,4.9792 C12.2113656,4.94167273 12.3246684,4.90298182 12.4342477,4.86254545 C12.4733452,4.848 12.5132405,4.83403636 12.5512741,4.8192 C12.6890461,4.76567273 12.8217647,4.7104 12.9462382,4.65250909 C12.9640581,4.64436364 12.9800163,4.63563636 12.9975703,4.6272 C13.1047558,4.576 13.206622,4.52363636 13.3037007,4.46952727 C13.3369468,4.45090909 13.3693951,4.43229091 13.4013113,4.41338182 C13.4882832,4.36247273 13.5709996,4.3104 13.6491945,4.25687273 C13.6694082,4.2432 13.6912177,4.22981818 13.7106334,4.21614545 C13.8039886,4.15010909 13.8901625,4.08261818 13.9699533,4.01367273 C13.989901,3.99621818 14.0077209,3.97876364 14.0271366,3.96130909 C14.0617126,3.92989091 14.0981504,3.89876364 14.1300667,3.86705455 Z M8.01277741,0.581818182 C11.6179885,0.581818182 14.1300667,1.73149091 14.1300667,2.76363636 C14.1300667,3.79578182 11.6179885,4.94545455 8.01277741,4.94545455 C4.40756628,4.94545455 1.89548814,3.79578182 1.89548814,2.76363636 C1.89548814,1.73149091 4.40756628,0.581818182 8.01277741,0.581818182 Z M14.1215557,13.3346909 C13.9707512,14.3409455 11.4799506,15.4181818 8.01277741,15.4181818 C4.54560424,15.4181818 2.05480363,14.3409455 1.90399915,13.3346909 C1.9018714,13.3216 1.89894574,13.3088 1.89548814,13.2965818 L1.89548814,10.8488727 C1.90293528,10.8564364 1.9122442,10.8637091 1.9199573,10.8712727 C1.97793856,10.9271273 2.0369837,10.9826909 2.10347598,11.0362182 C3.10538157,11.8650182 5.10892679,12.5090909 8.01277741,12.5090909 C10.9043934,12.5090909 12.9028853,11.8702545 13.9090464,11.0464 C13.989369,10.9824 14.0617126,10.9163636 14.1298007,10.8491636 L14.1300667,13.2954182 C14.1263431,13.3082182 14.1236834,13.3213091 14.1215557,13.3346909 Z"/>
  </g>
</svg>
