<svg xmlns="http://www.w3.org/2000/svg" width="16" height="16" viewBox="0 0 16 16">
  <g fill="none" fill-rule="evenodd">
    <rect width="16" height="16"/>
    <path fill="#FF00FF" fill-rule="nonzero" d="M3.00000185,2 C3.00148687,0.895174953 3.89446543,0 5.00276013,0 L13.9972399,0 C15.1033337,0 16,0.893542647 16,2.00276013 L16,10.9972399 C16,12.1024161 15.1079393,12.9985121 14,12.9999981 L14,11.9999966 C14.5543325,11.9985168 15,11.5514506 15,10.9972399 L15,2.00276013 C15,1.44714764 14.5523701,1 13.9972399,1 L5.00276013,1 C4.44806878,1 4.00148293,1.44614688 4.00000369,2 L3.00000172,2 L3.00000185,2 Z M-4.4408921e-16,5.00276013 C-4.4408921e-16,3.89666625 0.893542647,3 2.00276013,3 L10.9972399,3 C12.1033337,3 13,3.89354265 13,5.00276013 L13,13.9972399 C13,15.1033337 12.1064574,16 10.9972399,16 L2.00276013,16 C0.896666251,16 -4.4408921e-16,15.1064574 -4.4408921e-16,13.9972399 L-4.4408921e-16,5.00276013 Z M1,5.00276013 L1,13.9972399 C1,14.5528524 1.44762988,15 2.00276013,15 L10.9972399,15 C11.5528524,15 12,14.5523701 12,13.9972399 L12,5.00276013 C12,4.44714764 11.5523701,4 10.9972399,4 L2.00276013,4 C1.44714764,4 1,4.44762988 1,5.00276013 Z"/>
  </g>
</svg>
