<svg xmlns="http://www.w3.org/2000/svg" width="16" height="16" viewBox="0 0 16 16">
  <g fill="none" fill-rule="evenodd">
    <rect width="16" height="16"/>
    <path fill="#F25335" d="M8,0 L16,0 L16,8 L8,8 L8,0 Z M12,2.58578644 L10.1631484,0.716324582 L8.74893479,2.13053814 L10.5857864,4 L8.74893479,5.97860345 L10.1631484,7.39281701 L12,5.41421356 L13.9201739,7.39281701 L15.3343875,5.97860345 L13.4142136,4 L15.2175529,2.13053814 L13.8033393,0.716324582 L12,2.58578644 Z"/>
    <path fill="#FF00FF" fill-rule="nonzero" d="M8,3.0224905 C7.66174183,3.02225606 7.32328305,3.2353999 7.10906976,3.66382649 L2.99650305,11.8889599 C2.58775768,12.7064506 3.07619669,13.5 3.99539757,13.5 L12.0046024,13.5 C12.9172775,13.5 13.4142499,12.7104659 13.003497,11.8889599 L11.059017,8 L9.94098301,8 L12.1090698,12.3361735 C12.1853718,12.4887776 12.1783078,12.5 12.0046024,12.5 L3.99539757,12.5 C3.82056789,12.5 3.81419439,12.4896452 3.89093024,12.3361735 L8,4.11803399 L8,4.11803399 L8,3.0224905 Z"/>
    <circle cx="3" cy="13" r="3" fill="#25CAAB"/>
    <path fill="#2DBBE9" d="M8,1.33226763e-15 C6.34314575,1.33226763e-15 5,1.34314575 5,3 C5,4.65685425 6.34314575,6 8,6 L8,2.22044605e-16 L8,1.33226763e-15 Z"/>
    <circle cx="13" cy="13" r="3" fill="#F25335"/>
  </g>
</svg>
