<svg xmlns="http://www.w3.org/2000/svg" width="16" height="16" viewBox="0 0 16 16">
  <g fill="none" fill-rule="evenodd">
    <rect width="16" height="16"/>
    <path fill="#FF00FF" fill-rule="nonzero" d="M6.08050144,11.8984518 C6.1172658,12.1010761 6.16624114,12.2994467 6.22663756,12.4927737 C3.74520653,12.3877912 2.01227671,11.7879996 1.10347598,11.0362182 C1.0369837,10.9826909 0.977938563,10.9271273 0.9199573,10.8712727 C0.912244196,10.8637091 0.902935277,10.8564364 0.895488143,10.8488727 L0.895488143,13.2965818 C0.898945741,13.3088 0.901871401,13.3216 0.903999154,13.3346909 C1.05480363,14.3409455 3.54560424,15.4181818 7.01277741,15.4181818 C7.54209688,15.4181818 8.04866012,15.3930748 8.52761513,15.3469462 C8.86225387,15.5376869 9.22105663,15.6909002 9.59829431,15.8008569 C8.78749925,15.9296286 7.91150843,16 7.01277741,16 C3.51900733,16 0.34522789,14.9370182 0.0311183845,13.5130182 C0.0114366712,13.4734545 0,13.4289455 0,13.3818182 L0,2.61818182 C0,2.56523636 0.0164900841,2.5184 0.0388314884,2.47563636 C0.346557735,1.22763636 3.00276131,0 7.01277741,0 C11.0227935,0 13.6531763,1.22763636 13.9611685,2.47563636 C13.9835099,2.5184 14,2.56523636 14,2.61818182 L14,6.99963381 C13.7191032,6.78864406 13.4152616,6.60655043 13.0928883,6.45776616 C13.0992577,6.43703812 13.1046648,6.4163878 13.1090551,6.39563636 C13.1191619,6.34850909 13.1300667,6.30138182 13.1300667,6.25454545 C13.1300667,6.22167273 13.126875,6.1888 13.1218216,6.15621818 C13.1151724,6.11229091 13.118896,6.06836364 13.1300667,6.02676364 L13.1300667,3.86705455 C13.0981504,3.89876364 13.0617126,3.92989091 13.0271366,3.96130909 C13.0077209,3.97876364 12.989901,3.99621818 12.9699533,4.01367273 C12.8901625,4.08261818 12.8039886,4.15010909 12.7106334,4.21614545 C12.6912177,4.22981818 12.6694082,4.2432 12.6491945,4.25687273 C12.5709996,4.3104 12.4882832,4.36247273 12.4013113,4.41338182 C12.3693951,4.43229091 12.3369468,4.45090909 12.3037007,4.46952727 C12.206622,4.52363636 12.1047558,4.576 11.9975703,4.6272 C11.9800163,4.63563636 11.9640581,4.64436364 11.9462382,4.65250909 C11.8217647,4.7104 11.6890461,4.76567273 11.5512741,4.8192 C11.5132405,4.83403636 11.4733452,4.848 11.4342477,4.86254545 C11.3246684,4.90298182 11.2113656,4.94167273 11.0940732,4.9792 C11.0517841,4.99258182 11.010293,5.00625455 10.96694,5.01934545 C10.8113481,5.06618182 10.6507027,5.11127273 10.4820783,5.15258182 C10.458939,5.15810909 10.4339379,5.16305455 10.4105326,5.16858182 C10.2618559,5.20407273 10.1075938,5.23694545 9.94907626,5.26778182 C9.8953505,5.27825455 9.84082683,5.28814545 9.7860372,5.29803636 C9.63496675,5.32509091 9.47990677,5.34981818 9.32059128,5.37250909 C9.27963203,5.37832727 9.24053458,5.38501818 9.1990434,5.39054545 C9.00116239,5.41672727 8.79636618,5.43941818 8.58598463,5.45832727 C8.53385468,5.46298182 8.48012892,5.46618182 8.42746704,5.47054545 C8.2591086,5.48392727 8.0870266,5.49498182 7.91095505,5.50370909 C7.84659053,5.50690909 7.78275795,5.51010909 7.71759552,5.51272727 C7.48833016,5.52116364 7.25480929,5.52727273 7.01277741,5.52727273 C6.77074553,5.52727273 6.53722466,5.52116364 6.3079593,5.51272727 C6.2425309,5.51010909 6.17869832,5.50690909 6.11459976,5.50370909 C5.93852822,5.49498182 5.76644621,5.48392727 5.59808777,5.47054545 C5.54542589,5.46647273 5.49143416,5.46298182 5.43957019,5.45832727 C5.22918863,5.43912727 5.02439243,5.41672727 4.82651142,5.39054545 C4.78502024,5.38501818 4.74592278,5.37832727 4.70496354,5.37250909 C4.54564805,5.34981818 4.3903221,5.32509091 4.23951762,5.29803636 C4.18472798,5.28814545 4.13020432,5.27825455 4.07647856,5.26778182 C3.91796098,5.23694545 3.7636989,5.20407273 3.61502217,5.16858182 C3.59161689,5.16305455 3.5666158,5.1584 3.54347649,5.15258182 C3.37485208,5.11127273 3.21420674,5.06647273 3.05861482,5.01934545 C3.01526186,5.00654545 2.97377068,4.99258182 2.93148159,4.9792 C2.81418922,4.94167273 2.70088638,4.90298182 2.59130711,4.86254545 C2.55220966,4.848 2.51231429,4.83403636 2.47428071,4.8192 C2.33650872,4.76567273 2.20405611,4.7104 2.0793166,4.65250909 C2.06149667,4.64436364 2.04553852,4.63563636 2.02798456,4.6272 C1.92079902,4.57629091 1.81893285,4.52363636 1.72185413,4.46952727 C1.68860799,4.45090909 1.65642573,4.43229091 1.62424347,4.41338182 C1.53727158,4.36218182 1.45455519,4.31010909 1.37636027,4.25687273 C1.35614662,4.2432 1.33433716,4.22981818 1.31492141,4.21614545 C1.22156626,4.15010909 1.13539227,4.08232727 1.05560154,4.01367273 C1.03538789,3.99621818 1.01756796,3.97876364 0.998418184,3.96130909 C0.963842201,3.92989091 0.927404434,3.89876364 0.895488143,3.86705455 L0.895488143,6.02676364 C0.906658845,6.06836364 0.910382412,6.11229091 0.903733185,6.15621818 C0.898945741,6.1888 0.895488143,6.22167273 0.895488143,6.25454545 C0.895488143,6.30138182 0.906392876,6.34850909 0.916233732,6.39476364 C0.923680867,6.42996364 0.934053662,6.46516364 0.947086148,6.50036364 C0.957990881,6.52916364 0.970757398,6.55796364 0.985119729,6.58676364 C1.00320563,6.62254545 1.02315331,6.65832727 1.04655859,6.69410909 C1.06411255,6.72116364 1.08406023,6.74792727 1.10480582,6.77469091 C1.13432839,6.81309091 1.16571275,6.85090909 1.20135261,6.88872727 C1.2228961,6.912 1.24683332,6.93469091 1.27050457,6.95738182 C1.3141235,6.99898182 1.35960422,7.04029091 1.41040432,7.08130909 C1.43221378,7.09905455 1.45588503,7.11621818 1.47875838,7.13367273 C1.53886739,7.17905455 1.6016361,7.22414545 1.6705221,7.26836364 C1.68860799,7.28029091 1.70828971,7.29163636 1.72690754,7.30327273 C1.80616634,7.35243636 1.88888273,7.40072727 1.97824834,7.44785455 C1.98968501,7.45367273 2.00191959,7.45949091 2.01335626,7.4656 C2.11282871,7.51709091 2.21735456,7.56770909 2.3383705,7.62065455 C2.94238632,7.88450909 3.71502656,8.10647273 4.62889638,8.25396364 C4.80390404,8.28189091 4.98343319,8.3072 5.16774977,8.32930909 C5.19780428,8.3328 5.2294546,8.33512727 5.25977508,8.33861818 C5.42068638,8.35694545 5.58345947,8.37381818 5.75102,8.3872 C5.82761911,8.39330909 5.90794177,8.39650909 5.98587072,8.40145455 C6.11194007,8.40930909 6.23667958,8.41861818 6.36594056,8.42356364 C6.47882923,8.42791242 6.59285507,8.43126615 6.70809903,8.43344776 C6.59759854,8.61783449 6.49864352,8.80993306 6.41223313,9.00874428 C3.83147976,8.92647473 2.03476652,8.31569465 1.10347598,7.54530909 C1.0369837,7.49178182 0.977938563,7.43621818 0.9199573,7.38036364 C0.912244196,7.3728 0.902935277,7.36552727 0.895488143,7.35796364 L0.895488143,9.51767273 C0.906658845,9.55927273 0.910382412,9.6032 0.903733185,9.64712727 C0.898945741,9.67970909 0.895488143,9.71258182 0.895488143,9.74545455 C0.895488143,9.79229091 0.906392876,9.83941818 0.916233732,9.88567273 C0.923680867,9.92087273 0.934053662,9.95607273 0.947086148,9.99127273 C0.957990881,10.0200727 0.970757398,10.0488727 0.985119729,10.0776727 C1.00320563,10.1134545 1.02315331,10.1492364 1.04655859,10.1850182 C1.06411255,10.2120727 1.08406023,10.2388364 1.10480582,10.2656 C1.13432839,10.304 1.16571275,10.3418182 1.20135261,10.3796364 C1.2228961,10.4029091 1.24683332,10.4256 1.27050457,10.4482909 C1.3141235,10.4898909 1.35960422,10.5312 1.41040432,10.5722182 C1.43221378,10.5899636 1.45588503,10.6071273 1.47875838,10.6245818 C1.53886739,10.6699636 1.6016361,10.7150545 1.6705221,10.7592727 C1.68860799,10.7712 1.70828971,10.7825455 1.72690754,10.7941818 C1.80616634,10.8433455 1.88888273,10.8916364 1.97824834,10.9387636 C1.98968501,10.9445818 2.00191959,10.9504 2.01335626,10.9565091 C2.11282871,11.008 2.21735456,11.0586182 2.3383705,11.1115636 C2.94238632,11.3754182 3.71502656,11.5973818 4.62889638,11.7448727 C4.80390404,11.7728 4.98343319,11.7981091 5.16774977,11.8202182 C5.19780428,11.8237091 5.2294546,11.8260364 5.25977508,11.8295273 C5.42068638,11.8478545 5.58345947,11.8647273 5.75102,11.8781091 C5.82761911,11.8842182 5.90794177,11.8874182 5.98587072,11.8923636 C6.01746712,11.8943322 6.04897999,11.8963921 6.08050144,11.8984518 L6.08050144,11.8984518 Z M7.01277741,0.581818182 C3.40756628,0.581818182 0.895488143,1.73149091 0.895488143,2.76363636 C0.895488143,3.79578182 3.40756628,4.94545455 7.01277741,4.94545455 C10.6179885,4.94545455 13.1300667,3.79578182 13.1300667,2.76363636 C13.1300667,1.73149091 10.6179885,0.581818182 7.01277741,0.581818182 Z"/>
    <path fill="#FF00FF" fill-rule="nonzero" d="M12.0104076,13.0104076 C13.3911195,13.0104076 14.5104076,11.8911195 14.5104076,10.5104076 C14.5104076,9.12969577 13.3911195,8.01040764 12.0104076,8.01040764 C10.6296958,8.01040764 9.51040764,9.12969577 9.51040764,10.5104076 C9.51040764,11.8911195 10.6296958,13.0104076 12.0104076,13.0104076 Z M8.51040764,10.5104076 C8.51040764,8.57741102 10.077411,7.01040764 12.0104076,7.01040764 C13.9434043,7.01040764 15.5104076,8.57741102 15.5104076,10.5104076 C15.5104076,12.2736436 14.2065547,13.7323484 12.5104076,13.9749632 L12.5104076,17.0104076 L11.5104076,17.0104076 L11.5104076,13.9749632 C9.81426057,13.7323484 8.51040764,12.2736436 8.51040764,10.5104076 Z" transform="rotate(-45 12.01 12.01)"/>
  </g>
</svg>
