<svg xmlns="http://www.w3.org/2000/svg" width="42" height="42" viewBox="0 0 42 42">
  <g fill="none" fill-rule="evenodd">
    <rect width="42" height="42"/>
    <path fill="#D9DFE4" d="M20,23.420978 L16.633116,31.2094861 L1.63311598,23.8778301 L4.98838526,16.11619 L0,10.1874756 L15.5913665,1.53040238 L20.5334584,7.55241296 L5.15294111,16.1640761 L20,23.420978 Z M20,40.420978 L5,33.089322 L5,26.636546 L17.1352852,32.5679951 L20,25.9411393 L20,40.420978 Z M21,23.3899303 L35.8470589,16.1330284 L20.5546145,7.56481742 L25.4967064,1.54280684 L41,10.1564279 L36.0116147,16.0851424 L39.366884,23.8467825 L24.366884,31.1784385 L21,23.3899303 Z M21,40.3899303 L21,25.9100916 L23.8647148,32.5369475 L36,26.6054984 L36,33.0582743 L21,40.3899303 Z"/>
  </g>
</svg>
