<svg xmlns="http://www.w3.org/2000/svg" width="16" height="16" viewBox="0 0 16 16">
  <g fill="none" fill-rule="evenodd">
    <rect width="16" height="16"/>
    <path fill="#8EA6BB" d="M10.2883798,11.9900663 C9.06671985,11.2878309 8.43718736,9.63775558 8.43718736,8 C8.43718736,6.76825894 7.68729308,5.46201897 6.58589404,4.95623046 C6.22073436,4.78854049 5.82755801,4.66679724 5.4312355,4.58477249 C5.16795053,5.68339192 4.17933978,6.5 3,6.5 C1.61928813,6.5 0.5,5.38071187 0.5,4 C0.5,2.61928813 1.61928813,1.5 3,1.5 C4.20947896,1.5 5.21835578,2.35887984 5.44999094,3.5 L11.5500091,3.5 C11.7816442,2.35887984 12.790521,1.5 14,1.5 C15.3807119,1.5 16.5,2.61928813 16.5,4 C16.5,5.38071187 15.3807119,6.5 14,6.5 C12.790521,6.5 11.7816442,5.64112016 11.5500091,4.5 L7.79450531,4.5 C8.75199329,5.17899378 9.43718736,6.6694073 9.43718736,8 C9.43718736,9.25826086 9.85990572,10.5903327 10.7867341,11.1230929 C11.0323563,11.2642816 11.2930974,11.3763807 11.557965,11.4623065 C11.8039468,10.3400187 12.803875,9.5 14,9.5 C15.3807119,9.5 16.5,10.6192881 16.5,12 C16.5,13.3807119 15.3807119,14.5 14,14.5 C12.7938572,14.5 11.7872113,13.6458517 11.5519435,12.5094362 C11.1655451,12.4085781 10.7284405,12.2430223 10.2883798,11.9900663 Z M14,13.5 C14.8284271,13.5 15.5,12.8284271 15.5,12 C15.5,11.1715729 14.8284271,10.5 14,10.5 C13.1715729,10.5 12.5,11.1715729 12.5,12 C12.5,12.8284271 13.1715729,13.5 14,13.5 Z M3,5.5 C3.82842712,5.5 4.5,4.82842712 4.5,4 C4.5,3.17157288 3.82842712,2.5 3,2.5 C2.17157288,2.5 1.5,3.17157288 1.5,4 C1.5,4.82842712 2.17157288,5.5 3,5.5 Z M14,5.5 C14.8284271,5.5 15.5,4.82842712 15.5,4 C15.5,3.17157288 14.8284271,2.5 14,2.5 C13.1715729,2.5 12.5,3.17157288 12.5,4 C12.5,4.82842712 13.1715729,5.5 14,5.5 Z" transform="rotate(-90 8.5 8)"/>
  </g>
</svg>
