<svg xmlns="http://www.w3.org/2000/svg" width="16" height="16" viewBox="0 0 16 16">
  <g fill="none" fill-rule="evenodd">
    <rect width="16" height="16"/>
    <path fill="#8EA6BB" fill-rule="nonzero" d="M6.95150071,12 L7.23654403,13 L2.00276013,13 C0.896666251,13 -8.8817842e-16,12.1064574 -8.8817842e-16,10.9972399 L8.8817842e-16,2.00276013 C8.8817842e-16,0.896666251 0.893542647,-1.37925921e-15 2.00276013,-1.17549927e-15 L10.9972399,4.76759859e-16 C12.1033337,6.79946007e-16 13,0.893542647 13,2.00276013 L13,7.14759153 L12,6.86396103 L12,2.00276013 C12,1.44714764 11.5523701,1 10.9972399,1 L2.00276013,1 C1.44714764,1 1,1.44762988 1,2.00276013 L1,10.9972399 C1,11.5528524 1.44762988,12 2.00276013,12 L7.23654403,12 L6.95150071,12 Z"/>
    <path fill="#8EA6BB" d="M12,16 C9.790861,16 8,14.209139 8,12 C8,9.790861 9.790861,8 12,8 C14.209139,8 16,9.790861 16,12 C16,14.209139 14.209139,16 12,16 Z M11.6610042,14.3538011 L14.9893073,11.0254206 C15.194721,10.8200022 15.1995777,10.5030092 15.0159869,10.3015649 L14.6989456,9.95369274 C14.5199441,9.7572841 14.2091302,9.74563014 14.014974,9.93891034 L11.653455,12.2897739 C11.4666713,12.4757148 11.1424114,12.4802562 10.9456673,12.2835247 L10.1865267,11.5244326 C9.9877785,11.3256971 9.67158298,11.329176 9.47580791,11.527727 L9.20288964,11.8045149 C9.00182666,12.0084288 9.00114475,12.3226988 9.18955568,12.5184349 L10.9607558,14.3584979 C11.1409232,14.5456701 11.4626786,14.5521313 11.6610042,14.3538011 Z"/>
  </g>
</svg>
