<svg xmlns="http://www.w3.org/2000/svg" width="16" height="16" viewBox="0 0 16 16">
  <g fill="none" fill-rule="evenodd">
    <rect width="16" height="16"/>
    <path fill="#F25335" d="M6.94920795,1.30128709 C7.52954437,0.358240393 8.46910446,0.35604475 9.05079205,1.30128709 L15.4492079,11.6987129 C16.0295444,12.6417596 15.6099416,13.40625 14.4998938,13.40625 L1.50010618,13.40625 C0.395478039,13.40625 -0.0308955386,12.6439553 0.550792052,11.6987129 L6.94920795,1.30128709 Z"/>
    <path fill="#FFFFFF" d="M6.84,8.216 L7.992,8.216 C7.992,8.00799896 7.97733348,7.78533452 7.948,7.548 C7.91866652,7.31066548 7.84533392,7.08933436 7.728,6.884 C7.61066608,6.67866564 7.43333452,6.509334 7.196,6.376 C6.95866548,6.242666 6.63466872,6.176 6.224,6.176 C5.79199784,6.176 5.44800128,6.2493326 5.192,6.396 C4.93599872,6.5426674 4.74000068,6.74666536 4.604,7.008 C4.46799932,7.26933464 4.3800002,7.58266484 4.34,7.948 C4.2999998,8.31333516 4.28,8.71199784 4.28,9.144 C4.28,9.58133552 4.2999998,9.98133152 4.34,10.344 C4.3800002,10.7066685 4.46799932,11.0186654 4.604,11.28 C4.74000068,11.5413346 4.93599872,11.7413326 5.192,11.88 C5.44800128,12.0186674 5.79199784,12.088 6.224,12.088 C6.60266856,12.088 6.91066548,12.0293339 7.148,11.912 C7.38533452,11.7946661 7.56933268,11.632001 7.7,11.424 C7.83066732,11.215999 7.91999976,10.9733347 7.968,10.696 C8.01600024,10.4186653 8.04,10.1253349 8.04,9.816 L6.888,9.816 C6.888,10.1253349 6.86933352,10.3746657 6.832,10.564 C6.79466648,10.7533343 6.74400032,10.8999995 6.68,11.004 C6.61599968,11.1080005 6.54000044,11.1773332 6.452,11.212 C6.36399956,11.2466668 6.26933384,11.264 6.168,11.264 C6.04533272,11.264 5.9373338,11.2386669 5.844,11.188 C5.7506662,11.1373331 5.67333364,11.0386674 5.612,10.892 C5.55066636,10.7453326 5.50533348,10.538668 5.476,10.272 C5.44666652,10.005332 5.432,9.65600216 5.432,9.224 C5.432,8.81866464 5.44266656,8.4760014 5.464,8.196 C5.48533344,7.9159986 5.5226664,7.6893342 5.576,7.516 C5.6293336,7.3426658 5.7026662,7.21733372 5.796,7.14 C5.8893338,7.06266628 6.00799928,7.024 6.152,7.024 C6.41333464,7.024 6.59333284,7.11866572 6.692,7.308 C6.79066716,7.49733428 6.84,7.79999792 6.84,8.216 Z M8.5751111,6.288 L8.5751111,12 L9.6791111,12 L9.6791111,9.144 C9.6791111,8.66933096 9.87377582,8.432 10.2631111,8.432 C10.4284453,8.432 10.5484441,8.47599956 10.6231111,8.564 C10.6977781,8.65200044 10.7351111,8.80799888 10.7351111,9.032 L10.7351111,12 L11.8391111,12 L11.8391111,8.808 C11.8391111,8.37599784 11.7444454,8.06400096 11.5551111,7.872 C11.3657768,7.67999904 11.0951129,7.584 10.7431111,7.584 C10.2577753,7.584 9.9084455,7.76799816 9.6951111,8.136 L9.6791111,8.136 L9.6791111,6.288 L8.5751111,6.288 Z"/>
  </g>
</svg>
