<svg xmlns="http://www.w3.org/2000/svg" width="16" height="16" viewBox="0 0 16 16">
  <g fill="none" fill-rule="evenodd">
    <rect width="16" height="16"/>
    <path fill="#FF00FF" fill-rule="nonzero" d="M0,3.00585866 C0,1.89805351 0.894513756,1 1.99406028,1 L14.0059397,1 C15.1072288,1 16,1.89706013 16,3.00585866 L16,12.9941413 C16,14.1019465 15.1054862,15 14.0059397,15 L1.99406028,15 C0.892771196,15 0,14.1029399 0,12.9941413 L0,3.00585866 Z M1,3.9220371 L1,13.0779629 C1,13.5889229 1.44596259,14 1.99406028,14 L14.0059397,14 C14.5526143,14 15,13.5877189 15,13.0779629 L15,3.9220371 C15,3.41107713 14.5540374,3 14.0059397,3 L1.99406028,3 C1.44738566,3 1,3.41228114 1,3.9220371 Z"/>
    <path fill="#FF00FF" d="M7,5.5 C7,5.22385763 7.23290253,5 7.50342274,5 L13.4965773,5 C13.77461,5 14,5.23193359 14,5.5 C14,5.77614237 13.7670975,6 13.4965773,6 L7.50342274,6 C7.22539004,6 7,5.76806641 7,5.5 Z M7,8.5 C7,8.22385763 7.23290253,8 7.50342274,8 L13.4965773,8 C13.77461,8 14,8.23193359 14,8.5 C14,8.77614237 13.7670975,9 13.4965773,9 L7.50342274,9 C7.22539004,9 7,8.76806641 7,8.5 Z M3,5 L6,5 L6,7 L3,7 L3,5 Z M3,8 L6,8 L6,10 L3,10 L3,8 Z M7,11.5 C7,11.2238576 7.23290253,11 7.50342274,11 L13.4965773,11 C13.77461,11 14,11.2319336 14,11.5 C14,11.7761424 13.7670975,12 13.4965773,12 L7.50342274,12 C7.22539004,12 7,11.7680664 7,11.5 Z M3,11 L6,11 L6,13 L3,13 L3,11 Z"/>
  </g>
</svg>
