<svg xmlns="http://www.w3.org/2000/svg" width="75" height="36" viewBox="0 0 75 36">
  <g fill="none" fill-rule="evenodd">
    <g fill-rule="nonzero">
      <g fill="#212121" transform="translate(.11)">
        <path d="M1.93832599,21.1361963 L1.93832599,1.10429448 C1.93832599,0.441717791 1.5969163,0 0.958259912,0 C0.341409692,0 0,0.441717791 0,1.10429448 L0,21.9424417 C0,22.6490798 0.341409692,22.9693252 1.02422907,22.9693252 L12.1255507,22.9693252 C12.7863436,22.9693252 13.2268722,22.6932515 13.2268722,22.0528712 C13.2268722,21.4122699 12.797467,21.1361963 12.1255507,21.1361963 L1.93832599,21.1361963 Z M18.8656388,1.92147239 L29.8568282,1.92147239 C30.5176211,1.92147239 30.9581498,1.64539877 30.9581498,1.00490798 C30.9581498,0.364417178 30.5287445,0.0883435583 29.8568282,0.0883435583 L17.9515419,0.0883435583 C17.2687225,0.0883435583 16.9273128,0.408588957 16.9273128,1.11533742 L16.9273128,21.9312883 C16.9273128,22.6379264 17.2687225,22.9582822 17.9515419,22.9582822 L29.8568282,22.9582822 C30.5176211,22.9582822 30.9581498,22.6822086 30.9581498,22.0417178 C30.9581498,21.401227 30.5287445,21.1251534 29.8568282,21.1251534 L18.8656388,21.1251534 L18.8656388,1.92147239 Z M44.8127753,2.81595092 L53.2048458,22.2294479 C53.3920705,22.6822086 53.7114537,23.0576687 54.1409692,23.0576687 C54.6475771,23.0576687 55.4845815,22.5274969 55.0550661,21.5668712 L46.0242291,0.916564417 C45.8370044,0.53006135 45.5726872,0 44.8348018,0 C44.1079295,0 43.8325991,0.53006135 43.6453744,0.916564417 L34.6145374,21.5668712 C34.185022,22.5274969 35.0220264,23.0576687 35.5286344,23.0576687 C35.9580396,23.0576687 36.277533,22.6931411 36.4647577,22.2294479 L44.8127753,2.81595092 Z"/>
        <path d="M41.8502203,14.3889571 C41.8502203,15.0294479 42.2796256,15.3055215 42.9404185,15.3055215 L46.7289648,15.3055215 C47.3897577,15.3055215 47.8302863,15.0294479 47.8302863,14.3889571 C47.8302863,13.7484663 47.4007709,13.4723926 46.7289648,13.4723926 L42.9404185,13.4723926 C42.2797357,13.4723926 41.8502203,13.7484663 41.8502203,14.3889571 L41.8502203,14.3889571 Z M61.5088106,1.92147239 L66.8061674,1.92147239 C68.3370044,1.92147239 69.6806167,1.94355828 70.814978,2.58404908 C72.092511,3.29079755 72.8634361,4.67116564 72.8634361,6.2392638 C72.8634361,7.81840491 72.092511,9.18773006 70.814978,9.89447853 C69.6805066,10.5128834 68.3258811,10.5570552 66.8061674,10.5570552 L64.4162996,10.5570552 C63.7555066,10.5570552 63.314978,10.8331288 63.314978,11.4736196 C63.314978,12.1141104 63.7444934,12.390184 64.4162996,12.390184 L66.6960352,12.390184 C68.1387665,12.390184 70,12.390184 71.7180617,11.4736196 C73.6563877,10.4466258 74.8678414,8.63558282 74.8678414,6.2392638 C74.8678414,3.93128834 73.7334802,2.05398773 71.7400881,1.00490798 C70.0330396,0.0883435583 68.1387665,0.0883435583 66.6960352,0.0883435583 L60.6057269,0.0883435583 C59.9229075,0.0883435583 59.5814978,0.408588957 59.5814978,1.11533742 L59.5814978,21.9533742 C59.5814978,22.6159509 59.9229075,23.0466258 60.5615639,23.0466258 C61.1784141,23.0466258 61.5197137,22.6159509 61.5197137,21.9533742 L61.5197137,1.92147239 L61.5088106,1.92147239 L61.5088106,1.92147239 Z"/>
      </g>
      <path fill="#5EAA02" d="M68.7334802,31.2625767 L71.9162996,35.4257669 C72.1365639,35.7128834 72.2906388,35.8674847 72.5439427,35.8674847 C72.8743392,35.8674847 72.9734581,35.6245399 72.9734581,35.3815951 L72.9734581,30.5007239 C72.9734581,30.2466258 72.8302863,30.0700491 72.5879956,30.0700491 C72.3457048,30.0700491 72.202533,30.2467362 72.202533,30.5007239 L72.2135463,34.5976564 L69.030837,30.4343558 C68.8545154,30.2023436 68.722467,30.0699387 68.4471366,30.0699387 C68.0726872,30.0699387 67.9625551,30.3239264 67.9625551,30.5558282 L67.9625551,35.4368098 C67.9625551,35.690908 68.0947137,35.8674847 68.3480176,35.8674847 C68.5903084,35.8674847 68.7334802,35.6907975 68.7334802,35.4368098 L68.7334802,31.2625767 L68.7334802,31.2625767 Z M58.1497797,32.9631902 C58.1497797,34.2220859 57.2906388,35.2491902 56.0022026,35.2491902 C54.7245595,35.2491902 53.8546256,34.2220859 53.8546256,32.9631902 C53.8546256,31.7044049 54.7136564,30.677411 56.0022026,30.677411 C57.2906388,30.6773006 58.1497797,31.7042945 58.1497797,32.9631902 L58.1497797,32.9631902 Z M53.0286344,32.9631902 C53.0286344,34.6528712 54.2840308,35.9780245 56.0022026,35.9780245 C57.7202643,35.9780245 58.9757709,34.6639141 58.9757709,32.9631902 C58.9757709,31.2626871 57.7202643,29.9485767 56.0022026,29.9485767 C54.284141,29.9595092 53.0286344,31.2737301 53.0286344,32.9631902 L53.0286344,32.9631902 Z M43.6563877,35.8674847 C43.8986784,35.8674847 44.0418502,35.6907975 44.0418502,35.4368098 L44.0418502,30.5007239 C44.0418502,30.2466258 43.8986784,30.0700491 43.6563877,30.0700491 C43.4030837,30.0700491 43.2599119,30.2467362 43.2599119,30.5007239 L43.2599119,35.4368098 C43.2599119,35.690908 43.4030837,35.8674847 43.6563877,35.8674847 L43.6563877,35.8674847 Z M31.4757709,35.4368098 C31.4757709,35.690908 31.6189427,35.8674847 31.8722467,35.8674847 C32.1145374,35.8674847 32.2577093,35.6907975 32.2577093,35.4368098 L32.2577093,30.8208589 L34.0638767,30.8208589 C34.3061674,30.8208589 34.4603524,30.6992761 34.4603524,30.4564417 C34.4603524,30.2245399 34.3062775,30.0919141 34.0638767,30.0919141 L29.6806167,30.0919141 C29.438326,30.0919141 29.2840308,30.2245399 29.2840308,30.4564417 C29.2840308,30.6883436 29.4382159,30.8208589 29.6806167,30.8208589 L31.4867841,30.8208589 L31.4867841,35.4368098 L31.4757709,35.4368098 L31.4757709,35.4368098 Z M20.30837,32.9631902 C20.30837,34.2220859 19.4493392,35.2491902 18.160793,35.2491902 C16.8832599,35.2491902 16.0132159,34.2220859 16.0132159,32.9631902 C16.0132159,31.7044049 16.8723568,30.677411 18.160793,30.677411 C19.4493392,30.6773006 20.30837,31.7042945 20.30837,32.9631902 L20.30837,32.9631902 Z M15.1872247,32.9631902 C15.1872247,34.6528712 16.4427313,35.9780245 18.160793,35.9780245 C19.8789648,35.9780245 21.1343612,34.6639141 21.1343612,32.9631902 C21.1343612,31.2626871 19.8789648,29.9485767 18.160793,29.9485767 C16.4427313,29.9595092 15.1872247,31.2737301 15.1872247,32.9631902 L15.1872247,32.9631902 Z M3.16079295,33.9349693 L1.38755507,30.6662577 C1.16729075,30.2575583 0.991079295,30.0588957 0.627753304,30.0588957 C0.18722467,30.0588957 0.0990088106,30.3569448 0.0990088106,30.5888466 L0.0990088106,35.4366994 C0.0990088106,35.6907975 0.231167401,35.8673742 0.484471366,35.8673742 C0.726762115,35.8673742 0.869933921,35.6906871 0.869933921,35.4366994 L0.858920705,31.2072515 L2.67610132,34.6305644 C2.7972467,34.8625767 2.91839207,35.0059141 3.13865639,35.0059141 C3.3589207,35.0059141 3.4910793,34.8624663 3.61222467,34.6305644 L5.42940529,31.2072515 L5.41839207,35.4366994 C5.41839207,35.6907975 5.56156388,35.8673742 5.80385463,35.8673742 C6.05715859,35.8673742 6.18931718,35.6906871 6.18931718,35.4366994 L6.18931718,30.5889571 C6.18931718,30.3570552 6.10110132,30.0590061 5.66057269,30.0590061 C5.29713656,30.0590061 5.14306167,30.2576687 4.92279736,30.6663681 L3.16079295,33.9349693 L3.16079295,33.9349693 Z M20.7709251,11.4846626 C20.7709251,12.1251534 21.2004405,12.401227 21.8612335,12.401227 L26.7180617,12.401227 C27.3788546,12.401227 27.80837,12.1251534 27.80837,11.4846626 C27.80837,10.8441718 27.3788546,10.5680982 26.7180617,10.5680982 L21.8612335,10.5680982 C21.2004405,10.5680982 20.7709251,10.8441718 20.7709251,11.4846626 L20.7709251,11.4846626 Z"/>
    </g>
  </g>
</svg>
