<svg xmlns="http://www.w3.org/2000/svg" width="47" height="47" viewBox="0 0 47 47">
  <g fill="none" fill-rule="evenodd">
    <rect width="47" height="47" fill="none"/>
    <path fill="#26425F" d="M11,13.1680412 L11,19.244013 L14,19.244013 L14,28.8358497 L11,28.8358497 L11,33.9526378 L0.165476221,23.5603395 L11,13.1680412 L11,13.1680412 Z M36,13.1680412 L46.8345238,23.5603395 L36,33.9526378 L36,28.8358497 L33,28.8358497 L33,19.244013 L36,19.244013 L36,13.1680412 L36,13.1680412 Z"/>
    <path fill="#8EA6BB" fill-rule="nonzero" d="M19 11.0909518L19 14.4480946 28 14.4480946 28 11.0909518 33.127417 11.0909518 23.5 1.85649056 13.872583 11.0909518 19 11.0909518zM11.4583694 12.0501354L23.5.5 35.5416306 12.0501354 29 12.0501354 29 15.4072783 18 15.4072783 18 12.0501354 11.4583694 12.0501354zM23.5 29.3154416C20.1862915 29.3154416 17.5 26.7387946 17.5 23.5603395 17.5 20.3818844 20.1862915 17.8052375 23.5 17.8052375 26.8137085 17.8052375 29.5 20.3818844 29.5 23.5603395 29.5 26.7387946 26.8137085 29.3154416 23.5 29.3154416zM23.5 28.3562579C26.2614237 28.3562579 28.5 26.2090521 28.5 23.5603395 28.5 20.9116269 26.2614237 18.7644211 23.5 18.7644211 20.7385763 18.7644211 18.5 20.9116269 18.5 23.5603395 18.5 26.2090521 20.7385763 28.3562579 23.5 28.3562579zM28 36.0297273L28 33.6317681 19 33.6317681 19 36.0297273 13.872583 36.0297273 23.5 45.2641885 33.127417 36.0297273 28 36.0297273zM35.5416306 35.0705436L23.5 46.620679 11.4583694 35.0705436 18 35.0705436 18 32.6725844 29 32.6725844 29 35.0705436 35.5416306 35.0705436z"/>
  </g>
</svg>
