<svg xmlns="http://www.w3.org/2000/svg" width="47" height="47" viewBox="0 0 47 47">
  <g fill="none" fill-rule="evenodd">
    <rect width="47" height="47" fill="none"/>
    <path fill="#26425F" d="M11.5603395,13.1077017 L11.5603395,19.1836735 L14.5603395,19.1836735 L14.5603395,28.7755102 L11.5603395,28.7755102 L11.5603395,33.8922983 L0.725815738,23.5 L11.5603395,13.1077017 L11.5603395,13.1077017 Z M36.5603395,13.1077017 L47.3948633,23.5 L36.5603395,33.8922983 L36.5603395,28.7755102 L33.5603395,28.7755102 L33.5603395,19.1836735 L36.5603395,19.1836735 L36.5603395,13.1077017 L36.5603395,13.1077017 Z" transform="rotate(-90 24.06 23.5)"/>
    <path fill="#8EA6BB" fill-rule="nonzero" d="M3.95363915,26.6373126 L3.95363915,29.9944555 L12.9536391,29.9944555 L12.9536391,26.6373126 L18.0810561,26.6373126 L8.45363915,17.4028514 L-1.17377785,26.6373126 L3.95363915,26.6373126 Z M-3.58799141,27.5964963 L8.45363915,16.0463609 L20.4952697,27.5964963 L13.9536391,27.5964963 L13.9536391,30.9536391 L2.95363915,30.9536391 L2.95363915,27.5964963 L-3.58799141,27.5964963 Z" transform="rotate(-90 8.454 23.5)"/>
    <path fill="#8EA6BB" fill-rule="nonzero" d="M24.0603395,29.255102 C20.746631,29.255102 18.0603395,26.6784551 18.0603395,23.5 C18.0603395,20.3215449 20.746631,17.744898 24.0603395,17.744898 C27.374048,17.744898 30.0603395,20.3215449 30.0603395,23.5 C30.0603395,26.6784551 27.374048,29.255102 24.0603395,29.255102 Z M24.0603395,28.2959184 C26.8217633,28.2959184 29.0603395,26.1487126 29.0603395,23.5 C29.0603395,20.8512874 26.8217633,18.7040816 24.0603395,18.7040816 C21.2989158,18.7040816 19.0603395,20.8512874 19.0603395,23.5 C19.0603395,26.1487126 21.2989158,28.2959184 24.0603395,28.2959184 Z" transform="rotate(-90 24.06 23.5)"/>
    <path fill="#8EA6BB" fill-rule="nonzero" d="M44.6466317,19.8830955 L44.6466317,17.4851364 L35.6466317,17.4851364 L35.6466317,19.8830955 L30.5192147,19.8830955 L40.1466317,29.1175567 L49.7740487,19.8830955 L44.6466317,19.8830955 Z M52.1882623,18.9239119 L40.1466317,30.4740473 L28.1050012,18.9239119 L34.6466317,18.9239119 L34.6466317,16.5259527 L45.6466317,16.5259527 L45.6466317,18.9239119 L52.1882623,18.9239119 Z" transform="rotate(-90 40.147 23.5)"/>
  </g>
</svg>
