<svg xmlns="http://www.w3.org/2000/svg" width="130" height="36" viewBox="0 0 130 36">
  <g fill="none" fill-rule="evenodd">
    <rect width="130" height="36" fill="none"/>
    <path fill="#2DBBE9" d="M118.145353,12.5315719 C118.801024,12.3257577 119.482216,12.2141716 120.180737,12.2141716 C120.634445,12.2141716 121.017576,12.2733742 121.3295,12.3954989 C121.634493,12.5176236 121.861662,12.6812831 121.996199,12.8908169 C122.134832,13.1037602 122.227149,13.3061649 122.276616,13.4977209 C122.319151,13.6967159 122.347507,13.9232976 122.347507,14.1814952 L122.347507,19.9483229 L123.748016,19.9483229 L123.748016,14.1814952 C123.748016,13.5919491 123.645616,13.0826828 123.436406,12.6536966 C124.240793,12.3638829 124.978698,12.2141716 125.655794,12.2141716 C126.063186,12.2141716 126.407563,12.2733742 126.684199,12.3954989 C126.96052,12.5176236 127.162798,12.6812831 127.286937,12.9010456 C127.414858,13.121118 127.496147,13.3235227 127.538682,13.5150787 C127.578067,13.7140738 127.598862,13.9338362 127.598862,14.1814952 L127.598862,19.9483229 L129,19.9483229 L129,14.3175682 C129,13.3201131 128.708871,12.5421106 128.141421,11.9869701 C127.571135,11.4392687 126.769584,11.1603036 125.733933,11.1603036 C124.73357,11.1603036 123.695083,11.3627083 122.616896,11.764108 C122.035268,11.3627083 121.276253,11.1603036 120.329452,11.1603036 C119.088372,11.1603036 117.893608,11.3943243 116.744214,11.8614358 L116.744214,19.9483229 L118.145353,19.9483229 L118.145353,12.5315719 Z M109.265228,18.678102 C109.559434,18.9992218 109.897356,19.2574195 110.274527,19.452695 C110.651059,19.6516901 111.021529,19.7843535 111.384341,19.8506851 C111.743323,19.9167069 112.131024,19.9483229 112.547762,19.9483229 C113.467714,19.9483229 114.34395,19.8333273 115.17296,19.5958971 L115.17296,18.542339 C114.404578,18.7794593 113.57142,18.8944549 112.684016,18.8944549 C111.632278,18.8944549 110.867087,18.6362573 110.39323,18.1096332 C109.915226,17.5864188 109.678138,16.7352654 109.678138,15.5527635 C109.678138,14.391029 109.915226,13.5398756 110.39323,13.009532 C110.867087,12.482598 111.632278,12.2141716 112.684016,12.2141716 C113.538872,12.2141716 114.36852,12.3362963 115.17296,12.5662875 L115.17296,11.50901 C114.307573,11.2790188 113.435166,11.1603036 112.547762,11.1603036 C112.016149,11.1603036 111.527614,11.2269453 111.082157,11.3453505 C110.640848,11.4708847 110.198901,11.6872376 109.754082,11.9838705 C109.312135,12.2839129 108.952834,12.7407957 108.672349,13.3442901 C108.395693,13.9546036 108.25944,14.6907614 108.25944,15.5527635 C108.25944,16.2573052 108.352935,16.8784674 108.540244,17.4119106 C108.730105,17.9425641 108.974213,18.3675209 109.265228,18.678102 Z M103.114435,15.6817073 C102.622657,15.5388152 102.201582,15.2908463 101.85938,14.9384204 C101.515921,14.5863045 101.34592,14.1328313 101.34592,13.5640526 C101.34592,12.9044552 101.614591,12.3393959 102.148791,11.8685649 C102.68299,11.3943243 103.506915,11.1603036 104.613966,11.1603036 C105.388555,11.1603036 106.170058,11.3174539 106.948105,11.6311347 L106.948105,12.8173561 C106.251445,12.4162663 105.519277,12.2141716 104.755057,12.2141716 C103.415473,12.2141716 102.743009,12.6639253 102.743009,13.5640526 C102.743009,13.8746337 102.902327,14.1188831 103.227246,14.3070295 C103.55625,14.4954859 103.952815,14.6523262 104.422911,14.774451 C104.893321,14.8931661 105.374415,15.0434973 105.862108,15.2176954 C106.353572,15.3956132 106.768048,15.6851169 107.114649,16.0970553 C107.45748,16.5086837 107.630938,17.0387174 107.630938,17.6738278 C107.630938,18.3889082 107.330215,18.9434288 106.73631,19.3445185 C106.138321,19.7493278 105.314082,19.9483229 104.260137,19.9483229 C103.234159,19.9483229 102.301195,19.7629661 101.466272,19.3832637 L101.466272,18.1130428 C102.35053,18.6362573 103.266211,18.8944549 104.203575,18.8944549 C105.558242,18.8944549 106.23322,18.486546 106.23322,17.6738278 C106.23322,17.2339929 106.07076,16.8958252 105.741756,16.6478563 C105.416837,16.4001973 105.024043,16.2120509 104.553633,16.0862067 C104.083537,15.964082 103.605899,15.828319 103.114435,15.6817073 Z M65.3099541,18.6676398 C64.6828077,18.4374249 64.146543,18.051004 63.7017826,17.5124712 C63.2567109,16.9698443 63.036665,16.2927417 63.036665,15.4704556 C63.036665,14.0847572 63.4988548,13.0212336 64.4272805,12.2770506 C65.3482365,11.5360169 66.500443,11.1603036 67.8848337,11.1603036 C69.1699393,11.1603036 70.3538921,11.5042088 71.4329575,12.1847757 C71.4329575,12.1847757 72.3996656,12.9254945 72.3159423,13.6696775 C72.2107435,14.6484845 71.4329575,14.733516 71.4329575,14.733516 C70.5397018,14.3253648 69.5275528,14.1200295 68.3990004,14.1200295 C66.9806847,14.1200295 66.2766622,14.4815708 66.2766622,15.197725 C66.2766622,15.5592663 66.4764776,15.8354612 66.879532,16.0411114 C67.2819639,16.2467617 67.771854,16.4278473 68.3504472,16.5799592 C68.924683,16.7358502 69.5340888,16.9452797 70.1612352,17.2076176 C70.7886929,17.476884 71.3212227,17.9162133 71.7656719,18.5435568 C72.2107435,19.1712152 72.4348356,19.9686217 72.4348356,20.9326269 C72.4348356,22.0953538 71.9897639,23.059674 71.0968194,23.8246425 C70.2072986,24.5902409 69.0333054,24.9700482 67.5689262,24.9700482 C66.0665759,24.9700482 64.6828077,24.5870916 63.4182439,23.803857 C63.4182439,23.803857 62.6930572,23.5840349 62.6930572,22.1057466 C62.6930572,20.9042831 63.4182439,20.8866469 63.4182439,20.8866469 C64.5779202,21.6377584 65.8175848,22.0103224 67.1453301,22.0103224 C67.9931449,22.0103224 68.5502626,21.9142683 68.8089021,21.7089329 C69.0616281,21.5032827 69.1948384,21.1949648 69.1948384,20.7839792 C69.1948384,20.408266 68.9909769,20.1068766 68.5882337,19.8728825 C68.1820669,19.6492812 67.6918656,19.447725 67.1135837,19.2738829 C66.5362355,19.103505 65.9405242,18.9016339 65.3099541,18.6676398 Z M86.1144612,11.4741615 C85.1548902,11.4741615 84.3763703,12.2152308 84.3763703,13.1247959 L84.3763703,23.3200378 C84.3763703,24.2327232 85.1548902,24.9700482 86.1144612,24.9700482 C87.0740323,24.9700482 87.8331303,24.2433322 87.8331303,23.3303348 L87.8331303,13.1144989 C87.8331303,12.2046218 87.0740323,11.4741615 86.1144612,11.4741615 Z M36.561123,24.8503427 C38.4929344,24.8503427 39.9783462,24.2740186 41.019221,23.1248046 C42.0607166,21.9724686 42.5809988,20.3171759 42.5809988,18.1636094 C42.5809988,16.9756824 42.4239208,15.9285583 42.1196985,15.0222371 C41.8157866,14.1156037 41.459412,13.4268871 41.043745,12.9595213 C40.6311824,12.4887213 40.1320095,12.1090842 39.5549185,11.8140537 C38.975344,11.5190232 38.4684104,11.3398195 38.0456035,11.269262 C37.6162776,11.1955824 37.1863308,11.1603036 36.7570049,11.1603036 C34.8869692,11.1603036 33.5108291,11.5995712 32.6093378,12.471238 C31.7115716,13.3460269 31.2679659,14.3859703 31.2679659,15.598249 L31.2679659,28.0263694 C31.2679659,28.9401834 32.0012037,29.6779157 32.9061097,29.6779157 C33.8110157,29.6779157 34.5274902,28.9507982 34.5274902,28.0372964 L34.4995514,24.6008937 C35.1672883,24.7660483 35.8517884,24.8503427 36.561123,24.8503427 Z M36.7511525,13.9850241 C37.7470348,13.9850241 38.4426074,14.3226789 38.8407671,14.9845448 C39.2392488,15.6495372 39.4384896,16.7300326 39.4384896,18.225093 C39.4384896,19.6820109 39.1706894,20.7024788 38.6418482,21.2796184 C38.1059258,21.8598844 37.3379312,22.1453277 36.3307833,22.1453277 C35.7726515,22.1453277 35.1314758,22.0993692 34.410475,21.9971348 L34.410475,15.3575283 C34.410475,14.4424213 35.1890915,13.9850241 36.7511525,13.9850241 Z M46.8309494,7.08015181 C45.8720537,7.08015181 45.0950061,7.82482915 45.0950061,8.74685561 L45.0950061,23.3042895 C45.0950061,24.2256859 45.8720537,24.9700482 46.8309494,24.9700482 C47.7891875,24.9700482 48.5517661,24.2363962 48.5517661,23.3146847 L48.5517661,8.73614536 C48.5517661,7.8141189 47.7891875,7.08015181 46.8309494,7.08015181 Z M82.1103519,12.7629263 C82.1103519,11.9582387 81.4474143,11.3081185 80.6342574,11.3081185 L78.886368,11.3081185 L78.886368,8.66517095 C78.8504045,7.78304347 78.1126755,7.08015181 77.2062682,7.08015181 C76.30368,7.08015181 75.5621318,7.78304347 75.5299875,8.66517095 L75.5299875,11.3081185 L74.8565472,11.3081185 C74.0395712,11.3081185 73.3775883,11.9582387 73.3775883,12.7629263 C73.3775883,13.5644913 74.0395712,14.2142992 74.8565472,14.2142992 L75.5299875,14.2142992 L75.5299875,20.4525798 C75.5299875,21.7812355 75.9672781,22.7651589 76.7193288,23.5205098 C77.4640596,24.2799201 78.4920426,24.6561904 79.7994588,24.6561904 C80.5483269,24.6561904 81.2217672,24.5116152 81.8414214,24.2374531 C81.8414214,24.2374531 82.8051157,24.0338612 82.8051157,22.5087955 C82.8051157,21.3347072 81.8414214,21.5139431 81.8414214,21.5139431 C81.4222717,21.696926 80.9426523,21.7812355 80.4016086,21.7812355 C79.8211006,21.7812355 79.4519178,21.689744 79.2230881,21.5036386 C78.9939402,21.3209679 78.886368,20.9587492 78.886368,20.4176069 L78.886368,14.2142992 L80.6342574,14.2142992 C81.4474143,14.2142992 82.1103519,13.5644913 82.1103519,12.7629263 Z M85.9476248,10.2187301 C86.8168559,10.2187301 87.5188794,9.51601259 87.5188794,8.64944097 C87.5188794,7.78317852 86.8168559,7.08015181 85.9476248,7.08015181 C85.0780836,7.08015181 84.3763703,7.78317852 84.3763703,8.64944097 C84.3763703,9.51601259 85.0780836,10.2187301 85.9476248,10.2187301 Z M95.7793981,24.9700482 C97.0708097,24.9700482 98.3453672,24.6437792 99.5979824,23.9846277 C99.5979824,23.9846277 100.403167,23.7011894 100.403167,22.3891849 C100.403167,21.0781252 99.5979824,21.354635 99.5979824,21.354635 C98.4989628,21.7974287 97.4037592,22.0103224 96.3123717,22.0103224 C95.0915569,22.0103224 94.1900174,21.740741 93.6029832,21.1949648 C93.0121329,20.6491886 92.7192518,19.6067654 92.7192518,18.0758836 C92.7192518,16.5198072 93.0121329,15.4704556 93.6029832,14.9319228 C94.1900174,14.3930751 95.0915569,14.1200295 96.3123717,14.1200295 C97.4540038,14.1200295 98.5530234,14.3398517 99.5979824,14.779496 C99.5979824,14.779496 100.403167,15.0204186 100.403167,13.7477805 C100.403167,12.4789217 99.5979824,12.1457242 99.5979824,12.1457242 C98.3453672,11.4900369 97.0708097,11.1603036 95.7793981,11.1603036 C93.7712069,11.1603036 92.2034504,11.756154 91.0869406,12.9434456 C89.9666148,14.1307372 89.4043849,15.8427046 89.4043849,18.0758836 C89.4043849,20.2945757 89.9666148,22.0030789 91.0869406,23.1869063 C92.2034504,24.3814413 93.7712069,24.9700482 95.7793981,24.9700482 Z M58.6077954,18.5312056 L58.6077954,20.0309703 C58.6077954,21.2354134 57.8464981,21.8314699 56.3203431,21.8314699 L56.2947723,21.8314699 C54.6919049,21.8314699 53.8940317,21.198423 53.8940317,19.9257131 C53.8975922,18.8935911 54.8592479,18.3790338 56.7789988,18.3790338 C57.2819988,18.388958 57.8937555,18.4364741 58.6077954,18.5312056 Z M53.1825393,14.113101 C52.4939696,14.113101 51.909804,13.5103222 51.909804,12.8121191 C51.909804,12.1954833 52.353832,11.6175841 52.9342689,11.4865726 C52.9553983,11.4651573 52.9939283,11.4651573 53.018165,11.4582288 C53.8680017,11.259507 54.7778085,11.1603036 55.74945,11.1603036 C57.5892609,11.1603036 58.9915691,11.6497071 59.9675607,12.62442 C60.9426201,13.6025971 61.4360536,15.0100258 61.4360536,16.8495405 L61.4360536,20.4646387 C61.4360536,21.6982253 60.9886076,22.7579696 60.0996194,23.6407225 C59.2118741,24.5304039 57.8443673,24.9700482 56.0014491,24.9700482 C54.0886174,24.9700482 52.6859985,24.5304039 51.7836491,23.6407225 C50.8850283,22.7510411 50.4372716,21.6664172 50.4372716,20.3940941 C50.4372716,20.1172693 50.4615083,19.8335161 50.5109138,19.5469285 C50.5634265,19.259711 50.6926887,18.8943905 50.9095757,18.4512819 C51.122734,18.0157317 51.4197885,17.6289959 51.793903,17.2995775 C52.1686391,16.9698443 52.7207998,16.6826268 53.4485211,16.4489477 C54.1759315,16.2114893 55.0360222,16.0946498 56.0256857,16.0946498 C56.6940582,16.0946498 57.407486,16.1548017 58.1731158,16.2716413 C58.1731158,14.6198257 57.3092964,13.7902963 55.5819684,13.7902963 C54.9661087,13.7902963 54.3123404,13.8825712 53.7281748,13.9855538 C53.5641113,14.0668061 53.3786076,14.113101 53.1825393,14.113101 Z M14.7168434,3.36184618 L25.2641442,9.45558649 C26.1251228,9.9111054 26.7113276,10.8155642 26.7113276,11.8569293 L26.7113276,12.3509825 L26.7113276,24.2373946 C26.7113276,25.303196 26.0972381,26.2248856 25.2046151,26.6700661 L14.7961111,32.7133672 C14.3784675,32.9762148 14.0552987,32.9990601 13.5258032,33 L13.5258032,29.6509648 C13.9378071,29.6497116 14.1510037,29.6610145 14.4762205,29.4570649 L22.5696698,24.756824 C23.2649069,24.4109554 23.7420795,23.6941554 23.7420795,22.8655119 L23.7420795,13.6213602 L23.7420795,13.2372707 C23.7420795,12.4274245 23.286212,11.7240957 22.6172931,11.3691419 L14.414185,6.63130656 C14.1040071,6.45210655 13.7440128,6.3493485 13.3598935,6.3493485 C12.9500828,6.3493485 12.5678434,6.46620445 12.2416866,6.66451495 L4.08181545,11.3760342 C3.41947604,11.7325545 2.96893485,12.4321238 2.96893485,13.2372707 L2.96893485,22.1380601 L2.96893485,22.8655119 L2.96893485,27.5209528 L1.47945445,26.6553416 C0.601557083,26.2054618 0,25.292231 0,24.2373946 L0,11.8569293 C0,10.8218299 0.579312003,9.92238372 1.43057794,9.46404523 C1.43057794,9.46404523 11.9239893,3.40727276 11.9258692,3.41040562 C12.3425728,3.15069092 12.8341577,3 13.3611468,3 C13.8552382,3 14.3176852,3.13252029 14.7168434,3.36184618 Z M17.5980512,20.4360486 C17.5980512,20.7916633 17.3962841,21.0986711 17.1018469,21.2470007 L13.6733572,23.2618373 C13.5351267,23.3496434 13.3717915,23.4007591 13.1963688,23.4007591 C13.007619,23.4007591 12.8325063,23.3414899 12.6880771,23.2401993 L9.28655172,21.2426104 C8.99707339,21.0923992 8.79902558,20.7879002 8.79902558,20.4360486 L8.79902558,16.3094752 C8.79902558,15.9645226 8.98963497,15.6647275 9.27043516,15.5120076 L12.7265089,13.4921535 C12.8647395,13.4071698 13.0268349,13.3573085 13.200398,13.3573085 C13.3631133,13.3573085 13.5156008,13.4012115 13.6473228,13.4780418 L17.1219926,15.5088717 C17.4049623,15.6609644 17.5980512,15.9623275 17.5980512,16.3094752 L17.5980512,16.4741116 L17.5980512,20.4360486 Z M14.1080355,10.1062951 C13.8874187,9.97880041 13.6315906,9.9048723 13.3589357,9.9048723 C13.0672729,9.9048723 12.7952412,9.98913782 12.5652763,10.1335482 C12.5640298,10.1316687 6.76162232,13.4985302 6.76162232,13.4985302 C6.29109789,13.7532063 5.97076736,14.2531608 5.97076736,14.8289229 L5.97076736,29.3100612 L8.94317299,30.933347 L8.94317299,24.312709 L12.4989043,26.3877081 C12.7413334,26.5559259 13.0351775,26.6549143 13.3520804,26.6549143 C13.646236,26.6549143 13.9204489,26.5700223 14.1522835,26.4231059 L19.9076386,23.0637625 C20.4012218,22.815978 20.7405603,22.3038066 20.7405603,21.7114419 L20.7405603,15.103334 L20.7405603,14.8289229 C20.7405603,14.2500282 20.4161789,13.7469412 19.9406688,13.4938314 L14.1080355,10.1062951 Z"/>
    <path fill="#2DBBE9" d="M28.1419955,12 L30.0440513,12 C32.3516721,12 34.2290727,10.0774286 34.2290727,7.71428571 C34.2290727,5.25257143 32.2135664,3.23057143 29.7510998,3.44142857 C29.0597343,1.404 27.1873557,0 25.0220257,0 C22.2523785,0 20,2.36654088 20,4.76453836 C20,4.792728 21.8587283,6 21.8587283,6 C21.8126931,5.772 21.6740086,5.376 21.6740086,5.14285714 C21.6740086,3.252 23.1755942,1.71428571 25.0220257,1.71428571 C26.655858,1.71428571 28.0385891,2.916 28.3106155,4.572 L28.4662983,5.51742857 L29.3660779,5.25428571 C29.6255492,5.178 29.8406593,5.14285714 30.0440513,5.14285714 C31.4284564,5.14285714 32.5550642,6.29657143 32.5550642,7.71428571 C32.5550642,9.132 31.4284564,10.2857143 30.0440513,10.2857143 L27.9596028,10.2857143 C27.9596028,10.2857143 28.0859025,10.4073038 28.1419955,10.9345152 C28.1980886,11.4617266 28.1419955,12 28.1419955,12 Z"/>
  </g>
</svg>
