<svg xmlns="http://www.w3.org/2000/svg" width="36" height="36" viewBox="0 0 36 36">
  <g fill="none" fill-rule="evenodd">
    <rect width="36" height="36" fill="none"/>
    <path fill="#FF4300" d="M14.8606593,0.997544646 C15.8148957,0.446615951 17.3614913,0.446311399 18.3162553,0.997544646 L30.4491165,8.00245535 C31.403353,8.55338405 32.1769145,9.8926228 32.1769145,10.9950893 L32.1769145,25.0049107 C32.1769145,26.1067681 31.4038805,27.4463114 30.4491165,27.9975446 L18.3162553,35.0024554 C17.3620188,35.553384 15.8154232,35.5536886 14.8606593,35.0024554 L2.72779801,27.9975446 C1.77356152,27.446616 1,26.1073772 1,25.0049107 L1,10.9950893 C1,9.8932319 1.77303402,8.5536886 2.72779801,8.00245535 L14.8606593,0.997544646 Z"/>
    <path fill="#DB2F00" d="M1,11.0063775 C1,9.89828582 1.77303402,9.4463114 2.72779801,9.99754465 L16.5884573,18 L16.5884573,34.0049107 C16.5884573,35.1067681 15.8154232,35.5587391 14.8456382,35.0051693 L2.74281911,28.0966749 C1.78028669,27.5472451 1,26.2041709 1,25.0954667 L1,11.0063775 Z"/>
    <path fill="#FF6A00" d="M17,11.0063775 C17,9.89828582 17.773034,9.4463114 18.727798,9.99754465 L32.5884573,18 L32.5884573,34.0049107 C32.5884573,35.1067681 31.8154232,35.5587391 30.8456382,35.0051693 L18.7428191,28.0966749 C17.7802867,27.5472451 17,26.2041709 17,25.0954667 L17,11.0063775 Z" transform="matrix(-1 0 0 1 49.588 0)"/>
    <path fill="#FFFFFF" d="M17.7127545,4.3377231 L27.5404427,10.0252141 C28.3426792,10.450365 28.8888889,11.2945266 28.8888889,12.2664674 L28.8888889,12.7275837 L28.8888889,23.8215683 C28.8888889,24.8163163 28.316697,25.6765599 27.4849751,26.0920617 L17.786614,31.7324761 C17.3974651,31.9778005 17.0963452,31.9991228 16.6029756,32 L16.6029756,28.8742338 C16.9868697,28.8730642 17.1855206,28.8836136 17.4885487,28.6932606 L25.0298047,24.306369 C25.6776077,23.9835584 26.1222242,23.314545 26.1222242,22.5411445 L26.1222242,13.9132695 L26.1222242,13.554786 C26.1222242,12.7989295 25.6974593,12.1424894 25.0741788,11.8111991 L17.4307457,7.38921946 C17.1417304,7.22196611 16.8062974,7.1260586 16.4483856,7.1260586 C16.066535,7.1260586 15.7103748,7.23512415 15.4064708,7.42021396 L7.80332467,11.8176319 C7.18617481,12.1503842 6.76637278,12.8033155 6.76637278,13.554786 L6.76637278,21.8621895 L6.76637278,22.5411445 L6.76637278,26.8862227 L5.37851543,26.0783188 C4.56051453,25.6584311 4,24.8060823 4,23.8215683 L4,12.2664674 C4,11.3003746 4.53978717,10.4608915 5.33297363,10.0331089 C5.33297363,10.0331089 15.110449,4.38012124 15.1122007,4.38304525 C15.5004737,4.14064486 15.9585192,4 16.4495533,4 C16.9099342,4 17.3408298,4.1236856 17.7127545,4.3377231 Z M20.3973856,16.5758375 L20.3973856,20.2736454 C20.3973856,20.6055524 20.2093846,20.892093 19.9350359,21.030534 L19.9350359,21.0308267 L16.7404625,22.9110481 L16.7404625,22.9107554 C16.611663,22.9930005 16.4594717,23.0407085 16.2960177,23.0407085 C16.1201458,23.0407085 15.9569805,22.9853906 15.8224053,22.8908527 L12.6529564,21.0264364 L12.6529564,21.0261437 C12.3832284,20.8862393 12.1986928,20.6020402 12.1986928,20.2736454 L12.1986928,16.4221768 C12.1986928,16.1002211 12.3762975,15.8204123 12.6379394,15.6778737 L15.858215,13.7926766 C15.858215,13.7926766 15.8585038,13.793262 15.8593702,13.7944328 C15.9870145,13.7133585 16.1380506,13.6668212 16.2997719,13.6668212 C16.4513857,13.6668212 16.5934694,13.7077974 16.7162043,13.7795057 L16.7162043,13.779213 L19.9538072,15.6749469 L19.9535184,15.6749469 C20.2174707,15.8169001 20.3973856,16.0981723 20.3973856,16.4221768 L20.3973856,16.5758375 Z M22.580173,13.7942426 L22.580173,13.7939503 L17.1454839,10.6325421 L17.1454839,10.6328344 C16.9399192,10.513547 16.7015455,10.4445475 16.4474931,10.4445475 C16.1757296,10.4445475 15.9222579,10.5231953 15.7079828,10.6579783 C15.7068214,10.6562241 15.7059504,10.6550546 15.7059504,10.6550546 L10.3002958,13.7986282 C9.86187398,14.0363259 9.56339869,14.5029501 9.56339869,15.0403281 L9.56339869,28.5560571 L12.3330055,30.0711239 L12.3330055,23.8918617 L15.6461392,25.8285275 C15.8720281,25.9855308 16.145824,26.0779201 16.4411055,26.0779201 C16.7151917,26.0779201 16.9706959,25.9986875 17.186713,25.8615655 L17.1870033,25.8615655 L22.5493964,22.7261783 C22.5493964,22.7261783 22.549106,22.7258859 22.549106,22.7255936 C23.0093038,22.4949128 23.3254902,22.0168861 23.3254902,21.4640125 L23.3254902,15.2964451 L23.3254902,15.0403281 C23.3254902,14.5000264 23.0232404,14.0304784 22.580173,13.7942426 L22.580173,13.7942426 Z"/>
    <circle cx="26" cy="10" r="10" fill="#FFFFFF"/>
    <circle cx="26" cy="10" r="9" fill="#23445B"/>
    <path fill="#FFFFFF" d="M27,17 L27,14 L25,14 L25,17 L22,17 L22,3 L30,3 L30,17 L27,17 Z M23,4 L23,6 L25,6 L25,4 L23,4 Z M23,7 L23,9 L25,9 L25,7 L23,7 Z M23,10 L23,12 L25,12 L25,10 L23,10 Z M27,4 L27,6 L29,6 L29,4 L27,4 Z M27,7 L27,9 L29,9 L29,7 L27,7 Z M27,10 L27,12 L29,12 L29,10 L27,10 Z"/>
  </g>
</svg>
