<svg xmlns="http://www.w3.org/2000/svg" width="36" height="36" viewBox="0 0 36 36">
  <g fill="none" fill-rule="evenodd">
    <rect width="36" height="36" fill="none"/>
    <path fill="#FF4300" d="M14.8606593,0.997544646 C15.8148957,0.446615951 17.3614913,0.446311399 18.3162553,0.997544646 L30.4491165,8.00245535 C31.403353,8.55338405 32.1769145,9.8926228 32.1769145,10.9950893 L32.1769145,25.0049107 C32.1769145,26.1067681 31.4038805,27.4463114 30.4491165,27.9975446 L18.3162553,35.0024554 C17.3620188,35.553384 15.8154232,35.5536886 14.8606593,35.0024554 L2.72779801,27.9975446 C1.77356152,27.446616 1,26.1073772 1,25.0049107 L1,10.9950893 C1,9.8932319 1.77303402,8.5536886 2.72779801,8.00245535 L14.8606593,0.997544646 Z"/>
    <path fill="#DB2F00" d="M1,11.0063775 C1,9.89828582 1.77303402,9.4463114 2.72779801,9.99754465 L16.5884573,18 L16.5884573,34.0049107 C16.5884573,35.1067681 15.8154232,35.5587391 14.8456382,35.0051693 L2.74281911,28.0966749 C1.78028669,27.5472451 1,26.2041709 1,25.0954667 L1,11.0063775 Z"/>
    <path fill="#FF6A00" d="M17,11.0063775 C17,9.89828582 17.773034,9.4463114 18.727798,9.99754465 L32.5884573,18 L32.5884573,34.0049107 C32.5884573,35.1067681 31.8154232,35.5587391 30.8456382,35.0051693 L18.7428191,28.0966749 C17.7802867,27.5472451 17,26.2041709 17,25.0954667 L17,11.0063775 Z" transform="matrix(-1 0 0 1 49.588 0)"/>
    <path fill="#FFFFFF" d="M17.7127545,4.3377231 L27.5404427,10.0252141 C28.3426792,10.450365 28.8888889,11.2945266 28.8888889,12.2664674 L28.8888889,12.7275837 L28.8888889,23.8215683 C28.8888889,24.8163163 28.316697,25.6765599 27.4849751,26.0920617 L17.786614,31.7324761 C17.3974651,31.9778005 17.0963452,31.9991228 16.6029756,32 L16.6029756,28.8742338 C16.9868697,28.8730642 17.1855206,28.8836136 17.4885487,28.6932606 L25.0298047,24.306369 C25.6776077,23.9835584 26.1222242,23.314545 26.1222242,22.5411445 L26.1222242,13.9132695 L26.1222242,13.554786 C26.1222242,12.7989295 25.6974593,12.1424894 25.0741788,11.8111991 L17.4307457,7.38921946 C17.1417304,7.22196611 16.8062974,7.1260586 16.4483856,7.1260586 C16.066535,7.1260586 15.7103748,7.23512415 15.4064708,7.42021396 L7.80332467,11.8176319 C7.18617481,12.1503842 6.76637278,12.8033155 6.76637278,13.554786 L6.76637278,21.8621895 L6.76637278,22.5411445 L6.76637278,26.8862227 L5.37851543,26.0783188 C4.56051453,25.6584311 4,24.8060823 4,23.8215683 L4,12.2664674 C4,11.3003746 4.53978717,10.4608915 5.33297363,10.0331089 C5.33297363,10.0331089 15.110449,4.38012124 15.1122007,4.38304525 C15.5004737,4.14064486 15.9585192,4 16.4495533,4 C16.9099342,4 17.3408298,4.1236856 17.7127545,4.3377231 Z M20.3973856,16.5758375 L20.3973856,20.2736454 C20.3973856,20.6055524 20.2093846,20.892093 19.9350359,21.030534 L19.9350359,21.0308267 L16.7404625,22.9110481 L16.7404625,22.9107554 C16.611663,22.9930005 16.4594717,23.0407085 16.2960177,23.0407085 C16.1201458,23.0407085 15.9569805,22.9853906 15.8224053,22.8908527 L12.6529564,21.0264364 L12.6529564,21.0261437 C12.3832284,20.8862393 12.1986928,20.6020402 12.1986928,20.2736454 L12.1986928,16.4221768 C12.1986928,16.1002211 12.3762975,15.8204123 12.6379394,15.6778737 L15.858215,13.7926766 C15.858215,13.7926766 15.8585038,13.793262 15.8593702,13.7944328 C15.9870145,13.7133585 16.1380506,13.6668212 16.2997719,13.6668212 C16.4513857,13.6668212 16.5934694,13.7077974 16.7162043,13.7795057 L16.7162043,13.779213 L19.9538072,15.6749469 L19.9535184,15.6749469 C20.2174707,15.8169001 20.3973856,16.0981723 20.3973856,16.4221768 L20.3973856,16.5758375 Z M22.580173,13.7942426 L22.580173,13.7939503 L17.1454839,10.6325421 L17.1454839,10.6328344 C16.9399192,10.513547 16.7015455,10.4445475 16.4474931,10.4445475 C16.1757296,10.4445475 15.9222579,10.5231953 15.7079828,10.6579783 C15.7068214,10.6562241 15.7059504,10.6550546 15.7059504,10.6550546 L10.3002958,13.7986282 C9.86187398,14.0363259 9.56339869,14.5029501 9.56339869,15.0403281 L9.56339869,28.5560571 L12.3330055,30.0711239 L12.3330055,23.8918617 L15.6461392,25.8285275 C15.8720281,25.9855308 16.145824,26.0779201 16.4411055,26.0779201 C16.7151917,26.0779201 16.9706959,25.9986875 17.186713,25.8615655 L17.1870033,25.8615655 L22.5493964,22.7261783 C22.5493964,22.7261783 22.549106,22.7258859 22.549106,22.7255936 C23.0093038,22.4949128 23.3254902,22.0168861 23.3254902,21.4640125 L23.3254902,15.2964451 L23.3254902,15.0403281 C23.3254902,14.5000264 23.0232404,14.0304784 22.580173,13.7942426 L22.580173,13.7942426 Z"/>
    <circle cx="26" cy="10" r="10" fill="#FFFFFF"/>
    <circle cx="26" cy="10" r="9" fill="#00ADCA"/>
    <path fill="#FFFFFF" fill-rule="nonzero" d="M23.6362057,4.32594298 C24.1686402,3.52643138 25.0822953,3 26.1219608,3 C26.1333909,3 26.1448067,3.00006467 26.1562078,3.00019365 C26.1676089,3.00006467 26.1790247,3 26.1904548,3 C27.2301203,3 28.1437754,3.52643138 28.6762099,4.32594298 C28.8811141,4.26164047 29.0957905,4.22948921 29.3104669,4.22948921 C29.9511786,4.22948921 30.5277816,4.53709107 30.8959467,5.00901687 C30.9278405,5.05114694 30.9607625,5.0971188 30.9912337,5.14414574 C31.105403,5.32034547 31.2427747,5.60285482 31.2209354,5.60285482 C31.2868136,5.79904991 31.3263406,6.00832467 31.3263406,6.2306791 C31.3263406,6.97622043 31.0760033,7.70868209 30.680734,8.21878932 C31.4712727,8.4149844 32.1695818,8.67657785 32.6307294,9.39595984 C32.6307294,9.39595984 32.7452454,9.55128622 32.8077046,9.70609942 C32.8595201,9.83453061 32.9378428,10.0605413 32.9630323,10.1338415 L33.2895117,11.305592 C33.3422142,11.4756278 33.3026873,11.6587432 33.1841065,11.8026196 C33.0787013,11.946496 32.9205936,12.024974 32.7361346,12.024974 L31.3395162,12.024974 C31.3790431,12.1165317 31.4053944,12.2080894 31.4317457,12.2996471 L31.9851228,14.222359 C32.0378254,14.4447134 31.9982985,14.6801475 31.8533664,14.8632629 C31.7084343,15.0463783 31.497624,15.1510157 31.273638,15.1510157 L21.0387776,15.1510157 C20.8147916,15.1510157 20.6039813,15.0463783 20.4590492,14.8632629 C20.3141171,14.6801475 20.2745902,14.4447134 20.3272928,14.222359 L20.8806699,12.2996471 C20.9070212,12.2080894 20.9333724,12.1165317 20.9728994,12.024974 L19.576281,12.024974 C19.391822,12.024974 19.2337143,11.946496 19.1283091,11.8026196 C19.0097283,11.6587432 18.9702014,11.4756278 19.0229039,11.305592 L19.3493833,10.1338415 C19.3745728,10.0605413 19.4528955,9.83453061 19.5047109,9.70609942 C19.5671702,9.55128622 19.6816862,9.39595984 19.6816862,9.39595984 C20.1428338,8.67657785 20.8411429,8.4149844 21.6316816,8.21878932 C21.2364123,7.70868209 20.986075,6.97622043 20.986075,6.2306791 C20.986075,6.00832467 21.025602,5.79904991 21.0914802,5.60285482 C21.0696409,5.60285482 21.2070126,5.32034547 21.3211819,5.14414574 C21.3516531,5.0971188 21.3845751,5.05114694 21.4164689,5.00901687 C21.7846339,4.53709107 22.361237,4.22948921 23.0019487,4.22948921 C23.2166251,4.22948921 23.4313015,4.26164047 23.6362057,4.32594298 L23.6362057,4.32594298 Z M28.9326893,4.80016099 C29.0843161,5.15505002 29.1681505,5.54564003 29.1681505,5.95600598 C29.1681505,8.15339095 27.7715322,10.0761028 26.1904548,10.0761028 C26.1790263,10.0761028 26.1676105,10.0760076 26.1562078,10.0758177 C26.1448051,10.0760076 26.1333893,10.0761028 26.1219608,10.0761028 C24.5408834,10.0761028 23.1442651,8.15339095 23.1442651,5.95600598 C23.1442651,5.54564003 23.2280995,5.15505002 23.3797263,4.80016099 C23.2578863,4.77107641 23.1345513,4.75267611 23.0019487,4.75267611 C22.1850587,4.75267611 21.5131008,5.41973941 21.5131008,6.2306791 C21.5131008,7.14625617 21.9478971,8.0356739 22.5539768,8.34958604 C22.6857332,8.4149844 22.7384358,8.57194047 22.6725576,8.7027372 C22.619855,8.79429491 22.5276255,8.8466136 22.435396,8.8466136 C22.395869,8.8466136 22.3563421,8.8466136 22.3168152,8.82045425 C22.21141,8.76813556 22.1060048,8.7027372 22.0137753,8.62425916 C21.987424,8.65041851 21.9478971,8.67657785 21.8951945,8.68965753 C20.7620891,8.97741032 20.1823607,9.26516312 19.8793209,10.2199792 L19.5367541,11.4363887 C19.5367541,11.4625481 19.5499297,11.4756278 19.5499297,11.4887074 C19.5631054,11.5017871 19.5631054,11.5017871 19.576281,11.5017871 L21.2364123,11.5017871 C21.6712086,10.8216441 22.3563421,10.3115369 23.1600564,10.1022622 L23.3181642,10.0630231 C23.3964835,10.0414262 23.4776766,10.0355199 23.5574729,10.044362 C23.7669666,10.0209054 23.9842295,10.1025332 24.1324384,10.2722979 C24.6944494,10.9062947 25.4050517,10.9748404 26.1562078,10.9784379 C26.9073639,10.9748404 27.6179662,10.9062947 28.1799771,10.2722979 C28.3281861,10.1025332 28.545449,10.0209054 28.7549427,10.044362 C28.834739,10.0355199 28.9159321,10.0414262 28.9942514,10.0630231 L29.1523592,10.1022622 C29.9560735,10.3115369 30.641207,10.8216441 31.0760033,11.5017871 L32.7361346,11.5017871 C32.7493102,11.5017871 32.7493102,11.5017871 32.7624859,11.4887074 C32.7624859,11.4756278 32.7756615,11.4625481 32.7756615,11.4363887 L32.4330947,10.2199792 C32.1300549,9.26516312 31.5503265,8.97741032 30.4172211,8.68965753 C30.3645185,8.67657785 30.3249916,8.65041851 30.2986403,8.62425916 C30.2064108,8.7027372 30.1010056,8.76813556 29.9956004,8.82045425 C29.9560735,8.8466136 29.9165466,8.8466136 29.8770196,8.8466136 C29.7847901,8.8466136 29.6925606,8.79429491 29.639858,8.7027372 C29.5739798,8.57194047 29.6266824,8.4149844 29.7584388,8.34958604 C30.3645185,8.0356739 30.7993148,7.14625617 30.7993148,6.2306791 C30.7993148,5.41973941 30.1273569,4.75267611 29.3104669,4.75267611 C29.1778643,4.75267611 29.0545293,4.77107641 28.9326893,4.80016099 L28.9326893,4.80016099 Z M20.9702837,14.5493508 C20.996635,14.5755101 21.0493375,14.6278288 21.1415671,14.6278288 L31.273638,14.6278288 C31.3658675,14.6278288 31.4185701,14.5755101 31.4449214,14.5493508 C31.4844483,14.4970321 31.497624,14.4185541 31.4844483,14.3662354 L30.9310712,12.4566032 C30.6675583,11.5541058 29.9428979,10.8478035 29.0206027,10.6123694 L28.862495,10.5731304 C28.822968,10.5600507 28.7570898,10.58621 28.7175629,10.6254491 C27.9929024,11.4494684 27.0969586,11.5148668 26.227366,11.5148668 C25.3577734,11.5148668 24.4618296,11.4494684 23.7371691,10.6254491 C23.6976422,10.58621 23.6449396,10.5600507 23.5790614,10.5731304 L23.4209536,10.6123694 C22.5118341,10.8478035 21.773998,11.5541058 21.5104851,12.4566032 L21.2733235,13.2675429 C21.2601479,13.3067819 21.2469722,13.3329413 21.2206209,13.3591006 L20.9307567,14.3531557 C20.9175811,14.4185541 20.9307567,14.4970321 20.9702837,14.5493508 Z M23.6712909,5.94292631 C23.6712909,7.86563816 24.817572,9.55291591 26.1219608,9.55291591 C27.3736471,9.55291591 28.4672256,7.99643489 28.5594551,6.16528074 C28.5589134,6.15626721 28.5791273,6.04463335 28.5692912,5.9244239 C28.5594551,5.80421445 28.5456086,5.71652117 28.5331038,5.64209384 C28.4935769,5.36742072 28.414523,5.10582727 28.2959422,4.85731349 C28.2827666,4.84423382 28.2695909,4.83115415 28.2564153,4.8049948 C28.2432397,4.79191513 28.2432397,4.76575578 28.230064,4.75267611 C27.821619,4.02021445 27.0310803,3.5231869 26.1219608,3.5231869 C25.0283823,3.5231869 24.1060872,4.24256889 23.7898717,5.22354432 C23.7744445,5.27233352 23.744063,5.36754081 23.7223364,5.4884825 C23.7006098,5.60942418 23.6825747,5.7308299 23.6825747,5.7308299 C23.6712909,5.80490958 23.6712909,5.86794846 23.6712909,5.94292631 Z"/>
  </g>
</svg>
