<svg xmlns="http://www.w3.org/2000/svg" width="114" height="31" viewBox="0 0 114 31">
  <g fill="none" fill-rule="evenodd">
    <rect width="114" height="31" fill="none"/>
    <path fill="#264063" d="M56.8568294,15.1989948 C57.2068937,15.6031835 57.6289796,15.8932066 58.1225972,16.0659914 C58.6189095,16.2416125 59.087785,16.3931242 59.5422071,16.5209991 C59.9973642,16.651474 60.3831944,16.8027494 60.7028822,16.9705704 C61.0198753,17.1461916 61.1803317,17.3723954 61.1803317,17.654382 C61.1803317,17.9628418 61.0754839,18.1942458 60.876567,18.3485939 C60.6729957,18.5027056 60.2344967,18.5747977 59.5671942,18.5747977 C58.5221457,18.5747977 57.5464242,18.2951748 56.6336603,17.7314379 C56.6336603,17.7314379 56.0628767,17.7446745 56.0628767,18.6464171 C56.0628767,19.7559269 56.6336603,19.9209115 56.6336603,19.9209115 C57.6289796,20.5087579 58.718123,20.796181 59.9006005,20.796181 C61.0531915,20.796181 61.977224,20.5111216 62.6773526,19.9365118 C63.3801759,19.3623748 63.7304852,18.638617 63.7304852,17.7659476 C63.7304852,17.0424262 63.5541057,16.4439432 63.2037964,15.9728625 C62.8539771,15.5020181 62.4348308,15.1722852 61.9409683,14.9701909 C61.4473506,14.7732966 60.9676964,14.6161121 60.515724,14.4991101 C60.0603219,14.3849445 59.6747367,14.2490331 59.3579886,14.0946851 C59.0407504,13.940337 58.8834787,13.7330425 58.8834787,13.4616925 C58.8834787,12.9241924 59.4376043,12.6528423 60.5539395,12.6528423 C61.4422062,12.6528423 62.2388536,12.806954 62.9419219,13.1132865 C62.9419219,13.1132865 63.5541057,13.0494673 63.6369061,12.3148366 C63.7028034,11.7562998 62.9419219,11.200363 62.9419219,11.200363 C62.0926056,10.6895725 61.160734,10.431459 60.1492466,10.431459 C59.0596132,10.431459 58.1527287,10.7134457 57.427858,11.2696188 C56.6971079,11.8281555 56.3333252,12.6263691 56.3333252,13.6663868 C56.3333252,14.2835428 56.5065201,14.7917333 56.8568294,15.1989948 L56.8568294,15.1989948 Z M75.8502535,11.8981546 C75.8502535,11.2152583 75.2527788,10.6670209 74.4975147,10.6670209 C73.7422506,10.6670209 73.1294892,11.2232207 73.1294892,11.9058828 L73.1294892,19.5577874 C73.1294892,20.2427914 73.7422506,20.796181 74.4975147,20.796181 C75.2527788,20.796181 75.8502535,20.2507539 75.8502535,19.5655157 L75.8502535,11.8981546 L75.8502535,11.8981546 Z M33.8721884,20.5191169 C34.3977541,20.6430715 34.9365139,20.7063376 35.4948206,20.7063376 C37.0153206,20.7063376 38.1844661,20.2737851 39.0037231,19.4112577 C39.8234688,18.5463871 40.2329752,17.3040289 40.2329752,15.6876979 C40.2329752,14.796115 40.1093414,14.0102098 39.8698926,13.3299824 C39.6306881,12.6495206 39.3501909,12.1326134 39.0230256,11.7818382 C38.6983037,11.4284854 38.3054122,11.1435538 37.8511924,10.9221226 C37.395018,10.7006913 36.9960181,10.5661923 36.6632331,10.5132363 C36.3253171,10.4579371 35.9869124,10.431459 35.6489963,10.431459 C34.1771191,10.431459 33.0939797,10.7611456 32.3844294,11.4153636 C31.677811,12.0719248 31.3286556,12.8524407 31.3286556,13.7623005 L31.3286556,23.0900626 C31.3286556,23.7759137 31.9057761,24.3296089 32.6180141,24.3296089 C33.3302522,24.3296089 33.8941786,23.7838805 33.8941786,23.0982637 L33.8721884,20.5191169 L33.8721884,20.5191169 Z M33.8020777,13.5816308 C33.8020777,12.8948092 34.4149151,12.5515158 35.64439,12.5515158 C36.4282341,12.5515158 36.9757089,12.8049382 37.2890946,13.3016929 C37.6027336,13.8007942 37.759553,14.6117458 37.759553,15.7338437 C37.759553,16.8273142 37.5487714,17.5932129 37.1325284,18.0263774 C36.7107119,18.4618885 36.1062348,18.6761242 35.3135237,18.6761242 C34.8742264,18.6761242 34.3695666,18.6416306 33.8020777,18.5649 L33.8020777,13.5816308 L33.8020777,13.5816308 Z M44.9324772,8.61203897 C44.9324772,7.92002415 44.3322629,7.36915482 43.578048,7.36915482 C42.8233154,7.36915482 42.2117128,7.92806258 42.2117128,8.6200774 L42.2117128,19.5459677 C42.2117128,20.2375097 42.8233154,20.796181 43.578048,20.796181 C44.3322629,20.796181 44.9324772,20.2455481 44.9324772,19.5537697 L44.9324772,8.61203897 L44.9324772,8.61203897 Z M70.1841279,12.7235952 C70.8241516,12.7235952 71.34594,12.2358904 71.34594,11.6342864 C71.34594,11.0303387 70.8241516,10.5423996 70.1841279,10.5423996 L68.8083902,10.5423996 L68.8083902,8.55877005 C68.7800839,7.8967009 68.1994284,7.36915482 67.4860087,7.36915482 C66.775595,7.36915482 66.1919335,7.8967009 66.1666331,8.55877005 L66.1666331,10.5423996 L65.6365783,10.5423996 C64.9935487,10.5423996 64.4725118,11.0303387 64.4725118,11.6342864 C64.4725118,12.2358904 64.9935487,12.7235952 65.6365783,12.7235952 L66.1666331,12.7235952 L66.1666331,17.4056545 C66.1666331,18.4028596 66.5108181,19.1413303 67.102746,19.708249 C67.6889125,20.2782144 68.4980226,20.5606191 69.5270704,20.5606191 L69.5410983,20.5606191 C70.1164934,20.5606191 70.6465482,20.4521101 71.1342687,20.2463413 C71.1342687,20.2463413 71.8927782,20.0935381 71.8927782,18.9489202 C71.8927782,18.0677237 71.1342687,18.2022468 71.1342687,18.2022468 C70.8043622,18.3395822 70.426861,18.4028596 70.0010135,18.4028596 C69.5441043,18.4028596 69.253526,18.3341919 69.0734176,18.1945129 C68.8930587,18.0574118 68.8083902,17.7855533 68.8083902,17.3794061 L68.8083902,12.7235952 L70.1841279,12.7235952 L70.1841279,12.7235952 Z M73.1294892,8.54696413 C73.1294892,9.19735804 73.6817973,9.72477344 74.3662003,9.72477344 C75.0503591,9.72477344 75.6029113,9.19735804 75.6029113,8.54696413 C75.6029113,7.89680225 75.0503591,7.36915482 74.3662003,7.36915482 C73.6817973,7.36915482 73.1294892,7.89680225 73.1294892,8.54696413 L73.1294892,8.54696413 Z M78.4112791,19.4578673 C79.2900673,20.3544098 80.5240251,20.796181 82.1046425,20.796181 C83.1210933,20.796181 84.1242785,20.5513041 85.1101933,20.0565866 C85.1101933,20.0565866 85.743942,19.8438557 85.743942,18.859148 C85.743942,17.8751494 85.1101933,18.0826802 85.1101933,18.0826802 C84.2451713,18.4150132 83.3831529,18.5747977 82.5241381,18.5747977 C81.5632529,18.5747977 80.8536646,18.372467 80.3916187,17.9628418 C79.9265693,17.5532167 79.696047,16.7708397 79.696047,15.6218565 C79.696047,14.4539639 79.9265693,13.6663868 80.3916187,13.2621981 C80.8536646,12.8577731 81.5632529,12.6528423 82.5241381,12.6528423 C83.4226996,12.6528423 84.2877216,12.8178269 85.1101933,13.1477962 C85.1101933,13.1477962 85.743942,13.3286175 85.743942,12.3734557 C85.743942,11.4211304 85.1101933,11.1710534 85.1101933,11.1710534 C84.1242785,10.678936 83.1210933,10.431459 82.1046425,10.431459 C80.5240251,10.431459 79.2900673,10.8786666 78.4112791,11.7697727 C77.5294874,12.6608788 77.0869646,13.9457734 77.0869646,15.6218565 C77.0869646,17.2870667 77.5294874,18.5693613 78.4112791,19.4578673 L78.4112791,19.4578673 Z M51.4080094,15.8493819 C51.8039132,15.8568304 52.2854178,15.892493 52.8474279,15.9635924 L52.8474279,17.0892211 C52.8474279,17.9932 52.2482222,18.4405624 51.0470083,18.4405624 L51.0268819,18.4405624 C49.7652889,18.4405624 49.1372948,17.9654374 49.1372948,17.0102217 C49.1400972,16.2355761 49.897002,15.8493819 51.4080094,15.8493819 L51.4080094,15.8493819 Z M47.5755387,11.6712074 C47.5755387,11.2083995 47.9250265,10.7746649 48.3818798,10.6763359 C48.3985104,10.6602629 48.4288368,10.6602629 48.4479132,10.6550628 C49.1168069,10.5059148 49.8329024,10.431459 50.5976668,10.431459 C52.0457546,10.431459 53.1494905,10.7987744 53.9176789,11.5303323 C54.6851337,12.2644902 55.0735078,13.3208173 55.0735078,14.7014408 L55.0735078,17.4147052 C55.0735078,18.3405574 54.7213297,19.1359345 54.0216204,19.7984731 C53.3228893,20.4662117 52.246545,20.796181 50.7960116,20.796181 C49.2904503,20.796181 48.1864698,20.4662117 47.4762441,19.7984731 C46.7689531,19.1307345 46.4165304,18.3166842 46.4165304,17.3617589 C46.4165304,17.1539917 46.4356067,16.9410244 46.4744931,16.7259299 C46.5158251,16.5103626 46.6175654,16.2361761 46.788274,15.9036068 C46.9560477,15.5767103 47.1898548,15.2864508 47.4843148,15.0392102 C47.7792639,14.7917333 48.2138615,14.576166 48.78664,14.4007812 C49.3591739,14.22256 50.0361385,14.1348676 50.8150879,14.1348676 C51.3411539,14.1348676 51.9026823,14.1800138 52.5052981,14.2677062 C52.5052981,13.0279578 51.8253987,12.4053654 50.4658446,12.4053654 C49.9811106,12.4053654 49.4665393,12.4746211 49.0067513,12.5519133 C48.8776193,12.6128962 48.7316122,12.6476422 48.5772897,12.6476422 C48.0353268,12.6476422 47.5755387,12.1952345 47.5755387,11.6712074 Z M87.9519519,13.2612269 C87.9519519,12.7004499 88.0275838,12.2246728 88.1788498,11.8338813 C88.3301158,11.4430899 88.5332665,11.1583245 88.788308,10.9795769 C89.0433496,10.8008292 89.2860751,10.6772849 89.5164919,10.6089402 C89.7469088,10.5405955 89.9887549,10.5064236 90.2420375,10.5064236 C90.7028711,10.5064236 91.0898249,10.5703863 91.4029103,10.6983136 C91.7159958,10.8262408 91.9358559,10.9909666 92.0624972,11.1924958 C92.1891385,11.3940251 92.2744442,11.5683891 92.3184169,11.715593 C92.3623896,11.862797 92.3843756,12.0082463 92.3843756,12.1519455 L92.3843756,16.2000343 C92.3843756,16.4383645 92.3500774,16.6574147 92.28148,16.8571915 C92.2128827,17.0569683 92.0994349,17.2523612 91.9411332,17.4433758 C91.7828316,17.6343905 91.5409855,17.7833446 91.2155877,17.8902428 C90.8901899,17.9971409 90.49708,18.0505891 90.0362464,18.0505891 C89.533199,18.0505891 89.0213647,17.9857503 88.5007282,17.8560706 L88.5007282,17.1253117 C88.9615618,17.2549914 89.445254,17.3198303 89.9518193,17.3198303 C90.296565,17.3198303 90.5859009,17.2891632 90.8198356,17.2278282 C91.0537702,17.1664932 91.2235022,17.0788732 91.3290366,16.9649653 C91.434571,16.8510575 91.5066851,16.7380276 91.5453811,16.6258722 C91.5840771,16.5137168 91.6034247,16.3787818 91.6034247,16.2210633 L91.6034247,15.684823 C91.1988761,15.8145026 90.7767448,15.8793415 90.337018,15.8793415 C90.0978066,15.8793415 89.8744288,15.8591889 89.6668777,15.818883 C89.4593267,15.7785772 89.2473816,15.6988429 89.031036,15.5796778 C88.8146904,15.4605127 88.6291285,15.3063013 88.4743447,15.1170391 C88.3195609,14.9277768 88.1938009,14.675431 88.097061,14.3599939 C88.0003211,14.0445568 87.9519519,13.6783048 87.9519519,13.2612269 Z M88.7276261,13.2612269 C88.7276261,13.6642854 88.7707186,13.9963656 88.8569051,14.2574774 C88.9430915,14.5185892 89.0697309,14.7122296 89.2368271,14.8384044 C89.4039233,14.9645792 89.5718964,15.0486945 89.7407515,15.0907528 C89.9096065,15.1328111 90.1083601,15.1538399 90.337018,15.1538399 C90.7697091,15.1538399 91.1918405,15.071477 91.6034247,14.9067487 L91.6034247,12.1204019 C91.6034247,11.5175666 91.1496335,11.2161535 90.2420375,11.2161535 C90.0485577,11.2161535 89.8761874,11.2389347 89.7249214,11.2844979 C89.5736554,11.330061 89.4153561,11.4176811 89.2500188,11.5473608 C89.0846816,11.6770404 88.9562833,11.8873287 88.8648201,12.1782317 C88.773357,12.4691348 88.7276261,12.8301296 88.7276261,13.2612269 Z M94.0412578,15.9739722 L94.0412578,8.55598085 L94.8169319,8.55598085 L94.8169319,15.9739722 L94.0412578,15.9739722 Z M96.4790908,13.7133511 L96.4790908,10.6010543 L97.2547649,10.6010543 L97.2547649,13.7554092 C97.2547649,14.3021668 97.3743688,14.7025906 97.6135802,14.9566927 C97.8527915,15.2107948 98.2274331,15.3378439 98.7375162,15.3378439 C99.2405636,15.3378439 99.6134463,15.2107948 99.8561755,14.9566927 C100.098905,14.7025906 100.220267,14.3021668 100.220267,13.7554092 L100.220267,10.6010543 L100.995942,10.6010543 L100.995942,13.7133511 C100.995942,14.4598855 100.799826,15.0373019 100.40759,15.4456177 C100.015354,15.8539335 99.4586681,16.0580883 98.7375162,16.0580883 C98.0163643,16.0580883 97.4596785,15.8539335 97.0674423,15.4456177 C96.675206,15.0373019 96.4790908,14.4598855 96.4790908,13.7133511 Z M102.204305,13.282256 C102.204305,12.7354984 102.279937,12.2702357 102.431203,11.8864539 C102.582469,11.5026721 102.788258,11.2161544 103.048576,11.0268922 C103.308894,10.83763 103.573606,10.7035712 103.842718,10.6247119 C104.111831,10.5458527 104.409082,10.5064236 104.73448,10.5064236 C105.059878,10.5064236 105.358887,10.5458527 105.631518,10.6247119 C105.904149,10.7035712 106.170619,10.83763 106.430937,11.0268922 C106.691255,11.2161544 106.897045,11.5026721 107.048311,11.8864539 C107.199577,12.2702357 107.275208,12.7354984 107.275208,13.282256 C107.275208,13.8290135 107.199577,14.2942762 107.048311,14.678058 C106.897045,15.0618398 106.691255,15.3483575 106.430937,15.5376197 C106.170619,15.726882 105.904149,15.8609407 105.631518,15.9398 C105.358887,16.0186592 105.059878,16.0580883 104.73448,16.0580883 C104.409082,16.0580883 104.111831,16.0186592 103.842718,15.9398 C103.573606,15.8609407 103.308894,15.726882 103.048576,15.5376197 C102.788258,15.3483575 102.582469,15.0618398 102.431203,14.678058 C102.279937,14.2942762 102.204305,13.8290135 102.204305,13.282256 Z M102.985256,13.282256 C102.985256,14.0007515 103.124207,14.5247197 103.402114,14.8541762 C103.680022,15.1836327 104.125019,15.3483584 104.737118,15.3483584 C105.349218,15.3483584 105.795094,15.1853851 106.07476,14.8594334 C106.354427,14.5334818 106.494258,14.0077612 106.494258,13.282256 C106.494258,12.5567507 106.354427,12.0310301 106.07476,11.7050785 C105.795094,11.3791269 105.349218,11.2161535 104.737118,11.2161535 C104.125019,11.2161535 103.680022,11.3808793 103.402114,11.7103358 C103.124207,12.0397923 102.985256,12.5637604 102.985256,13.282256 Z M108.515232,15.9739722 L108.515232,11.0321495 C109.222312,10.6816638 109.982149,10.5064236 110.794764,10.5064236 C111.473702,10.5064236 112.000487,10.678159 112.375134,11.0216349 C112.749781,11.3651109 112.937102,11.8487738 112.937102,12.4726382 L112.937102,15.9739722 L112.156151,15.9739722 L112.156151,12.4726382 C112.156151,12.3219294 112.140321,12.1878706 112.108661,12.070458 C112.077001,11.9530453 112.01544,11.8277485 111.923977,11.694564 C111.832513,11.5613795 111.684767,11.4588639 111.480734,11.3870144 C111.276701,11.3151648 111.019904,11.2792406 110.710337,11.2792406 C110.256539,11.2792406 109.7834,11.3510891 109.290906,11.4947882 L109.290906,15.9739722 L108.515232,15.9739722 Z"/>
    <path fill="#F25335" fill-rule="nonzero" d="M12.8155009,2.45375793 L2.62701177,8.35823456 C2.25500283,8.57382276 1.90534817,9.18197556 1.90534817,9.61421697 L1.90534817,21.4231702 C1.90534817,21.8556648 2.25522046,22.4636906 2.62701177,22.6791526 L12.8155009,28.5836293 C13.1865019,28.7986333 13.883471,28.7985074 14.2542547,28.5836293 L24.4427438,22.6791526 C24.8147528,22.4635644 25.1644074,21.8554116 25.1644074,21.4231702 L25.1644074,9.61421697 C25.1644074,9.18172235 24.8145351,8.57369664 24.4427438,8.35823456 L14.2542547,2.45375793 C13.8832537,2.23875385 13.1862846,2.23887976 12.8155009,2.45375793 Z M12.0023722,1.05066102 C12.875971,0.544389316 14.193374,0.544151338 15.0673834,1.05066102 L25.2558725,6.95513764 C26.1284638,7.46082544 26.7860915,8.60368408 26.7860915,9.61421697 L26.7860915,21.4231702 C26.7860915,22.4332286 26.128874,23.576324 25.2558725,24.0822496 L15.0673834,29.9867262 C14.1937846,30.4929979 12.8763816,30.4932359 12.0023722,29.9867262 L1.81388307,24.0822496 C0.941291827,23.5765618 0.283664098,22.4337031 0.283664098,21.4231702 L0.283664098,9.61421697 C0.283664098,8.60415863 0.94088157,7.46106319 1.81388307,6.95513764 L12.0023722,1.05066102 Z"/>
    <path fill="#F25335" d="M15.0577754,10.6268311 C14.8522975,10.482004 14.6524538,10.3133032 14.5681757,10.1589766 C14.4363633,9.91760692 14.4749724,9.65199446 14.5187484,9.49435227 C14.5994766,9.30556614 14.6441834,9.09757275 14.6441834,8.87909384 C14.6441834,8.01716618 13.9483646,7.31843575 13.0900287,7.31843575 C12.2316927,7.31843575 11.5358739,8.01716618 11.5358739,8.87909384 C11.5358739,9.0447653 11.5615808,9.20440746 11.6092076,9.3542174 L11.6080737,9.3542174 C11.6080737,9.3542174 11.6090736,9.35603398 11.6109154,9.35955609 C11.6346837,9.43339515 11.6637829,9.5048271 11.6977572,9.57339446 C11.7610387,9.77121609 11.8161554,10.0762604 11.7017467,10.3751788 C11.6057116,10.6260921 11.3719934,10.8309451 11.1622762,10.973073 C11.0312675,11.0395 10.9035835,11.1115755 10.7795416,11.1889808 C10.7712549,11.1927177 10.7668124,11.1946169 10.7668124,11.1946169 L10.7707975,11.1944499 C10.7676171,11.1964438 10.764439,11.1984411 10.7612634,11.200442 C10.4807207,10.9230458 10.0957097,10.7518836 9.67088825,10.7518836 C8.8125523,10.7518836 8.11673352,11.450614 8.11673352,12.3125416 C8.11673352,12.8405959 8.37789645,13.307397 8.77759253,13.589802 L8.77759253,13.589802 C8.55173153,14.1603204 8.42756447,14.782528 8.42756447,15.4338578 C8.42756447,15.5606034 8.43226634,15.6862462 8.44150447,15.81062 C8.44263568,16.0554384 8.44103717,17.0619753 8.34067621,17.2829764 C8.22827679,17.5304869 7.82923086,17.6359067 7.814807,17.6396457 C6.75603934,17.7872395 5.94091691,18.6998807 5.94091691,19.8037005 C5.94091691,21.0103992 6.91506319,21.9886218 8.11673352,21.9886218 C9.09854878,21.9886218 9.92847858,21.3356017 10.1992981,20.4384903 L10.2049098,20.4450757 C10.2049098,20.4450757 10.3879687,20.0317038 10.7910796,20.0226859 C11.2420671,20.0125969 11.6932842,20.1312272 11.6932842,20.1312272 L11.6877393,20.1237689 L11.6877393,20.1237689 C11.8496771,20.1834352 12.0155638,20.2348852 12.1848984,20.277616 L12.1712944,20.2776377 C12.1712944,20.2776377 12.7720825,20.5063937 12.6881812,21.1204473 C12.6324587,21.5282673 12.4489271,21.8507607 12.3634047,21.9829067 C12.1388753,22.2320787 12.0021203,22.5625104 12.0021203,22.9250167 C12.0021203,23.7007516 12.6283572,24.3296089 13.4008596,24.3296089 C14.173362,24.3296089 14.7995989,23.7007516 14.7995989,22.9250167 C14.7995989,22.5955107 14.6866093,22.2925054 14.4974146,22.052939 L14.4978884,22.0523416 C14.4978884,22.0523416 14.4963981,22.0509435 14.4936066,22.0481387 C14.4732696,22.0226158 14.4520642,21.9978209 14.4300354,21.9737992 C14.3363698,21.8512306 14.1746523,21.5839495 14.1364104,21.163148 C14.0817591,20.5617829 14.6400751,20.2736919 14.6400751,20.2736919 L14.6322166,20.2737044 L14.6322166,20.2737044 C14.6983721,20.2567831 14.7639977,20.2385299 14.8290634,20.2189751 L14.8290634,20.2189751 C14.9846997,20.1888521 15.2582372,20.1629266 15.4541513,20.2930736 C15.6940991,20.4524724 15.8297479,20.7751356 15.8687452,20.8796468 C15.868998,20.8803269 15.869251,20.8810069 15.8695045,20.8816868 C15.8769275,20.9016828 15.8806098,20.913134 15.8806098,20.913134 L15.8812092,20.9123773 C16.1982394,21.7251615 16.9861356,22.3007534 17.9079083,22.3007534 C19.1095786,22.3007534 20.0837249,21.3225308 20.0837249,20.1158321 C20.0837249,19.0172262 19.2762849,18.1079972 18.2248219,17.9539199 L18.230574,17.9466588 C18.230574,17.9466588 18.0528829,17.9732322 17.9462684,17.7548416 C17.8922867,17.6442647 17.9305204,17.5140007 17.9814266,17.4123339 C18.1253802,17.2104705 18.7027143,16.4913409 19.5506236,16.605504 C20.535217,16.7380704 21.0207513,17.0018585 21.0207513,17.0018585 L21.0228031,16.9995701 C21.2814148,17.1925018 21.6017881,17.3066475 21.9487106,17.3066475 C22.8070466,17.3066475 23.5028653,16.6079171 23.5028653,15.7459894 C23.5028653,14.8840618 22.8070466,14.1853314 21.9487106,14.1853314 C21.6711855,14.1853314 21.4106503,14.2583779 21.1851313,14.3863691 L21.1834797,14.3838324 C21.1834797,14.3838324 20.5802811,14.7978697 19.5506236,14.8776866 C18.6643494,14.9463887 18.3075023,14.3763772 18.2253041,14.216293 C18.1456879,13.8971633 18.0354934,13.5902099 17.8980291,13.298755 C17.870923,13.2141334 17.8571088,13.0985108 17.9444589,13.0267435 C18.0953033,12.9028089 18.2280777,12.9441205 18.2280777,12.9441205 L18.2155184,12.9322045 C19.5179792,12.8532369 20.5499713,11.767516 20.5499713,10.4397519 C20.5499713,9.06066767 19.4366613,7.94269899 18.0633238,7.94269899 C16.6902065,7.94269899 15.5770334,9.06030907 15.5766763,10.4390884 C15.5749489,10.4784269 15.559648,10.6196618 15.4305992,10.6903466 C15.3263292,10.7474591 15.1541552,10.676249 15.0577754,10.6268311 L15.0577754,10.6268311 Z M8.66068768,9.8154887 C9.30443965,9.8154887 9.82630372,9.29144088 9.82630372,8.64499513 C9.82630372,7.99854938 9.30443965,7.47450156 8.66068768,7.47450156 C8.01693571,7.47450156 7.49507163,7.99854938 7.49507163,8.64499513 C7.49507163,9.29144088 8.01693571,9.8154887 8.66068768,9.8154887 L8.66068768,9.8154887 Z M5.63008596,16.8384501 C6.48842191,16.8384501 7.18424069,16.1397197 7.18424069,15.277792 C7.18424069,14.4158644 6.48842191,13.7171339 5.63008596,13.7171339 C4.77175,13.7171339 4.07593123,14.4158644 4.07593123,15.277792 C4.07593123,16.1397197 4.77175,16.8384501 5.63008596,16.8384501 L5.63008596,16.8384501 Z"/>
  </g>
</svg>
