<svg xmlns="http://www.w3.org/2000/svg" width="16" height="16" viewBox="0 0 16 16">
  <g fill="none" fill-rule="evenodd">
    <rect width="16" height="16"/>
    <path fill="#FF00FF" fill-rule="nonzero" d="M7.3593002,5.87074282 L9.89470851,8.17066661 C10.0977714,8.35486935 10.4205211,8.33633402 10.6052692,8.14022251 L15.400851,3.04967698 C15.5902199,2.84866043 15.574914,2.52666645 15.3797937,2.34285216 L15.3797937,2.34285216 C15.1787952,2.15350014 14.8558683,2.16982563 14.6700426,2.36708096 L10.2074153,7.10419281 L7.64115478,4.77628229 C7.43562092,4.58983808 7.12630265,4.60535012 6.93821205,4.82501512 L2.66941862,9.81040254 L1.04927066,8.31225156 C0.848290876,8.12640553 0.527899445,8.14603534 0.345902913,8.34285216 L0.345902913,8.34285216 C0.158423417,8.54559843 0.164327204,8.8559539 0.375491023,9.05121711 L2.01853915,10.5705439 L0.324313236,12.5491762 C0.145199981,12.7583568 0.176173845,13.078782 0.379793721,13.2531338 L0.379793721,13.2531338 C0.589548001,13.4327383 0.902969162,13.4108855 1.08880583,13.1938528 L2.75328373,11.2499623 L4.41915373,12.7903924 C4.62580535,12.9814832 4.94133549,12.9724311 5.13088469,12.7624475 L7.54619314,10.0867558 L10.6365336,12.9872446 C10.8410751,13.1792202 11.1697927,13.1771036 11.364375,12.9886853 L14.6777204,9.78029946 C14.8751546,9.58911948 14.8738652,9.26751784 14.6873884,9.07494059 L14.6873884,9.07494059 C14.4952936,8.87656162 14.1783086,8.87189678 13.9817625,9.06221675 L10.996121,11.9532797 L7.84940864,8.99988223 C7.64931009,8.81207653 7.33882058,8.82409264 7.14892342,9.03446174 L4.72918118,11.7150652 L3.4041632,10.4898209 L7.3593002,5.87074282 Z"/>
  </g>
</svg>
