<svg xmlns="http://www.w3.org/2000/svg" width="16" height="16" viewBox="0 0 16 16">
  <g fill="none" fill-rule="evenodd">
    <rect width="16" height="16"/>
    <path fill="#FF00FF" d="M8.50342274,4 L13.9970707,4 C14.5621186,4 15,4.44573523 15,4.9955775 L15,14.0044225 C15,14.555163 14.5489341,15 13.992516,15 L1.00748397,15 C0.448920205,15 0,14.5492199 0,13.9931545 L0,2.00684547 C0,1.44994876 0.443586406,1 0.990777969,1 L5.50899482,1 C5.77211952,1 6.12450577,1.18675866 6.27809143,1.41713715 L7.72190857,3.58286285 C7.88088036,3.82132053 8.22539004,4 8.50342274,4 Z M8.0929445,5 C7.81515348,5 7.46560066,4.82132053 7.29963704,4.58286285 L5.7923186,2.41713715 C5.63197801,2.18675866 5.28485564,2 5.00300269,2 L1.49899359,2 C1.22340704,2 1,2.22900057 1,2.50034732 L1,13.4996527 C1,13.7759869 1.22563934,14 1.49374104,14 L13.506259,14 C13.7789446,14 14,13.7775269 14,13.4903342 L14,5.50966585 C14,5.22818517 13.7718633,5 13.4970149,5 L8.0929445,5 Z"/>
    <circle cx="12" cy="12" r="4" fill="#FF00FF"/>
    <path fill="#FFFFFF" d="M11.6610042,14.3538011 C11.4626786,14.5521313 11.1409232,14.5456701 10.9607558,14.3584979 L9.18955568,12.5184349 C9.00114475,12.3226988 9.00182666,12.0084288 9.20288964,11.8045149 L9.47580791,11.527727 C9.67158298,11.329176 9.9877785,11.3256971 10.1865267,11.5244326 L10.9456673,12.2835247 C11.1424114,12.4802562 11.4666713,12.4757148 11.653455,12.2897739 L14.014974,9.93891034 C14.2091302,9.74563014 14.5199441,9.7572841 14.6989456,9.95369274 L15.0159869,10.3015649 C15.1995777,10.5030092 15.194721,10.8200022 14.9893073,11.0254206 L11.6610042,14.3538011 Z"/>
  </g>
</svg>
