<svg xmlns="http://www.w3.org/2000/svg" width="16" height="16" viewBox="0 0 16 16">
  <g fill="none" fill-rule="evenodd">
    <rect width="16" height="16"/>
    <path fill="#FF00FF" fill-rule="nonzero" d="M3.5,5.5 C2.11928813,5.5 1,6.61928813 1,8 L0,8 C0,6.06700338 1.56700338,4.5 3.5,4.5 L10.7408396,4.5 L10.7408396,2 L14.8902506,5 L10.7408396,8 L10.7408396,5.5 L3.5,5.5 Z M5.14941099,10.5 L12.5,10.5 C13.8807119,10.5 15,9.38071187 15,8 L16,8 C16,9.93299662 14.4329966,11.5 12.5,11.5 L5.14941099,11.5 L5.14941099,14 L1,11 L5.14941099,8 L5.14941099,10.5 Z"/>
  </g>
</svg>
