<svg xmlns="http://www.w3.org/2000/svg" width="16" height="16" viewBox="0 0 16 16">
  <g fill="none" fill-rule="evenodd">
    <rect width="16" height="16"/>
    <path fill="#FF00FF" d="M9,3.91464715 C8.57379328,3.76400469 8.23599531,3.42620672 8.08535285,3 L6.91464715,3 C6.76400469,3.42620672 6.42620672,3.76400469 6,3.91464715 L6,11 C6,12.1045695 6.8954305,13 8,13 L8.08535285,13 C8.29127106,12.4174038 8.84689059,12 9.5,12 C10.3284271,12 11,12.6715729 11,13.5 C11,14.3284271 10.3284271,15 9.5,15 C8.84689059,15 8.29127106,14.5825962 8.08535285,14 L8,14 C6.34314575,14 5,12.6568542 5,11 L5,3.91464715 C4.57379328,3.76400469 4.23599531,3.42620672 4.08535285,3 L2.91464715,3 C2.70872894,3.58259619 2.15310941,4 1.5,4 C0.671572875,4 0,3.32842712 0,2.5 C0,1.67157288 0.671572875,1 1.5,1 C2.15310941,1 2.70872894,1.41740381 2.91464715,2 L4.08535285,2 C4.29127106,1.41740381 4.84689059,1 5.5,1 C6.15310941,1 6.70872894,1.41740381 6.91464715,2 L8.08535285,2 C8.29127106,1.41740381 8.84689059,1 9.5,1 C10.1531094,1 10.7087289,1.41740381 10.9146471,2 L12.0853529,2 C12.2912711,1.41740381 12.8468906,1 13.5,1 C14.3284271,1 15,1.67157288 15,2.5 C15,3.32842712 14.3284271,4 13.5,4 C12.8468906,4 12.2912711,3.58259619 12.0853529,3 L10.9146471,3 C10.7640047,3.42620672 10.4262067,3.76400469 10,3.91464715 L10,6 C10,7.1045695 10.8954305,8 12,8 L12.0853529,8 C12.2912711,7.41740381 12.8468906,7 13.5,7 C14.3284271,7 15,7.67157288 15,8.5 C15,9.32842712 14.3284271,10 13.5,10 C12.8468906,10 12.2912711,9.58259619 12.0853529,9 L12,9 C10.3431458,9 9,7.65685425 9,6 L9,3.91464715 Z"/>
  </g>
</svg>
