<svg xmlns="http://www.w3.org/2000/svg" width="16" height="16" viewBox="0 0 16 16">
  <g fill="none" fill-rule="evenodd">
    <rect width="16" height="16"/>
    <path fill="#FF00FF" d="M8.83585974,0.19298463 L14.4516816,3.44297946 C14.9101024,3.68592288 15.2222222,4.16830091 15.2222222,4.72369564 L15.2222222,4.98719067 L15.2222222,11.3266104 C15.2222222,11.8950379 14.8952554,12.3866057 14.4199858,12.6240352 L8.87806515,15.8471292 C8.65569435,15.9873146 8.48362583,15.9994987 8.20170037,16 L8.20170037,14.2138479 C8.42106841,14.2131795 8.53458318,14.2192078 8.70774213,14.1104346 L13.0170313,11.6036395 C13.3872044,11.4191762 13.641271,11.0368829 13.641271,10.5949397 L13.641271,5.66472545 L13.641271,5.4598777 C13.641271,5.02795972 13.3985481,4.65285106 13.0423879,4.46354233 L8.67471181,1.93669683 C8.50956021,1.84112349 8.31788426,1.7863192 8.11336318,1.7863192 C7.89516288,1.7863192 7.69164272,1.84864237 7.5179833,1.95440798 L3.17332838,4.46721823 C2.82067132,4.65736239 2.58078444,5.03046601 2.58078444,5.4598777 L2.58078444,10.2069654 L2.58078444,10.5949397 L2.58078444,13.0778415 L1.78772311,12.6161822 C1.32029402,12.3762463 1,11.8891899 1,11.3266104 L1,4.72369564 C1,4.17164264 1.30844981,3.69193799 1.76169922,3.44749079 C1.76169922,3.44749079 7.34882803,0.217212137 7.34982894,0.218883 C7.57169928,0.0803684907 7.83343955,0 8.11403046,0 C8.37710529,0 8.62333131,0.0706774877 8.83585974,0.19298463 Z M10.3699346,7.18619287 L10.3699346,9.29922592 C10.3699346,9.48888711 10.2625055,9.65262459 10.1057348,9.73173371 L10.1057348,9.73190096 L8.28026429,10.8063132 L8.28026429,10.806146 C8.20666459,10.8531431 8.11969814,10.8804048 8.02629583,10.8804048 C7.92579759,10.8804048 7.8325603,10.8487946 7.75566017,10.794773 L5.94454652,9.72939222 L5.94454652,9.72922497 C5.79041621,9.6492796 5.68496732,9.48688011 5.68496732,9.29922592 L5.68496732,7.09838677 C5.68496732,6.91441207 5.78645569,6.75452133 5.93596539,6.67307071 L7.77612286,5.59581522 C7.77612286,5.59581522 7.77628789,5.59614972 7.77678295,5.59681872 C7.84972256,5.55049055 7.93602893,5.52389784 8.02844111,5.52389784 C8.11507753,5.52389784 8.19626822,5.5473128 8.26640247,5.58828899 L8.26640247,5.58812174 L10.1164612,6.67139822 L10.1162962,6.67139822 C10.2671261,6.75251433 10.3699346,6.91324132 10.3699346,7.09838677 L10.3699346,7.18619287 Z M11.6172417,5.59671008 L11.6172417,5.59654301 L8.5117051,3.79002404 L8.5117051,3.79019111 C8.39423956,3.72202689 8.25802599,3.68259856 8.11285318,3.68259856 C7.95755976,3.68259856 7.81271878,3.72754017 7.69027589,3.80455906 C7.68961224,3.80355664 7.68911451,3.80288837 7.68911451,3.80288837 L4.60016906,5.59921611 C4.34964227,5.73504335 4.17908497,6.00168575 4.17908497,6.30875889 L4.17908497,14.0320326 L5.7617174,14.8977851 L5.7617174,11.3667781 L7.65493668,12.4734443 C7.78401604,12.5631605 7.94047085,12.6159543 8.10920313,12.6159543 C8.26582384,12.6159543 8.41182621,12.5706786 8.53526457,12.4923231 L8.53543048,12.4923231 L11.5996551,10.7006733 C11.5996551,10.7006733 11.5994892,10.7005062 11.5994892,10.7003392 C11.8624593,10.5685216 12.0431373,10.2953635 12.0431373,9.9794357 L12.0431373,6.45511149 L12.0431373,6.30875889 C12.0431373,6.00001506 11.8704231,5.73170197 11.6172417,5.59671008 L11.6172417,5.59671008 Z"/>
  </g>
</svg>
