<svg xmlns="http://www.w3.org/2000/svg" width="16" height="16" viewBox="0 0 16 16">
  <g fill="none" fill-rule="evenodd">
    <rect width="16" height="16"/>
    <path fill="#25CAAB" d="M2.5,15.5 C1.67157288,15.5 1,14.8284271 1,14 C1,13.1715729 1.67157288,12.5 2.5,12.5 C3.32842712,12.5 4,13.1715729 4,14 C4,14.8284271 3.32842712,15.5 2.5,15.5 Z M15,15.0322581 C15,15.2905848 14.797806,15.5 14.5483871,15.5 C14.2989682,15.5 14.0967742,15.2905848 14.0967742,15.0322581 C14.0967742,7.79910941 8.43534264,1.93548387 1.4516129,1.93548387 C1.20219398,1.93548387 1,1.72606867 1,1.46774194 C1,1.2094152 1.20219398,1 1.4516129,1 C8.93418048,1 15,7.28245593 15,15.0322581 Z M9.5,15.0277778 C9.5,15.2885789 9.28857891,15.5 9.02777778,15.5 C8.76697665,15.5 8.55555556,15.2885789 8.55555556,15.0277778 C8.55555556,11.1157608 5.3842392,7.94444444 1.47222222,7.94444444 C1.21142109,7.94444444 1,7.73302335 1,7.47222222 C1,7.21142109 1.21142109,7 1.47222222,7 C5.90584146,7 9.5,10.5941585 9.5,15.0277778 Z"/>
  </g>
</svg>
