<svg xmlns="http://www.w3.org/2000/svg" width="16" height="16" viewBox="0 0 16 16">
  <g fill="none" fill-rule="evenodd">
    <rect width="16" height="16"/>
    <path fill="#FF00FF" d="M1,1 C1.55228475,1 2,1.44771525 2,2 C2,2.55228475 1.55228475,3 1,3 C0.44771525,3 6.76353751e-17,2.55228475 0,2 C-6.76353751e-17,1.44771525 0.44771525,1 1,1 Z M4.5,1.5 L15.5,1.5 C15.7761424,1.5 16,1.72385763 16,2 C16,2.27614237 15.7761424,2.5 15.5,2.5 L4.5,2.5 C4.22385763,2.5 4,2.27614237 4,2 C4,1.72385763 4.22385763,1.5 4.5,1.5 Z M1,5 C1.55228475,5 2,5.44771525 2,6 C2,6.55228475 1.55228475,7 1,7 C0.44771525,7 6.76353751e-17,6.55228475 0,6 C-6.76353751e-17,5.44771525 0.44771525,5 1,5 Z M4.5,5.5 L15.5,5.5 C15.7761424,5.5 16,5.72385763 16,6 C16,6.27614237 15.7761424,6.5 15.5,6.5 L4.5,6.5 C4.22385763,6.5 4,6.27614237 4,6 C4,5.72385763 4.22385763,5.5 4.5,5.5 Z M1,9 C1.55228475,9 2,9.44771525 2,10 C2,10.5522847 1.55228475,11 1,11 C0.44771525,11 6.76353751e-17,10.5522847 0,10 C-6.76353751e-17,9.44771525 0.44771525,9 1,9 Z M4.5,9.5 L15.5,9.5 C15.7761424,9.5 16,9.72385763 16,10 C16,10.2761424 15.7761424,10.5 15.5,10.5 L4.5,10.5 C4.22385763,10.5 4,10.2761424 4,10 C4,9.72385763 4.22385763,9.5 4.5,9.5 Z M1,13 C1.55228475,13 2,13.4477153 2,14 C2,14.5522847 1.55228475,15 1,15 C0.44771525,15 6.76353751e-17,14.5522847 0,14 C-6.76353751e-17,13.4477153 0.44771525,13 1,13 Z M4.5,13.5 L15.5,13.5 C15.7761424,13.5 16,13.7238576 16,14 C16,14.2761424 15.7761424,14.5 15.5,14.5 L4.5,14.5 C4.22385763,14.5 4,14.2761424 4,14 C4,13.7238576 4.22385763,13.5 4.5,13.5 Z"/>
  </g>
</svg>
