<svg xmlns="http://www.w3.org/2000/svg" width="16" height="16" viewBox="0 0 16 16">
  <g fill="none" fill-rule="evenodd">
    <rect width="16" height="16"/>
    <path fill="#FF00FF" d="M4.91752587,9.13925146 C4.63507409,10.2102799 3.65976155,11 2.5,11 C1.11928813,11 0,9.88071187 0,8.5 C0,7.11928813 1.11928813,6 2.5,6 C3.70947896,6 4.71835578,6.85887984 4.94999094,8 L11.0500091,8 C11.2816442,6.85887984 12.290521,6 13.5,6 C14.8807119,6 16,7.11928813 16,8.5 C16,9.88071187 14.8807119,11 13.5,11 C12.290521,11 11.2816442,10.1411202 11.0500091,9 L4.94999094,9 C4.94999094,9 4.92229401,9.12117116 4.91752587,9.13925146 Z M2.5,10 C3.32842712,10 4,9.32842712 4,8.5 C4,7.67157288 3.32842712,7 2.5,7 C1.67157288,7 1,7.67157288 1,8.5 C1,9.32842712 1.67157288,10 2.5,10 Z M13.5,10 C14.3284271,10 15,9.32842712 15,8.5 C15,7.67157288 14.3284271,7 13.5,7 C12.6715729,7 12,7.67157288 12,8.5 C12,9.32842712 12.6715729,10 13.5,10 Z"/>
  </g>
</svg>
