<svg xmlns="http://www.w3.org/2000/svg" width="16" height="16" viewBox="0 0 16 16">
  <g fill="none" fill-rule="evenodd">
    <rect width="16" height="16"/>
    <path fill="#FF00FF" d="M1.51304171,8.82019557 C0.113444211,7.42049086 -0.349121009,5.36847623 0.267931722,3.52412355 C0.393636763,3.14839484 0.870649295,3.03606857 1.15080165,3.31622653 L3.37133216,5.53680147 L4.96684441,4.96682708 L5.53677973,3.37135852 L3.31619632,1.15077511 C3.0360398,0.870618592 3.14837352,0.393604659 3.52410635,0.267905865 C5.36848335,-0.349117579 7.42057988,0.113474501 8.82018357,1.5131318 C10.1096302,2.80257844 10.6049153,4.64682971 10.1898782,6.37490019 L15.2098184,11.3947915 C16.2633568,12.4482686 16.2633568,14.1563283 15.2098293,15.2098558 C14.1563037,16.2633814 12.4482032,16.2633814 11.3946776,15.2098558 L6.3747752,10.1899534 C4.64672895,10.6049797 2.80251411,10.109668 1.51304171,8.82019557 Z M2.26727353,8.06599263 C3.35697453,9.15569363 4.94517801,9.53064752 6.39128305,9.0795861 C6.60233269,9.01375662 6.83211617,9.08496475 6.96895669,9.25860272 C7.01121659,9.31222663 7.05398588,9.36072932 7.09818348,9.40492692 L12.148895,14.4556384 C12.7858778,15.0926213 13.8186291,15.0926213 14.455612,14.4556384 C15.092593,13.8186574 15.092593,12.7859638 14.4556138,12.1490217 L9.40490049,7.09835754 C9.3605455,7.05400255 9.31199049,7.01117568 9.25871732,6.96923139 C9.08494767,6.83241496 9.01365462,6.60254205 9.07951046,6.3914079 C9.53058101,4.94527357 9.15564769,3.35703067 8.06595897,2.26734195 C7.17862707,1.37997607 5.96117854,0.967256428 4.76071316,1.08685719 L6.52966168,2.85580571 C6.67540372,3.00154776 6.72411891,3.21822369 6.65478299,3.41232165 L5.88633873,5.5634932 C5.83255811,5.71404587 5.71407448,5.83253104 5.56352252,5.88631362 L3.41230176,6.65480708 C3.21820053,6.72414703 3.00151923,6.67543099 2.85577551,6.52968435 L1.08686273,4.76073617 C0.967244629,5.96117587 1.37994366,7.17859479 2.26727353,8.06599263 Z M12.8001002,13.3334139 C12.50556,13.3334139 12.266788,13.0946419 12.266788,12.8001017 C12.266788,12.5055615 12.50556,12.2667895 12.8001002,12.2667895 C13.0946404,12.2667895 13.3334125,12.5055615 13.3334125,12.8001017 C13.3334125,13.0946419 13.0946404,13.3334139 12.8001002,13.3334139 Z"/>
  </g>
</svg>
