<svg xmlns="http://www.w3.org/2000/svg" width="16" height="16" viewBox="0 0 16 16">
  <g fill="none" fill-rule="evenodd">
    <rect width="16" height="16"/>
    <path fill="#FF00FF" d="M12.66177,6.33974581 C14.4898558,6.36586313 15.9688421,7.83900279 15.9688421,9.64601397 C15.9688109,11.4692793 14.4631579,12.9525894 12.6123977,12.9525894 L3.78445224,12.9525894 C1.6977154,12.9525894 0,11.2800978 0,9.22429609 C0,7.16849441 1.6977154,5.49600279 3.78445224,5.49597207 C3.79867446,5.49597207 3.81292788,5.49609497 3.82730604,5.4962486 C4.02414035,4.57049721 4.52116959,3.72730726 5.24775049,3.0963743 C6.06184795,2.38939385 7.10855361,2 8.19505653,2 C10.6374737,2 12.6283977,3.94116201 12.66177,6.33974581 Z M12.4227142,12.1012817 C13.8978643,12.1012817 15.0443896,11.0762356 15.0443896,9.62294506 C15.0443896,8.16965456 13.8978643,7.1308836 12.4227142,7.1308836 C12.3330456,7.1308836 12.2416928,7.13543109 12.1511821,7.14440315 C12.0512834,7.1541741 11.9519462,7.12022159 11.8798994,7.0513026 C11.8078214,6.9823836 11.770301,6.88562662 11.7773809,6.78693388 L11.779876,6.7525512 C11.7857708,6.67174114 11.7913536,6.59541712 11.7913536,6.52136684 C11.7913536,4.46470483 10.3414324,2.97026079 8.25382225,2.97026079 C5.51505758,2.97026079 4.6499621,5.17816397 4.52735781,6.0636947 C4.50268724,6.24190699 4.33953715,6.36960531 4.1579543,6.35239861 C4.05094455,6.3424433 3.95457028,6.33765001 3.86334221,6.33765001 C2.15215313,6.33765001 0.972905223,7.58646147 0.972905223,9.27225756 C0.972905223,10.9580536 2.25560692,12.1012817 3.966796,12.1012817 L12.4227142,12.1012817 Z"/>
  </g>
</svg>
