<svg xmlns="http://www.w3.org/2000/svg" width="16" height="16" viewBox="0 0 16 16">
  <g fill="none" fill-rule="evenodd">
    <rect width="16" height="16"/>
    <path fill="#FF00FF" d="M4,2 L5,2 L5,7 L4,7 L4,2 Z M5,7 L10,7 L10,8 L5,8 L5,7 Z M10,2 L11,2 L11,7 L10,7 L10,2 Z M6,9 L9,9 L9,15 L6,15 L6,9 Z M6,3 L9,3 L9,6 L6,6 L6,3 Z M12,3 L15,3 L15,6 L12,6 L12,3 Z M0,3 L3,3 L3,6 L0,6 L0,3 Z M7,14 L8,14 L8,10 L7,10 L7,14 Z M13,5 L14,5 L14,4 L13,4 L13,5 Z M7,5 L8,5 L8,4 L7,4 L7,5 Z M1,5 L2,5 L2,4 L1,4 L1,5 Z"/>
  </g>
</svg>
