<svg xmlns="http://www.w3.org/2000/svg" width="16" height="16" viewBox="0 0 16 16">
  <g fill="none" fill-rule="evenodd">
    <rect width="16" height="16"/>
    <path fill="#25CAAB" fill-rule="nonzero" d="M12.66177,6.33974581 C12.6283977,3.94116201 10.6374737,2 8.19505653,2 C7.10855361,2 6.06184795,2.38939385 5.24775049,3.0963743 C4.52116959,3.72730726 4.02414035,4.57049721 3.82730604,5.4962486 C3.81292788,5.49609497 3.79867446,5.49597207 3.78445224,5.49597207 C1.6977154,5.49600279 0,7.16849441 0,9.22429609 C0,11.2800978 1.6977154,12.9525894 3.78445224,12.9525894 L12.6123977,12.9525894 C14.4631579,12.9525894 15.9688109,11.4692793 15.9688421,9.64601397 C15.9688421,7.83900279 14.4898558,6.36586313 12.66177,6.33974581 Z M12.6123977,12.2815894 L3.78445224,12.2815894 C2.07326316,12.2815894 0.681107212,10.9100922 0.681107212,9.22429609 C0.681107212,7.5385 2.07326316,6.16700279 3.78445224,6.16700279 C3.87568031,6.16700279 3.97205458,6.17179609 4.07906433,6.1817514 C4.26064717,6.1989581 4.42379727,6.07125978 4.44846784,5.89304749 C4.57107212,5.00751676 5.01489279,4.19305587 5.69812086,3.59970112 C6.38774269,3.00078492 7.27447953,2.67096927 8.19499415,2.67096927 C10.2826043,2.67096927 11.9810058,4.34413687 11.9810058,6.40079888 C11.9810058,6.47484916 11.975423,6.55117318 11.9695283,6.63198324 L11.9670331,6.66636592 C11.9599532,6.76505866 11.9974737,6.86181564 12.0695517,6.93073464 C12.1415984,6.99965363 12.2409357,7.03360615 12.3408343,7.0238352 C12.431345,7.01486313 12.5226979,7.01031564 12.6123665,7.01031564 C14.0875166,7.01031564 15.2876725,8.19266201 15.2876725,9.64595251 C15.2876725,11.099243 14.0875478,12.2815894 12.6123977,12.2815894 Z"/>
  </g>
</svg>
