<svg xmlns="http://www.w3.org/2000/svg" width="16" height="16" viewBox="0 0 16 16">
  <g fill="none" fill-rule="evenodd">
    <rect width="16" height="16"/>
    <path fill="#FF00FF" d="M1,7.71511628 C1.16279151,7.71511628 1.30523195,7.67054308 1.42732558,7.58139535 C1.54941922,7.49224762 1.65116238,7.37500073 1.73255814,7.22965116 C1.8139539,7.0843016 1.8749998,6.91860558 1.91569767,6.73255814 C1.95639555,6.5465107 1.97674419,6.35659012 1.97674419,6.1627907 L1.97674419,3.53488372 C1.97674419,3.29069645 2.01259654,3.07364436 2.08430233,2.88372093 C2.15600811,2.6937975 2.24903044,2.5329464 2.36337209,2.40116279 C2.47771375,2.26937919 2.6085264,2.16957398 2.75581395,2.10174419 C2.90310151,2.03391439 3.05232483,2 3.20348837,2 L4.26816901,2 L4.26816901,2.73255814 L3.59883721,2.73255814 C3.38953384,2.73255814 3.24515544,2.83430131 3.16569767,3.0377907 C3.08623991,3.24128009 3.04651163,3.52519198 3.04651163,3.88953488 L3.04651163,6.37790698 C3.04651163,6.61821826 3.02131808,6.83139442 2.97093023,7.01744186 C2.92054238,7.2034893 2.85174462,7.36627837 2.76453488,7.50581395 C2.67732515,7.64534953 2.57461299,7.76162744 2.45639535,7.85465116 C2.3381777,7.94767488 2.20930302,8.01937959 2.06976744,8.06976744 C2.20930302,8.1434111 2.3381777,8.21511581 2.45639535,8.30813953 C2.57461299,8.40116326 2.67732515,8.51744116 2.76453488,8.65697674 C2.85174462,8.79651233 2.92054238,8.96027038 2.97093023,9.14825581 C3.02131808,9.33624125 3.04651163,9.54844843 3.04651163,9.78488372 L3.04651163,12.2151163 C3.04651163,12.5794592 3.08623991,12.8633711 3.16569767,13.0668605 C3.24515544,13.2703499 3.38953384,13.372093 3.59883721,13.372093 L4.26816901,13.372093 L4.26816901,14.1104651 L3.20348837,14.1104651 C3.05232483,14.1104651 2.90310151,14.0765507 2.75581395,14.0087209 C2.6085264,13.9408911 2.47771375,13.8410859 2.36337209,13.7093023 C2.24903044,13.5775187 2.15600811,13.4166676 2.08430233,13.2267442 C2.01259654,13.0368208 1.97674419,12.8197687 1.97674419,12.5755814 L1.97674419,10 C1.97674419,9.80620058 1.95639555,9.61724898 1.91569767,9.43313953 C1.8749998,9.24903009 1.8139539,9.08430305 1.73255814,8.93895349 C1.65116238,8.79360392 1.54941922,8.67635703 1.42732558,8.5872093 C1.30523195,8.49806157 1.16279151,8.45348837 1,8.45348837 L1,7.71511628 Z M15.268169,7.71511628 L15.268169,8.45348837 C15.1053775,8.45348837 14.9629371,8.49806157 14.8408434,8.5872093 C14.7187498,8.67635703 14.6170066,8.79360392 14.5356109,8.93895349 C14.4542151,9.08430305 14.3931692,9.24903009 14.3524713,9.43313953 C14.3117735,9.61724898 14.2914248,9.80620058 14.2914248,10 L14.2914248,12.5755814 C14.2914248,12.8197687 14.2555725,13.0368208 14.1838667,13.2267442 C14.1121609,13.4166676 14.0191386,13.5775187 13.9047969,13.7093023 C13.7904553,13.8410859 13.6596426,13.9408911 13.5123551,14.0087209 C13.3650675,14.0765507 13.2158442,14.1104651 13.0646806,14.1104651 L12,14.1104651 L12,13.372093 L12.6693318,13.372093 C12.8786352,13.372093 13.0230136,13.2703499 13.1024713,13.0668605 C13.1819291,12.8633711 13.2216574,12.5794592 13.2216574,12.2151163 L13.2216574,9.78488372 C13.2216574,9.54844843 13.2468509,9.33624125 13.2972388,9.14825581 C13.3476266,8.96027038 13.4164244,8.79651233 13.5036341,8.65697674 C13.5908439,8.51744116 13.693556,8.40116326 13.8117737,8.30813953 C13.9299913,8.21511581 14.058866,8.1434111 14.1984016,8.06976744 C14.058866,8.01937959 13.9299913,7.94767488 13.8117737,7.85465116 C13.693556,7.76162744 13.5908439,7.64534953 13.5036341,7.50581395 C13.4164244,7.36627837 13.3476266,7.2034893 13.2972388,7.01744186 C13.2468509,6.83139442 13.2216574,6.61821826 13.2216574,6.37790698 L13.2216574,3.88953488 C13.2216574,3.52519198 13.1819291,3.24128009 13.1024713,3.0377907 C13.0230136,2.83430131 12.8786352,2.73255814 12.6693318,2.73255814 L12,2.73255814 L12,2 L13.0646806,2 C13.2158442,2 13.3650675,2.03391439 13.5123551,2.10174419 C13.6596426,2.16957398 13.7904553,2.26937919 13.9047969,2.40116279 C14.0191386,2.5329464 14.1121609,2.6937975 14.1838667,2.88372093 C14.2555725,3.07364436 14.2914248,3.29069645 14.2914248,3.53488372 L14.2914248,6.1627907 C14.2914248,6.35659012 14.3117735,6.5465107 14.3524713,6.73255814 C14.3931692,6.91860558 14.4542151,7.0843016 14.5356109,7.22965116 C14.6170066,7.37500073 14.7187498,7.49224762 14.8408434,7.58139535 C14.9629371,7.67054308 15.1053775,7.71511628 15.268169,7.71511628 Z M9.938228,4 L11,4 L6.061772,12 L5,12 L9.938228,4 Z"/>
  </g>
</svg>
