<svg xmlns="http://www.w3.org/2000/svg" width="863" height="457" viewBox="0 0 863 457" xmlns:xlink="http://www.w3.org/1999/xlink">
  <defs>
    <path id="a" d="M310.031797,35.5966418 C307.057878,33.0145824 303.174616,31.4516129 298.926136,31.4516129 C289.568675,31.4516129 281.982955,39.0338873 281.982955,48.3870968 C281.982955,49.2408448 282.046157,50.0798378 282.168141,50.8996562 C281.509596,50.8379845 280.842289,50.8064516 280.167614,50.8064516 C268.470787,50.8064516 258.988636,60.2842946 258.988636,71.9758065 C258.988636,83.0560831 267.505246,92.1481028 278.352273,93.0684841 L278.352273,93.0684841 L278.352273,93.1451613 L360.647727,93.1451613 L360.647727,93.0684841 C371.494754,92.1481028 380.011364,83.0560831 380.011364,71.9758065 C380.011364,62.5917018 373.90263,54.6337202 365.443104,51.8580965 C365.473326,51.3097751 365.488636,50.7574812 365.488636,50.2016129 C365.488636,33.8334963 352.213625,20.5645161 335.838068,20.5645161 C324.775201,20.5645161 315.127416,26.6204451 310.031797,35.5966418 L310.031797,35.5966418 Z"/>
    <mask id="b" width="121.023" height="72.581" x="0" y="0" fill="white">
      <use xlink:href="#a"/>
    </mask>
  </defs>
  <g fill="none" fill-rule="evenodd">
    <text fill="#244458" font-family="OpenSans-Bold, Open Sans" font-size="14" font-weight="bold">
      <tspan x="20" y="34">What is The tube</tspan>
    </text>
    <text fill="#244458" font-family="OpenSans, Open Sans" font-size="11">
      <tspan x="20" y="50">“</tspan> <tspan x="23.851" y="50" font-family="OpenSans-Bold, Open Sans" font-weight="bold">The Tube</tspan> <tspan x="73.319" y="50">” is a mechanism to share repositories with your team without a central server.</tspan>  <tspan x="20" y="80">Think of it as a “tunnel” through the internet that lets you push/pull branches with your team.</tspan> <tspan x="20" y="95">It is like a “ad-hoc VPN” set up only for Plastic SCM.</tspan>  <tspan x="20" y="125">Privacy is guaranteed since your repositories will be never published online. Repositories stay on your computer and the “</tspan> <tspan x="641.307" y="125" font-family="OpenSans-Bold, Open Sans" font-weight="bold">tube</tspan> <tspan x="666.771" y="125">” let’s your team mates push or pull </tspan> <tspan x="20" y="140">from them.</tspan>  <tspan x="20" y="170">Repositories are only available when your Plastic server is connected to the tube.</tspan>  <tspan x="20" y="200">You don’t need to tweak your router configuration or open any ports, just connect to </tspan> <tspan x="453.947" y="200" font-family="OpenSans-Bold, Open Sans" font-weight="bold">The Tube</tspan> <tspan x="503.415" y="200">.</tspan>
    </text>
    <g fill="#244458" transform="translate(20 389)">
      <text font-family="OpenSans-Bold, Open Sans" font-size="14" font-weight="bold">
        <tspan x="2" y="15">Configure your access to The Tube</tspan>
      </text>
      <text font-family="OpenSans, Open Sans" font-size="11">
        <tspan x="0" y="34">All you need to do is to enter your login information to www.plasticscm.com. If you signed up using a Google, Facebook, Twitter </tspan> <tspan x="0" y="49">or Yahoo account, then you’ll need to create a password first.</tspan>
      </text>
    </g>
    <g transform="translate(112 218)">
      <g fill="#A3DDF5" transform="translate(159.75 101.613)" opacity=".5">
        <rect width="9.77" height="22.177" x=".359" y=".23"/>
        <rect width="9.77" height="22.177" x="310.588" y=".23"/>
      </g>
      <g opacity=".5" transform="translate(133.73 83.468)">
        <rect width="285.614" height="10.138" x="43.568" y="47.177" fill="#9ADAF4"/>
        <g transform="matrix(-1 0 0 1 44.942 38.652)">
          <path fill="#9ADAF4" d="M18.8885028,2.53456221 L1.95398305,2.53456221 L1.95398305,18.375576 C11.3066601,18.375576 18.8885028,11.2833126 18.8885028,2.53456221 L18.8885028,2.53456221 L18.8885028,2.53456221 Z M1.95398305,8.4749424 C5.59539418,8.4749424 8.54734115,5.8153436 8.54734115,2.53456221 L1.95398305,2.53456221 L1.95398305,8.4749424 L1.95398305,8.4749424 Z"/>
          <path fill="#00AFE5" d="M14.0784678 1.26728111L10.5493191 1.26728111 10.5493191 1.26728111C10.5332933.91646957 10.223821.633640553 9.84439972.633640553 9.46228361.633640553 9.15528726.914804241 9.13946866 1.26728111L8.39881587 1.26728111C8.02242298 1.26728111 7.72768578 1.55362951 7.72768578 1.90685817L7.72768578 3.16226625C7.72768578 3.52091677 8.02816096 3.80184332 8.39881587 3.80184332L9.13948033 3.80184332C9.15550618 4.15265485 9.46497846 4.43548387 9.84439972 4.43548387 10.2265158 4.43548387 10.5335122 4.15432018 10.5493308 3.80184332L14.0784795 3.80184332C14.0945054 4.15265485 14.4039776 4.43548387 14.7833989 4.43548387 15.165515 4.43548387 15.4725113 4.15432018 15.4883299 3.80184332L19.0174787 3.80184332C19.0335045 4.15265485 19.3429768 4.43548387 19.7223981 4.43548387 20.1045142 4.43548387 20.4115105 4.15432018 20.4273291 3.80184332L20.4273291 3.80184332 21.1679819 3.80184332C21.5443748 3.80184332 21.839112 3.51549491 21.839112 3.16226625L21.839112 1.90685817C21.839112 1.54820766 21.5386368 1.26728111 21.1679819 1.26728111L20.4273175 1.26728111C20.4112916.91646957 20.1018193.633640553 19.7223981.633640553 19.340282.633640553 19.0332856.914804241 19.017467 1.26728111L15.4883183 1.26728111C15.4722924.91646957 15.1628201.633640553 14.7833989.633640553 14.4012828.633640553 14.0942864.914804241 14.0784678 1.26728111L14.0784678 1.26728111zM.651327683 13.6548549L.651327683 16.9816722C.300018285 16.9880537 0 17.2834378 0 17.6468894 0 18.0129812.290553744 18.3059504.651327683 18.3121129L.651327683 18.4385295C.651327683 19.1047479 1.19356883 19.6428571 1.86245718 19.6428571L2.04550892 19.6428571C2.71681635 19.6428571 3.25663842 19.1036613 3.25663842 18.4385295L3.25663842 18.3121066C3.60794781 18.3057251 3.9079661 18.010341 3.9079661 17.6468894 3.9079661 17.2807976 3.61741235 16.9878284 3.25663842 16.9816659L3.25663842 13.6548485C3.60794781 13.648467 3.9079661 13.3530829 3.9079661 12.9896313 3.9079661 12.6235395 3.61741235 12.3305704 3.25663842 12.3244078L3.25663842 8.99759047C3.60794781 8.99120898 3.9079661 8.69582488 3.9079661 8.33237327 3.9079661 7.96628143 3.61741235 7.67331229 3.25663842 7.66714974L3.25663842 7.54073315C3.25663842 6.87451477 2.71439727 6.33640553 2.04550892 6.33640553L1.86245718 6.33640553C1.19114975 6.33640553.651327683 6.87560137.651327683 7.54073315L.651327683 7.66715608C.300018285 7.67353756 0 7.96892166 0 8.33237327 0 8.69846511.290553744 8.99143425.651327683 8.99759681L.651327683 12.3244141C.300018285 12.3307956 0 12.6261797 0 12.9896313 0 13.3557232.290553744 13.6486923.651327683 13.6548549z"/>
        </g>
        <g transform="translate(327.49 39.055)">
          <path fill="#9ADAF4" d="M18.8885028,2.13133641 L1.95398305,2.13133641 L1.95398305,17.9723502 C11.3066601,17.9723502 18.8885028,10.8800868 18.8885028,2.13133641 L18.8885028,2.13133641 L18.8885028,2.13133641 Z M1.95398305,8.07171659 C5.59539418,8.07171659 8.54734115,5.41211779 8.54734115,2.13133641 L1.95398305,2.13133641 L1.95398305,8.07171659 L1.95398305,8.07171659 Z"/>
          <path fill="#00AFE5" d="M12.7345225.8640553L9.20537375.8640553 9.20537375.8640553C9.1893479.513243763 8.87987562.230414747 8.50045436.230414747 8.11833826.230414747 7.81134191.511578434 7.79552331.8640553L7.05487052.8640553C6.67847762.8640553 6.38374043 1.15040371 6.38374043 1.50363237L6.38374043 2.75904045C6.38374043 3.11769096 6.6842156 3.39861751 7.05487052 3.39861751L7.79553498 3.39861751C7.81156083 3.74942905 8.12103311 4.03225806 8.50045436 4.03225806 8.88257047 4.03225806 9.18956682 3.75109438 9.20538542 3.39861751L12.7345342 3.39861751C12.75056 3.74942905 13.0600323 4.03225806 13.4394535 4.03225806 13.8215696 4.03225806 14.128566 3.75109438 14.1443846 3.39861751L17.6735333 3.39861751C17.6895592 3.74942905 17.9990315 4.03225806 18.3784527 4.03225806 18.7605688 4.03225806 19.0675652 3.75109438 19.0833838 3.39861751L19.0833838 3.39861751 19.8240366 3.39861751C20.2004295 3.39861751 20.4951666 3.11226911 20.4951666 2.75904045L20.4951666 1.50363237C20.4951666 1.14498185 20.1946915.8640553 19.8240366.8640553L19.0833721.8640553C19.0673463.513243763 18.757874.230414747 18.3784527.230414747 17.9963366.230414747 17.6893403.511578434 17.6735217.8640553L14.1443729.8640553C14.1283471.513243763 13.8188748.230414747 13.4394535.230414747 13.0573374.230414747 12.7503411.511578434 12.7345225.8640553L12.7345225.8640553zM.651327683 13.2516291L.651327683 16.5784464C.300018285 16.5848279 0 16.880212 0 17.2436636 0 17.6097554.290553744 17.9027246.651327683 17.9088871L.651327683 18.0353037C.651327683 18.7015221 1.19356883 19.2396313 1.86245718 19.2396313L2.04550892 19.2396313C2.71681635 19.2396313 3.25663842 18.7004355 3.25663842 18.0353037L3.25663842 17.9088808C3.60794781 17.9024993 3.9079661 17.6071152 3.9079661 17.2436636 3.9079661 16.8775718 3.61741235 16.5846026 3.25663842 16.5784401L3.25663842 13.2516227C3.60794781 13.2452412 3.9079661 12.9498571 3.9079661 12.5864055 3.9079661 12.2203137 3.61741235 11.9273445 3.25663842 11.921182L3.25663842 8.59436466C3.60794781 8.58798318 3.9079661 8.29259908 3.9079661 7.92914747 3.9079661 7.56305563 3.61741235 7.27008648 3.25663842 7.26392393L3.25663842 7.13750734C3.25663842 6.47128897 2.71439727 5.93317972 2.04550892 5.93317972L1.86245718 5.93317972C1.19114975 5.93317972.651327683 6.47237557.651327683 7.13750734L.651327683 7.26393027C.300018285 7.27031175 0 7.56569585 0 7.92914747 0 8.2952393.290553744 8.58820845.651327683 8.594371L.651327683 11.9211883C.300018285 11.9275698 0 12.2229539 0 12.5864055 0 12.9524974.290553744 13.2454665.651327683 13.2516291z"/>
        </g>
        <path fill="#00AFE5" d="M187.323001,41.7579241 C187.206388,40.983054 186.529734,40.3733362 185.712445,40.3733362 C184.871912,40.3733362 184.188876,40.9991192 184.095108,41.8055056 L181.305111,40.2849029 C180.708795,39.9598993 179.824514,40.058033 179.316119,40.4965178 L179.925961,39.9705362 C179.422265,40.404968 179.097782,41.295936 179.211704,41.9515164 L179.37959,42.9176464 C179.492606,43.5680193 180.12843,44.1046796 180.79772,44.1046796 L184.084125,44.1046796 L184.084125,47.5230415 L187.340764,47.5230415 L187.340764,44.1046796 L190.533086,44.1046796 C191.202376,44.1046796 191.8382,43.5680193 191.951216,42.9176464 L192.119102,41.9515164 C192.233024,41.295936 191.908541,40.404968 191.404845,39.9705362 L192.014687,40.4965178 C191.506292,40.058033 190.622011,39.9598993 190.025695,40.2849029 L187.323001,41.7579241 Z"/>
        <rect width="20.191" height="9.505" y="1.901" fill="#9ADAF4" opacity=".9"/>
        <polygon fill="#278CB2" points="0 1.901 10.125 1.901 15.41 11.406 0 11.406" opacity=".268"/>
        <g transform="translate(18.237)">
          <path fill="#9ADAF4" d="M-4.26325641e-14,15.8410138 L16.3961333,15.8410138 L16.3961333,0.633640553 C7.34079893,0.633640553 -4.26325641e-14,7.44221348 -4.26325641e-14,15.8410138 L-4.26325641e-14,15.8410138 L-4.26325641e-14,15.8410138 Z M16.3961333,10.1382488 C12.8704908,10.1382488 10.0123929,12.6914637 10.0123929,15.8410138 L16.3961333,15.8410138 L16.3961333,10.1382488 L16.3961333,10.1382488 Z" opacity=".9" transform="matrix(-1 0 0 1 17.586 1.267)"/>
          <path fill="#00AFE5" d="M.651327683 6.97004608L.651327683 10.1382488.627882362 10.1382488C.281051284 10.1382488 0 10.4219394 0 10.7718894 0 11.1242792.281112509 11.40553.627882362 11.40553L.651327683 11.40553.651327683 11.4576887C.651327683 12.1282762 1.19356883 12.6728111 1.86245718 12.6728111L2.04550892 12.6728111C2.71681635 12.6728111 3.25663842 12.1287822 3.25663842 11.4576887L3.25663842 11.40553 3.28008374 11.40553C3.62691481 11.40553 3.9079661 11.1218394 3.9079661 10.7718894 3.9079661 10.4194996 3.62685359 10.1382488 3.28008374 10.1382488L3.25663842 10.1382488 3.25663842 6.97004608 3.28008374 6.97004608C3.62691481 6.97004608 3.9079661 6.68635554 3.9079661 6.33640553 3.9079661 5.98401573 3.62685359 5.70276498 3.28008374 5.70276498L3.25663842 5.70276498 3.25663842 2.53456221 3.28008374 2.53456221C3.62691481 2.53456221 3.9079661 2.25087167 3.9079661 1.90092166 3.9079661 1.54853186 3.62685359 1.26728111 3.28008374 1.26728111L3.25663842 1.26728111 3.25663842 1.2151224C3.25663842.54453485 2.71439727 0 2.04550892 0L1.86245718 0C1.19114975 0 .651327683.544028829.651327683 1.2151224L.651327683 1.26728111.627882362 1.26728111C.281051284 1.26728111 0 1.55097164 0 1.90092166 0 2.25331146.281112509 2.53456221.627882362 2.53456221L.651327683 2.53456221.651327683 5.70276498.627882362 5.70276498C.281051284 5.70276498 0 5.98645552 0 6.33640553 0 6.68879533.281112509 6.97004608.627882362 6.97004608L.651327683 6.97004608zM12.0955082 17.1082949L8.7356448 17.1082949 8.7356448 17.1082949 8.7356448 17.1024515C8.7356448 16.7604105 8.43479238 16.4746544 8.06367212 16.4746544 7.68996448 16.4746544 7.39169945 16.7557287 7.39169945 17.1024515L7.39169945 17.1082949 6.71421868 17.1082949C6.353707 17.1082949 6.04775409 17.3946433 6.04775409 17.747872L6.04775409 19.0032801C6.04775409 19.3619306 6.34614045 19.6428571 6.71421868 19.6428571L7.39169945 19.6428571 7.39169945 19.6487006C7.39169945 19.9907415 7.69255186 20.2764977 8.06367212 20.2764977 8.43737977 20.2764977 8.7356448 19.9954234 8.7356448 19.6487006L8.7356448 19.6428571 12.0955082 19.6428571 12.0955082 19.6487006C12.0955082 19.9907415 12.3963606 20.2764977 12.7674809 20.2764977 13.1411885 20.2764977 13.4394535 19.9954234 13.4394535 19.6487006L13.4394535 19.6428571 16.7993169 19.6428571 16.7993169 19.6487006C16.7993169 19.9907415 17.1001693 20.2764977 17.4712896 20.2764977 17.8449972 20.2764977 18.1432623 19.9954234 18.1432623 19.6487006L18.1432623 19.6428571 18.820743 19.6428571C19.1812547 19.6428571 19.4872076 19.3565087 19.4872076 19.0032801L19.4872076 17.747872C19.4872076 17.3892215 19.1888213 17.1082949 18.820743 17.1082949L18.1432623 17.1082949 18.1432623 17.1024515C18.1432623 16.7604105 17.8424099 16.4746544 17.4712896 16.4746544 17.097582 16.4746544 16.7993169 16.7557287 16.7993169 17.1024515L16.7993169 17.1082949 13.4394535 17.1082949 13.4394535 17.1024515C13.4394535 16.7604105 13.1386011 16.4746544 12.7674809 16.4746544 12.3937732 16.4746544 12.0955082 16.7557287 12.0955082 17.1024515L12.0955082 17.1082949 12.0955082 17.1082949z"/>
        </g>
        <g transform="matrix(-1 0 0 1 372.43 0)">
          <rect width="20.191" height="9.505" y="1.901" fill="#9ADAF4" opacity=".9"/>
          <polygon fill="#82C8E4" points="0 1.901 5.862 1.901 13.678 11.406 0 11.406" opacity=".9"/>
          <g transform="translate(18.237)">
            <path fill="#9ADAF4" d="M-8.17124146e-14,15.8410138 L16.3961333,15.8410138 L16.3961333,0.633640553 C7.34079893,0.633640553 -8.17124146e-14,7.44221348 -8.17124146e-14,15.8410138 L-8.17124146e-14,15.8410138 L-8.17124146e-14,15.8410138 Z M16.3961333,10.1382488 C12.8704908,10.1382488 10.0123929,12.6914637 10.0123929,15.8410138 L16.3961333,15.8410138 L16.3961333,10.1382488 L16.3961333,10.1382488 Z" opacity=".9" transform="matrix(-1 0 0 1 17.586 1.267)"/>
            <path fill="#00AFE5" d="M.651327683 6.97004608L.651327683 10.1382488.627882362 10.1382488C.281051284 10.1382488 0 10.4219394 0 10.7718894 0 11.1242792.281112509 11.40553.627882362 11.40553L.651327683 11.40553.651327683 11.4576887C.651327683 12.1282762 1.19356883 12.6728111 1.86245718 12.6728111L2.04550892 12.6728111C2.71681635 12.6728111 3.25663842 12.1287822 3.25663842 11.4576887L3.25663842 11.40553 3.28008374 11.40553C3.62691481 11.40553 3.9079661 11.1218394 3.9079661 10.7718894 3.9079661 10.4194996 3.62685359 10.1382488 3.28008374 10.1382488L3.25663842 10.1382488 3.25663842 6.97004608 3.28008374 6.97004608C3.62691481 6.97004608 3.9079661 6.68635554 3.9079661 6.33640553 3.9079661 5.98401573 3.62685359 5.70276498 3.28008374 5.70276498L3.25663842 5.70276498 3.25663842 2.53456221 3.28008374 2.53456221C3.62691481 2.53456221 3.9079661 2.25087167 3.9079661 1.90092166 3.9079661 1.54853186 3.62685359 1.26728111 3.28008374 1.26728111L3.25663842 1.26728111 3.25663842 1.2151224C3.25663842.54453485 2.71439727 0 2.04550892 0L1.86245718 0C1.19114975 0 .651327683.544028829.651327683 1.2151224L.651327683 1.26728111.627882362 1.26728111C.281051284 1.26728111 0 1.55097164 0 1.90092166 0 2.25331146.281112509 2.53456221.627882362 2.53456221L.651327683 2.53456221.651327683 5.70276498.627882362 5.70276498C.281051284 5.70276498 0 5.98645552 0 6.33640553 0 6.68879533.281112509 6.97004608.627882362 6.97004608L.651327683 6.97004608zM12.0955082 17.1082949L8.7356448 17.1082949 8.7356448 17.1082949 8.7356448 17.1024515C8.7356448 16.7604105 8.43479238 16.4746544 8.06367212 16.4746544 7.68996448 16.4746544 7.39169945 16.7557287 7.39169945 17.1024515L7.39169945 17.1082949 6.71421868 17.1082949C6.353707 17.1082949 6.04775409 17.3946433 6.04775409 17.747872L6.04775409 19.0032801C6.04775409 19.3619306 6.34614045 19.6428571 6.71421868 19.6428571L7.39169945 19.6428571 7.39169945 19.6487006C7.39169945 19.9907415 7.69255186 20.2764977 8.06367212 20.2764977 8.43737977 20.2764977 8.7356448 19.9954234 8.7356448 19.6487006L8.7356448 19.6428571 12.0955082 19.6428571 12.0955082 19.6487006C12.0955082 19.9907415 12.3963606 20.2764977 12.7674809 20.2764977 13.1411885 20.2764977 13.4394535 19.9954234 13.4394535 19.6487006L13.4394535 19.6428571 16.7993169 19.6428571 16.7993169 19.6487006C16.7993169 19.9907415 17.1001693 20.2764977 17.4712896 20.2764977 17.8449972 20.2764977 18.1432623 19.9954234 18.1432623 19.6487006L18.1432623 19.6428571 18.820743 19.6428571C19.1812547 19.6428571 19.4872076 19.3565087 19.4872076 19.0032801L19.4872076 17.747872C19.4872076 17.3892215 19.1888213 17.1082949 18.820743 17.1082949L18.1432623 17.1082949 18.1432623 17.1024515C18.1432623 16.7604105 17.8424099 16.4746544 17.4712896 16.4746544 17.097582 16.4746544 16.7993169 16.7557287 16.7993169 17.1024515L16.7993169 17.1082949 13.4394535 17.1082949 13.4394535 17.1024515C13.4394535 16.7604105 13.1386011 16.4746544 12.7674809 16.4746544 12.3937732 16.4746544 12.0955082 16.7557287 12.0955082 17.1024515L12.0955082 17.1082949 12.0955082 17.1082949z"/>
          </g>
        </g>
      </g>
      <use fill="#FFFFFF" stroke="#51B4D0" stroke-width="9.677" mask="url(#b)" xlink:href="#a"/>
      <g transform="translate(57.921 30.195)">
        <path fill="#062334" d="M40.0714157,0.843002235 C40.0714157,0.539702177 40.3158436,0.293828899 40.6140052,0.293828899 L42.6438145,0.293828899 C42.9434784,0.293828899 43.186404,0.528282578 43.186404,0.843002235 L43.186404,39.6678234 C43.186404,39.9711235 42.9419761,40.2169967 42.6438145,40.2169967 L40.6140052,40.2169967 C40.3143413,40.2169967 40.0714157,39.9825431 40.0714157,39.6678234 L40.0714157,0.843002235 Z M39.5148096,40.4402478 C39.8151579,40.3980366 40.0926562,40.6058668 40.1341523,40.9011267 L40.4166471,42.911182 C40.4583523,43.2079296 40.259989,43.4811208 39.9483322,43.5249213 L1.50135148,48.928292 C1.20100312,48.9705033 0.923504872,48.762673 0.88200879,48.4674131 L0.599513944,46.4573578 C0.557808784,46.1606102 0.756172064,45.887419 1.06782889,45.8436185 L39.5148096,40.4402478 Z" transform="rotate(8 9.22 147.576)"/>
        <polygon fill="#50B5D0" points=".177 48.71 78.679 48.71 75.682 70.391 3.951 70.391"/>
        <polygon fill="#006795" points="57.196 60.27 67.22 70.266 56.285 70.266 50.817 64.554 25.171 70.266 22.958 62.607" opacity=".519"/>
        <polygon fill="#68C6E1" points="22.047 59.881 56.417 59.881 79.197 118.378 73.988 118.378 50.557 64.165 27.34 64.165 5.384 118.378 .265 118.378"/>
      </g>
      <g transform="matrix(-1 0 0 1 85.566 0)">
        <g transform="matrix(-1 0 0 1 84.48 0)">
          <g transform="translate(22.24)">
            <path stroke="#979797" stroke-width=".605"/>
            <polygon fill="#F6B67B" points="16.626 38.85 15.454 51.962 20.011 68.45 28.603 79.614 59.456 76.499 52.03 71.955 31.331 73.383 24.692 63.257 20.141 51.658 20.922 44.518"/>
            <polygon fill="#B0855E" points="53.077 59.447 60.769 60.875 38.377 73.987 29.655 74.507 25.359 65.03 26.01 62.044 33.691 70.612"/>
            <path stroke="#979797" stroke-width=".605"/>
            <path fill="#F6B67B" d="M15.8163523,35.467994 C15.8163523,35.467994 16.2068979,40.4012692 18.9407159,42.9977301 C21.6745339,45.594191 33.2607161,45.5941907 35.6039882,45.5941909 C37.9472603,45.594191 39.1188974,42.348615 39.6396244,40.5310924 C40.1603515,38.7135699 39.7698063,36.3767552 39.7698063,36.3767552 L41.9828971,36.2469322 L41.9828971,16.6436536 C41.9828971,16.6436536 32.4796246,3.14205776 24.1479885,9.89285568 C15.8163523,16.6436536 15.8163523,35.467994 15.8163523,35.467994 Z"/>
            <polygon fill="#B0855D" points="39.799 36.383 36.255 34.949 39.974 38.766"/>
            <path fill="#062334" d="M39.8999881,24.7397245 L41.1630691,24.7384658 C41.1630691,24.7384658 42.8898896,23.4997899 46.0102849,23.0164042 C49.1306802,22.5330185 52.5517778,23.0177024 52.5517778,23.0177024 L52.4305974,24.7095523 L51.6429249,25.192938 C51.6429249,25.192938 52.4631407,31.9905497 46.949433,31.9905495 C41.4357252,31.9905493 40.8601181,25.9784398 40.8601181,25.9784398 L39.9093151,26.0080705 L39.9093012,26.0086514 L39.8999881,26.0083612 L39.8906749,26.0086514 L39.8906611,26.0080705 L38.939858,25.9784398 C38.939858,25.9784398 38.3642509,31.9905493 32.8505432,31.9905495 C27.3368354,31.9905497 28.1570513,25.192938 28.1570513,25.192938 L27.3693787,24.7095523 L27.2481983,23.0177024 C27.2481983,23.0177024 30.6692959,22.5330185 33.7896912,23.0164042 C36.9100865,23.4997899 38.636907,24.7384658 38.636907,24.7384658 L39.8999881,24.7397245 Z M29.5786725,24.8895238 C29.5786725,24.8895238 29.0311122,30.2067666 33.0906555,30.4484594 C37.1501987,30.6901521 37.8166909,26.0375649 37.8166909,26.0375649 C37.8166909,26.0375649 36.7260671,25.2822747 34.6660006,24.9197354 C32.6059342,24.5571961 29.5786725,24.8895238 29.5786725,24.8895238 Z M50.2213037,24.8895238 C50.2213037,24.8895238 47.194042,24.5571961 45.1339755,24.9197354 C43.073909,25.2822747 41.9832852,26.0375649 41.9832852,26.0375649 C41.9832852,26.0375649 42.6497774,30.6901521 46.7093207,30.4484594 C50.7688639,30.2067666 50.2213037,24.8895238 50.2213037,24.8895238 Z"/>
            <path fill="#FF5B00" d="M52.3974423,7.03674887 C52.3974423,7.03674887 49.9239883,17.932249 42.2432607,18.970833 C34.5625332,20.009417 25.9649401,16.3743722 25.9649401,16.3743722 L26.0951219,23.2549932 C26.0951219,23.2549932 21.1482132,22.0865868 19.8463948,25.981277 C18.5445765,29.8759671 19.9765766,32.3426058 19.9765766,32.3426058 C19.9765766,32.3426058 18.293875,32.3334772 17.5127841,34.4106462 C16.7316932,36.4878152 16.6015114,39.0842755 16.6015114,39.0842755 L11.5244206,28.3089635 C11.5244206,28.3089635 8.92078439,19.740643 11.264057,13.1196681 C13.6073296,6.49869323 18.4337188,7.14780845 19.2051477,6.62851627 C19.9765766,6.10922409 19.9862383,-0.381927422 30.5309656,0.137364421 C41.0756929,0.656656263 44.5906016,5.84399972 44.5906016,5.84399972 L43.1530079,8.18081438 L52.3974423,7.03674887 Z"/>
            <path fill="#062334" d="M31.8460809 28.7932669C31.8460804 28.642221 32.1187368 27.7358607 33.3608359 27.7358607 34.602935 27.7358607 35.5117879 27.6452258 35.5117879 27.6452258 35.5117879 27.6452258 34.5726398 25.5583827 32.8761143 26.0742223 31.1795888 26.5900619 31.8460815 28.9443128 31.8460809 28.7932669zM44.2015425 28.7932669C44.2015419 28.642221 44.4741983 27.7358607 45.7162974 27.7358607 46.9583965 27.7358607 47.8672495 27.6452258 47.8672495 27.6452258 47.8672495 27.6452258 46.9281014 25.5583827 45.2315759 26.0742223 43.5350504 26.5900619 44.2015431 28.9443128 44.2015425 28.7932669z" style="mix-blend-mode:multiply" opacity=".572"/>
            <path fill="#B0855D" d="M16.641584,39.2725583 C16.641584,39.2725583 17.5374368,44.3189705 18.6269879,45.8159928 C19.7165389,47.313015 20.5155428,48.7617455 20.5155428,48.7617455 L20.9997877,44.0775157 L16.641584,39.2725583 Z"/>
            <g transform="translate(31.418 134.831)">
              <polygon fill="#062334" points="1.409 .204 .156 7.349 14.649 9.794 18.081 8.055 11.135 3.681 10.127 .828"/>
              <ellipse cx="6.178" cy="4.048" fill="#FFFFFF" rx="1.236" ry="1.232"/>
              <path fill="#278CB2" d="M0.0742947783,9.57619435 L0.210504469,7.26701125 L14.7032155,9.76636237 C14.7032155,9.76636237 14.7576989,8.89819016 15.6839253,7.81151577 C16.6101516,6.72484139 16.7736027,6.69767451 17.99949,6.88784254 C19.2253774,7.07801056 19.6340065,9.74036289 19.2253772,10.5282018 C18.816748,11.3160406 17.5363776,11.8865446 15.6021995,11.6963767 C13.6680214,11.5062089 0.0742947783,9.57619435 0.0742947783,9.57619435 Z"/>
            </g>
            <path fill="#244458" d="M2.55948094,92.2884238 C2.55948094,92.2884238 -2.62548233,99.6422702 2.21381673,102.285059 C7.05311579,104.927849 10.2793151,104.468233 10.2793151,104.468233 L37.7058821,104.468233 L32.0561605,135.147563 L42.5413084,137.215832 L48.993707,99.8720784 C48.993707,99.8720784 50.0380516,97.466426 47.150164,95.1610202 C44.2622763,92.8556143 38.5085589,93.4374624 38.5085589,93.4374624 L2.55948094,92.2884238 Z"/>
            <path fill="#062334" d="M12.1759369,92.6819194 L20.8029261,69.8330647 L25.8800168,65.4190814 L27.7025622,62.0436825 L23.9272896,59.1875757 C23.9272896,59.1875757 25.0933321,54.6437695 22.3595141,52.6964238 C19.625696,50.7490781 16.1107869,49.5806709 13.8976961,51.1385474 C11.6846053,52.6964238 10.3827871,56.850761 10.3827871,56.850761 L1.00969645,92.6819192 L12.1759369,92.6819194 Z"/>
            <polygon fill="#B0855E" points="25.662 65.639 22.836 72.051 21.011 69.692"/>
          </g>
          <g transform="translate(0 65.48)">
            <path fill="#133A51" d="M15.5461104,46.933907 L14.1828759,22.4633115 C14.1828759,22.4633115 13.014389,14.9861852 9.99579826,10.0338027 C6.97720749,5.08142012 1.52426902,-0.842017411 0.550530176,0.226143355 C-0.423208666,1.29430412 0.647904074,3.04220395 0.647904074,3.04220395 C0.647904074,3.04220395 4.640234,7.12063624 5.71134676,11.4903857 C6.78245952,15.8601352 5.51659905,16.9282968 6.87983353,21.103834 C8.24306801,25.2793711 10.1905461,29.1635936 10.1905461,29.1635936 L12.5275196,48.4875956 L20.706927,50.0412842 L28.7889605,45.0889018 L44.8556537,45.9628516 C44.8556537,45.9628516 53.7235274,48.6818054 54.8851651,47.3223292 C56.0468029,45.9628529 49.8341304,39.8297221 37.1562691,38.9712529 C21.3816981,37.903093 15.5461104,46.933907 15.5461104,46.933907 Z"/>
            <g transform="translate(.706 26.755)">
              <polygon fill="#68C6E0" points="21.747 25.811 22.623 20.567 12.009 20.761 11.717 .478 9.672 .381 9.575 25.228"/>
              <path stroke="#68C6E0" stroke-width="2.722" d="M0.0324049948,55.6223661 L46.3824826,55.6223661 C46.3824826,55.6223661 49.7904685,54.8455216 50.8615796,52.2236723 C51.9326908,49.601823 50.6668318,45.2320736 50.6668318,45.2320736 L43.1690417,6.09854186 C43.1690417,6.09854186 42.8769192,3.57379795 41.2215638,2.02010927 C39.5662084,0.466420595 37.1318601,0.369315132 37.1318601,0.369315132 L7.62756902,0.272209594"/>
              <path stroke="#68C6E0" stroke-width="2.722" d="M21.6072839,22.5203685 C21.6072839,22.5203685 23.1584197,19.1216751 30.4683085,16.9853531 C39.2524973,14.4181656 45.374883,19.121675 45.374883,19.121675"/>
            </g>
          </g>
        </g>
        <path fill="#FF5B00" d="M26.4507851,42.3574461 C30.7642584,43.3538779 26.2938238,50.1671023 25.1038936,49.8922306 C23.9139633,49.6173589 22.1373118,41.3610142 26.4507851,42.3574461 L26.4507851,42.3574461 Z"/>
      </g>
      <g fill="#062334" transform="matrix(-1 0 0 1 51.61 67.391)" opacity=".44">
        <path d="M2.51850361.255252097L6.81875911 3.9305836 6.27211616 4.66925333 1.99008238 1.39028093 2.51850361.255252097zM2.21164412 4.89130435C1.90807253 4.89130435 1.66197914 4.64798084 1.66197914 4.34782609 1.66197914 4.04767133 1.90807253 3.80434783 2.21164412 3.80434783 2.5152157 3.80434783 2.76130909 4.04767133 2.76130909 4.34782609 2.76130909 4.64798084 2.5152157 4.89130435 2.21164412 4.89130435zM4.41030402 5.43478261C4.10673244 5.43478261 3.86063905 5.1914591 3.86063905 4.89130435 3.86063905 4.59114959 4.10673244 4.34782609 4.41030402 4.34782609 4.71387561 4.34782609 4.959969 4.59114959 4.959969 4.89130435 4.959969 5.1914591 4.71387561 5.43478261 4.41030402 5.43478261zM3.31097407 6.52173913C3.00740249 6.52173913 2.76130909 6.27841562 2.76130909 5.97826087 2.76130909 5.67810611 3.00740249 5.43478261 3.31097407 5.43478261 3.61454565 5.43478261 3.86063905 5.67810611 3.86063905 5.97826087 3.86063905 6.27841562 3.61454565 6.52173913 3.31097407 6.52173913zM2.48647661 3.26086957C2.33469081 3.26086957 2.21164412 3.13920781 2.21164412 2.98913043 2.21164412 2.83905306 2.33469081 2.7173913 2.48647661 2.7173913 2.6382624 2.7173913 2.76130909 2.83905306 2.76130909 2.98913043 2.76130909 3.13920781 2.6382624 3.26086957 2.48647661 3.26086957zM3.58580656 4.34782609C3.43402077 4.34782609 3.31097407 4.22616433 3.31097407 4.07608696 3.31097407 3.92600958 3.43402077 3.80434783 3.58580656 3.80434783 3.73759235 3.80434783 3.86063905 3.92600958 3.86063905 4.07608696 3.86063905 4.22616433 3.73759235 4.34782609 3.58580656 4.34782609zM2.23078686 7.78783094C2.12328146 7.50761234 1.8090967 7.36764962 1.52903555 7.47521546 1.24897441 7.58278131 1.10909034 7.89714271 1.21659574 8.17736132 1.32410114 8.45757992 1.6382859 8.59754264 1.91834705 8.4899768 2.19840819 8.38241095 2.33829226 8.06804954 2.23078686 7.78783094L2.23078686 7.78783094zM1.95925943 5.56354308C1.85175403 5.28332448 1.53756927 5.14336176 1.25750812 5.25092761.977446977 5.35849345.837562909 5.67285486.945068309 5.95307346 1.05257371 6.23329207 1.36675847 6.37325478 1.64681962 6.26568894 1.92688076 6.1581231 2.06676483 5.84376169 1.95925943 5.56354308L1.95925943 5.56354308zM.612172307 8.11843618C.558419606 7.97832687.401327225 7.90834552.261296653 7.96212844.121266081 8.01591136.0513240463 8.17309206.105076747 8.31320137.158829447 8.45331067.315921828 8.52329203.455952401 8.4695091.595982973 8.41572618.665925007 8.25854548.612172307 8.11843618L.612172307 8.11843618zM1.23705193 6.71414446C1.18329923 6.57403516 1.02620685 6.5040538.886176277 6.55783672.746145705 6.61161965.676203671 6.76880035.729956371 6.90890965.783709072 7.04901896.940801453 7.11900031 1.08083203 7.06521739 1.2208626 7.01143447 1.29080463 6.85425377 1.23705193 6.71414446L1.23705193 6.71414446zM2.34857093 6.57830442C2.29481822 6.43819511 2.13772584 6.36821376 1.99769527 6.42199668 1.8576647 6.4757796 1.78772266 6.6329603 1.84147537 6.77306961 1.89522807 6.91317891 2.05232045 6.98316027 2.19235102 6.92937734 2.33238159 6.87559442 2.40232363 6.71841372 2.34857093 6.57830442L2.34857093 6.57830442z" style="mix-blend-mode:multiply"/>
      </g>
      <g transform="translate(88.956 8.573)">
        <rect width="43.454" height="15.761" x="1.21" y="2.297" fill="#062334"/>
        <rect width="1.635" height="69.022" x="42.931" y="1.21" fill="#244458" transform="matrix(-1 0 0 1 87.497 0)"/>
        <text fill="#4AD5FC" font-family="MavenProBold, Maven Pro" font-size="8.908" font-weight="bold">
          <tspan x="13.331" y="13.593">YOU</tspan>
        </text>
      </g>
      <text fill="#51B4D0" font-family="MavenProBold, Maven Pro" font-size="12.097" font-weight="bold">
        <tspan x="142.161" y="70.065">push/pull</tspan>
      </text>
      <text fill="#51B4D0" font-family="MavenProBold, Maven Pro" font-size="12.097" font-weight="bold">
        <tspan x="443.508" y="70.065">push/pull</tspan>
      </text>
      <g transform="translate(499.824)">
        <g transform="translate(.071)">
          <g transform="matrix(-1 0 0 1 80.044 30.195)">
            <path fill="#062334" d="M40.1071153,0.843002235 C40.1071153,0.539702177 40.3517609,0.293828899 40.6501882,0.293828899 L42.6818058,0.293828899 C42.9817367,0.293828899 43.2248788,0.528282578 43.2248788,0.843002235 L43.2248788,39.6678234 C43.2248788,39.9711235 42.9802331,40.2169967 42.6818058,40.2169967 L40.6501882,40.2169967 C40.3502573,40.2169967 40.1071153,39.9825431 40.1071153,39.6678234 L40.1071153,0.843002235 Z M39.5328871,40.4388737 C39.8332355,40.3966625 40.110764,40.6047084 40.1522971,40.9002314 L40.4350436,42.9120774 C40.4767859,43.2090894 40.2784527,43.4824948 39.9667959,43.5262954 L1.51981522,48.9296661 C1.21946686,48.9718773 0.941938309,48.7638315 0.900405258,48.4683085 L0.617658738,46.4564624 C0.575916423,46.1594504 0.774249582,45.886045 1.08590641,45.8422445 L39.5328871,40.4388737 Z" transform="rotate(8 9.247 147.684)"/>
            <polygon fill="#50B5D0" points=".177 48.71 78.749 48.71 75.749 70.391 3.955 70.391"/>
            <polygon fill="#006795" points="57.247 60.27 67.28 70.266 56.335 70.266 50.863 64.554 25.194 70.266 22.979 62.607" opacity=".519"/>
            <polygon fill="#68C6E1" points="22.067 59.881 56.468 59.881 79.267 118.378 74.054 118.378 50.602 64.165 27.365 64.165 5.389 118.378 .265 118.378"/>
          </g>
          <g transform="matrix(-1 0 0 1 136.93 0)">
            <g transform="translate(22.26)">
              <path stroke="#979797" stroke-width=".605"/>
              <polygon fill="#F6B67B" points="16.641 38.85 15.468 51.962 20.028 68.45 28.628 79.614 59.509 76.499 52.076 71.955 31.359 73.383 24.714 63.257 20.159 51.658 20.941 44.518"/>
              <polygon fill="#B0855E" points="53.124 59.447 60.823 60.875 38.412 73.987 29.682 74.507 25.382 65.03 26.033 62.044 33.721 70.612"/>
              <path stroke="#979797" stroke-width=".605"/>
              <path fill="#F6B67B" d="M15.8304431,35.467994 C15.8304431,35.467994 16.2213366,40.4012692 18.9575901,42.9977301 C21.6938437,45.594191 33.290348,45.5941907 35.6357077,45.5941909 C37.9810675,45.594191 39.1537484,42.348615 39.6749393,40.5310924 C40.1961303,38.7135699 39.8052371,36.3767552 39.8052371,36.3767552 L42.0202996,36.2469322 L42.0202996,16.6436536 C42.0202996,16.6436536 32.5085607,3.14205776 24.1695019,9.89285568 C15.8304431,16.6436536 15.8304431,35.467994 15.8304431,35.467994 Z"/>
              <polygon fill="#B0855D" points="39.834 36.383 36.287 34.949 40.01 38.766"/>
              <path fill="#062334" d="M52.4441231,7.03674887 C52.4441231,7.03674887 49.9684655,17.932249 42.2808952,18.970833 C34.5933249,20.009417 25.9880723,16.3743722 25.9880723,16.3743722 L26.1183701,23.2549932 C26.1183701,23.2549932 21.1670541,22.0865868 19.864076,25.981277 C18.5610979,29.8759671 19.9943738,32.3426058 19.9943738,32.3426058 C19.9943738,32.3426058 18.310173,32.3334772 17.5283862,34.4106462 C16.7465994,36.4878152 16.6163017,39.0842755 16.6163017,39.0842755 L11.5346877,28.3089635 C11.5346877,28.3089635 8.92873191,19.740643 11.2740921,13.1196681 C13.6194523,6.49869323 18.4501414,7.14780845 19.2222575,6.62851627 C19.9943737,6.10922409 20.004044,-0.381927422 30.5581656,0.137364421 C41.1122872,0.656656263 44.6303273,5.84399972 44.6303273,5.84399972 L43.1914528,8.18081438 L52.4441231,7.03674887 Z"/>
              <path fill="#062334" d="M31.8744526 28.7932669C31.874452 28.642221 32.1473513 27.7358607 33.390557 27.7358607 34.6337627 27.7358607 35.5434253 27.6452258 35.5434253 27.6452258 35.5434253 27.6452258 34.6034406 25.5583827 32.9054036 26.0742223 31.2073667 26.5900619 31.8744532 28.9443128 31.8744526 28.7932669zM44.2409216 28.7932669C44.240921 28.642221 44.5138204 27.7358607 45.7570261 27.7358607 47.0002317 27.7358607 47.9098944 27.6452258 47.9098944 27.6452258 47.9098944 27.6452258 46.9699096 25.5583827 45.2718727 26.0742223 43.5738357 26.5900619 44.2409222 28.9443128 44.2409216 28.7932669z" style="mix-blend-mode:multiply" opacity=".572"/>
              <path fill="#B0855D" d="M16.6564099,39.2725583 C16.6564099,39.2725583 17.5530609,44.3189705 18.6435826,45.8159928 C19.7341044,47.313015 20.5338201,48.7617455 20.5338201,48.7617455 L21.0184964,44.0775157 L16.6564099,39.2725583 Z"/>
              <g transform="translate(31.446 134.831)">
                <polygon fill="#062334" points="1.41 .204 .156 7.349 14.662 9.794 18.097 8.055 11.144 3.681 10.136 .828"/>
                <ellipse cx="6.183" cy="4.048" fill="#FFFFFF" rx="1.237" ry="1.232"/>
                <path fill="#278CB2" d="M0.0743609674,9.57619435 L0.210692007,7.26701125 L14.7163146,9.76636237 C14.7163146,9.76636237 14.7708466,8.89819016 15.6978981,7.81151577 C16.6249496,6.72484139 16.7885463,6.69767451 18.0155257,6.88784254 C19.2425052,7.07801056 19.6514984,9.74036289 19.2425051,10.5282018 C18.8335118,11.3160406 17.5520007,11.8865446 15.6160995,11.6963767 C13.6801982,11.5062089 0.0743609674,9.57619435 0.0743609674,9.57619435 Z"/>
              </g>
              <path fill="#244458" d="M2.56176118,92.2884238 C2.56176118,92.2884238 -2.62782137,99.6422702 2.21578901,102.285059 C7.0593994,104.927849 10.2884729,104.468233 10.2884729,104.468233 L37.7394742,104.468233 L32.0847193,135.147563 L42.5792084,137.215832 L49.0373555,99.8720784 C49.0373555,99.8720784 50.0826305,97.466426 47.19217,95.1610202 C44.3017095,92.8556143 38.5428661,93.4374624 38.5428661,93.4374624 L2.56176118,92.2884238 Z"/>
              <path fill="#68C6E0" d="M12.1867844,92.6819194 L20.8214594,69.8330647 L25.9030733,65.4190814 L27.7272424,62.0436825 L23.9486064,59.1875757 C23.9486064,59.1875757 25.1156878,54.6437695 22.3794342,52.6964238 C19.6431805,50.7490781 16.12514,49.5806709 13.9100776,51.1385474 C11.6950151,52.6964238 10.3920371,56.850761 10.3920371,56.850761 L1.01059599,92.6819192 L12.1867844,92.6819194 Z"/>
              <polygon fill="#B0855E" points="25.685 65.639 22.857 72.051 21.029 69.692"/>
            </g>
            <g transform="translate(0 65.48)">
              <path fill="#133A51" d="M15.5599605,46.933907 L14.1955114,22.4633115 C14.1955114,22.4633115 13.0259835,14.9861852 10.0047035,10.0338027 C6.98342347,5.08142012 1.52562699,-0.842017411 0.551020643,0.226143355 C-0.423585702,1.29430412 0.648481291,3.04220395 0.648481291,3.04220395 C0.648481291,3.04220395 4.64436798,7.12063624 5.71643499,11.4903857 C6.78850201,15.8601352 5.52151379,16.9282968 6.88596277,21.103834 C8.25041175,25.2793711 10.1996248,29.1635936 10.1996248,29.1635936 L12.5386804,48.4875956 L20.7253748,50.0412842 L28.8146086,45.0889018 L44.8956155,45.9628516 C44.8956155,45.9628516 53.7713896,48.6818054 54.9340623,47.3223292 C56.096735,45.9628529 49.8785276,39.8297221 37.1893716,38.9712529 C21.4007471,37.903093 15.5599605,46.933907 15.5599605,46.933907 Z"/>
              <g transform="translate(.707 26.755)">
                <polygon fill="#68C6E0" points="21.766 25.811 22.643 20.567 12.02 20.761 11.728 .478 9.681 .381 9.584 25.228"/>
                <path stroke="#68C6E0" stroke-width="2.722" d="M0.0324338644,55.6223661 L46.4238047,55.6223661 C46.4238047,55.6223661 49.8348268,54.8455216 50.9068922,52.2236723 C51.9789576,49.601823 50.7119709,45.2320736 50.7119709,45.2320736 L43.207501,6.09854186 C43.207501,6.09854186 42.9151182,3.57379795 41.258288,2.02010927 C39.6014579,0.466420595 37.1649408,0.369315132 37.1649408,0.369315132 L7.63436442,0.272209594"/>
                <path stroke="#68C6E0" stroke-width="2.722" d="M21.6265338,22.5203685 C21.6265338,22.5203685 23.1790515,19.1216751 30.4954527,16.9853531 C39.2874673,14.4181656 45.4153075,19.121675 45.4153075,19.121675"/>
              </g>
            </g>
          </g>
        </g>
        <g transform="matrix(-1 0 0 1 48.93 9.783)">
          <rect width="43.493" height="15.761" x=".989" y="1.087" fill="#062334"/>
          <rect width="1.637" height="69.022" x="42.845" fill="#244458" transform="matrix(-1 0 0 1 87.327 0)"/>
          <text fill="#4AD5FC" transform="matrix(-1 0 0 1 45.251 0)" font-family="MavenProBold, Maven Pro" font-size="8.908" font-weight="bold">
            <tspan x="6.006" y="12.384">A MATE</tspan>
          </text>
        </g>
      </g>
      <text fill="#51B4D0" font-family="MavenProBold, Maven Pro" font-size="16.935" font-weight="bold">
        <tspan x="270.506" y="111.565">The Internet</tspan>
      </text>
    </g>
  </g>
</svg>
